M48
; DRILL file {KiCad 8.0.2} date 2025-02-22T15:39:24+0100
; FORMAT={-:-/ absolute / metric / decimal}
; #@! TF.CreationDate,2025-02-22T15:39:24+01:00
; #@! TF.GenerationSoftware,Kicad,Pcbnew,8.0.2
; #@! TF.FileFunction,Plated,1,2,PTH
FMAT,2
METRIC
; #@! TA.AperFunction,Plated,PTH,ViaDrill
T1C0.300
; #@! TA.AperFunction,Plated,PTH,ComponentDrill
T2C1.400
%
G90
G05
T1
X153.01Y-41.56
X153.01Y-44.1
X153.01Y-46.64
X153.01Y-49.18
X153.01Y-51.72
X153.01Y-54.26
X153.01Y-56.8
X153.01Y-59.34
X153.01Y-61.88
X153.01Y-64.42
X153.01Y-66.96
X153.01Y-69.5
X153.01Y-72.04
X153.01Y-74.58
X153.01Y-77.12
X153.01Y-79.66
X153.01Y-82.2
X153.01Y-84.74
X153.01Y-87.28
X153.01Y-89.82
X153.01Y-92.36
X153.01Y-94.9
X153.01Y-97.44
X153.01Y-99.98
X153.01Y-102.52
X153.01Y-105.06
X153.01Y-107.6
X153.01Y-110.14
X153.01Y-112.68
X153.01Y-115.22
X153.01Y-117.76
X153.01Y-120.3
X153.01Y-122.84
X153.01Y-125.38
X153.01Y-127.92
X153.01Y-130.46
X153.01Y-133.0
X153.01Y-135.54
X153.01Y-138.08
X154.28Y-140.62
X154.28Y-143.16
X154.28Y-145.7
X154.28Y-148.24
X154.28Y-150.78
X154.28Y-153.32
X154.28Y-155.86
X156.82Y-41.56
X156.82Y-140.62
X159.36Y-41.56
X159.36Y-66.96
X159.36Y-69.5
X159.36Y-72.04
X159.36Y-74.58
X159.36Y-77.12
X159.36Y-79.66
X159.36Y-82.2
X159.36Y-84.74
X159.36Y-87.28
X159.36Y-89.82
X159.36Y-92.36
X159.36Y-94.9
X159.36Y-97.44
X159.36Y-99.98
X159.36Y-102.52
X159.36Y-105.06
X159.36Y-108.87
X159.36Y-112.68
X159.36Y-116.49
X159.36Y-120.3
X159.36Y-122.84
X159.36Y-125.38
X159.36Y-127.92
X159.36Y-130.46
X159.36Y-133.0
X159.36Y-135.54
X159.36Y-138.08
X159.36Y-140.62
X159.36Y-160.94
X161.265Y-69.483
X161.265Y-70.752
X161.265Y-72.022
X161.265Y-73.292
X161.265Y-74.562
X161.9Y-41.56
X161.9Y-66.96
X161.9Y-89.82
X161.9Y-92.36
X161.9Y-94.9
X161.9Y-97.44
X161.9Y-99.98
X161.9Y-102.52
X161.9Y-160.94
X162.535Y-72.022
X162.535Y-73.292
X162.535Y-74.562
X163.17Y-104.047
X164.44Y-41.56
X164.44Y-66.96
X164.44Y-160.94
X164.672Y-102.139
X165.075Y-73.945
X165.075Y-108.87
X165.075Y-112.68
X165.075Y-116.49
X165.075Y-145.065
X165.075Y-148.875
X166.345Y-75.197
X166.345Y-76.468
X166.726Y-104.806
X166.853Y-79.261
X166.98Y-41.56
X166.98Y-66.96
X166.98Y-74.562
X166.98Y-75.832
X166.98Y-143.16
X166.98Y-160.94
X167.615Y-76.468
X167.615Y-83.453
X167.615Y-93.63
X167.615Y-96.787
X168.25Y-75.832
X168.25Y-120.935
X168.25Y-124.11
X168.25Y-131.095
X168.25Y-136.175
X168.377Y-109.505
X168.885Y-76.468
X168.885Y-83.453
X169.52Y-41.56
X169.52Y-66.96
X169.52Y-143.16
X169.52Y-150.78
X169.52Y-153.32
X169.52Y-155.86
X169.52Y-158.4
X169.52Y-160.94
X170.155Y-75.832
X170.155Y-83.453
X170.155Y-103.028
X170.409Y-79.261
X171.425Y-76.485
X171.425Y-83.453
X171.425Y-93.376
X171.425Y-96.787
X171.806Y-151.542
X172.06Y-41.56
X172.06Y-66.96
X173.965Y-72.022
X173.965Y-73.292
X173.965Y-79.642
X173.965Y-80.912
X174.6Y-41.56
X174.6Y-66.96
X175.235Y-69.483
X175.235Y-70.752
X175.235Y-72.022
X175.235Y-73.292
X175.235Y-79.642
X175.235Y-80.912
X175.235Y-96.787
X175.235Y-104.044
X175.235Y-104.755
X176.213Y-122.205
X176.505Y-69.483
X176.505Y-70.752
X176.505Y-72.022
X176.505Y-73.292
X176.505Y-78.373
X176.505Y-79.642
X176.505Y-80.912
X177.14Y-41.56
X177.14Y-66.96
X177.775Y-69.483
X177.775Y-70.752
X177.775Y-72.022
X177.775Y-73.292
X177.775Y-77.102
X177.775Y-78.373
X177.775Y-79.642
X177.775Y-80.912
X179.045Y-90.691
X179.68Y-41.56
X179.68Y-66.96
X179.68Y-143.16
X179.68Y-146.97
X179.68Y-150.78
X179.68Y-157.384
X180.061Y-92.343
X180.823Y-109.505
X180.95Y-124.11
X180.95Y-158.146
X181.077Y-138.334
X181.585Y-69.483
X181.585Y-70.752
X181.585Y-72.022
X181.585Y-73.292
X181.585Y-77.102
X181.585Y-78.373
X181.585Y-79.642
X181.585Y-80.912
X181.712Y-151.542
X182.22Y-41.56
X182.22Y-66.96
X182.855Y-69.483
X182.855Y-70.752
X182.855Y-72.022
X182.855Y-73.292
X182.855Y-77.102
X182.855Y-78.373
X182.855Y-79.642
X182.855Y-80.912
X182.855Y-123.094
X183.49Y-75.832
X183.49Y-161.321
X183.722Y-130.692
X183.744Y-134.905
X184.125Y-69.483
X184.125Y-70.752
X184.125Y-72.022
X184.125Y-73.292
X184.125Y-74.562
X184.405Y-102.139
X184.76Y-41.56
X184.76Y-44.1
X184.76Y-46.64
X184.76Y-49.18
X184.76Y-51.72
X184.76Y-54.26
X184.76Y-56.8
X184.76Y-59.34
X184.76Y-61.88
X184.76Y-64.42
X184.76Y-66.96
X184.76Y-75.197
X184.76Y-86.246
X184.76Y-161.321
X185.395Y-148.24
X186.03Y-93.376
X186.03Y-94.265
X186.284Y-144.049
X186.284Y-145.065
X186.538Y-155.86
X186.665Y-149.891
X187.3Y-75.85
X187.3Y-78.39
X187.3Y-80.93
X187.3Y-83.47
X187.3Y-156.622
X188.57Y-77.12
X188.57Y-79.66
X188.57Y-82.2
X189.84Y-75.85
X189.84Y-78.39
X189.84Y-80.93
X189.84Y-83.47
X189.84Y-89.82
X189.84Y-92.36
X189.84Y-94.9
X189.84Y-97.44
X189.84Y-99.98
X189.84Y-102.52
X189.84Y-104.679
X189.84Y-134.905
X191.11Y-77.12
X191.11Y-79.66
X191.11Y-82.2
X191.491Y-144.049
X191.491Y-149.891
X192.126Y-121.57
X192.126Y-159.67
X192.38Y-75.85
X192.38Y-78.39
X192.38Y-80.93
X192.38Y-83.47
X192.38Y-89.82
X192.38Y-92.36
X192.38Y-94.9
X192.38Y-97.44
X192.38Y-99.98
X192.38Y-102.52
X192.888Y-120.808
X193.015Y-137.572
X193.015Y-142.906
X193.65Y-77.12
X193.65Y-79.66
X193.65Y-82.2
X194.92Y-75.85
X194.92Y-78.39
X194.92Y-80.93
X194.92Y-83.47
X195.174Y-112.934
X195.174Y-137.572
X195.635Y-74.326
X195.936Y-93.63
X195.936Y-138.334
X196.317Y-74.961
X196.698Y-92.868
X197.46Y-69.5
X197.46Y-70.77
X197.46Y-72.04
X197.46Y-73.31
X197.46Y-74.58
X197.46Y-106.457
X198.222Y-84.994
X198.73Y-72.04
X198.73Y-73.31
X198.73Y-74.58
X199.365Y-104.047
X199.492Y-143.668
X199.492Y-158.908
X200.0Y-107.6
X200.0Y-127.92
X200.762Y-155.86
X200.867Y-102.139
X202.54Y-75.215
X202.54Y-76.485
X202.54Y-107.6
X202.54Y-127.92
X202.921Y-104.806
X203.048Y-79.279
X203.175Y-74.58
X203.175Y-75.85
X203.556Y-112.934
X203.81Y-76.485
X203.81Y-83.47
X203.81Y-93.63
X203.81Y-96.805
X204.445Y-75.85
X205.08Y-76.485
X205.08Y-83.47
X205.08Y-107.6
X205.08Y-127.92
X205.08Y-148.24
X206.35Y-75.85
X206.35Y-83.47
X206.35Y-103.028
X206.35Y-156.622
X206.604Y-79.279
X207.62Y-83.47
X207.62Y-93.63
X207.62Y-96.805
X207.62Y-107.6
X207.62Y-127.92
X207.62Y-148.24
X208.509Y-159.67
X209.906Y-106.457
X210.16Y-72.04
X210.16Y-73.31
X210.16Y-79.66
X210.16Y-80.93
X210.16Y-107.6
X210.16Y-127.92
X210.16Y-148.24
X211.43Y-69.5
X211.43Y-70.77
X211.43Y-72.04
X211.43Y-73.31
X211.43Y-79.66
X211.43Y-80.93
X211.43Y-96.805
X211.43Y-104.044
X212.7Y-69.5
X212.7Y-70.77
X212.7Y-72.04
X212.7Y-73.31
X212.7Y-78.39
X212.7Y-79.66
X212.7Y-80.93
X212.7Y-107.6
X212.7Y-127.92
X212.7Y-148.24
X213.97Y-69.5
X213.97Y-70.77
X213.97Y-72.04
X213.97Y-73.31
X213.97Y-77.12
X213.97Y-78.39
X213.97Y-79.66
X213.97Y-80.93
X215.24Y-90.709
X215.24Y-107.6
X215.24Y-115.22
X215.24Y-127.92
X215.24Y-148.24
X216.256Y-92.36
X217.78Y-69.5
X217.78Y-70.77
X217.78Y-72.04
X217.78Y-73.31
X217.78Y-77.12
X217.78Y-78.39
X217.78Y-79.66
X217.78Y-80.93
X217.78Y-107.6
X217.78Y-121.57
X217.78Y-127.92
X217.78Y-148.24
X217.78Y-158.146
X219.05Y-69.5
X219.05Y-70.77
X219.05Y-72.04
X219.05Y-73.31
X219.05Y-77.12
X219.05Y-78.39
X219.05Y-79.66
X219.05Y-80.93
X219.685Y-75.85
X219.685Y-118.776
X220.32Y-69.5
X220.32Y-70.77
X220.32Y-72.04
X220.32Y-73.31
X220.32Y-74.58
X220.32Y-127.92
X220.32Y-148.24
X220.6Y-102.139
X220.955Y-75.215
X220.955Y-86.264
X221.59Y-157.384
X221.844Y-105.06
X221.981Y-121.585
X222.86Y-69.5
X222.86Y-70.77
X222.86Y-72.04
X222.86Y-73.31
X222.86Y-74.58
X222.86Y-89.82
X222.86Y-92.36
X222.86Y-127.92
X222.86Y-148.24
X223.241Y-86.264
X223.749Y-158.4
X224.13Y-72.04
X224.13Y-73.31
X224.13Y-74.58
X224.765Y-104.047
X225.019Y-112.934
X225.4Y-89.82
X225.4Y-92.36
X225.4Y-127.92
X225.4Y-148.24
X225.781Y-93.249
X225.781Y-94.265
X226.267Y-102.139
X227.94Y-75.215
X227.94Y-76.485
X227.94Y-127.92
X227.94Y-148.24
X228.321Y-104.806
X228.448Y-79.279
X228.575Y-74.58
X228.575Y-75.85
X229.21Y-76.485
X229.21Y-83.47
X229.21Y-93.503
X229.21Y-96.805
X229.845Y-75.85
X230.48Y-76.485
X230.48Y-83.47
X230.48Y-111.41
X230.48Y-119.03
X230.48Y-127.92
X230.48Y-136.81
X230.48Y-144.43
X230.48Y-148.24
X231.75Y-75.85
X231.75Y-83.47
X231.75Y-103.028
X231.75Y-110.14
X231.75Y-111.41
X231.75Y-119.03
X231.75Y-120.3
X231.75Y-135.54
X231.75Y-136.81
X231.75Y-144.43
X231.75Y-145.7
X232.004Y-79.279
X233.02Y-83.47
X233.02Y-93.63
X233.02Y-96.805
X233.02Y-110.14
X233.02Y-111.41
X233.02Y-119.03
X233.02Y-120.3
X233.02Y-127.92
X233.02Y-135.54
X233.02Y-136.81
X233.02Y-144.43
X233.02Y-145.7
X233.02Y-148.24
X233.02Y-161.321
X234.29Y-110.14
X234.29Y-111.41
X234.29Y-119.03
X234.29Y-120.3
X234.29Y-135.54
X234.29Y-136.81
X234.29Y-144.43
X234.29Y-145.7
X235.56Y-72.04
X235.56Y-73.31
X235.56Y-79.66
X235.56Y-80.93
X235.56Y-110.14
X235.56Y-111.41
X235.56Y-119.03
X235.56Y-120.3
X235.56Y-127.92
X235.56Y-135.54
X235.56Y-136.81
X235.56Y-144.43
X235.56Y-145.7
X235.56Y-148.24
X236.83Y-69.5
X236.83Y-70.77
X236.83Y-72.04
X236.83Y-73.31
X236.83Y-79.66
X236.83Y-80.93
X236.83Y-96.805
X236.83Y-104.044
X236.83Y-111.41
X236.83Y-112.68
X236.83Y-113.95
X236.83Y-115.22
X236.83Y-116.49
X236.83Y-117.76
X236.83Y-119.03
X236.83Y-136.81
X236.83Y-138.08
X236.83Y-139.35
X236.83Y-140.62
X236.83Y-141.89
X236.83Y-144.43
X236.83Y-160.559
X238.1Y-69.5
X238.1Y-70.77
X238.1Y-72.04
X238.1Y-73.31
X238.1Y-78.39
X238.1Y-79.66
X238.1Y-80.93
X238.1Y-112.68
X238.1Y-113.95
X238.1Y-115.22
X238.1Y-116.49
X238.1Y-117.76
X238.1Y-127.92
X238.1Y-138.08
X238.1Y-139.35
X238.1Y-140.62
X238.1Y-141.89
X238.1Y-148.24
X239.37Y-69.5
X239.37Y-70.77
X239.37Y-72.04
X239.37Y-73.31
X239.37Y-77.12
X239.37Y-78.39
X239.37Y-79.66
X239.37Y-80.93
X240.64Y-90.709
X240.64Y-127.92
X240.64Y-148.24
X241.656Y-92.36
X243.18Y-69.5
X243.18Y-70.77
X243.18Y-72.04
X243.18Y-73.31
X243.18Y-77.12
X243.18Y-78.39
X243.18Y-79.66
X243.18Y-80.93
X243.18Y-94.9
X243.18Y-97.44
X243.18Y-127.92
X243.18Y-148.24
X244.45Y-69.5
X244.45Y-70.77
X244.45Y-72.04
X244.45Y-73.31
X244.45Y-77.12
X244.45Y-78.39
X244.45Y-79.66
X244.45Y-80.93
X244.45Y-154.59
X245.085Y-75.85
X245.72Y-69.5
X245.72Y-70.77
X245.72Y-72.04
X245.72Y-73.31
X245.72Y-74.58
X245.72Y-94.9
X245.72Y-97.44
X246.0Y-102.139
X246.355Y-75.215
X246.355Y-86.264
X246.863Y-142.906
T2
X157.26Y-52.5
X157.26Y-61.2
X162.34Y-52.5
X162.34Y-61.2
X167.42Y-52.5
X167.42Y-61.2
X172.5Y-52.5
X172.5Y-61.2
X177.58Y-52.5
X177.58Y-61.2
X182.66Y-52.5
X182.66Y-61.2
X188.75Y-48.6
X188.75Y-52.1
X188.75Y-57.9
X188.75Y-61.4
X191.25Y-48.6
X191.25Y-52.1
X191.25Y-57.9
X191.25Y-61.4
X197.42Y-52.5
X197.42Y-61.2
X202.5Y-52.5
X202.5Y-61.2
X212.42Y-52.5
X212.42Y-61.2
X217.5Y-52.5
X217.5Y-61.2
X224.92Y-52.5
X224.92Y-61.2
X230.0Y-52.5
X230.0Y-61.2
X237.48Y-52.5
X237.48Y-61.2
X242.56Y-52.5
X242.56Y-61.2
M30
