%TF.GenerationSoftware,KiCad,Pcbnew,8.0.2*%
%TF.CreationDate,2025-02-22T15:35:02+01:00*%
%TF.ProjectId,enclosure,656e636c-6f73-4757-9265-2e6b69636164,1.0.0*%
%TF.SameCoordinates,Original*%
%TF.FileFunction,Copper,L2,Bot*%
%TF.FilePolarity,Positive*%
%FSLAX46Y46*%
G04 Gerber Fmt 4.6, Leading zero omitted, Abs format (unit mm)*
G04 Created by KiCad (PCBNEW 8.0.2) date 2025-02-22 15:35:02*
%MOMM*%
%LPD*%
G01*
G04 APERTURE LIST*
%TA.AperFunction,ComponentPad*%
%ADD10C,2.162000*%
%TD*%
%TA.AperFunction,ComponentPad*%
%ADD11C,2.200000*%
%TD*%
%TA.AperFunction,ViaPad*%
%ADD12C,0.450000*%
%TD*%
%TA.AperFunction,Conductor*%
%ADD13C,0.508000*%
%TD*%
%TA.AperFunction,Conductor*%
%ADD14C,0.254000*%
%TD*%
%TA.AperFunction,Conductor*%
%ADD15C,1.270000*%
%TD*%
G04 APERTURE END LIST*
D10*
%TO.P,J101,1,Pin_1*%
%TO.N,GNDI*%
X182660000Y-61200000D03*
X182660000Y-52500000D03*
%TO.P,J101,2,Pin_2*%
%TO.N,/digital-interface/~{CS_ISO}*%
X177580000Y-61200000D03*
X177580000Y-52500000D03*
%TO.P,J101,3,Pin_3*%
%TO.N,/digital-interface/SCKL_ISO*%
X172500000Y-61200000D03*
X172500000Y-52500000D03*
%TO.P,J101,4,Pin_4*%
%TO.N,/digital-interface/SDI_ISO*%
X167420000Y-61200000D03*
X167420000Y-52500000D03*
%TO.P,J101,5,Pin_5*%
%TO.N,/digital-interface/SDO_ISO*%
X162340000Y-61200000D03*
X162340000Y-52500000D03*
%TO.P,J101,6,Pin_6*%
%TO.N,unconnected-(J101-Pin_6-Pad6)*%
X157260000Y-61200000D03*
X157260000Y-52500000D03*
%TD*%
D11*
%TO.P,F1002,1*%
%TO.N,+24V*%
X188750000Y-61400000D03*
X191250000Y-61400000D03*
X188750000Y-57900000D03*
X191250000Y-57900000D03*
%TO.P,F1002,2*%
%TO.N,/power/IN*%
X188750000Y-52100000D03*
X191250000Y-52100000D03*
X188750000Y-48600000D03*
X191250000Y-48600000D03*
%TD*%
D10*
%TO.P,J104,1,Pin_1*%
%TO.N,/peltier_-*%
X242560000Y-61200000D03*
X242560000Y-52500000D03*
%TO.P,J104,2,Pin_2*%
%TO.N,/peltier_+*%
X237480000Y-61200000D03*
X237480000Y-52500000D03*
%TD*%
%TO.P,J103,1,Pin_1*%
%TO.N,/heater_-*%
X230000000Y-61200000D03*
X230000000Y-52500000D03*
%TO.P,J103,2,Pin_2*%
%TO.N,/heater_+*%
X224920000Y-61200000D03*
X224920000Y-52500000D03*
%TD*%
%TO.P,J105,1,Pin_1*%
%TO.N,/fan_-*%
X217500000Y-61200000D03*
X217500000Y-52500000D03*
%TO.P,J105,2,Pin_2*%
%TO.N,/fan_+*%
X212420000Y-61200000D03*
X212420000Y-52500000D03*
%TD*%
%TO.P,J102,1,Pin_1*%
%TO.N,GND*%
X202500000Y-61200000D03*
X202500000Y-52500000D03*
%TO.P,J102,2,Pin_2*%
%TO.N,/power/IN*%
X197420000Y-61200000D03*
X197420000Y-52500000D03*
%TD*%
D12*
%TO.N,/pwm2/mod_pin*%
X175235000Y-104044000D03*
X163170000Y-104047496D03*
%TO.N,GND*%
X184405000Y-102139000D03*
X170155000Y-103028000D03*
X164672500Y-102139000D03*
%TO.N,+5VA_pwm*%
X166726000Y-104806000D03*
%TO.N,/pwm/mod_pin*%
X211430000Y-104044000D03*
X199365000Y-104047496D03*
%TO.N,GND*%
X220600000Y-102139000D03*
X206350000Y-103028000D03*
X200867500Y-102139000D03*
%TO.N,+5VA_pwm*%
X202921000Y-104806000D03*
%TO.N,/pwm1/mod_pin*%
X236830000Y-104044000D03*
X224765000Y-104047496D03*
%TO.N,GND*%
X246000000Y-102139000D03*
X231750000Y-103028000D03*
X226267500Y-102139000D03*
%TO.N,+5VA_pwm*%
X228321000Y-104806000D03*
%TO.N,GND*%
X183722500Y-130692500D03*
X180823000Y-109505000D03*
X180950000Y-124110000D03*
X182855000Y-123094000D03*
%TO.N,GNDI*%
X168250000Y-136175000D03*
X168377000Y-109505000D03*
X165075000Y-116490000D03*
X168250000Y-120935000D03*
X168250000Y-131095000D03*
X165075000Y-112680000D03*
X165075000Y-108870000D03*
X168250000Y-124110000D03*
%TO.N,/full-bridge/cs*%
X203175000Y-74580000D03*
X220320000Y-74580000D03*
%TO.N,/full-bridge/sel0*%
X202540000Y-75215000D03*
X220955000Y-75215000D03*
%TO.N,/full-bridge/pwm*%
X206350000Y-75850000D03*
X219685000Y-75850000D03*
%TO.N,/full-bridge/in_b*%
X206604000Y-79279000D03*
X203048000Y-79279000D03*
%TO.N,+5VA_full-bridge*%
X220955000Y-86264000D03*
%TO.N,+24V*%
X211430000Y-80930000D03*
X210160000Y-80930000D03*
X217780000Y-80930000D03*
X219050000Y-80930000D03*
X205080000Y-76485000D03*
X217780000Y-77120000D03*
X213970000Y-77120000D03*
X217780000Y-79660000D03*
X207620000Y-83470000D03*
X210160000Y-79660000D03*
X206350000Y-83470000D03*
X203810000Y-83470000D03*
X205080000Y-83470000D03*
X204445000Y-75850000D03*
X219050000Y-78390000D03*
X213970000Y-79660000D03*
X219050000Y-77120000D03*
X212700000Y-79660000D03*
X203810000Y-76485000D03*
X211430000Y-79660000D03*
X212700000Y-78390000D03*
X202540000Y-76485000D03*
X219050000Y-79660000D03*
X203175000Y-75850000D03*
X212700000Y-80930000D03*
X217780000Y-78390000D03*
X213970000Y-80930000D03*
X213970000Y-78390000D03*
%TO.N,GND*%
X220320000Y-73310000D03*
X217780000Y-72040000D03*
X211430000Y-96805000D03*
X213970000Y-70770000D03*
X219050000Y-73310000D03*
X212700000Y-73310000D03*
X217780000Y-70770000D03*
X211430000Y-69500000D03*
X210160000Y-72040000D03*
X212700000Y-70770000D03*
X213970000Y-73310000D03*
X197460000Y-74580000D03*
X197460000Y-70770000D03*
X211430000Y-73310000D03*
X197460000Y-69500000D03*
X219050000Y-69500000D03*
X211430000Y-70770000D03*
X211430000Y-72040000D03*
X213970000Y-72040000D03*
X198730000Y-73310000D03*
X197460000Y-72040000D03*
X207620000Y-96805000D03*
X220320000Y-70770000D03*
X219050000Y-72040000D03*
X216256000Y-92360000D03*
X220320000Y-72040000D03*
X215240000Y-90709000D03*
X203810000Y-96805000D03*
X198730000Y-74580000D03*
X210160000Y-73310000D03*
X197460000Y-73310000D03*
X220320000Y-69500000D03*
X212700000Y-72040000D03*
X213970000Y-69500000D03*
X219050000Y-70770000D03*
X212700000Y-69500000D03*
X217780000Y-73310000D03*
X198730000Y-72040000D03*
X217780000Y-69500000D03*
%TO.N,/full-bridge2/cs*%
X166980000Y-74562500D03*
X184125000Y-74562500D03*
%TO.N,/full-bridge2/sel0*%
X166345000Y-75197500D03*
X184760000Y-75197500D03*
%TO.N,/full-bridge2/pwm*%
X170155000Y-75832500D03*
X183490000Y-75832500D03*
%TO.N,/full-bridge2/in_b*%
X170409000Y-79261500D03*
X166853000Y-79261500D03*
%TO.N,+5VA_full-bridge*%
X184760000Y-86246500D03*
%TO.N,+12VA*%
X175235000Y-80912500D03*
X173965000Y-80912500D03*
X181585000Y-80912500D03*
X182855000Y-80912500D03*
X168885000Y-76467500D03*
X181585000Y-77102500D03*
X177775000Y-77102500D03*
X181585000Y-79642500D03*
X171425000Y-83452500D03*
X173965000Y-79642500D03*
X170155000Y-83452500D03*
X167615000Y-83452500D03*
X168885000Y-83452500D03*
X168250000Y-75832500D03*
X182855000Y-78372500D03*
X177775000Y-79642500D03*
X182855000Y-77102500D03*
X176505000Y-79642500D03*
X167615000Y-76467500D03*
X175235000Y-79642500D03*
X176505000Y-78372500D03*
X166345000Y-76467500D03*
X182855000Y-79642500D03*
X166980000Y-75832500D03*
X176505000Y-80912500D03*
X181585000Y-78372500D03*
X177775000Y-80912500D03*
X177775000Y-78372500D03*
%TO.N,GND*%
X184125000Y-73292500D03*
X181585000Y-72022500D03*
X175235000Y-96787500D03*
X177775000Y-70752500D03*
X182855000Y-73292500D03*
X176505000Y-73292500D03*
X181585000Y-70752500D03*
X175235000Y-69482500D03*
X173965000Y-72022500D03*
X176505000Y-70752500D03*
X177775000Y-73292500D03*
X161265000Y-74562500D03*
X161265000Y-70752500D03*
X175235000Y-73292500D03*
X161265000Y-69482500D03*
X182855000Y-69482500D03*
X175235000Y-70752500D03*
X175235000Y-72022500D03*
X177775000Y-72022500D03*
X162535000Y-73292500D03*
X161265000Y-72022500D03*
X171425000Y-96787500D03*
X184125000Y-70752500D03*
X182855000Y-72022500D03*
X180061000Y-92342500D03*
X184125000Y-72022500D03*
X179045000Y-90691500D03*
X167615000Y-96787500D03*
X162535000Y-74562500D03*
X173965000Y-73292500D03*
X161265000Y-73292500D03*
X184125000Y-69482500D03*
X176505000Y-72022500D03*
X177775000Y-69482500D03*
X182855000Y-70752500D03*
X176505000Y-69482500D03*
X181585000Y-73292500D03*
X162535000Y-72022500D03*
X181585000Y-69482500D03*
%TO.N,/full-bridge1/cs*%
X228575000Y-74580000D03*
X245720000Y-74580000D03*
%TO.N,/full-bridge1/sel0*%
X227940000Y-75215000D03*
X246355000Y-75215000D03*
%TO.N,/full-bridge1/pwm*%
X231750000Y-75850000D03*
X245085000Y-75850000D03*
%TO.N,/full-bridge1/in_b*%
X232004000Y-79279000D03*
X228448000Y-79279000D03*
%TO.N,+5VA_full-bridge*%
X246355000Y-86264000D03*
%TO.N,+24V*%
X236830000Y-80930000D03*
X235560000Y-80930000D03*
X243180000Y-80930000D03*
X244450000Y-80930000D03*
X230480000Y-76485000D03*
X243180000Y-77120000D03*
X239370000Y-77120000D03*
X243180000Y-79660000D03*
X233020000Y-83470000D03*
X235560000Y-79660000D03*
X231750000Y-83470000D03*
X229210000Y-83470000D03*
X230480000Y-83470000D03*
X229845000Y-75850000D03*
X244450000Y-78390000D03*
X239370000Y-79660000D03*
X244450000Y-77120000D03*
X238100000Y-79660000D03*
X229210000Y-76485000D03*
X236830000Y-79660000D03*
X238100000Y-78390000D03*
X227940000Y-76485000D03*
X244450000Y-79660000D03*
X228575000Y-75850000D03*
X238100000Y-80930000D03*
X243180000Y-78390000D03*
X239370000Y-80930000D03*
X239370000Y-78390000D03*
%TO.N,GND*%
X245720000Y-73310000D03*
X243180000Y-72040000D03*
X236830000Y-96805000D03*
X239370000Y-70770000D03*
X244450000Y-73310000D03*
X238100000Y-73310000D03*
X243180000Y-70770000D03*
X236830000Y-69500000D03*
X235560000Y-72040000D03*
X238100000Y-70770000D03*
X239370000Y-73310000D03*
X222860000Y-74580000D03*
X222860000Y-70770000D03*
X236830000Y-73310000D03*
X222860000Y-69500000D03*
X244450000Y-69500000D03*
X236830000Y-70770000D03*
X236830000Y-72040000D03*
X239370000Y-72040000D03*
X224130000Y-73310000D03*
X222860000Y-72040000D03*
X233020000Y-96805000D03*
X245720000Y-70770000D03*
X244450000Y-72040000D03*
X241656000Y-92360000D03*
X245720000Y-72040000D03*
X240640000Y-90709000D03*
X229210000Y-96805000D03*
X224130000Y-74580000D03*
X235560000Y-73310000D03*
X222860000Y-73310000D03*
X245720000Y-69500000D03*
X238100000Y-72040000D03*
X239370000Y-69500000D03*
X244450000Y-70770000D03*
X238100000Y-69500000D03*
X243180000Y-73310000D03*
X224130000Y-72040000D03*
X243180000Y-69500000D03*
%TO.N,GNDI*%
X177140000Y-41560000D03*
X161900000Y-41560000D03*
X166980000Y-41560000D03*
X172060000Y-41560000D03*
%TO.N,+5VA*%
X195936000Y-138334000D03*
X219685000Y-118776000D03*
X181077000Y-138334000D03*
X192888000Y-120808000D03*
%TO.N,GND*%
X234290000Y-136810000D03*
X233020000Y-144430000D03*
X161900000Y-89820000D03*
X192380000Y-97440000D03*
X236830000Y-117760000D03*
X212700000Y-127920000D03*
X235560000Y-145700000D03*
X244450000Y-154590000D03*
X236830000Y-119030000D03*
X207620000Y-127920000D03*
X210160000Y-148240000D03*
X161900000Y-102520000D03*
X233020000Y-119030000D03*
X233020000Y-111410000D03*
X238100000Y-113950000D03*
X215240000Y-127920000D03*
X212700000Y-148240000D03*
X159360000Y-160940000D03*
X192380000Y-94900000D03*
X243180000Y-94900000D03*
X233020000Y-120300000D03*
X154280000Y-143160000D03*
X235560000Y-119030000D03*
X154280000Y-155860000D03*
X220320000Y-148240000D03*
X231750000Y-145700000D03*
X234290000Y-135540000D03*
X236830000Y-115220000D03*
X183744000Y-134905000D03*
X222860000Y-89820000D03*
X236830000Y-113950000D03*
X225400000Y-92360000D03*
X231750000Y-135540000D03*
X154280000Y-150780000D03*
X169520000Y-150780000D03*
X240640000Y-148240000D03*
X189840000Y-99980000D03*
X212700000Y-107600000D03*
X240640000Y-127920000D03*
X227940000Y-148240000D03*
X189840000Y-94900000D03*
X231750000Y-111410000D03*
X166980000Y-143160000D03*
X234290000Y-120300000D03*
X235560000Y-135540000D03*
X238100000Y-127920000D03*
X238100000Y-117760000D03*
X169520000Y-143160000D03*
X161900000Y-92360000D03*
X217780000Y-148240000D03*
X235560000Y-148240000D03*
X205080000Y-127920000D03*
X235560000Y-111410000D03*
X207620000Y-107600000D03*
X192380000Y-89820000D03*
X189840000Y-102520000D03*
X189840000Y-134905000D03*
X161900000Y-94900000D03*
X234290000Y-111410000D03*
X238100000Y-139350000D03*
X234290000Y-119030000D03*
X230480000Y-111410000D03*
X234290000Y-145700000D03*
X238100000Y-115220000D03*
X231750000Y-110140000D03*
X227940000Y-127920000D03*
X192380000Y-92360000D03*
X230480000Y-119030000D03*
X169520000Y-155860000D03*
X234290000Y-144430000D03*
X231750000Y-136810000D03*
X231750000Y-144430000D03*
X230480000Y-148240000D03*
X233020000Y-148240000D03*
X234290000Y-110140000D03*
X200000000Y-127920000D03*
X238100000Y-138080000D03*
X189840000Y-92360000D03*
X215240000Y-107600000D03*
X238100000Y-148240000D03*
X245720000Y-97440000D03*
X215240000Y-115220000D03*
X238100000Y-116490000D03*
X238100000Y-112680000D03*
X207620000Y-148240000D03*
X243180000Y-127920000D03*
X205080000Y-148240000D03*
X230480000Y-127920000D03*
X215240000Y-148240000D03*
X225400000Y-89820000D03*
X231750000Y-119030000D03*
X154280000Y-145700000D03*
X222860000Y-148240000D03*
X235560000Y-136810000D03*
X154280000Y-153320000D03*
X243180000Y-97440000D03*
X233020000Y-135540000D03*
X166980000Y-160940000D03*
X192380000Y-99980000D03*
X233020000Y-145700000D03*
X236830000Y-139350000D03*
X164440000Y-160940000D03*
X243180000Y-148240000D03*
X189840000Y-89820000D03*
X233020000Y-127920000D03*
X202540000Y-127920000D03*
X236830000Y-140620000D03*
X245720000Y-94900000D03*
X200000000Y-107600000D03*
X189840000Y-97440000D03*
X210160000Y-107600000D03*
X236830000Y-136810000D03*
X233020000Y-110140000D03*
X236830000Y-144430000D03*
X238100000Y-141890000D03*
X161900000Y-160940000D03*
X161900000Y-97440000D03*
X236830000Y-138080000D03*
X222860000Y-127920000D03*
X192380000Y-102520000D03*
X236830000Y-112680000D03*
X169520000Y-160940000D03*
X230480000Y-144430000D03*
X235560000Y-127920000D03*
X235560000Y-120300000D03*
X238100000Y-140620000D03*
X225400000Y-127920000D03*
X236830000Y-111410000D03*
X236830000Y-116490000D03*
X205080000Y-107600000D03*
X225400000Y-148240000D03*
X202540000Y-107600000D03*
X154280000Y-148240000D03*
X161900000Y-99980000D03*
X169520000Y-153320000D03*
X210160000Y-127920000D03*
X235560000Y-144430000D03*
X231750000Y-120300000D03*
X169520000Y-158400000D03*
X233020000Y-136810000D03*
X217780000Y-127920000D03*
X230480000Y-136810000D03*
X235560000Y-110140000D03*
X217780000Y-107600000D03*
X236830000Y-141890000D03*
X222860000Y-92360000D03*
X220320000Y-127920000D03*
%TO.N,GNDI*%
X179680000Y-66960000D03*
X156820000Y-140620000D03*
X159360000Y-69500000D03*
X159360000Y-108870000D03*
X184760000Y-46640000D03*
X153010000Y-112680000D03*
X153010000Y-127920000D03*
X159360000Y-99980000D03*
X153010000Y-51720000D03*
X153010000Y-110140000D03*
X153010000Y-44100000D03*
X153010000Y-82200000D03*
X182220000Y-41560000D03*
X159360000Y-138080000D03*
X153010000Y-115220000D03*
X153010000Y-64420000D03*
X156820000Y-41560000D03*
X153010000Y-105060000D03*
X153010000Y-130460000D03*
X159360000Y-92360000D03*
X169520000Y-41560000D03*
X179680000Y-41560000D03*
X159360000Y-84740000D03*
X153010000Y-102520000D03*
X159360000Y-89820000D03*
X159360000Y-112680000D03*
X153010000Y-97440000D03*
X153010000Y-49180000D03*
X184760000Y-66960000D03*
X153010000Y-120300000D03*
X153010000Y-89820000D03*
X159360000Y-79660000D03*
X169520000Y-66960000D03*
X153010000Y-107600000D03*
X184760000Y-49180000D03*
X184760000Y-64420000D03*
X153010000Y-56800000D03*
X159360000Y-97440000D03*
X153010000Y-54260000D03*
X153010000Y-94900000D03*
X159360000Y-41560000D03*
X159360000Y-135540000D03*
X159360000Y-140620000D03*
X159360000Y-130460000D03*
X159360000Y-66960000D03*
X159360000Y-94900000D03*
X153010000Y-122840000D03*
X153010000Y-61880000D03*
X174600000Y-66960000D03*
X159360000Y-74580000D03*
X153010000Y-133000000D03*
X153010000Y-125380000D03*
X159360000Y-133000000D03*
X153010000Y-66960000D03*
X164440000Y-66960000D03*
X174600000Y-41560000D03*
X153010000Y-135540000D03*
X153010000Y-79660000D03*
X159360000Y-72040000D03*
X159360000Y-120300000D03*
X159360000Y-77120000D03*
X184760000Y-59340000D03*
X159360000Y-87280000D03*
X177140000Y-66960000D03*
X159360000Y-102520000D03*
X153010000Y-77120000D03*
X153010000Y-72040000D03*
X154280000Y-140620000D03*
X184760000Y-56800000D03*
X153010000Y-99980000D03*
X159360000Y-122840000D03*
X153010000Y-87280000D03*
X164440000Y-41560000D03*
X153010000Y-41560000D03*
X153010000Y-92360000D03*
X153010000Y-69500000D03*
X153010000Y-138080000D03*
X153010000Y-46640000D03*
X184760000Y-61880000D03*
X184760000Y-54260000D03*
X184760000Y-41560000D03*
X182220000Y-66960000D03*
X166980000Y-66960000D03*
X184760000Y-44100000D03*
X159360000Y-105060000D03*
X184760000Y-51720000D03*
X153010000Y-84740000D03*
X153010000Y-59340000D03*
X159360000Y-82200000D03*
X159360000Y-125380000D03*
X172060000Y-66960000D03*
X159360000Y-116490000D03*
X159360000Y-127920000D03*
X153010000Y-74580000D03*
X161900000Y-66960000D03*
X153010000Y-117760000D03*
%TO.N,+5VA_digital-interface*%
X176212500Y-122205000D03*
X221981400Y-121585000D03*
%TO.N,+5VA_dac*%
X192126000Y-121570000D03*
X193015000Y-137572000D03*
X217780000Y-121570000D03*
X195174000Y-137572000D03*
%TO.N,+5VA_pwm*%
X221844000Y-105060000D03*
%TO.N,+24V*%
X195174000Y-112934000D03*
X225019000Y-112934000D03*
X193650000Y-82200000D03*
X193650000Y-77120000D03*
X193650000Y-79660000D03*
X188570000Y-82200000D03*
X192380000Y-75850000D03*
X191110000Y-82200000D03*
X187300000Y-78390000D03*
X187300000Y-75850000D03*
X192380000Y-80930000D03*
X191110000Y-79660000D03*
X189840000Y-80930000D03*
X194920000Y-80930000D03*
X194920000Y-78390000D03*
X188570000Y-79660000D03*
X189840000Y-78390000D03*
X189840000Y-83470000D03*
X187300000Y-83470000D03*
X192380000Y-83470000D03*
X191110000Y-77120000D03*
X194920000Y-75850000D03*
X188570000Y-77120000D03*
X194920000Y-83470000D03*
X203556000Y-112934000D03*
X189840000Y-75850000D03*
X187300000Y-80930000D03*
X192380000Y-78390000D03*
%TO.N,+12VA*%
X198222000Y-84994000D03*
%TO.N,/fan_+*%
X165075000Y-73945000D03*
X195634800Y-74326000D03*
%TO.N,/fan_-*%
X196317000Y-74961000D03*
X171425000Y-76485000D03*
%TO.N,/dac_ch_6*%
X171806000Y-151542000D03*
X181712000Y-151542000D03*
%TO.N,Net-(JP106-A)*%
X221590000Y-157384000D03*
X179680000Y-157384000D03*
%TO.N,/full-bridge/IN_B*%
X207620000Y-93630000D03*
X196698000Y-92868000D03*
%TO.N,Net-(JP107-A)*%
X217780000Y-158146000D03*
X180950000Y-158146000D03*
%TO.N,/full-bridge/IN_A*%
X203810000Y-93630000D03*
X195936000Y-93630000D03*
%TO.N,Net-(JP108-A)*%
X183490000Y-161321000D03*
X236830000Y-160559000D03*
%TO.N,/full-bridge1/IN_B*%
X225781000Y-94265000D03*
X233020000Y-93630000D03*
%TO.N,/full-bridge1/IN_A*%
X229210000Y-93503000D03*
X225781000Y-93249000D03*
%TO.N,Net-(JP109-A)*%
X184760000Y-161321000D03*
X233020000Y-161321000D03*
%TO.N,Net-(JP110-A)*%
X206350000Y-156622000D03*
X187300000Y-156622000D03*
%TO.N,/full-bridge2/IN_B*%
X171425000Y-93376000D03*
X186030000Y-93376000D03*
%TO.N,/full-bridge2/IN_A*%
X167615000Y-93630000D03*
X186030000Y-94265000D03*
%TO.N,Net-(JP111-A)*%
X186538000Y-155860000D03*
X200762000Y-155860000D03*
%TO.N,/dac/dac_ch_0*%
X223749000Y-158400000D03*
X191491000Y-144049000D03*
X199492000Y-143668000D03*
X199492000Y-158908000D03*
%TO.N,/dac_ch_0*%
X209906000Y-106457000D03*
X197460000Y-106457000D03*
%TO.N,/dac/dac_ch_1*%
X193015000Y-142906000D03*
X246863000Y-142906000D03*
%TO.N,/dac/dac_ch_2*%
X192126000Y-159670000D03*
X208509000Y-159670000D03*
%TO.N,/dac_ch_2*%
X189840000Y-104679000D03*
X175235000Y-104755200D03*
%TO.N,/dac/dac_ch_3*%
X165075000Y-148875000D03*
X191491000Y-149891000D03*
%TO.N,/dac/dac_ch_4*%
X179680000Y-150780000D03*
X186665000Y-149891000D03*
%TO.N,/dac/dac_ch_5*%
X179680000Y-146970000D03*
X185395000Y-148240000D03*
%TO.N,/dac/dac_ch_6*%
X186284000Y-144049000D03*
X179680000Y-143160000D03*
%TO.N,/dac/dac_ch_7*%
X165075000Y-145065000D03*
X186284000Y-145065000D03*
%TO.N,+5VA_full-bridge*%
X223241000Y-86264000D03*
%TD*%
D13*
%TO.N,/pwm2/mod_pin*%
X163173496Y-104044000D02*
X175235000Y-104044000D01*
X163170000Y-104047496D02*
X163173496Y-104044000D01*
%TO.N,/pwm/mod_pin*%
X199368496Y-104044000D02*
X211430000Y-104044000D01*
X199365000Y-104047496D02*
X199368496Y-104044000D01*
%TO.N,/pwm1/mod_pin*%
X224768496Y-104044000D02*
X236830000Y-104044000D01*
X224765000Y-104047496D02*
X224768496Y-104044000D01*
%TO.N,GND*%
X183722500Y-128152500D02*
X183722500Y-130692500D01*
X182855000Y-127285000D02*
X183722500Y-128152500D01*
X182855000Y-123094000D02*
X182855000Y-127285000D01*
%TO.N,GNDI*%
X168250000Y-136175000D02*
X168250000Y-131095000D01*
X165075000Y-117760000D02*
X168250000Y-120935000D01*
X165075000Y-116490000D02*
X165075000Y-112680000D01*
X165075000Y-108870000D02*
X165075000Y-112680000D01*
X165075000Y-116490000D02*
X165075000Y-117760000D01*
D14*
%TO.N,/full-bridge/cs*%
X203175000Y-74580000D02*
X220320000Y-74580000D01*
%TO.N,/full-bridge/sel0*%
X202540000Y-75215000D02*
X220955000Y-75215000D01*
%TO.N,/full-bridge/pwm*%
X206350000Y-75850000D02*
X219685000Y-75850000D01*
%TO.N,/full-bridge/in_b*%
X206604000Y-79279000D02*
X203048000Y-79279000D01*
%TO.N,/full-bridge2/cs*%
X166980000Y-74562500D02*
X184125000Y-74562500D01*
%TO.N,/full-bridge2/sel0*%
X166345000Y-75197500D02*
X184760000Y-75197500D01*
%TO.N,/full-bridge2/pwm*%
X170155000Y-75832500D02*
X183490000Y-75832500D01*
%TO.N,/full-bridge2/in_b*%
X170409000Y-79261500D02*
X166853000Y-79261500D01*
%TO.N,/full-bridge1/cs*%
X228575000Y-74580000D02*
X245720000Y-74580000D01*
%TO.N,/full-bridge1/sel0*%
X227940000Y-75215000D02*
X246355000Y-75215000D01*
%TO.N,/full-bridge1/pwm*%
X231750000Y-75850000D02*
X245085000Y-75850000D01*
%TO.N,/full-bridge1/in_b*%
X232004000Y-79279000D02*
X228448000Y-79279000D01*
D13*
%TO.N,+5VA_digital-interface*%
X221285200Y-122281200D02*
X176288700Y-122281200D01*
X176288700Y-122281200D02*
X176212500Y-122205000D01*
X221981400Y-121585000D02*
X221285200Y-122281200D01*
%TO.N,/dac/dac_ch_3*%
X190551200Y-148951200D02*
X191491000Y-149891000D01*
X180655411Y-148951200D02*
X190551200Y-148951200D01*
X165075000Y-148875000D02*
X180579211Y-148875000D01*
X180579211Y-148875000D02*
X180655411Y-148951200D01*
%TO.N,/dac/dac_ch_7*%
X186284000Y-145065000D02*
X165075000Y-145065000D01*
%TO.N,+5VA*%
X192888000Y-120808000D02*
X217653000Y-120808000D01*
X217653000Y-120808000D02*
X219685000Y-118776000D01*
X181077000Y-138334000D02*
X195936000Y-138334000D01*
%TO.N,GND*%
X189840000Y-134905000D02*
X183744000Y-134905000D01*
%TO.N,+5VA_dac*%
X193015000Y-137572000D02*
X195174000Y-137572000D01*
X217780000Y-121570000D02*
X192126000Y-121570000D01*
%TO.N,+5VA_pwm*%
X202921000Y-104806000D02*
X199492000Y-104806000D01*
X199492000Y-104806000D02*
X198831600Y-105466400D01*
X174092000Y-104806000D02*
X166726000Y-104806000D01*
X198831600Y-105466400D02*
X174752400Y-105466400D01*
X174752400Y-105466400D02*
X174092000Y-104806000D01*
%TO.N,+24V*%
X203556000Y-112934000D02*
X195174000Y-112934000D01*
X225019000Y-112934000D02*
X203556000Y-112934000D01*
%TO.N,+12VA*%
X198222000Y-84994000D02*
X184760000Y-84994000D01*
X184760000Y-84994000D02*
X182855000Y-83089000D01*
X182855000Y-83089000D02*
X182855000Y-79642500D01*
D14*
%TO.N,/fan_+*%
X195634800Y-74326000D02*
X195507800Y-74453000D01*
X185903000Y-73945000D02*
X165075000Y-73945000D01*
X195507800Y-74453000D02*
X186411000Y-74453000D01*
X186411000Y-74453000D02*
X185903000Y-73945000D01*
%TO.N,/fan_-*%
X186157000Y-74961000D02*
X196317000Y-74961000D01*
X171425000Y-76485000D02*
X184633000Y-76485000D01*
X184633000Y-76485000D02*
X186157000Y-74961000D01*
D13*
%TO.N,/dac_ch_6*%
X171806000Y-151542000D02*
X181712000Y-151542000D01*
%TO.N,Net-(JP106-A)*%
X179680000Y-157384000D02*
X221590000Y-157384000D01*
%TO.N,/full-bridge/IN_B*%
X206858000Y-92868000D02*
X207620000Y-93630000D01*
X196698000Y-92868000D02*
X206858000Y-92868000D01*
%TO.N,Net-(JP107-A)*%
X180950000Y-158146000D02*
X217780000Y-158146000D01*
%TO.N,/full-bridge/IN_A*%
X195936000Y-93630000D02*
X203810000Y-93630000D01*
%TO.N,Net-(JP108-A)*%
X183490000Y-161321000D02*
X184252000Y-160559000D01*
X184252000Y-160559000D02*
X185268000Y-160559000D01*
X185268000Y-160559000D02*
X236830000Y-160559000D01*
%TO.N,/full-bridge1/IN_B*%
X232385000Y-94265000D02*
X233020000Y-93630000D01*
X225781000Y-94265000D02*
X230988000Y-94265000D01*
X230988000Y-94265000D02*
X232385000Y-94265000D01*
%TO.N,/full-bridge1/IN_A*%
X228956000Y-93249000D02*
X229210000Y-93503000D01*
X228321000Y-93249000D02*
X228956000Y-93249000D01*
X227051000Y-93249000D02*
X228321000Y-93249000D01*
X225781000Y-93249000D02*
X227051000Y-93249000D01*
%TO.N,Net-(JP109-A)*%
X184760000Y-161321000D02*
X233020000Y-161321000D01*
%TO.N,Net-(JP110-A)*%
X187300000Y-156622000D02*
X206350000Y-156622000D01*
%TO.N,/full-bridge2/IN_B*%
X186030000Y-93376000D02*
X171425000Y-93376000D01*
%TO.N,/full-bridge2/IN_A*%
X168250000Y-94265000D02*
X167615000Y-93630000D01*
X186030000Y-94265000D02*
X168250000Y-94265000D01*
%TO.N,Net-(JP111-A)*%
X186538000Y-155860000D02*
X200762000Y-155860000D01*
%TO.N,/dac/dac_ch_0*%
X191872000Y-144049000D02*
X192253000Y-143668000D01*
X195555000Y-143668000D02*
X199492000Y-143668000D01*
X199492000Y-158908000D02*
X223241000Y-158908000D01*
X192253000Y-143668000D02*
X195555000Y-143668000D01*
X223241000Y-158908000D02*
X223749000Y-158400000D01*
X191491000Y-144049000D02*
X191872000Y-144049000D01*
%TO.N,/dac_ch_0*%
X197460000Y-106457000D02*
X209906000Y-106457000D01*
%TO.N,/dac/dac_ch_1*%
X193015000Y-142906000D02*
X246863000Y-142906000D01*
%TO.N,/dac/dac_ch_2*%
X192126000Y-159670000D02*
X208509000Y-159670000D01*
%TO.N,/dac_ch_2*%
X189840000Y-104679000D02*
X189763800Y-104755200D01*
X189763800Y-104755200D02*
X175235000Y-104755200D01*
%TO.N,/dac/dac_ch_4*%
X186665000Y-149891000D02*
X180569000Y-149891000D01*
X180569000Y-149891000D02*
X179680000Y-150780000D01*
%TO.N,/dac/dac_ch_5*%
X180950000Y-148240000D02*
X179680000Y-146970000D01*
X185395000Y-148240000D02*
X180950000Y-148240000D01*
%TO.N,/dac/dac_ch_6*%
X185395000Y-143160000D02*
X179680000Y-143160000D01*
X186284000Y-144049000D02*
X185395000Y-143160000D01*
D15*
%TO.N,+5VA_full-bridge*%
X184760000Y-86246500D02*
X196807500Y-86246500D01*
D13*
X220955000Y-86264000D02*
X223241000Y-86264000D01*
X196807500Y-86246500D02*
X196825000Y-86264000D01*
X196825000Y-86264000D02*
X220955000Y-86264000D01*
X223241000Y-86264000D02*
X246355000Y-86264000D01*
%TD*%
%TA.AperFunction,Conductor*%
%TO.N,GND*%
G36*
X247469224Y-105759931D02*
G01*
X247498717Y-105824512D01*
X247500000Y-105842444D01*
X247500000Y-142522459D01*
X247479998Y-142590580D01*
X247426342Y-142637073D01*
X247356068Y-142647177D01*
X247291488Y-142617683D01*
X247274043Y-142599170D01*
X247269901Y-142593773D01*
X247175227Y-142499099D01*
X247175224Y-142499097D01*
X247059278Y-142432155D01*
X247059276Y-142432154D01*
X247059274Y-142432153D01*
X246929945Y-142397500D01*
X192948055Y-142397500D01*
X192818726Y-142432153D01*
X192818724Y-142432154D01*
X192818721Y-142432155D01*
X192702775Y-142499097D01*
X192702772Y-142499099D01*
X192608099Y-142593772D01*
X192608097Y-142593775D01*
X192541155Y-142709721D01*
X192541154Y-142709724D01*
X192541153Y-142709726D01*
X192506500Y-142839055D01*
X192506500Y-142972945D01*
X192513987Y-143000890D01*
X192512298Y-143071865D01*
X192472504Y-143130661D01*
X192407240Y-143158609D01*
X192392281Y-143159500D01*
X192186054Y-143159500D01*
X192077823Y-143188500D01*
X192077822Y-143188499D01*
X192056732Y-143194151D01*
X192056727Y-143194152D01*
X192056726Y-143194153D01*
X192056725Y-143194153D01*
X192056721Y-143194155D01*
X191940776Y-143261096D01*
X191940770Y-143261101D01*
X191845601Y-143356271D01*
X191698275Y-143503596D01*
X191635965Y-143537620D01*
X191609182Y-143540500D01*
X191424055Y-143540500D01*
X191294726Y-143575153D01*
X191294724Y-143575154D01*
X191294721Y-143575155D01*
X191178775Y-143642097D01*
X191178772Y-143642099D01*
X191084099Y-143736772D01*
X191084097Y-143736775D01*
X191017155Y-143852721D01*
X191017154Y-143852724D01*
X191017153Y-143852726D01*
X190982500Y-143982055D01*
X190982500Y-144115945D01*
X191017153Y-144245274D01*
X191017154Y-144245276D01*
X191017155Y-144245278D01*
X191084097Y-144361224D01*
X191084099Y-144361227D01*
X191178772Y-144455900D01*
X191178775Y-144455902D01*
X191211043Y-144474532D01*
X191294726Y-144522847D01*
X191424055Y-144557500D01*
X191424057Y-144557500D01*
X191938943Y-144557500D01*
X191938945Y-144557500D01*
X192068274Y-144522847D01*
X192184227Y-144455901D01*
X192426724Y-144213403D01*
X192489035Y-144179380D01*
X192515818Y-144176500D01*
X199558943Y-144176500D01*
X199558945Y-144176500D01*
X199688274Y-144141847D01*
X199804226Y-144074901D01*
X199898901Y-143980226D01*
X199965847Y-143864274D01*
X200000500Y-143734945D01*
X200000500Y-143601055D01*
X199993012Y-143573109D01*
X199994702Y-143502135D01*
X200034496Y-143443339D01*
X200099760Y-143415391D01*
X200114719Y-143414500D01*
X246929943Y-143414500D01*
X246929945Y-143414500D01*
X247059274Y-143379847D01*
X247175226Y-143312901D01*
X247269901Y-143218226D01*
X247269901Y-143218224D01*
X247274040Y-143212833D01*
X247331379Y-143170967D01*
X247402250Y-143166748D01*
X247464152Y-143201514D01*
X247497431Y-143264228D01*
X247500000Y-143289540D01*
X247500000Y-157624000D01*
X247479998Y-157692121D01*
X247426342Y-157738614D01*
X247374000Y-157750000D01*
X241000000Y-157750000D01*
X241000000Y-164123500D01*
X240979998Y-164191621D01*
X240926342Y-164238114D01*
X240874000Y-164249500D01*
X159126000Y-164249500D01*
X159057879Y-164229498D01*
X159011386Y-164175842D01*
X159000000Y-164123500D01*
X159000000Y-157750000D01*
X152626000Y-157750000D01*
X152557879Y-157729998D01*
X152511386Y-157676342D01*
X152500000Y-157624000D01*
X152500000Y-157317055D01*
X179171500Y-157317055D01*
X179171500Y-157450945D01*
X179206153Y-157580274D01*
X179206154Y-157580276D01*
X179206155Y-157580278D01*
X179273097Y-157696224D01*
X179273099Y-157696227D01*
X179367772Y-157790900D01*
X179367775Y-157790902D01*
X179459226Y-157843701D01*
X179483726Y-157857847D01*
X179613055Y-157892500D01*
X180327281Y-157892500D01*
X180395402Y-157912502D01*
X180441895Y-157966158D01*
X180451999Y-158036432D01*
X180448989Y-158051102D01*
X180441500Y-158079055D01*
X180441500Y-158212945D01*
X180476153Y-158342274D01*
X180476154Y-158342276D01*
X180476155Y-158342278D01*
X180543097Y-158458224D01*
X180543099Y-158458227D01*
X180637772Y-158552900D01*
X180637775Y-158552902D01*
X180712890Y-158596270D01*
X180753726Y-158619847D01*
X180883055Y-158654500D01*
X198869281Y-158654500D01*
X198937402Y-158674502D01*
X198983895Y-158728158D01*
X198993999Y-158798432D01*
X198990989Y-158813102D01*
X198983500Y-158841055D01*
X198983500Y-158974945D01*
X198990987Y-159002890D01*
X198989298Y-159073865D01*
X198949504Y-159132661D01*
X198884240Y-159160609D01*
X198869281Y-159161500D01*
X192059055Y-159161500D01*
X191929726Y-159196153D01*
X191929724Y-159196154D01*
X191929721Y-159196155D01*
X191813775Y-159263097D01*
X191813772Y-159263099D01*
X191719099Y-159357772D01*
X191719097Y-159357775D01*
X191652155Y-159473721D01*
X191652154Y-159473724D01*
X191652153Y-159473726D01*
X191617500Y-159603055D01*
X191617500Y-159736945D01*
X191652153Y-159866274D01*
X191652157Y-159866281D01*
X191655314Y-159873903D01*
X191652671Y-159874997D01*
X191666135Y-159930493D01*
X191642916Y-159997585D01*
X191587110Y-160041473D01*
X191540278Y-160050500D01*
X185334945Y-160050500D01*
X184318946Y-160050500D01*
X184185055Y-160050500D01*
X184055726Y-160085153D01*
X184055724Y-160085154D01*
X184055721Y-160085155D01*
X183939775Y-160152097D01*
X183083101Y-161008770D01*
X183083096Y-161008776D01*
X183016155Y-161124721D01*
X183016154Y-161124724D01*
X183016153Y-161124726D01*
X182981500Y-161254055D01*
X182981500Y-161387945D01*
X183016153Y-161517274D01*
X183016154Y-161517276D01*
X183016155Y-161517278D01*
X183083096Y-161633223D01*
X183083104Y-161633233D01*
X183177766Y-161727895D01*
X183177771Y-161727899D01*
X183177773Y-161727901D01*
X183293726Y-161794847D01*
X183423055Y-161829500D01*
X183423057Y-161829500D01*
X183556943Y-161829500D01*
X183556945Y-161829500D01*
X183686274Y-161794847D01*
X183802227Y-161727901D01*
X184074082Y-161456045D01*
X184136391Y-161422022D01*
X184207207Y-161427086D01*
X184264043Y-161469633D01*
X184284880Y-161512525D01*
X184286150Y-161517266D01*
X184286155Y-161517278D01*
X184353097Y-161633224D01*
X184353099Y-161633227D01*
X184447772Y-161727900D01*
X184447775Y-161727902D01*
X184447777Y-161727903D01*
X184563726Y-161794847D01*
X184693055Y-161829500D01*
X184693057Y-161829500D01*
X233086943Y-161829500D01*
X233086945Y-161829500D01*
X233216274Y-161794847D01*
X233332226Y-161727901D01*
X233426901Y-161633226D01*
X233493847Y-161517274D01*
X233528500Y-161387945D01*
X233528500Y-161254055D01*
X233521012Y-161226109D01*
X233522702Y-161155135D01*
X233562496Y-161096339D01*
X233627760Y-161068391D01*
X233642719Y-161067500D01*
X236896943Y-161067500D01*
X236896945Y-161067500D01*
X237026274Y-161032847D01*
X237142226Y-160965901D01*
X237236901Y-160871226D01*
X237303847Y-160755274D01*
X237338500Y-160625945D01*
X237338500Y-160492055D01*
X237303847Y-160362726D01*
X237236901Y-160246774D01*
X237236900Y-160246772D01*
X237142227Y-160152099D01*
X237142224Y-160152097D01*
X237026278Y-160085155D01*
X237026276Y-160085154D01*
X237026274Y-160085153D01*
X236896945Y-160050500D01*
X236896943Y-160050500D01*
X209094722Y-160050500D01*
X209026601Y-160030498D01*
X208980108Y-159976842D01*
X208970004Y-159906568D01*
X208981106Y-159874491D01*
X208979686Y-159873903D01*
X208982839Y-159866287D01*
X208982847Y-159866274D01*
X209017500Y-159736945D01*
X209017500Y-159603055D01*
X209010012Y-159575109D01*
X209011702Y-159504135D01*
X209051496Y-159445339D01*
X209116760Y-159417391D01*
X209131719Y-159416500D01*
X223307943Y-159416500D01*
X223307945Y-159416500D01*
X223437274Y-159381847D01*
X223553227Y-159314901D01*
X224155901Y-158712227D01*
X224222847Y-158596274D01*
X224257499Y-158466946D01*
X224257499Y-158333055D01*
X224222847Y-158203727D01*
X224155901Y-158087774D01*
X224155899Y-158087772D01*
X224155895Y-158087767D01*
X224061232Y-157993104D01*
X224061222Y-157993096D01*
X223945277Y-157926155D01*
X223945275Y-157926154D01*
X223945273Y-157926153D01*
X223815945Y-157891501D01*
X223682054Y-157891501D01*
X223552729Y-157926152D01*
X223552721Y-157926155D01*
X223436776Y-157993096D01*
X223436770Y-157993101D01*
X223342105Y-158087767D01*
X223067275Y-158362596D01*
X223004965Y-158396620D01*
X222978182Y-158399500D01*
X218402719Y-158399500D01*
X218334598Y-158379498D01*
X218288105Y-158325842D01*
X218278001Y-158255568D01*
X218281010Y-158240897D01*
X218288500Y-158212945D01*
X218288500Y-158079055D01*
X218281012Y-158051109D01*
X218282702Y-157980135D01*
X218322496Y-157921339D01*
X218387760Y-157893391D01*
X218402719Y-157892500D01*
X221656943Y-157892500D01*
X221656945Y-157892500D01*
X221786274Y-157857847D01*
X221902226Y-157790901D01*
X221996901Y-157696226D01*
X222063847Y-157580274D01*
X222098500Y-157450945D01*
X222098500Y-157317055D01*
X222063847Y-157187726D01*
X221996901Y-157071774D01*
X221996900Y-157071772D01*
X221902227Y-156977099D01*
X221902224Y-156977097D01*
X221786278Y-156910155D01*
X221786276Y-156910154D01*
X221786274Y-156910153D01*
X221656945Y-156875500D01*
X221656943Y-156875500D01*
X206972719Y-156875500D01*
X206904598Y-156855498D01*
X206858105Y-156801842D01*
X206848001Y-156731568D01*
X206851010Y-156716897D01*
X206858500Y-156688945D01*
X206858500Y-156555055D01*
X206823847Y-156425726D01*
X206770800Y-156333847D01*
X206756902Y-156309775D01*
X206756900Y-156309772D01*
X206662227Y-156215099D01*
X206662224Y-156215097D01*
X206546278Y-156148155D01*
X206546276Y-156148154D01*
X206546274Y-156148153D01*
X206416945Y-156113500D01*
X206416943Y-156113500D01*
X201384719Y-156113500D01*
X201316598Y-156093498D01*
X201270105Y-156039842D01*
X201260001Y-155969568D01*
X201263010Y-155954897D01*
X201270500Y-155926945D01*
X201270500Y-155793055D01*
X201235847Y-155663726D01*
X201168901Y-155547774D01*
X201168900Y-155547772D01*
X201074227Y-155453099D01*
X201074224Y-155453097D01*
X200958278Y-155386155D01*
X200958276Y-155386154D01*
X200958274Y-155386153D01*
X200828945Y-155351500D01*
X186471055Y-155351500D01*
X186341726Y-155386153D01*
X186341724Y-155386154D01*
X186341721Y-155386155D01*
X186225775Y-155453097D01*
X186225772Y-155453099D01*
X186131099Y-155547772D01*
X186131097Y-155547775D01*
X186064155Y-155663721D01*
X186064154Y-155663724D01*
X186064153Y-155663726D01*
X186029500Y-155793055D01*
X186029500Y-155926945D01*
X186064153Y-156056274D01*
X186064154Y-156056276D01*
X186064155Y-156056278D01*
X186131097Y-156172224D01*
X186131099Y-156172227D01*
X186225772Y-156266900D01*
X186225775Y-156266902D01*
X186300031Y-156309774D01*
X186341726Y-156333847D01*
X186471055Y-156368500D01*
X186677281Y-156368500D01*
X186745402Y-156388502D01*
X186791895Y-156442158D01*
X186801999Y-156512432D01*
X186798989Y-156527102D01*
X186791500Y-156555055D01*
X186791500Y-156688945D01*
X186798987Y-156716890D01*
X186797298Y-156787865D01*
X186757504Y-156846661D01*
X186692240Y-156874609D01*
X186677281Y-156875500D01*
X179613055Y-156875500D01*
X179483726Y-156910153D01*
X179483724Y-156910154D01*
X179483721Y-156910155D01*
X179367775Y-156977097D01*
X179367772Y-156977099D01*
X179273099Y-157071772D01*
X179273097Y-157071775D01*
X179206155Y-157187721D01*
X179206154Y-157187724D01*
X179206153Y-157187726D01*
X179171500Y-157317055D01*
X152500000Y-157317055D01*
X152500000Y-148808055D01*
X164566500Y-148808055D01*
X164566500Y-148941945D01*
X164601153Y-149071274D01*
X164601154Y-149071276D01*
X164601155Y-149071278D01*
X164668097Y-149187224D01*
X164668099Y-149187227D01*
X164762772Y-149281900D01*
X164762775Y-149281902D01*
X164854226Y-149334701D01*
X164878726Y-149348847D01*
X165008055Y-149383500D01*
X180053182Y-149383500D01*
X180121303Y-149403502D01*
X180167796Y-149457158D01*
X180177900Y-149527432D01*
X180148406Y-149592012D01*
X180142277Y-149598596D01*
X179273101Y-150467770D01*
X179273096Y-150467776D01*
X179206155Y-150583721D01*
X179206154Y-150583724D01*
X179206153Y-150583726D01*
X179171500Y-150713055D01*
X179171500Y-150846945D01*
X179178987Y-150874890D01*
X179177298Y-150945865D01*
X179137504Y-151004661D01*
X179072240Y-151032609D01*
X179057281Y-151033500D01*
X171739055Y-151033500D01*
X171609726Y-151068153D01*
X171609724Y-151068154D01*
X171609721Y-151068155D01*
X171493775Y-151135097D01*
X171493772Y-151135099D01*
X171399099Y-151229772D01*
X171399097Y-151229775D01*
X171332155Y-151345721D01*
X171332154Y-151345724D01*
X171332153Y-151345726D01*
X171297500Y-151475055D01*
X171297500Y-151608945D01*
X171332153Y-151738274D01*
X171332154Y-151738276D01*
X171332155Y-151738278D01*
X171399097Y-151854224D01*
X171399099Y-151854227D01*
X171493772Y-151948900D01*
X171493775Y-151948902D01*
X171585226Y-152001701D01*
X171609726Y-152015847D01*
X171739055Y-152050500D01*
X171739057Y-152050500D01*
X181778943Y-152050500D01*
X181778945Y-152050500D01*
X181908274Y-152015847D01*
X182024226Y-151948901D01*
X182118901Y-151854226D01*
X182185847Y-151738274D01*
X182220500Y-151608945D01*
X182220500Y-151475055D01*
X182185847Y-151345726D01*
X182118901Y-151229774D01*
X182118900Y-151229772D01*
X182024227Y-151135099D01*
X182024224Y-151135097D01*
X181908278Y-151068155D01*
X181908276Y-151068154D01*
X181908274Y-151068153D01*
X181778945Y-151033500D01*
X181778943Y-151033500D01*
X180449819Y-151033500D01*
X180381698Y-151013498D01*
X180335205Y-150959842D01*
X180325101Y-150889568D01*
X180354595Y-150824988D01*
X180360723Y-150818405D01*
X180742722Y-150436405D01*
X180805035Y-150402380D01*
X180831818Y-150399500D01*
X186731943Y-150399500D01*
X186731945Y-150399500D01*
X186861274Y-150364847D01*
X186977226Y-150297901D01*
X187071901Y-150203226D01*
X187138847Y-150087274D01*
X187173500Y-149957945D01*
X187173500Y-149824055D01*
X187138847Y-149694726D01*
X187138842Y-149694717D01*
X187112274Y-149648699D01*
X187095536Y-149579704D01*
X187118757Y-149512612D01*
X187174564Y-149468725D01*
X187221393Y-149459700D01*
X190288381Y-149459700D01*
X190356502Y-149479702D01*
X190377476Y-149496604D01*
X191178775Y-150297902D01*
X191178777Y-150297903D01*
X191294726Y-150364847D01*
X191424055Y-150399500D01*
X191424057Y-150399500D01*
X191557943Y-150399500D01*
X191557945Y-150399500D01*
X191687274Y-150364847D01*
X191803227Y-150297901D01*
X191897901Y-150203227D01*
X191964847Y-150087274D01*
X191999500Y-149957945D01*
X191999500Y-149824055D01*
X191964847Y-149694726D01*
X191938273Y-149648699D01*
X191897902Y-149578775D01*
X191897900Y-149578772D01*
X190863433Y-148544304D01*
X190863423Y-148544296D01*
X190747478Y-148477355D01*
X190747476Y-148477354D01*
X190747474Y-148477353D01*
X190618145Y-148442700D01*
X190618143Y-148442700D01*
X186029303Y-148442700D01*
X185961182Y-148422698D01*
X185914689Y-148369042D01*
X185906620Y-148315203D01*
X185903500Y-148315203D01*
X185903500Y-148173056D01*
X185903500Y-148173055D01*
X185868847Y-148043726D01*
X185801901Y-147927774D01*
X185801900Y-147927772D01*
X185707227Y-147833099D01*
X185707224Y-147833097D01*
X185591278Y-147766155D01*
X185591276Y-147766154D01*
X185591274Y-147766153D01*
X185461945Y-147731500D01*
X185461943Y-147731500D01*
X181212818Y-147731500D01*
X181144697Y-147711498D01*
X181123723Y-147694595D01*
X179992233Y-146563104D01*
X179992223Y-146563096D01*
X179876278Y-146496155D01*
X179876276Y-146496154D01*
X179876274Y-146496153D01*
X179746945Y-146461500D01*
X179613055Y-146461500D01*
X179483726Y-146496153D01*
X179483724Y-146496154D01*
X179483721Y-146496155D01*
X179367776Y-146563096D01*
X179367766Y-146563104D01*
X179273104Y-146657766D01*
X179273096Y-146657776D01*
X179206155Y-146773721D01*
X179206154Y-146773724D01*
X179206153Y-146773726D01*
X179171500Y-146903055D01*
X179171500Y-147036945D01*
X179206153Y-147166274D01*
X179206154Y-147166276D01*
X179206155Y-147166278D01*
X179273096Y-147282223D01*
X179273098Y-147282225D01*
X179273099Y-147282227D01*
X180142278Y-148151406D01*
X180176302Y-148213717D01*
X180171238Y-148284532D01*
X180128691Y-148341368D01*
X180062171Y-148366179D01*
X180053182Y-148366500D01*
X165008055Y-148366500D01*
X164878726Y-148401153D01*
X164878724Y-148401154D01*
X164878721Y-148401155D01*
X164762775Y-148468097D01*
X164762772Y-148468099D01*
X164668099Y-148562772D01*
X164668097Y-148562775D01*
X164601155Y-148678721D01*
X164601154Y-148678724D01*
X164601153Y-148678726D01*
X164566500Y-148808055D01*
X152500000Y-148808055D01*
X152500000Y-144998055D01*
X164566500Y-144998055D01*
X164566500Y-145131945D01*
X164601153Y-145261274D01*
X164601154Y-145261276D01*
X164601155Y-145261278D01*
X164668097Y-145377224D01*
X164668099Y-145377227D01*
X164762772Y-145471900D01*
X164762775Y-145471902D01*
X164854226Y-145524701D01*
X164878726Y-145538847D01*
X165008055Y-145573500D01*
X165008057Y-145573500D01*
X186350943Y-145573500D01*
X186350945Y-145573500D01*
X186480274Y-145538847D01*
X186596226Y-145471901D01*
X186690901Y-145377226D01*
X186757847Y-145261274D01*
X186792500Y-145131945D01*
X186792500Y-144998055D01*
X186757847Y-144868726D01*
X186690901Y-144752774D01*
X186690900Y-144752772D01*
X186596227Y-144658099D01*
X186594745Y-144656962D01*
X186593811Y-144655683D01*
X186590387Y-144652259D01*
X186590921Y-144651724D01*
X186552878Y-144599624D01*
X186548656Y-144528753D01*
X186583421Y-144466850D01*
X186594751Y-144457033D01*
X186596219Y-144455905D01*
X186596227Y-144455901D01*
X186690901Y-144361227D01*
X186757847Y-144245274D01*
X186792500Y-144115945D01*
X186792500Y-143982055D01*
X186757847Y-143852726D01*
X186690901Y-143736774D01*
X186690900Y-143736772D01*
X185707233Y-142753104D01*
X185707223Y-142753096D01*
X185591278Y-142686155D01*
X185591276Y-142686154D01*
X185591274Y-142686153D01*
X185461945Y-142651500D01*
X179613055Y-142651500D01*
X179483726Y-142686153D01*
X179483724Y-142686154D01*
X179483721Y-142686155D01*
X179367775Y-142753097D01*
X179367772Y-142753099D01*
X179273099Y-142847772D01*
X179273097Y-142847775D01*
X179206155Y-142963721D01*
X179206154Y-142963724D01*
X179206153Y-142963726D01*
X179171500Y-143093055D01*
X179171500Y-143226945D01*
X179206153Y-143356274D01*
X179206154Y-143356276D01*
X179206155Y-143356278D01*
X179273097Y-143472224D01*
X179273099Y-143472227D01*
X179367772Y-143566900D01*
X179367775Y-143566902D01*
X179426931Y-143601056D01*
X179483726Y-143633847D01*
X179613055Y-143668500D01*
X185132181Y-143668500D01*
X185200302Y-143688502D01*
X185221276Y-143705404D01*
X185857277Y-144341404D01*
X185891302Y-144403717D01*
X185886238Y-144474532D01*
X185843691Y-144531368D01*
X185777171Y-144556179D01*
X185768182Y-144556500D01*
X165008055Y-144556500D01*
X164878726Y-144591153D01*
X164878724Y-144591154D01*
X164878721Y-144591155D01*
X164762775Y-144658097D01*
X164762772Y-144658099D01*
X164668099Y-144752772D01*
X164668097Y-144752775D01*
X164601155Y-144868721D01*
X164601154Y-144868724D01*
X164601153Y-144868726D01*
X164566500Y-144998055D01*
X152500000Y-144998055D01*
X152500000Y-141640500D01*
X152520002Y-141572379D01*
X152573658Y-141525886D01*
X152626000Y-141514500D01*
X174341494Y-141514500D01*
X174341500Y-141514500D01*
X174396659Y-141508570D01*
X174449001Y-141497184D01*
X174475791Y-141489834D01*
X174563778Y-141439731D01*
X174617434Y-141393238D01*
X174649556Y-141359949D01*
X174696487Y-141270230D01*
X174716489Y-141202109D01*
X174727000Y-141129000D01*
X174727000Y-141255000D01*
X189205000Y-141255000D01*
X189205000Y-138842500D01*
X196002943Y-138842500D01*
X196002945Y-138842500D01*
X196132274Y-138807847D01*
X196248226Y-138740901D01*
X196342901Y-138646226D01*
X196409847Y-138530274D01*
X196444500Y-138400945D01*
X196444500Y-138267055D01*
X196409847Y-138137726D01*
X196342901Y-138021774D01*
X196342900Y-138021772D01*
X196248227Y-137927099D01*
X196248224Y-137927097D01*
X196132278Y-137860155D01*
X196132276Y-137860154D01*
X196132274Y-137860153D01*
X196002945Y-137825500D01*
X196002943Y-137825500D01*
X195796719Y-137825500D01*
X195728598Y-137805498D01*
X195682105Y-137751842D01*
X195672001Y-137681568D01*
X195675010Y-137666897D01*
X195682500Y-137638945D01*
X195682500Y-137505055D01*
X195647847Y-137375726D01*
X195580901Y-137259774D01*
X195580900Y-137259772D01*
X195486227Y-137165099D01*
X195486224Y-137165097D01*
X195370278Y-137098155D01*
X195370276Y-137098154D01*
X195370274Y-137098153D01*
X195240945Y-137063500D01*
X192948055Y-137063500D01*
X192818726Y-137098153D01*
X192818724Y-137098154D01*
X192818721Y-137098155D01*
X192702775Y-137165097D01*
X192702772Y-137165099D01*
X192608099Y-137259772D01*
X192608097Y-137259775D01*
X192541155Y-137375721D01*
X192541154Y-137375724D01*
X192541153Y-137375726D01*
X192506500Y-137505055D01*
X192506500Y-137638945D01*
X192513987Y-137666890D01*
X192512298Y-137737865D01*
X192472504Y-137796661D01*
X192407240Y-137824609D01*
X192392281Y-137825500D01*
X189205000Y-137825500D01*
X189205000Y-122789700D01*
X221352143Y-122789700D01*
X221352145Y-122789700D01*
X221481474Y-122755047D01*
X221597427Y-122688101D01*
X222388301Y-121897227D01*
X222455247Y-121781274D01*
X222489899Y-121651946D01*
X222489899Y-121518055D01*
X222455247Y-121388727D01*
X222388301Y-121272774D01*
X222388299Y-121272772D01*
X222388295Y-121272767D01*
X222293632Y-121178104D01*
X222293622Y-121178096D01*
X222177677Y-121111155D01*
X222177675Y-121111154D01*
X222177673Y-121111153D01*
X222048345Y-121076501D01*
X221914454Y-121076501D01*
X221785129Y-121111152D01*
X221785121Y-121111155D01*
X221669176Y-121178096D01*
X221669170Y-121178101D01*
X221473551Y-121373721D01*
X221111475Y-121735796D01*
X221049165Y-121769820D01*
X221022382Y-121772700D01*
X218414303Y-121772700D01*
X218346182Y-121752698D01*
X218299689Y-121699042D01*
X218291620Y-121645203D01*
X218288500Y-121645203D01*
X218288500Y-121503056D01*
X218288500Y-121503055D01*
X218253847Y-121373726D01*
X218195563Y-121272777D01*
X218186902Y-121257775D01*
X218186900Y-121257772D01*
X218143722Y-121214594D01*
X218109696Y-121152282D01*
X218114761Y-121081467D01*
X218143718Y-121036408D01*
X220091901Y-119088227D01*
X220158847Y-118972274D01*
X220193500Y-118842945D01*
X220193500Y-118709055D01*
X220158847Y-118579726D01*
X220091901Y-118463773D01*
X220091899Y-118463771D01*
X220091895Y-118463766D01*
X219997233Y-118369104D01*
X219997223Y-118369096D01*
X219881278Y-118302155D01*
X219881276Y-118302154D01*
X219881274Y-118302153D01*
X219751945Y-118267500D01*
X219618055Y-118267500D01*
X219488726Y-118302153D01*
X219488724Y-118302154D01*
X219488721Y-118302155D01*
X219372776Y-118369096D01*
X219372766Y-118369104D01*
X217479277Y-120262595D01*
X217416965Y-120296620D01*
X217390182Y-120299500D01*
X192821055Y-120299500D01*
X192691726Y-120334153D01*
X192691724Y-120334154D01*
X192691721Y-120334155D01*
X192575775Y-120401097D01*
X192575772Y-120401099D01*
X192481099Y-120495772D01*
X192481097Y-120495775D01*
X192414155Y-120611721D01*
X192414154Y-120611724D01*
X192414153Y-120611726D01*
X192379500Y-120741055D01*
X192379500Y-120874945D01*
X192386987Y-120902890D01*
X192385298Y-120973865D01*
X192345504Y-121032661D01*
X192280240Y-121060609D01*
X192265281Y-121061500D01*
X192059055Y-121061500D01*
X191929726Y-121096153D01*
X191929724Y-121096154D01*
X191929721Y-121096155D01*
X191813775Y-121163097D01*
X191813772Y-121163099D01*
X191719099Y-121257772D01*
X191719097Y-121257775D01*
X191652155Y-121373721D01*
X191652154Y-121373724D01*
X191652153Y-121373726D01*
X191648135Y-121388722D01*
X191617500Y-121503056D01*
X191617500Y-121645203D01*
X191614289Y-121645203D01*
X191605677Y-121700409D01*
X191558546Y-121753505D01*
X191491697Y-121772700D01*
X189205000Y-121772700D01*
X189205000Y-112867055D01*
X194665500Y-112867055D01*
X194665500Y-113000945D01*
X194700153Y-113130274D01*
X194700154Y-113130276D01*
X194700155Y-113130278D01*
X194767097Y-113246224D01*
X194767099Y-113246227D01*
X194861772Y-113340900D01*
X194861775Y-113340902D01*
X194953226Y-113393701D01*
X194977726Y-113407847D01*
X195107055Y-113442500D01*
X195107057Y-113442500D01*
X225085943Y-113442500D01*
X225085945Y-113442500D01*
X225215274Y-113407847D01*
X225331226Y-113340901D01*
X225425901Y-113246226D01*
X225492847Y-113130274D01*
X225527500Y-113000945D01*
X225527500Y-112867055D01*
X225492847Y-112737726D01*
X225425901Y-112621774D01*
X225425900Y-112621772D01*
X225331227Y-112527099D01*
X225331224Y-112527097D01*
X225215278Y-112460155D01*
X225215276Y-112460154D01*
X225215274Y-112460153D01*
X225085945Y-112425500D01*
X203622945Y-112425500D01*
X195107055Y-112425500D01*
X194977726Y-112460153D01*
X194977724Y-112460154D01*
X194977721Y-112460155D01*
X194861775Y-112527097D01*
X194861772Y-112527099D01*
X194767099Y-112621772D01*
X194767097Y-112621775D01*
X194700155Y-112737721D01*
X194700154Y-112737724D01*
X194700153Y-112737726D01*
X194665500Y-112867055D01*
X189205000Y-112867055D01*
X189205000Y-106330000D01*
X174727000Y-106330000D01*
X174727000Y-106456000D01*
X174721070Y-106400841D01*
X174716149Y-106378223D01*
X174712465Y-106361281D01*
X174717531Y-106290466D01*
X174760079Y-106233631D01*
X174826599Y-106208821D01*
X174835586Y-106208500D01*
X185268994Y-106208500D01*
X185269000Y-106208500D01*
X185324159Y-106202570D01*
X185376501Y-106191184D01*
X185403291Y-106183834D01*
X185491278Y-106133731D01*
X185544934Y-106087238D01*
X185577056Y-106053949D01*
X185583045Y-106042500D01*
X185632342Y-105991409D01*
X185694693Y-105974900D01*
X195891946Y-105974900D01*
X195960067Y-105994902D01*
X196001437Y-106038548D01*
X196005268Y-106045276D01*
X196005275Y-106045286D01*
X196041620Y-106087230D01*
X196051762Y-106098934D01*
X196085051Y-106131056D01*
X196174770Y-106177987D01*
X196242891Y-106197989D01*
X196316000Y-106208500D01*
X196835941Y-106208500D01*
X196904062Y-106228502D01*
X196950555Y-106282158D01*
X196960659Y-106352432D01*
X196957648Y-106367109D01*
X196951500Y-106390055D01*
X196951500Y-106523945D01*
X196986153Y-106653274D01*
X196986154Y-106653276D01*
X196986155Y-106653278D01*
X197053097Y-106769224D01*
X197053099Y-106769227D01*
X197147772Y-106863900D01*
X197147775Y-106863902D01*
X197239226Y-106916701D01*
X197263726Y-106930847D01*
X197393055Y-106965500D01*
X197393057Y-106965500D01*
X209972943Y-106965500D01*
X209972945Y-106965500D01*
X210102274Y-106930847D01*
X210218226Y-106863901D01*
X210312901Y-106769226D01*
X210379847Y-106653274D01*
X210414500Y-106523945D01*
X210414500Y-106390055D01*
X210408352Y-106367109D01*
X210410042Y-106296134D01*
X210449837Y-106237338D01*
X210515101Y-106209391D01*
X210530059Y-106208500D01*
X246863994Y-106208500D01*
X246864000Y-106208500D01*
X246919159Y-106202570D01*
X246971501Y-106191184D01*
X246998291Y-106183834D01*
X247086278Y-106133731D01*
X247139934Y-106087238D01*
X247172056Y-106053949D01*
X247218987Y-105964230D01*
X247238989Y-105896109D01*
X247249282Y-105824511D01*
X247278775Y-105759932D01*
X247338501Y-105721548D01*
X247409498Y-105721548D01*
X247469224Y-105759931D01*
G37*
%TD.AperFunction*%
%TA.AperFunction,Conductor*%
G36*
X247469224Y-86709931D02*
G01*
X247498717Y-86774512D01*
X247500000Y-86792444D01*
X247500000Y-104276293D01*
X247479998Y-104344414D01*
X247426342Y-104390907D01*
X247356068Y-104401011D01*
X247291488Y-104371517D01*
X247253104Y-104311791D01*
X247248722Y-104289763D01*
X247244092Y-104246700D01*
X247243570Y-104241841D01*
X247232184Y-104189499D01*
X247224834Y-104162709D01*
X247174731Y-104074722D01*
X247174727Y-104074718D01*
X247174724Y-104074713D01*
X247128247Y-104021076D01*
X247128230Y-104021058D01*
X247094949Y-103988944D01*
X247005232Y-103942014D01*
X247005231Y-103942013D01*
X247005230Y-103942013D01*
X246937109Y-103922011D01*
X246902255Y-103917000D01*
X246990000Y-103917000D01*
X246990000Y-98329000D01*
X221590000Y-98329000D01*
X196190000Y-98329000D01*
X196190000Y-103917000D01*
X196315993Y-103917000D01*
X196260838Y-103922930D01*
X196208516Y-103934312D01*
X196208510Y-103934313D01*
X196208499Y-103934316D01*
X196195707Y-103937825D01*
X196181710Y-103941665D01*
X196181709Y-103941666D01*
X196119562Y-103977055D01*
X196093720Y-103991770D01*
X196093713Y-103991775D01*
X196040076Y-104038252D01*
X196040058Y-104038269D01*
X196007944Y-104071549D01*
X196007944Y-104071550D01*
X195961014Y-104161267D01*
X195961013Y-104161270D01*
X195941011Y-104229391D01*
X195931291Y-104297000D01*
X195930500Y-104302502D01*
X195930500Y-104831900D01*
X195910498Y-104900021D01*
X195856842Y-104946514D01*
X195804500Y-104957900D01*
X190455913Y-104957900D01*
X190387792Y-104937898D01*
X190341299Y-104884242D01*
X190331195Y-104813968D01*
X190334203Y-104799301D01*
X190348500Y-104745945D01*
X190348500Y-104612055D01*
X190313847Y-104482726D01*
X190266668Y-104401011D01*
X190246902Y-104366775D01*
X190246900Y-104366772D01*
X190152227Y-104272099D01*
X190152224Y-104272097D01*
X190036278Y-104205155D01*
X190036276Y-104205154D01*
X190036274Y-104205153D01*
X189906945Y-104170500D01*
X189773055Y-104170500D01*
X189643726Y-104205153D01*
X189643724Y-104205154D01*
X189643721Y-104205155D01*
X189601004Y-104229819D01*
X189538004Y-104246700D01*
X175869303Y-104246700D01*
X175801182Y-104226698D01*
X175754689Y-104173042D01*
X175746620Y-104119203D01*
X175743500Y-104119203D01*
X175743500Y-103977056D01*
X175743500Y-103977055D01*
X175727409Y-103917000D01*
X185395000Y-103917000D01*
X185395000Y-98329000D01*
X160254500Y-98329000D01*
X160254500Y-97041500D01*
X185395000Y-97041500D01*
X185395000Y-94773500D01*
X186096943Y-94773500D01*
X186096945Y-94773500D01*
X186226274Y-94738847D01*
X186342226Y-94671901D01*
X186342229Y-94671898D01*
X186436902Y-94577226D01*
X186436902Y-94577224D01*
X186436909Y-94577212D01*
X186503847Y-94461274D01*
X186538500Y-94331945D01*
X186538500Y-94198055D01*
X186503847Y-94068726D01*
X186436901Y-93952774D01*
X186436900Y-93952772D01*
X186393723Y-93909595D01*
X186359697Y-93847283D01*
X186364762Y-93776468D01*
X186393723Y-93731405D01*
X186436900Y-93688227D01*
X186436902Y-93688224D01*
X186503847Y-93572274D01*
X186506317Y-93563055D01*
X195427500Y-93563055D01*
X195427500Y-93696945D01*
X195462153Y-93826274D01*
X195462154Y-93826276D01*
X195462155Y-93826278D01*
X195529097Y-93942224D01*
X195529099Y-93942227D01*
X195623772Y-94036900D01*
X195623775Y-94036902D01*
X195678899Y-94068728D01*
X195739726Y-94103847D01*
X195869055Y-94138500D01*
X195869057Y-94138500D01*
X196190000Y-94138500D01*
X196190000Y-97059000D01*
X221590000Y-97059000D01*
X246990000Y-97059000D01*
X246990000Y-87280000D01*
X221590000Y-87280000D01*
X196190000Y-87280000D01*
X196190000Y-92799188D01*
X196189500Y-92801055D01*
X196189500Y-92934945D01*
X196190000Y-92936811D01*
X196190000Y-93041692D01*
X196155504Y-93092661D01*
X196090240Y-93120609D01*
X196075281Y-93121500D01*
X195869055Y-93121500D01*
X195739726Y-93156153D01*
X195739724Y-93156154D01*
X195739721Y-93156155D01*
X195623775Y-93223097D01*
X195623772Y-93223099D01*
X195529099Y-93317772D01*
X195529097Y-93317775D01*
X195462155Y-93433721D01*
X195462154Y-93433724D01*
X195462153Y-93433726D01*
X195427500Y-93563055D01*
X186506317Y-93563055D01*
X186538500Y-93442945D01*
X186538500Y-93309055D01*
X186503847Y-93179726D01*
X186436901Y-93063774D01*
X186436900Y-93063772D01*
X186342227Y-92969099D01*
X186342224Y-92969097D01*
X186226278Y-92902155D01*
X186226276Y-92902154D01*
X186226274Y-92902153D01*
X186096945Y-92867500D01*
X185395000Y-92867500D01*
X185395000Y-87262500D01*
X160255821Y-87262500D01*
X160274502Y-87198879D01*
X160328158Y-87152386D01*
X160380500Y-87141000D01*
X185268994Y-87141000D01*
X185269000Y-87141000D01*
X185308792Y-87136721D01*
X185322261Y-87136000D01*
X196183945Y-87136000D01*
X196219441Y-87141103D01*
X196242891Y-87147989D01*
X196316000Y-87158500D01*
X196316003Y-87158500D01*
X246863994Y-87158500D01*
X246864000Y-87158500D01*
X246919159Y-87152570D01*
X246971501Y-87141184D01*
X246998291Y-87133834D01*
X247086278Y-87083731D01*
X247139934Y-87037238D01*
X247172056Y-87003949D01*
X247218987Y-86914230D01*
X247238989Y-86846109D01*
X247249282Y-86774511D01*
X247278775Y-86709932D01*
X247338501Y-86671548D01*
X247409498Y-86671548D01*
X247469224Y-86709931D01*
G37*
%TD.AperFunction*%
%TA.AperFunction,Conductor*%
G36*
X247442121Y-40270502D02*
G01*
X247488614Y-40324158D01*
X247500000Y-40376500D01*
X247500000Y-75526604D01*
X247479998Y-75594725D01*
X247426342Y-75641218D01*
X247356068Y-75651322D01*
X247291488Y-75621828D01*
X247253104Y-75562102D01*
X247248321Y-75535597D01*
X247246856Y-75515118D01*
X247241747Y-75479602D01*
X247240261Y-75470439D01*
X247203176Y-75376223D01*
X247164784Y-75316503D01*
X247136401Y-75279976D01*
X247054266Y-75220766D01*
X246990000Y-75191427D01*
X246990000Y-65055000D01*
X221590000Y-65055000D01*
X196190000Y-65055000D01*
X196190000Y-74466147D01*
X196174164Y-74461498D01*
X196127671Y-74407842D01*
X196117567Y-74337570D01*
X196119231Y-74326000D01*
X196119231Y-74325996D01*
X196099609Y-74189526D01*
X196099608Y-74189525D01*
X196099608Y-74189520D01*
X196042329Y-74064097D01*
X195952035Y-73959891D01*
X195952034Y-73959890D01*
X195952033Y-73959889D01*
X195836040Y-73885346D01*
X195703747Y-73846501D01*
X195703744Y-73846500D01*
X195703742Y-73846500D01*
X195565858Y-73846500D01*
X195565856Y-73846500D01*
X195565852Y-73846501D01*
X195433559Y-73885346D01*
X195317566Y-73959889D01*
X195317562Y-73959892D01*
X195258537Y-74028012D01*
X195198811Y-74066396D01*
X195163313Y-74071500D01*
X186621213Y-74071500D01*
X186553092Y-74051498D01*
X186532117Y-74034595D01*
X186344023Y-73846501D01*
X186137247Y-73639724D01*
X186137245Y-73639723D01*
X186137243Y-73639721D01*
X186050258Y-73589500D01*
X186038792Y-73586427D01*
X185953225Y-73563500D01*
X185953223Y-73563500D01*
X185395000Y-73563500D01*
X185395000Y-67981500D01*
X185903994Y-67981500D01*
X185904000Y-67981500D01*
X185959159Y-67975570D01*
X186011501Y-67964184D01*
X186038291Y-67956834D01*
X186126278Y-67906731D01*
X186179934Y-67860238D01*
X186212056Y-67826949D01*
X186258987Y-67737230D01*
X186278989Y-67669109D01*
X186289500Y-67596000D01*
X186289500Y-61400000D01*
X187390858Y-61400000D01*
X187409396Y-61623714D01*
X187464498Y-61841309D01*
X187464501Y-61841316D01*
X187510979Y-61947274D01*
X187554670Y-62046880D01*
X187569116Y-62068991D01*
X187677447Y-62234804D01*
X187829471Y-62399947D01*
X187829476Y-62399951D01*
X187829478Y-62399953D01*
X188006620Y-62537828D01*
X188204039Y-62644666D01*
X188416350Y-62717553D01*
X188637763Y-62754500D01*
X188637767Y-62754500D01*
X188862233Y-62754500D01*
X188862237Y-62754500D01*
X189083650Y-62717553D01*
X189295961Y-62644666D01*
X189493380Y-62537828D01*
X189670522Y-62399953D01*
X189706386Y-62360995D01*
X189822554Y-62234802D01*
X189894517Y-62124655D01*
X189948521Y-62078566D01*
X190018868Y-62068991D01*
X190083226Y-62098968D01*
X190105483Y-62124655D01*
X190177445Y-62234802D01*
X190329471Y-62399947D01*
X190329476Y-62399951D01*
X190329478Y-62399953D01*
X190506620Y-62537828D01*
X190704039Y-62644666D01*
X190916350Y-62717553D01*
X191137763Y-62754500D01*
X191137767Y-62754500D01*
X191362233Y-62754500D01*
X191362237Y-62754500D01*
X191583650Y-62717553D01*
X191795961Y-62644666D01*
X191993380Y-62537828D01*
X192170522Y-62399953D01*
X192206386Y-62360995D01*
X192322552Y-62234804D01*
X192322551Y-62234804D01*
X192322554Y-62234802D01*
X192445330Y-62046880D01*
X192535500Y-61841313D01*
X192590605Y-61623707D01*
X192609142Y-61400000D01*
X192590605Y-61176293D01*
X192535500Y-60958687D01*
X192445330Y-60753120D01*
X192322554Y-60565198D01*
X192322553Y-60565197D01*
X192322552Y-60565195D01*
X192170528Y-60400052D01*
X191993380Y-60262172D01*
X191993379Y-60262171D01*
X191795960Y-60155333D01*
X191795957Y-60155332D01*
X191583654Y-60082448D01*
X191583645Y-60082446D01*
X191539620Y-60075099D01*
X191362237Y-60045500D01*
X191137763Y-60045500D01*
X190989979Y-60070160D01*
X190916354Y-60082446D01*
X190916345Y-60082448D01*
X190704042Y-60155332D01*
X190704039Y-60155333D01*
X190506620Y-60262171D01*
X190506619Y-60262172D01*
X190329471Y-60400052D01*
X190177447Y-60565195D01*
X190105483Y-60675345D01*
X190051479Y-60721433D01*
X189981131Y-60731008D01*
X189916774Y-60701030D01*
X189894517Y-60675345D01*
X189822552Y-60565195D01*
X189670528Y-60400052D01*
X189493380Y-60262172D01*
X189493379Y-60262171D01*
X189295960Y-60155333D01*
X189295957Y-60155332D01*
X189083654Y-60082448D01*
X189083645Y-60082446D01*
X189039620Y-60075099D01*
X188862237Y-60045500D01*
X188637763Y-60045500D01*
X188489979Y-60070160D01*
X188416354Y-60082446D01*
X188416345Y-60082448D01*
X188204042Y-60155332D01*
X188204039Y-60155333D01*
X188006620Y-60262171D01*
X188006619Y-60262172D01*
X187829471Y-60400052D01*
X187677447Y-60565195D01*
X187554668Y-60753123D01*
X187464501Y-60958683D01*
X187464498Y-60958690D01*
X187409396Y-61176285D01*
X187409395Y-61176291D01*
X187409395Y-61176293D01*
X187401718Y-61268944D01*
X187390858Y-61400000D01*
X186289500Y-61400000D01*
X186289500Y-57900000D01*
X187390858Y-57900000D01*
X187409396Y-58123714D01*
X187464498Y-58341309D01*
X187464501Y-58341316D01*
X187554668Y-58546876D01*
X187554670Y-58546880D01*
X187569116Y-58568991D01*
X187677447Y-58734804D01*
X187829471Y-58899947D01*
X187829476Y-58899951D01*
X187829478Y-58899953D01*
X188006620Y-59037828D01*
X188204039Y-59144666D01*
X188416350Y-59217553D01*
X188637763Y-59254500D01*
X188637767Y-59254500D01*
X188862233Y-59254500D01*
X188862237Y-59254500D01*
X189083650Y-59217553D01*
X189295961Y-59144666D01*
X189493380Y-59037828D01*
X189670522Y-58899953D01*
X189822554Y-58734802D01*
X189894517Y-58624655D01*
X189948521Y-58578566D01*
X190018868Y-58568991D01*
X190083226Y-58598968D01*
X190105483Y-58624655D01*
X190177445Y-58734802D01*
X190329471Y-58899947D01*
X190329476Y-58899951D01*
X190329478Y-58899953D01*
X190506620Y-59037828D01*
X190704039Y-59144666D01*
X190916350Y-59217553D01*
X191137763Y-59254500D01*
X191137767Y-59254500D01*
X191362233Y-59254500D01*
X191362237Y-59254500D01*
X191583650Y-59217553D01*
X191795961Y-59144666D01*
X191993380Y-59037828D01*
X192170522Y-58899953D01*
X192322554Y-58734802D01*
X192445330Y-58546880D01*
X192535500Y-58341313D01*
X192590605Y-58123707D01*
X192609142Y-57900000D01*
X192590605Y-57676293D01*
X192535500Y-57458687D01*
X192445330Y-57253120D01*
X192322554Y-57065198D01*
X192322553Y-57065197D01*
X192322552Y-57065195D01*
X192170528Y-56900052D01*
X191993380Y-56762172D01*
X191993379Y-56762171D01*
X191795960Y-56655333D01*
X191795957Y-56655332D01*
X191583654Y-56582448D01*
X191583645Y-56582446D01*
X191539620Y-56575099D01*
X191362237Y-56545500D01*
X191137763Y-56545500D01*
X190989979Y-56570160D01*
X190916354Y-56582446D01*
X190916345Y-56582448D01*
X190704042Y-56655332D01*
X190704039Y-56655333D01*
X190506620Y-56762171D01*
X190506619Y-56762172D01*
X190329471Y-56900052D01*
X190177447Y-57065195D01*
X190105483Y-57175345D01*
X190051479Y-57221433D01*
X189981131Y-57231008D01*
X189916774Y-57201030D01*
X189894517Y-57175345D01*
X189822552Y-57065195D01*
X189670528Y-56900052D01*
X189493380Y-56762172D01*
X189493379Y-56762171D01*
X189295960Y-56655333D01*
X189295957Y-56655332D01*
X189083654Y-56582448D01*
X189083645Y-56582446D01*
X189039620Y-56575099D01*
X188862237Y-56545500D01*
X188637763Y-56545500D01*
X188489979Y-56570160D01*
X188416354Y-56582446D01*
X188416345Y-56582448D01*
X188204042Y-56655332D01*
X188204039Y-56655333D01*
X188006620Y-56762171D01*
X188006619Y-56762172D01*
X187829471Y-56900052D01*
X187677447Y-57065195D01*
X187554668Y-57253123D01*
X187464501Y-57458683D01*
X187464498Y-57458690D01*
X187409396Y-57676285D01*
X187390858Y-57900000D01*
X186289500Y-57900000D01*
X186289500Y-55258500D01*
X186309502Y-55190379D01*
X186363158Y-55143886D01*
X186415500Y-55132500D01*
X188444791Y-55132500D01*
X188512912Y-55152502D01*
X188559405Y-55206158D01*
X188569239Y-55238786D01*
X188585216Y-55339660D01*
X188655769Y-55556799D01*
X188655770Y-55556800D01*
X188759423Y-55760231D01*
X188893622Y-55944939D01*
X189055060Y-56106377D01*
X189055063Y-56106379D01*
X189239772Y-56240579D01*
X189443201Y-56344231D01*
X189660340Y-56414784D01*
X189885843Y-56450500D01*
X189885846Y-56450500D01*
X190114154Y-56450500D01*
X190114157Y-56450500D01*
X190339660Y-56414784D01*
X190556799Y-56344231D01*
X190760228Y-56240579D01*
X190944937Y-56106379D01*
X191106379Y-55944937D01*
X191240579Y-55760228D01*
X191344231Y-55556799D01*
X191414784Y-55339660D01*
X191430760Y-55238787D01*
X191461173Y-55174636D01*
X191521441Y-55137109D01*
X191555209Y-55132500D01*
X191556080Y-55132500D01*
X193899500Y-55132500D01*
X193967621Y-55152502D01*
X194014114Y-55206158D01*
X194025500Y-55258500D01*
X194025500Y-63532006D01*
X194031430Y-63587161D01*
X194035335Y-63605111D01*
X194042816Y-63639501D01*
X194050166Y-63666291D01*
X194054118Y-63673232D01*
X194100270Y-63754279D01*
X194100275Y-63754286D01*
X194136620Y-63796230D01*
X194146762Y-63807934D01*
X194180051Y-63840056D01*
X194269770Y-63886987D01*
X194337891Y-63906989D01*
X194411000Y-63917500D01*
X194411003Y-63917500D01*
X199873994Y-63917500D01*
X199874000Y-63917500D01*
X199929159Y-63911570D01*
X199981501Y-63900184D01*
X200008291Y-63892834D01*
X200096278Y-63842731D01*
X200149934Y-63796238D01*
X200182056Y-63762949D01*
X200228987Y-63673230D01*
X200248989Y-63605109D01*
X200259500Y-63532000D01*
X200259500Y-61200000D01*
X201159901Y-61200000D01*
X201180260Y-61432704D01*
X201240718Y-61658339D01*
X201240720Y-61658344D01*
X201339439Y-61870049D01*
X201393514Y-61947274D01*
X201859032Y-61481755D01*
X201879668Y-61531574D01*
X201956274Y-61646224D01*
X202053776Y-61743726D01*
X202168426Y-61820332D01*
X202218242Y-61840966D01*
X201752724Y-62306484D01*
X201752724Y-62306485D01*
X201829951Y-62360560D01*
X201829950Y-62360560D01*
X202041655Y-62459279D01*
X202041660Y-62459281D01*
X202267295Y-62519739D01*
X202500000Y-62540098D01*
X202732704Y-62519739D01*
X202958339Y-62459281D01*
X202958344Y-62459279D01*
X203170049Y-62360560D01*
X203170050Y-62360559D01*
X203247274Y-62306485D01*
X203247274Y-62306483D01*
X202781757Y-61840966D01*
X202831574Y-61820332D01*
X202946224Y-61743726D01*
X203043726Y-61646224D01*
X203120332Y-61531574D01*
X203140966Y-61481757D01*
X203606483Y-61947274D01*
X203606485Y-61947274D01*
X203660559Y-61870050D01*
X203660560Y-61870049D01*
X203759279Y-61658344D01*
X203759281Y-61658339D01*
X203819739Y-61432704D01*
X203840098Y-61200000D01*
X211079399Y-61200000D01*
X211099766Y-61432796D01*
X211160246Y-61658510D01*
X211160248Y-61658516D01*
X211259004Y-61870299D01*
X211259005Y-61870301D01*
X211393036Y-62061717D01*
X211393043Y-62061726D01*
X211558273Y-62226956D01*
X211558277Y-62226959D01*
X211558278Y-62226960D01*
X211749699Y-62360995D01*
X211961487Y-62459753D01*
X212160538Y-62513088D01*
X212185359Y-62519739D01*
X212187207Y-62520234D01*
X212420000Y-62540601D01*
X212652793Y-62520234D01*
X212878513Y-62459753D01*
X213090301Y-62360995D01*
X213281722Y-62226960D01*
X213446960Y-62061722D01*
X213580995Y-61870301D01*
X213679753Y-61658513D01*
X213740234Y-61432793D01*
X213760601Y-61200000D01*
X216159399Y-61200000D01*
X216179766Y-61432796D01*
X216240246Y-61658510D01*
X216240248Y-61658516D01*
X216339004Y-61870299D01*
X216339005Y-61870301D01*
X216473036Y-62061717D01*
X216473043Y-62061726D01*
X216638273Y-62226956D01*
X216638277Y-62226959D01*
X216638278Y-62226960D01*
X216829699Y-62360995D01*
X217041487Y-62459753D01*
X217240538Y-62513088D01*
X217265359Y-62519739D01*
X217267207Y-62520234D01*
X217500000Y-62540601D01*
X217732793Y-62520234D01*
X217958513Y-62459753D01*
X218170301Y-62360995D01*
X218361722Y-62226960D01*
X218526960Y-62061722D01*
X218660995Y-61870301D01*
X218759753Y-61658513D01*
X218820234Y-61432793D01*
X218840601Y-61200000D01*
X223579399Y-61200000D01*
X223599766Y-61432796D01*
X223660246Y-61658510D01*
X223660248Y-61658516D01*
X223759004Y-61870299D01*
X223759005Y-61870301D01*
X223893036Y-62061717D01*
X223893043Y-62061726D01*
X224058273Y-62226956D01*
X224058277Y-62226959D01*
X224058278Y-62226960D01*
X224249699Y-62360995D01*
X224461487Y-62459753D01*
X224660538Y-62513088D01*
X224685359Y-62519739D01*
X224687207Y-62520234D01*
X224920000Y-62540601D01*
X225152793Y-62520234D01*
X225378513Y-62459753D01*
X225590301Y-62360995D01*
X225781722Y-62226960D01*
X225946960Y-62061722D01*
X226080995Y-61870301D01*
X226179753Y-61658513D01*
X226240234Y-61432793D01*
X226260601Y-61200000D01*
X228659399Y-61200000D01*
X228679766Y-61432796D01*
X228740246Y-61658510D01*
X228740248Y-61658516D01*
X228839004Y-61870299D01*
X228839005Y-61870301D01*
X228973036Y-62061717D01*
X228973043Y-62061726D01*
X229138273Y-62226956D01*
X229138277Y-62226959D01*
X229138278Y-62226960D01*
X229329699Y-62360995D01*
X229541487Y-62459753D01*
X229740538Y-62513088D01*
X229765359Y-62519739D01*
X229767207Y-62520234D01*
X230000000Y-62540601D01*
X230232793Y-62520234D01*
X230458513Y-62459753D01*
X230670301Y-62360995D01*
X230861722Y-62226960D01*
X231026960Y-62061722D01*
X231160995Y-61870301D01*
X231259753Y-61658513D01*
X231320234Y-61432793D01*
X231340601Y-61200000D01*
X236139399Y-61200000D01*
X236159766Y-61432796D01*
X236220246Y-61658510D01*
X236220248Y-61658516D01*
X236319004Y-61870299D01*
X236319005Y-61870301D01*
X236453036Y-62061717D01*
X236453043Y-62061726D01*
X236618273Y-62226956D01*
X236618277Y-62226959D01*
X236618278Y-62226960D01*
X236809699Y-62360995D01*
X237021487Y-62459753D01*
X237220538Y-62513088D01*
X237245359Y-62519739D01*
X237247207Y-62520234D01*
X237480000Y-62540601D01*
X237712793Y-62520234D01*
X237938513Y-62459753D01*
X238150301Y-62360995D01*
X238341722Y-62226960D01*
X238506960Y-62061722D01*
X238640995Y-61870301D01*
X238739753Y-61658513D01*
X238800234Y-61432793D01*
X238820601Y-61200000D01*
X241219399Y-61200000D01*
X241239766Y-61432796D01*
X241300246Y-61658510D01*
X241300248Y-61658516D01*
X241399004Y-61870299D01*
X241399005Y-61870301D01*
X241533036Y-62061717D01*
X241533043Y-62061726D01*
X241698273Y-62226956D01*
X241698277Y-62226959D01*
X241698278Y-62226960D01*
X241889699Y-62360995D01*
X242101487Y-62459753D01*
X242300538Y-62513088D01*
X242325359Y-62519739D01*
X242327207Y-62520234D01*
X242560000Y-62540601D01*
X242792793Y-62520234D01*
X243018513Y-62459753D01*
X243230301Y-62360995D01*
X243421722Y-62226960D01*
X243586960Y-62061722D01*
X243720995Y-61870301D01*
X243819753Y-61658513D01*
X243880234Y-61432793D01*
X243900601Y-61200000D01*
X243880234Y-60967207D01*
X243819753Y-60741487D01*
X243720995Y-60529700D01*
X243586960Y-60338278D01*
X243421722Y-60173040D01*
X243421721Y-60173039D01*
X243421720Y-60173038D01*
X243421717Y-60173036D01*
X243230301Y-60039005D01*
X243230299Y-60039004D01*
X243018516Y-59940248D01*
X243018510Y-59940246D01*
X242792796Y-59879766D01*
X242560000Y-59859399D01*
X242327203Y-59879766D01*
X242101489Y-59940246D01*
X242101484Y-59940248D01*
X241889699Y-60039005D01*
X241698281Y-60173037D01*
X241698275Y-60173042D01*
X241533042Y-60338275D01*
X241533037Y-60338281D01*
X241399005Y-60529699D01*
X241300248Y-60741484D01*
X241300246Y-60741489D01*
X241239766Y-60967203D01*
X241219399Y-61200000D01*
X238820601Y-61200000D01*
X238800234Y-60967207D01*
X238739753Y-60741487D01*
X238640995Y-60529700D01*
X238506960Y-60338278D01*
X238341722Y-60173040D01*
X238341721Y-60173039D01*
X238341720Y-60173038D01*
X238341717Y-60173036D01*
X238150301Y-60039005D01*
X238150299Y-60039004D01*
X237938516Y-59940248D01*
X237938510Y-59940246D01*
X237712796Y-59879766D01*
X237480000Y-59859399D01*
X237247203Y-59879766D01*
X237021489Y-59940246D01*
X237021484Y-59940248D01*
X236809699Y-60039005D01*
X236618281Y-60173037D01*
X236618275Y-60173042D01*
X236453042Y-60338275D01*
X236453037Y-60338281D01*
X236319005Y-60529699D01*
X236220248Y-60741484D01*
X236220246Y-60741489D01*
X236159766Y-60967203D01*
X236139399Y-61200000D01*
X231340601Y-61200000D01*
X231320234Y-60967207D01*
X231259753Y-60741487D01*
X231160995Y-60529700D01*
X231026960Y-60338278D01*
X230861722Y-60173040D01*
X230861721Y-60173039D01*
X230861720Y-60173038D01*
X230861717Y-60173036D01*
X230670301Y-60039005D01*
X230670299Y-60039004D01*
X230458516Y-59940248D01*
X230458510Y-59940246D01*
X230232796Y-59879766D01*
X230000000Y-59859399D01*
X229767203Y-59879766D01*
X229541489Y-59940246D01*
X229541484Y-59940248D01*
X229329699Y-60039005D01*
X229138281Y-60173037D01*
X229138275Y-60173042D01*
X228973042Y-60338275D01*
X228973037Y-60338281D01*
X228839005Y-60529699D01*
X228740248Y-60741484D01*
X228740246Y-60741489D01*
X228679766Y-60967203D01*
X228659399Y-61200000D01*
X226260601Y-61200000D01*
X226240234Y-60967207D01*
X226179753Y-60741487D01*
X226080995Y-60529700D01*
X225946960Y-60338278D01*
X225781722Y-60173040D01*
X225781721Y-60173039D01*
X225781720Y-60173038D01*
X225781717Y-60173036D01*
X225590301Y-60039005D01*
X225590299Y-60039004D01*
X225378516Y-59940248D01*
X225378510Y-59940246D01*
X225152796Y-59879766D01*
X224920000Y-59859399D01*
X224687203Y-59879766D01*
X224461489Y-59940246D01*
X224461484Y-59940248D01*
X224249699Y-60039005D01*
X224058281Y-60173037D01*
X224058275Y-60173042D01*
X223893042Y-60338275D01*
X223893037Y-60338281D01*
X223759005Y-60529699D01*
X223660248Y-60741484D01*
X223660246Y-60741489D01*
X223599766Y-60967203D01*
X223579399Y-61200000D01*
X218840601Y-61200000D01*
X218820234Y-60967207D01*
X218759753Y-60741487D01*
X218660995Y-60529700D01*
X218526960Y-60338278D01*
X218361722Y-60173040D01*
X218361721Y-60173039D01*
X218361720Y-60173038D01*
X218361717Y-60173036D01*
X218170301Y-60039005D01*
X218170299Y-60039004D01*
X217958516Y-59940248D01*
X217958510Y-59940246D01*
X217732796Y-59879766D01*
X217500000Y-59859399D01*
X217267203Y-59879766D01*
X217041489Y-59940246D01*
X217041484Y-59940248D01*
X216829699Y-60039005D01*
X216638281Y-60173037D01*
X216638275Y-60173042D01*
X216473042Y-60338275D01*
X216473037Y-60338281D01*
X216339005Y-60529699D01*
X216240248Y-60741484D01*
X216240246Y-60741489D01*
X216179766Y-60967203D01*
X216159399Y-61200000D01*
X213760601Y-61200000D01*
X213740234Y-60967207D01*
X213679753Y-60741487D01*
X213580995Y-60529700D01*
X213446960Y-60338278D01*
X213281722Y-60173040D01*
X213281721Y-60173039D01*
X213281720Y-60173038D01*
X213281717Y-60173036D01*
X213090301Y-60039005D01*
X213090299Y-60039004D01*
X212878516Y-59940248D01*
X212878510Y-59940246D01*
X212652796Y-59879766D01*
X212420000Y-59859399D01*
X212187203Y-59879766D01*
X211961489Y-59940246D01*
X211961484Y-59940248D01*
X211749699Y-60039005D01*
X211558281Y-60173037D01*
X211558275Y-60173042D01*
X211393042Y-60338275D01*
X211393037Y-60338281D01*
X211259005Y-60529699D01*
X211160248Y-60741484D01*
X211160246Y-60741489D01*
X211099766Y-60967203D01*
X211079399Y-61200000D01*
X203840098Y-61200000D01*
X203819739Y-60967295D01*
X203759281Y-60741660D01*
X203759279Y-60741655D01*
X203660559Y-60529950D01*
X203606485Y-60452724D01*
X203606484Y-60452724D01*
X203140966Y-60918242D01*
X203120332Y-60868426D01*
X203043726Y-60753776D01*
X202946224Y-60656274D01*
X202831574Y-60579668D01*
X202781756Y-60559033D01*
X203247274Y-60093514D01*
X203247274Y-60093513D01*
X203170048Y-60039439D01*
X203170049Y-60039439D01*
X202958344Y-59940720D01*
X202958339Y-59940718D01*
X202732704Y-59880260D01*
X202500000Y-59859901D01*
X202267295Y-59880260D01*
X202041660Y-59940718D01*
X202041655Y-59940720D01*
X201829951Y-60039439D01*
X201752723Y-60093514D01*
X202218242Y-60559033D01*
X202168426Y-60579668D01*
X202053776Y-60656274D01*
X201956274Y-60753776D01*
X201879668Y-60868426D01*
X201859033Y-60918242D01*
X201393514Y-60452723D01*
X201339439Y-60529951D01*
X201240720Y-60741655D01*
X201240718Y-60741660D01*
X201180260Y-60967295D01*
X201159901Y-61200000D01*
X200259500Y-61200000D01*
X200259500Y-52500000D01*
X201159901Y-52500000D01*
X201180260Y-52732704D01*
X201240718Y-52958339D01*
X201240720Y-52958344D01*
X201339439Y-53170049D01*
X201393514Y-53247274D01*
X201859032Y-52781755D01*
X201879668Y-52831574D01*
X201956274Y-52946224D01*
X202053776Y-53043726D01*
X202168426Y-53120332D01*
X202218242Y-53140966D01*
X201752724Y-53606484D01*
X201752724Y-53606485D01*
X201829951Y-53660560D01*
X201829950Y-53660560D01*
X202041655Y-53759279D01*
X202041660Y-53759281D01*
X202267295Y-53819739D01*
X202500000Y-53840098D01*
X202732704Y-53819739D01*
X202958339Y-53759281D01*
X202958344Y-53759279D01*
X203170049Y-53660560D01*
X203170050Y-53660559D01*
X203247274Y-53606485D01*
X203247274Y-53606483D01*
X202781757Y-53140966D01*
X202831574Y-53120332D01*
X202946224Y-53043726D01*
X203043726Y-52946224D01*
X203120332Y-52831574D01*
X203140966Y-52781757D01*
X203606483Y-53247274D01*
X203606485Y-53247274D01*
X203660559Y-53170050D01*
X203660560Y-53170049D01*
X203759279Y-52958344D01*
X203759281Y-52958339D01*
X203819739Y-52732704D01*
X203840098Y-52500000D01*
X211079399Y-52500000D01*
X211099766Y-52732796D01*
X211160246Y-52958510D01*
X211160248Y-52958516D01*
X211259004Y-53170299D01*
X211259005Y-53170301D01*
X211393036Y-53361717D01*
X211393043Y-53361726D01*
X211558273Y-53526956D01*
X211558277Y-53526959D01*
X211558278Y-53526960D01*
X211749699Y-53660995D01*
X211961487Y-53759753D01*
X212160538Y-53813088D01*
X212185359Y-53819739D01*
X212187207Y-53820234D01*
X212420000Y-53840601D01*
X212652793Y-53820234D01*
X212878513Y-53759753D01*
X213090301Y-53660995D01*
X213281722Y-53526960D01*
X213446960Y-53361722D01*
X213580995Y-53170301D01*
X213679753Y-52958513D01*
X213740234Y-52732793D01*
X213760601Y-52500000D01*
X216159399Y-52500000D01*
X216179766Y-52732796D01*
X216240246Y-52958510D01*
X216240248Y-52958516D01*
X216339004Y-53170299D01*
X216339005Y-53170301D01*
X216473036Y-53361717D01*
X216473043Y-53361726D01*
X216638273Y-53526956D01*
X216638277Y-53526959D01*
X216638278Y-53526960D01*
X216829699Y-53660995D01*
X217041487Y-53759753D01*
X217240538Y-53813088D01*
X217265359Y-53819739D01*
X217267207Y-53820234D01*
X217500000Y-53840601D01*
X217732793Y-53820234D01*
X217958513Y-53759753D01*
X218170301Y-53660995D01*
X218361722Y-53526960D01*
X218526960Y-53361722D01*
X218660995Y-53170301D01*
X218759753Y-52958513D01*
X218820234Y-52732793D01*
X218840601Y-52500000D01*
X223579399Y-52500000D01*
X223599766Y-52732796D01*
X223660246Y-52958510D01*
X223660248Y-52958516D01*
X223759004Y-53170299D01*
X223759005Y-53170301D01*
X223893036Y-53361717D01*
X223893043Y-53361726D01*
X224058273Y-53526956D01*
X224058277Y-53526959D01*
X224058278Y-53526960D01*
X224249699Y-53660995D01*
X224461487Y-53759753D01*
X224660538Y-53813088D01*
X224685359Y-53819739D01*
X224687207Y-53820234D01*
X224920000Y-53840601D01*
X225152793Y-53820234D01*
X225378513Y-53759753D01*
X225590301Y-53660995D01*
X225781722Y-53526960D01*
X225946960Y-53361722D01*
X226080995Y-53170301D01*
X226179753Y-52958513D01*
X226240234Y-52732793D01*
X226260601Y-52500000D01*
X228659399Y-52500000D01*
X228679766Y-52732796D01*
X228740246Y-52958510D01*
X228740248Y-52958516D01*
X228839004Y-53170299D01*
X228839005Y-53170301D01*
X228973036Y-53361717D01*
X228973043Y-53361726D01*
X229138273Y-53526956D01*
X229138277Y-53526959D01*
X229138278Y-53526960D01*
X229329699Y-53660995D01*
X229541487Y-53759753D01*
X229740538Y-53813088D01*
X229765359Y-53819739D01*
X229767207Y-53820234D01*
X230000000Y-53840601D01*
X230232793Y-53820234D01*
X230458513Y-53759753D01*
X230670301Y-53660995D01*
X230861722Y-53526960D01*
X231026960Y-53361722D01*
X231160995Y-53170301D01*
X231259753Y-52958513D01*
X231320234Y-52732793D01*
X231340601Y-52500000D01*
X236139399Y-52500000D01*
X236159766Y-52732796D01*
X236220246Y-52958510D01*
X236220248Y-52958516D01*
X236319004Y-53170299D01*
X236319005Y-53170301D01*
X236453036Y-53361717D01*
X236453043Y-53361726D01*
X236618273Y-53526956D01*
X236618277Y-53526959D01*
X236618278Y-53526960D01*
X236809699Y-53660995D01*
X237021487Y-53759753D01*
X237220538Y-53813088D01*
X237245359Y-53819739D01*
X237247207Y-53820234D01*
X237480000Y-53840601D01*
X237712793Y-53820234D01*
X237938513Y-53759753D01*
X238150301Y-53660995D01*
X238341722Y-53526960D01*
X238506960Y-53361722D01*
X238640995Y-53170301D01*
X238739753Y-52958513D01*
X238800234Y-52732793D01*
X238820601Y-52500000D01*
X241219399Y-52500000D01*
X241239766Y-52732796D01*
X241300246Y-52958510D01*
X241300248Y-52958516D01*
X241399004Y-53170299D01*
X241399005Y-53170301D01*
X241533036Y-53361717D01*
X241533043Y-53361726D01*
X241698273Y-53526956D01*
X241698277Y-53526959D01*
X241698278Y-53526960D01*
X241889699Y-53660995D01*
X242101487Y-53759753D01*
X242300538Y-53813088D01*
X242325359Y-53819739D01*
X242327207Y-53820234D01*
X242560000Y-53840601D01*
X242792793Y-53820234D01*
X243018513Y-53759753D01*
X243230301Y-53660995D01*
X243421722Y-53526960D01*
X243586960Y-53361722D01*
X243720995Y-53170301D01*
X243819753Y-52958513D01*
X243880234Y-52732793D01*
X243900601Y-52500000D01*
X243880234Y-52267207D01*
X243819753Y-52041487D01*
X243720995Y-51829700D01*
X243586960Y-51638278D01*
X243421722Y-51473040D01*
X243421721Y-51473039D01*
X243421720Y-51473038D01*
X243421717Y-51473036D01*
X243230301Y-51339005D01*
X243230299Y-51339004D01*
X243018516Y-51240248D01*
X243018510Y-51240246D01*
X242792796Y-51179766D01*
X242560000Y-51159399D01*
X242327203Y-51179766D01*
X242101489Y-51240246D01*
X242101484Y-51240248D01*
X241889699Y-51339005D01*
X241698281Y-51473037D01*
X241698275Y-51473042D01*
X241533042Y-51638275D01*
X241533037Y-51638281D01*
X241399005Y-51829699D01*
X241300248Y-52041484D01*
X241300246Y-52041489D01*
X241239766Y-52267203D01*
X241219399Y-52500000D01*
X238820601Y-52500000D01*
X238800234Y-52267207D01*
X238739753Y-52041487D01*
X238640995Y-51829700D01*
X238506960Y-51638278D01*
X238341722Y-51473040D01*
X238341721Y-51473039D01*
X238341720Y-51473038D01*
X238341717Y-51473036D01*
X238150301Y-51339005D01*
X238150299Y-51339004D01*
X237938516Y-51240248D01*
X237938510Y-51240246D01*
X237712796Y-51179766D01*
X237480000Y-51159399D01*
X237247203Y-51179766D01*
X237021489Y-51240246D01*
X237021484Y-51240248D01*
X236809699Y-51339005D01*
X236618281Y-51473037D01*
X236618275Y-51473042D01*
X236453042Y-51638275D01*
X236453037Y-51638281D01*
X236319005Y-51829699D01*
X236220248Y-52041484D01*
X236220246Y-52041489D01*
X236159766Y-52267203D01*
X236139399Y-52500000D01*
X231340601Y-52500000D01*
X231320234Y-52267207D01*
X231259753Y-52041487D01*
X231160995Y-51829700D01*
X231026960Y-51638278D01*
X230861722Y-51473040D01*
X230861721Y-51473039D01*
X230861720Y-51473038D01*
X230861717Y-51473036D01*
X230670301Y-51339005D01*
X230670299Y-51339004D01*
X230458516Y-51240248D01*
X230458510Y-51240246D01*
X230232796Y-51179766D01*
X230000000Y-51159399D01*
X229767203Y-51179766D01*
X229541489Y-51240246D01*
X229541484Y-51240248D01*
X229329699Y-51339005D01*
X229138281Y-51473037D01*
X229138275Y-51473042D01*
X228973042Y-51638275D01*
X228973037Y-51638281D01*
X228839005Y-51829699D01*
X228740248Y-52041484D01*
X228740246Y-52041489D01*
X228679766Y-52267203D01*
X228659399Y-52500000D01*
X226260601Y-52500000D01*
X226240234Y-52267207D01*
X226179753Y-52041487D01*
X226080995Y-51829700D01*
X225946960Y-51638278D01*
X225781722Y-51473040D01*
X225781721Y-51473039D01*
X225781720Y-51473038D01*
X225781717Y-51473036D01*
X225590301Y-51339005D01*
X225590299Y-51339004D01*
X225378516Y-51240248D01*
X225378510Y-51240246D01*
X225152796Y-51179766D01*
X224920000Y-51159399D01*
X224687203Y-51179766D01*
X224461489Y-51240246D01*
X224461484Y-51240248D01*
X224249699Y-51339005D01*
X224058281Y-51473037D01*
X224058275Y-51473042D01*
X223893042Y-51638275D01*
X223893037Y-51638281D01*
X223759005Y-51829699D01*
X223660248Y-52041484D01*
X223660246Y-52041489D01*
X223599766Y-52267203D01*
X223579399Y-52500000D01*
X218840601Y-52500000D01*
X218820234Y-52267207D01*
X218759753Y-52041487D01*
X218660995Y-51829700D01*
X218526960Y-51638278D01*
X218361722Y-51473040D01*
X218361721Y-51473039D01*
X218361720Y-51473038D01*
X218361717Y-51473036D01*
X218170301Y-51339005D01*
X218170299Y-51339004D01*
X217958516Y-51240248D01*
X217958510Y-51240246D01*
X217732796Y-51179766D01*
X217500000Y-51159399D01*
X217267203Y-51179766D01*
X217041489Y-51240246D01*
X217041484Y-51240248D01*
X216829699Y-51339005D01*
X216638281Y-51473037D01*
X216638275Y-51473042D01*
X216473042Y-51638275D01*
X216473037Y-51638281D01*
X216339005Y-51829699D01*
X216240248Y-52041484D01*
X216240246Y-52041489D01*
X216179766Y-52267203D01*
X216159399Y-52500000D01*
X213760601Y-52500000D01*
X213740234Y-52267207D01*
X213679753Y-52041487D01*
X213580995Y-51829700D01*
X213446960Y-51638278D01*
X213281722Y-51473040D01*
X213281721Y-51473039D01*
X213281720Y-51473038D01*
X213281717Y-51473036D01*
X213090301Y-51339005D01*
X213090299Y-51339004D01*
X212878516Y-51240248D01*
X212878510Y-51240246D01*
X212652796Y-51179766D01*
X212420000Y-51159399D01*
X212187203Y-51179766D01*
X211961489Y-51240246D01*
X211961484Y-51240248D01*
X211749699Y-51339005D01*
X211558281Y-51473037D01*
X211558275Y-51473042D01*
X211393042Y-51638275D01*
X211393037Y-51638281D01*
X211259005Y-51829699D01*
X211160248Y-52041484D01*
X211160246Y-52041489D01*
X211099766Y-52267203D01*
X211079399Y-52500000D01*
X203840098Y-52500000D01*
X203819739Y-52267295D01*
X203759281Y-52041660D01*
X203759279Y-52041655D01*
X203660559Y-51829950D01*
X203606485Y-51752724D01*
X203606484Y-51752724D01*
X203140966Y-52218242D01*
X203120332Y-52168426D01*
X203043726Y-52053776D01*
X202946224Y-51956274D01*
X202831574Y-51879668D01*
X202781756Y-51859033D01*
X203247274Y-51393514D01*
X203247274Y-51393513D01*
X203170048Y-51339439D01*
X203170049Y-51339439D01*
X202958344Y-51240720D01*
X202958339Y-51240718D01*
X202732704Y-51180260D01*
X202500000Y-51159901D01*
X202267295Y-51180260D01*
X202041660Y-51240718D01*
X202041655Y-51240720D01*
X201829951Y-51339439D01*
X201752723Y-51393514D01*
X202218242Y-51859033D01*
X202168426Y-51879668D01*
X202053776Y-51956274D01*
X201956274Y-52053776D01*
X201879668Y-52168426D01*
X201859033Y-52218242D01*
X201393514Y-51752723D01*
X201339439Y-51829951D01*
X201240720Y-52041655D01*
X201240718Y-52041660D01*
X201180260Y-52267295D01*
X201159901Y-52500000D01*
X200259500Y-52500000D01*
X200259500Y-40376500D01*
X200279502Y-40308379D01*
X200333158Y-40261886D01*
X200385500Y-40250500D01*
X247374000Y-40250500D01*
X247442121Y-40270502D01*
G37*
%TD.AperFunction*%
%TD*%
%TA.AperFunction,Conductor*%
%TO.N,GNDI*%
G36*
X185972121Y-40270502D02*
G01*
X186018614Y-40324158D01*
X186030000Y-40376500D01*
X186030000Y-67596000D01*
X186009998Y-67664121D01*
X185956342Y-67710614D01*
X185904000Y-67722000D01*
X159995000Y-67722000D01*
X159995000Y-141255000D01*
X152628000Y-141255000D01*
X152559879Y-141234998D01*
X152513386Y-141181342D01*
X152502000Y-141129000D01*
X152502000Y-61200000D01*
X155919399Y-61200000D01*
X155939766Y-61432796D01*
X156000246Y-61658510D01*
X156000248Y-61658516D01*
X156099004Y-61870299D01*
X156099005Y-61870301D01*
X156233036Y-62061717D01*
X156233043Y-62061726D01*
X156398273Y-62226956D01*
X156398277Y-62226959D01*
X156398278Y-62226960D01*
X156589699Y-62360995D01*
X156801487Y-62459753D01*
X157000538Y-62513088D01*
X157025359Y-62519739D01*
X157027207Y-62520234D01*
X157260000Y-62540601D01*
X157492793Y-62520234D01*
X157718513Y-62459753D01*
X157930301Y-62360995D01*
X158121722Y-62226960D01*
X158286960Y-62061722D01*
X158420995Y-61870301D01*
X158519753Y-61658513D01*
X158580234Y-61432793D01*
X158600601Y-61200000D01*
X160999399Y-61200000D01*
X161019766Y-61432796D01*
X161080246Y-61658510D01*
X161080248Y-61658516D01*
X161179004Y-61870299D01*
X161179005Y-61870301D01*
X161313036Y-62061717D01*
X161313043Y-62061726D01*
X161478273Y-62226956D01*
X161478277Y-62226959D01*
X161478278Y-62226960D01*
X161669699Y-62360995D01*
X161881487Y-62459753D01*
X162080538Y-62513088D01*
X162105359Y-62519739D01*
X162107207Y-62520234D01*
X162340000Y-62540601D01*
X162572793Y-62520234D01*
X162798513Y-62459753D01*
X163010301Y-62360995D01*
X163201722Y-62226960D01*
X163366960Y-62061722D01*
X163500995Y-61870301D01*
X163599753Y-61658513D01*
X163660234Y-61432793D01*
X163680601Y-61200000D01*
X166079399Y-61200000D01*
X166099766Y-61432796D01*
X166160246Y-61658510D01*
X166160248Y-61658516D01*
X166259004Y-61870299D01*
X166259005Y-61870301D01*
X166393036Y-62061717D01*
X166393043Y-62061726D01*
X166558273Y-62226956D01*
X166558277Y-62226959D01*
X166558278Y-62226960D01*
X166749699Y-62360995D01*
X166961487Y-62459753D01*
X167160538Y-62513088D01*
X167185359Y-62519739D01*
X167187207Y-62520234D01*
X167420000Y-62540601D01*
X167652793Y-62520234D01*
X167878513Y-62459753D01*
X168090301Y-62360995D01*
X168281722Y-62226960D01*
X168446960Y-62061722D01*
X168580995Y-61870301D01*
X168679753Y-61658513D01*
X168740234Y-61432793D01*
X168760601Y-61200000D01*
X171159399Y-61200000D01*
X171179766Y-61432796D01*
X171240246Y-61658510D01*
X171240248Y-61658516D01*
X171339004Y-61870299D01*
X171339005Y-61870301D01*
X171473036Y-62061717D01*
X171473043Y-62061726D01*
X171638273Y-62226956D01*
X171638277Y-62226959D01*
X171638278Y-62226960D01*
X171829699Y-62360995D01*
X172041487Y-62459753D01*
X172240538Y-62513088D01*
X172265359Y-62519739D01*
X172267207Y-62520234D01*
X172500000Y-62540601D01*
X172732793Y-62520234D01*
X172958513Y-62459753D01*
X173170301Y-62360995D01*
X173361722Y-62226960D01*
X173526960Y-62061722D01*
X173660995Y-61870301D01*
X173759753Y-61658513D01*
X173820234Y-61432793D01*
X173840601Y-61200000D01*
X176239399Y-61200000D01*
X176259766Y-61432796D01*
X176320246Y-61658510D01*
X176320248Y-61658516D01*
X176419004Y-61870299D01*
X176419005Y-61870301D01*
X176553036Y-62061717D01*
X176553043Y-62061726D01*
X176718273Y-62226956D01*
X176718277Y-62226959D01*
X176718278Y-62226960D01*
X176909699Y-62360995D01*
X177121487Y-62459753D01*
X177320538Y-62513088D01*
X177345359Y-62519739D01*
X177347207Y-62520234D01*
X177580000Y-62540601D01*
X177812793Y-62520234D01*
X178038513Y-62459753D01*
X178250301Y-62360995D01*
X178441722Y-62226960D01*
X178606960Y-62061722D01*
X178740995Y-61870301D01*
X178839753Y-61658513D01*
X178900234Y-61432793D01*
X178920601Y-61200000D01*
X181319901Y-61200000D01*
X181340260Y-61432704D01*
X181400718Y-61658339D01*
X181400720Y-61658344D01*
X181499439Y-61870049D01*
X181553514Y-61947274D01*
X182019032Y-61481755D01*
X182039668Y-61531574D01*
X182116274Y-61646224D01*
X182213776Y-61743726D01*
X182328426Y-61820332D01*
X182378242Y-61840966D01*
X181912724Y-62306484D01*
X181912724Y-62306485D01*
X181989951Y-62360560D01*
X181989950Y-62360560D01*
X182201655Y-62459279D01*
X182201660Y-62459281D01*
X182427295Y-62519739D01*
X182660000Y-62540098D01*
X182892704Y-62519739D01*
X183118339Y-62459281D01*
X183118344Y-62459279D01*
X183330049Y-62360560D01*
X183330050Y-62360559D01*
X183407274Y-62306485D01*
X183407274Y-62306483D01*
X182941757Y-61840966D01*
X182991574Y-61820332D01*
X183106224Y-61743726D01*
X183203726Y-61646224D01*
X183280332Y-61531574D01*
X183300966Y-61481757D01*
X183766483Y-61947274D01*
X183766485Y-61947274D01*
X183820559Y-61870050D01*
X183820560Y-61870049D01*
X183919279Y-61658344D01*
X183919281Y-61658339D01*
X183979739Y-61432704D01*
X184000098Y-61200000D01*
X183979739Y-60967295D01*
X183919281Y-60741660D01*
X183919279Y-60741655D01*
X183820559Y-60529950D01*
X183766485Y-60452724D01*
X183766484Y-60452724D01*
X183300966Y-60918242D01*
X183280332Y-60868426D01*
X183203726Y-60753776D01*
X183106224Y-60656274D01*
X182991574Y-60579668D01*
X182941756Y-60559033D01*
X183407274Y-60093514D01*
X183407274Y-60093513D01*
X183330048Y-60039439D01*
X183330049Y-60039439D01*
X183118344Y-59940720D01*
X183118339Y-59940718D01*
X182892704Y-59880260D01*
X182660000Y-59859901D01*
X182427295Y-59880260D01*
X182201660Y-59940718D01*
X182201655Y-59940720D01*
X181989951Y-60039439D01*
X181912723Y-60093514D01*
X182378242Y-60559033D01*
X182328426Y-60579668D01*
X182213776Y-60656274D01*
X182116274Y-60753776D01*
X182039668Y-60868426D01*
X182019033Y-60918242D01*
X181553514Y-60452723D01*
X181499439Y-60529951D01*
X181400720Y-60741655D01*
X181400718Y-60741660D01*
X181340260Y-60967295D01*
X181319901Y-61200000D01*
X178920601Y-61200000D01*
X178900234Y-60967207D01*
X178839753Y-60741487D01*
X178740995Y-60529700D01*
X178606960Y-60338278D01*
X178441722Y-60173040D01*
X178441721Y-60173039D01*
X178441720Y-60173038D01*
X178441717Y-60173036D01*
X178250301Y-60039005D01*
X178250299Y-60039004D01*
X178038516Y-59940248D01*
X178038510Y-59940246D01*
X177812796Y-59879766D01*
X177580000Y-59859399D01*
X177347203Y-59879766D01*
X177121489Y-59940246D01*
X177121484Y-59940248D01*
X176909699Y-60039005D01*
X176718281Y-60173037D01*
X176718275Y-60173042D01*
X176553042Y-60338275D01*
X176553037Y-60338281D01*
X176419005Y-60529699D01*
X176320248Y-60741484D01*
X176320246Y-60741489D01*
X176259766Y-60967203D01*
X176239399Y-61200000D01*
X173840601Y-61200000D01*
X173820234Y-60967207D01*
X173759753Y-60741487D01*
X173660995Y-60529700D01*
X173526960Y-60338278D01*
X173361722Y-60173040D01*
X173361721Y-60173039D01*
X173361720Y-60173038D01*
X173361717Y-60173036D01*
X173170301Y-60039005D01*
X173170299Y-60039004D01*
X172958516Y-59940248D01*
X172958510Y-59940246D01*
X172732796Y-59879766D01*
X172500000Y-59859399D01*
X172267203Y-59879766D01*
X172041489Y-59940246D01*
X172041484Y-59940248D01*
X171829699Y-60039005D01*
X171638281Y-60173037D01*
X171638275Y-60173042D01*
X171473042Y-60338275D01*
X171473037Y-60338281D01*
X171339005Y-60529699D01*
X171240248Y-60741484D01*
X171240246Y-60741489D01*
X171179766Y-60967203D01*
X171159399Y-61200000D01*
X168760601Y-61200000D01*
X168740234Y-60967207D01*
X168679753Y-60741487D01*
X168580995Y-60529700D01*
X168446960Y-60338278D01*
X168281722Y-60173040D01*
X168281721Y-60173039D01*
X168281720Y-60173038D01*
X168281717Y-60173036D01*
X168090301Y-60039005D01*
X168090299Y-60039004D01*
X167878516Y-59940248D01*
X167878510Y-59940246D01*
X167652796Y-59879766D01*
X167420000Y-59859399D01*
X167187203Y-59879766D01*
X166961489Y-59940246D01*
X166961484Y-59940248D01*
X166749699Y-60039005D01*
X166558281Y-60173037D01*
X166558275Y-60173042D01*
X166393042Y-60338275D01*
X166393037Y-60338281D01*
X166259005Y-60529699D01*
X166160248Y-60741484D01*
X166160246Y-60741489D01*
X166099766Y-60967203D01*
X166079399Y-61200000D01*
X163680601Y-61200000D01*
X163660234Y-60967207D01*
X163599753Y-60741487D01*
X163500995Y-60529700D01*
X163366960Y-60338278D01*
X163201722Y-60173040D01*
X163201721Y-60173039D01*
X163201720Y-60173038D01*
X163201717Y-60173036D01*
X163010301Y-60039005D01*
X163010299Y-60039004D01*
X162798516Y-59940248D01*
X162798510Y-59940246D01*
X162572796Y-59879766D01*
X162340000Y-59859399D01*
X162107203Y-59879766D01*
X161881489Y-59940246D01*
X161881484Y-59940248D01*
X161669699Y-60039005D01*
X161478281Y-60173037D01*
X161478275Y-60173042D01*
X161313042Y-60338275D01*
X161313037Y-60338281D01*
X161179005Y-60529699D01*
X161080248Y-60741484D01*
X161080246Y-60741489D01*
X161019766Y-60967203D01*
X160999399Y-61200000D01*
X158600601Y-61200000D01*
X158580234Y-60967207D01*
X158519753Y-60741487D01*
X158420995Y-60529700D01*
X158286960Y-60338278D01*
X158121722Y-60173040D01*
X158121721Y-60173039D01*
X158121720Y-60173038D01*
X158121717Y-60173036D01*
X157930301Y-60039005D01*
X157930299Y-60039004D01*
X157718516Y-59940248D01*
X157718510Y-59940246D01*
X157492796Y-59879766D01*
X157260000Y-59859399D01*
X157027203Y-59879766D01*
X156801489Y-59940246D01*
X156801484Y-59940248D01*
X156589699Y-60039005D01*
X156398281Y-60173037D01*
X156398275Y-60173042D01*
X156233042Y-60338275D01*
X156233037Y-60338281D01*
X156099005Y-60529699D01*
X156000248Y-60741484D01*
X156000246Y-60741489D01*
X155939766Y-60967203D01*
X155919399Y-61200000D01*
X152502000Y-61200000D01*
X152502000Y-52500000D01*
X155919399Y-52500000D01*
X155939766Y-52732796D01*
X156000246Y-52958510D01*
X156000248Y-52958516D01*
X156099004Y-53170299D01*
X156099005Y-53170301D01*
X156233036Y-53361717D01*
X156233043Y-53361726D01*
X156398273Y-53526956D01*
X156398277Y-53526959D01*
X156398278Y-53526960D01*
X156589699Y-53660995D01*
X156801487Y-53759753D01*
X157000538Y-53813088D01*
X157025359Y-53819739D01*
X157027207Y-53820234D01*
X157260000Y-53840601D01*
X157492793Y-53820234D01*
X157718513Y-53759753D01*
X157930301Y-53660995D01*
X158121722Y-53526960D01*
X158286960Y-53361722D01*
X158420995Y-53170301D01*
X158519753Y-52958513D01*
X158580234Y-52732793D01*
X158600601Y-52500000D01*
X160999399Y-52500000D01*
X161019766Y-52732796D01*
X161080246Y-52958510D01*
X161080248Y-52958516D01*
X161179004Y-53170299D01*
X161179005Y-53170301D01*
X161313036Y-53361717D01*
X161313043Y-53361726D01*
X161478273Y-53526956D01*
X161478277Y-53526959D01*
X161478278Y-53526960D01*
X161669699Y-53660995D01*
X161881487Y-53759753D01*
X162080538Y-53813088D01*
X162105359Y-53819739D01*
X162107207Y-53820234D01*
X162340000Y-53840601D01*
X162572793Y-53820234D01*
X162798513Y-53759753D01*
X163010301Y-53660995D01*
X163201722Y-53526960D01*
X163366960Y-53361722D01*
X163500995Y-53170301D01*
X163599753Y-52958513D01*
X163660234Y-52732793D01*
X163680601Y-52500000D01*
X166079399Y-52500000D01*
X166099766Y-52732796D01*
X166160246Y-52958510D01*
X166160248Y-52958516D01*
X166259004Y-53170299D01*
X166259005Y-53170301D01*
X166393036Y-53361717D01*
X166393043Y-53361726D01*
X166558273Y-53526956D01*
X166558277Y-53526959D01*
X166558278Y-53526960D01*
X166749699Y-53660995D01*
X166961487Y-53759753D01*
X167160538Y-53813088D01*
X167185359Y-53819739D01*
X167187207Y-53820234D01*
X167420000Y-53840601D01*
X167652793Y-53820234D01*
X167878513Y-53759753D01*
X168090301Y-53660995D01*
X168281722Y-53526960D01*
X168446960Y-53361722D01*
X168580995Y-53170301D01*
X168679753Y-52958513D01*
X168740234Y-52732793D01*
X168760601Y-52500000D01*
X171159399Y-52500000D01*
X171179766Y-52732796D01*
X171240246Y-52958510D01*
X171240248Y-52958516D01*
X171339004Y-53170299D01*
X171339005Y-53170301D01*
X171473036Y-53361717D01*
X171473043Y-53361726D01*
X171638273Y-53526956D01*
X171638277Y-53526959D01*
X171638278Y-53526960D01*
X171829699Y-53660995D01*
X172041487Y-53759753D01*
X172240538Y-53813088D01*
X172265359Y-53819739D01*
X172267207Y-53820234D01*
X172500000Y-53840601D01*
X172732793Y-53820234D01*
X172958513Y-53759753D01*
X173170301Y-53660995D01*
X173361722Y-53526960D01*
X173526960Y-53361722D01*
X173660995Y-53170301D01*
X173759753Y-52958513D01*
X173820234Y-52732793D01*
X173840601Y-52500000D01*
X176239399Y-52500000D01*
X176259766Y-52732796D01*
X176320246Y-52958510D01*
X176320248Y-52958516D01*
X176419004Y-53170299D01*
X176419005Y-53170301D01*
X176553036Y-53361717D01*
X176553043Y-53361726D01*
X176718273Y-53526956D01*
X176718277Y-53526959D01*
X176718278Y-53526960D01*
X176909699Y-53660995D01*
X177121487Y-53759753D01*
X177320538Y-53813088D01*
X177345359Y-53819739D01*
X177347207Y-53820234D01*
X177580000Y-53840601D01*
X177812793Y-53820234D01*
X178038513Y-53759753D01*
X178250301Y-53660995D01*
X178441722Y-53526960D01*
X178606960Y-53361722D01*
X178740995Y-53170301D01*
X178839753Y-52958513D01*
X178900234Y-52732793D01*
X178920601Y-52500000D01*
X181319901Y-52500000D01*
X181340260Y-52732704D01*
X181400718Y-52958339D01*
X181400720Y-52958344D01*
X181499439Y-53170049D01*
X181553514Y-53247274D01*
X182019032Y-52781755D01*
X182039668Y-52831574D01*
X182116274Y-52946224D01*
X182213776Y-53043726D01*
X182328426Y-53120332D01*
X182378242Y-53140966D01*
X181912724Y-53606484D01*
X181912724Y-53606485D01*
X181989951Y-53660560D01*
X181989950Y-53660560D01*
X182201655Y-53759279D01*
X182201660Y-53759281D01*
X182427295Y-53819739D01*
X182660000Y-53840098D01*
X182892704Y-53819739D01*
X183118339Y-53759281D01*
X183118344Y-53759279D01*
X183330049Y-53660560D01*
X183330050Y-53660559D01*
X183407274Y-53606485D01*
X183407274Y-53606483D01*
X182941757Y-53140966D01*
X182991574Y-53120332D01*
X183106224Y-53043726D01*
X183203726Y-52946224D01*
X183280332Y-52831574D01*
X183300966Y-52781757D01*
X183766483Y-53247274D01*
X183766485Y-53247274D01*
X183820559Y-53170050D01*
X183820560Y-53170049D01*
X183919279Y-52958344D01*
X183919281Y-52958339D01*
X183979739Y-52732704D01*
X184000098Y-52500000D01*
X183979739Y-52267295D01*
X183919281Y-52041660D01*
X183919279Y-52041655D01*
X183820559Y-51829950D01*
X183766485Y-51752724D01*
X183766484Y-51752724D01*
X183300966Y-52218242D01*
X183280332Y-52168426D01*
X183203726Y-52053776D01*
X183106224Y-51956274D01*
X182991574Y-51879668D01*
X182941756Y-51859033D01*
X183407274Y-51393514D01*
X183407274Y-51393513D01*
X183330048Y-51339439D01*
X183330049Y-51339439D01*
X183118344Y-51240720D01*
X183118339Y-51240718D01*
X182892704Y-51180260D01*
X182660000Y-51159901D01*
X182427295Y-51180260D01*
X182201660Y-51240718D01*
X182201655Y-51240720D01*
X181989951Y-51339439D01*
X181912723Y-51393514D01*
X182378242Y-51859033D01*
X182328426Y-51879668D01*
X182213776Y-51956274D01*
X182116274Y-52053776D01*
X182039668Y-52168426D01*
X182019033Y-52218242D01*
X181553514Y-51752723D01*
X181499439Y-51829951D01*
X181400720Y-52041655D01*
X181400718Y-52041660D01*
X181340260Y-52267295D01*
X181319901Y-52500000D01*
X178920601Y-52500000D01*
X178900234Y-52267207D01*
X178839753Y-52041487D01*
X178740995Y-51829700D01*
X178606960Y-51638278D01*
X178441722Y-51473040D01*
X178441721Y-51473039D01*
X178441720Y-51473038D01*
X178441717Y-51473036D01*
X178250301Y-51339005D01*
X178250299Y-51339004D01*
X178038516Y-51240248D01*
X178038510Y-51240246D01*
X177812796Y-51179766D01*
X177580000Y-51159399D01*
X177347203Y-51179766D01*
X177121489Y-51240246D01*
X177121484Y-51240248D01*
X176909699Y-51339005D01*
X176718281Y-51473037D01*
X176718275Y-51473042D01*
X176553042Y-51638275D01*
X176553037Y-51638281D01*
X176419005Y-51829699D01*
X176320248Y-52041484D01*
X176320246Y-52041489D01*
X176259766Y-52267203D01*
X176239399Y-52500000D01*
X173840601Y-52500000D01*
X173820234Y-52267207D01*
X173759753Y-52041487D01*
X173660995Y-51829700D01*
X173526960Y-51638278D01*
X173361722Y-51473040D01*
X173361721Y-51473039D01*
X173361720Y-51473038D01*
X173361717Y-51473036D01*
X173170301Y-51339005D01*
X173170299Y-51339004D01*
X172958516Y-51240248D01*
X172958510Y-51240246D01*
X172732796Y-51179766D01*
X172500000Y-51159399D01*
X172267203Y-51179766D01*
X172041489Y-51240246D01*
X172041484Y-51240248D01*
X171829699Y-51339005D01*
X171638281Y-51473037D01*
X171638275Y-51473042D01*
X171473042Y-51638275D01*
X171473037Y-51638281D01*
X171339005Y-51829699D01*
X171240248Y-52041484D01*
X171240246Y-52041489D01*
X171179766Y-52267203D01*
X171159399Y-52500000D01*
X168760601Y-52500000D01*
X168740234Y-52267207D01*
X168679753Y-52041487D01*
X168580995Y-51829700D01*
X168446960Y-51638278D01*
X168281722Y-51473040D01*
X168281721Y-51473039D01*
X168281720Y-51473038D01*
X168281717Y-51473036D01*
X168090301Y-51339005D01*
X168090299Y-51339004D01*
X167878516Y-51240248D01*
X167878510Y-51240246D01*
X167652796Y-51179766D01*
X167420000Y-51159399D01*
X167187203Y-51179766D01*
X166961489Y-51240246D01*
X166961484Y-51240248D01*
X166749699Y-51339005D01*
X166558281Y-51473037D01*
X166558275Y-51473042D01*
X166393042Y-51638275D01*
X166393037Y-51638281D01*
X166259005Y-51829699D01*
X166160248Y-52041484D01*
X166160246Y-52041489D01*
X166099766Y-52267203D01*
X166079399Y-52500000D01*
X163680601Y-52500000D01*
X163660234Y-52267207D01*
X163599753Y-52041487D01*
X163500995Y-51829700D01*
X163366960Y-51638278D01*
X163201722Y-51473040D01*
X163201721Y-51473039D01*
X163201720Y-51473038D01*
X163201717Y-51473036D01*
X163010301Y-51339005D01*
X163010299Y-51339004D01*
X162798516Y-51240248D01*
X162798510Y-51240246D01*
X162572796Y-51179766D01*
X162340000Y-51159399D01*
X162107203Y-51179766D01*
X161881489Y-51240246D01*
X161881484Y-51240248D01*
X161669699Y-51339005D01*
X161478281Y-51473037D01*
X161478275Y-51473042D01*
X161313042Y-51638275D01*
X161313037Y-51638281D01*
X161179005Y-51829699D01*
X161080248Y-52041484D01*
X161080246Y-52041489D01*
X161019766Y-52267203D01*
X160999399Y-52500000D01*
X158600601Y-52500000D01*
X158580234Y-52267207D01*
X158519753Y-52041487D01*
X158420995Y-51829700D01*
X158286960Y-51638278D01*
X158121722Y-51473040D01*
X158121721Y-51473039D01*
X158121720Y-51473038D01*
X158121717Y-51473036D01*
X157930301Y-51339005D01*
X157930299Y-51339004D01*
X157718516Y-51240248D01*
X157718510Y-51240246D01*
X157492796Y-51179766D01*
X157260000Y-51159399D01*
X157027203Y-51179766D01*
X156801489Y-51240246D01*
X156801484Y-51240248D01*
X156589699Y-51339005D01*
X156398281Y-51473037D01*
X156398275Y-51473042D01*
X156233042Y-51638275D01*
X156233037Y-51638281D01*
X156099005Y-51829699D01*
X156000248Y-52041484D01*
X156000246Y-52041489D01*
X155939766Y-52267203D01*
X155919399Y-52500000D01*
X152502000Y-52500000D01*
X152502000Y-40376500D01*
X152522002Y-40308379D01*
X152575658Y-40261886D01*
X152628000Y-40250500D01*
X185904000Y-40250500D01*
X185972121Y-40270502D01*
G37*
%TD.AperFunction*%
%TD*%
%TA.AperFunction,Conductor*%
%TO.N,/power/IN*%
G36*
X199942121Y-40270502D02*
G01*
X199988614Y-40324158D01*
X200000000Y-40376500D01*
X200000000Y-63532000D01*
X199979998Y-63600121D01*
X199926342Y-63646614D01*
X199874000Y-63658000D01*
X194411000Y-63658000D01*
X194342879Y-63637998D01*
X194296386Y-63584342D01*
X194285000Y-63532000D01*
X194285000Y-62433037D01*
X196905381Y-62433037D01*
X196905381Y-62433038D01*
X196961651Y-62459277D01*
X196961660Y-62459281D01*
X197187295Y-62519739D01*
X197420000Y-62540098D01*
X197652704Y-62519739D01*
X197878341Y-62459280D01*
X197934617Y-62433038D01*
X197934617Y-62433036D01*
X197420001Y-61918420D01*
X197420000Y-61918420D01*
X196905381Y-62433037D01*
X194285000Y-62433037D01*
X194285000Y-61200000D01*
X196079901Y-61200000D01*
X196100260Y-61432704D01*
X196160718Y-61658339D01*
X196160722Y-61658348D01*
X196186960Y-61714617D01*
X196186961Y-61714618D01*
X196701580Y-61199999D01*
X196632637Y-61131056D01*
X196720000Y-61131056D01*
X196720000Y-61268944D01*
X196746901Y-61404182D01*
X196799668Y-61531574D01*
X196876274Y-61646224D01*
X196973776Y-61743726D01*
X197088426Y-61820332D01*
X197215818Y-61873099D01*
X197351056Y-61900000D01*
X197488944Y-61900000D01*
X197624182Y-61873099D01*
X197751574Y-61820332D01*
X197866224Y-61743726D01*
X197963726Y-61646224D01*
X198040332Y-61531574D01*
X198093099Y-61404182D01*
X198120000Y-61268944D01*
X198120000Y-61199999D01*
X198138420Y-61199999D01*
X198138420Y-61200001D01*
X198653036Y-61714617D01*
X198653038Y-61714617D01*
X198679280Y-61658341D01*
X198739739Y-61432704D01*
X198760098Y-61200000D01*
X198739739Y-60967295D01*
X198679281Y-60741660D01*
X198679277Y-60741651D01*
X198653038Y-60685381D01*
X198653037Y-60685381D01*
X198138420Y-61199999D01*
X198120000Y-61199999D01*
X198120000Y-61131056D01*
X198093099Y-60995818D01*
X198040332Y-60868426D01*
X197963726Y-60753776D01*
X197866224Y-60656274D01*
X197751574Y-60579668D01*
X197624182Y-60526901D01*
X197488944Y-60500000D01*
X197351056Y-60500000D01*
X197215818Y-60526901D01*
X197088426Y-60579668D01*
X196973776Y-60656274D01*
X196876274Y-60753776D01*
X196799668Y-60868426D01*
X196746901Y-60995818D01*
X196720000Y-61131056D01*
X196632637Y-61131056D01*
X196186962Y-60685381D01*
X196186961Y-60685381D01*
X196160718Y-60741660D01*
X196100260Y-60967295D01*
X196079901Y-61200000D01*
X194285000Y-61200000D01*
X194285000Y-59966961D01*
X196905381Y-59966961D01*
X196905381Y-59966962D01*
X197419999Y-60481580D01*
X197420000Y-60481580D01*
X197934618Y-59966961D01*
X197934617Y-59966960D01*
X197878348Y-59940722D01*
X197878339Y-59940718D01*
X197652704Y-59880260D01*
X197420000Y-59859901D01*
X197187295Y-59880260D01*
X196961660Y-59940718D01*
X196905381Y-59966961D01*
X194285000Y-59966961D01*
X194285000Y-55022000D01*
X194284999Y-55021998D01*
X194136001Y-54873000D01*
X194136000Y-54873000D01*
X191556080Y-54873000D01*
X191487959Y-54852998D01*
X191441466Y-54799342D01*
X191431631Y-54766711D01*
X191414784Y-54660340D01*
X191344231Y-54443201D01*
X191240579Y-54239772D01*
X191106379Y-54055063D01*
X191106377Y-54055060D01*
X190944939Y-53893622D01*
X190760231Y-53759423D01*
X190760230Y-53759422D01*
X190760228Y-53759421D01*
X190708446Y-53733037D01*
X196905381Y-53733037D01*
X196905381Y-53733038D01*
X196961651Y-53759277D01*
X196961660Y-53759281D01*
X197187295Y-53819739D01*
X197420000Y-53840098D01*
X197652704Y-53819739D01*
X197878341Y-53759280D01*
X197934617Y-53733038D01*
X197934617Y-53733036D01*
X197420001Y-53218420D01*
X197420000Y-53218420D01*
X196905381Y-53733037D01*
X190708446Y-53733037D01*
X190556799Y-53655769D01*
X190339660Y-53585216D01*
X190114157Y-53549500D01*
X189885843Y-53549500D01*
X189660340Y-53585216D01*
X189660337Y-53585216D01*
X189660336Y-53585217D01*
X189443201Y-53655769D01*
X189443199Y-53655770D01*
X189239768Y-53759423D01*
X189055060Y-53893622D01*
X188893622Y-54055060D01*
X188759423Y-54239768D01*
X188759421Y-54239772D01*
X188655769Y-54443201D01*
X188585216Y-54660340D01*
X188571491Y-54747000D01*
X188568369Y-54766711D01*
X188537956Y-54830864D01*
X188477688Y-54868391D01*
X188443920Y-54873000D01*
X186415500Y-54873000D01*
X186347379Y-54852998D01*
X186300886Y-54799342D01*
X186289500Y-54747000D01*
X186289500Y-53349309D01*
X188219109Y-53349309D01*
X188416476Y-53417066D01*
X188637808Y-53454000D01*
X188862192Y-53454000D01*
X189083524Y-53417066D01*
X189083527Y-53417065D01*
X189280890Y-53349309D01*
X190719109Y-53349309D01*
X190916476Y-53417066D01*
X191137808Y-53454000D01*
X191362192Y-53454000D01*
X191583524Y-53417066D01*
X191583527Y-53417065D01*
X191780890Y-53349309D01*
X191250001Y-52818420D01*
X191250000Y-52818420D01*
X190719109Y-53349309D01*
X189280890Y-53349309D01*
X188750001Y-52818420D01*
X188750000Y-52818420D01*
X188219109Y-53349309D01*
X186289500Y-53349309D01*
X186289500Y-52100000D01*
X187391360Y-52100000D01*
X187409891Y-52323632D01*
X187464973Y-52541146D01*
X187464976Y-52541153D01*
X187503225Y-52628353D01*
X188031580Y-52099999D01*
X187962637Y-52031056D01*
X188050000Y-52031056D01*
X188050000Y-52168944D01*
X188076901Y-52304182D01*
X188129668Y-52431574D01*
X188206274Y-52546224D01*
X188303776Y-52643726D01*
X188418426Y-52720332D01*
X188545818Y-52773099D01*
X188681056Y-52800000D01*
X188818944Y-52800000D01*
X188954182Y-52773099D01*
X189081574Y-52720332D01*
X189196224Y-52643726D01*
X189293726Y-52546224D01*
X189370332Y-52431574D01*
X189423099Y-52304182D01*
X189450000Y-52168944D01*
X189450000Y-52099999D01*
X189468420Y-52099999D01*
X189468420Y-52100001D01*
X189991499Y-52623080D01*
X189997682Y-52632130D01*
X190002311Y-52632130D01*
X190008492Y-52623085D01*
X190531580Y-52099999D01*
X190462637Y-52031056D01*
X190550000Y-52031056D01*
X190550000Y-52168944D01*
X190576901Y-52304182D01*
X190629668Y-52431574D01*
X190706274Y-52546224D01*
X190803776Y-52643726D01*
X190918426Y-52720332D01*
X191045818Y-52773099D01*
X191181056Y-52800000D01*
X191318944Y-52800000D01*
X191454182Y-52773099D01*
X191581574Y-52720332D01*
X191696224Y-52643726D01*
X191793726Y-52546224D01*
X191870332Y-52431574D01*
X191923099Y-52304182D01*
X191950000Y-52168944D01*
X191950000Y-52099999D01*
X191968420Y-52099999D01*
X191968420Y-52100001D01*
X192496771Y-52628352D01*
X192496772Y-52628352D01*
X192535027Y-52541143D01*
X192545446Y-52500000D01*
X196079901Y-52500000D01*
X196100260Y-52732704D01*
X196160718Y-52958339D01*
X196160722Y-52958348D01*
X196186960Y-53014617D01*
X196186961Y-53014618D01*
X196701580Y-52499999D01*
X196632637Y-52431056D01*
X196720000Y-52431056D01*
X196720000Y-52568944D01*
X196746901Y-52704182D01*
X196799668Y-52831574D01*
X196876274Y-52946224D01*
X196973776Y-53043726D01*
X197088426Y-53120332D01*
X197215818Y-53173099D01*
X197351056Y-53200000D01*
X197488944Y-53200000D01*
X197624182Y-53173099D01*
X197751574Y-53120332D01*
X197866224Y-53043726D01*
X197963726Y-52946224D01*
X198040332Y-52831574D01*
X198093099Y-52704182D01*
X198120000Y-52568944D01*
X198120000Y-52499999D01*
X198138420Y-52499999D01*
X198138420Y-52500001D01*
X198653036Y-53014617D01*
X198653038Y-53014617D01*
X198679280Y-52958341D01*
X198739739Y-52732704D01*
X198760098Y-52500000D01*
X198739739Y-52267295D01*
X198679281Y-52041660D01*
X198679277Y-52041651D01*
X198653038Y-51985381D01*
X198653037Y-51985381D01*
X198138420Y-52499999D01*
X198120000Y-52499999D01*
X198120000Y-52431056D01*
X198093099Y-52295818D01*
X198040332Y-52168426D01*
X197963726Y-52053776D01*
X197866224Y-51956274D01*
X197751574Y-51879668D01*
X197624182Y-51826901D01*
X197488944Y-51800000D01*
X197351056Y-51800000D01*
X197215818Y-51826901D01*
X197088426Y-51879668D01*
X196973776Y-51956274D01*
X196876274Y-52053776D01*
X196799668Y-52168426D01*
X196746901Y-52295818D01*
X196720000Y-52431056D01*
X196632637Y-52431056D01*
X196186962Y-51985381D01*
X196186961Y-51985381D01*
X196160718Y-52041660D01*
X196100260Y-52267295D01*
X196079901Y-52500000D01*
X192545446Y-52500000D01*
X192590108Y-52323632D01*
X192608639Y-52100000D01*
X192590108Y-51876367D01*
X192535025Y-51658851D01*
X192535025Y-51658849D01*
X192496772Y-51571646D01*
X191968420Y-52099999D01*
X191950000Y-52099999D01*
X191950000Y-52031056D01*
X191923099Y-51895818D01*
X191870332Y-51768426D01*
X191793726Y-51653776D01*
X191696224Y-51556274D01*
X191581574Y-51479668D01*
X191454182Y-51426901D01*
X191318944Y-51400000D01*
X191181056Y-51400000D01*
X191045818Y-51426901D01*
X190918426Y-51479668D01*
X190803776Y-51556274D01*
X190706274Y-51653776D01*
X190629668Y-51768426D01*
X190576901Y-51895818D01*
X190550000Y-52031056D01*
X190462637Y-52031056D01*
X190008492Y-51576911D01*
X190002313Y-51567868D01*
X189997682Y-51567868D01*
X189991500Y-51576918D01*
X189468420Y-52099999D01*
X189450000Y-52099999D01*
X189450000Y-52031056D01*
X189423099Y-51895818D01*
X189370332Y-51768426D01*
X189293726Y-51653776D01*
X189196224Y-51556274D01*
X189081574Y-51479668D01*
X188954182Y-51426901D01*
X188818944Y-51400000D01*
X188681056Y-51400000D01*
X188545818Y-51426901D01*
X188418426Y-51479668D01*
X188303776Y-51556274D01*
X188206274Y-51653776D01*
X188129668Y-51768426D01*
X188076901Y-51895818D01*
X188050000Y-52031056D01*
X187962637Y-52031056D01*
X187503226Y-51571645D01*
X187464976Y-51658846D01*
X187464973Y-51658853D01*
X187409891Y-51876367D01*
X187391360Y-52100000D01*
X186289500Y-52100000D01*
X186289500Y-50850689D01*
X188219108Y-50850689D01*
X188749999Y-51381580D01*
X188750000Y-51381580D01*
X189280890Y-50850689D01*
X190719108Y-50850689D01*
X191249999Y-51381580D01*
X191250000Y-51381580D01*
X191364619Y-51266961D01*
X196905381Y-51266961D01*
X196905381Y-51266962D01*
X197419999Y-51781580D01*
X197420000Y-51781580D01*
X197934618Y-51266961D01*
X197934617Y-51266960D01*
X197878348Y-51240722D01*
X197878339Y-51240718D01*
X197652704Y-51180260D01*
X197420000Y-51159901D01*
X197187295Y-51180260D01*
X196961660Y-51240718D01*
X196905381Y-51266961D01*
X191364619Y-51266961D01*
X191780890Y-50850689D01*
X191583530Y-50782935D01*
X191583523Y-50782933D01*
X191362192Y-50746000D01*
X191137808Y-50746000D01*
X190916476Y-50782933D01*
X190916469Y-50782935D01*
X190719108Y-50850689D01*
X189280890Y-50850689D01*
X189083530Y-50782935D01*
X189083523Y-50782933D01*
X188862192Y-50746000D01*
X188637808Y-50746000D01*
X188416476Y-50782933D01*
X188416469Y-50782935D01*
X188219108Y-50850689D01*
X186289500Y-50850689D01*
X186289500Y-49849309D01*
X188219109Y-49849309D01*
X188416476Y-49917066D01*
X188637808Y-49954000D01*
X188862192Y-49954000D01*
X189083524Y-49917066D01*
X189083527Y-49917065D01*
X189280890Y-49849309D01*
X190719109Y-49849309D01*
X190916476Y-49917066D01*
X191137808Y-49954000D01*
X191362192Y-49954000D01*
X191583524Y-49917066D01*
X191583527Y-49917065D01*
X191780890Y-49849309D01*
X191250001Y-49318420D01*
X191250000Y-49318420D01*
X190719109Y-49849309D01*
X189280890Y-49849309D01*
X188750001Y-49318420D01*
X188750000Y-49318420D01*
X188219109Y-49849309D01*
X186289500Y-49849309D01*
X186289500Y-48600000D01*
X187391360Y-48600000D01*
X187409891Y-48823632D01*
X187464973Y-49041146D01*
X187464976Y-49041153D01*
X187503225Y-49128353D01*
X188031580Y-48599999D01*
X187962637Y-48531056D01*
X188050000Y-48531056D01*
X188050000Y-48668944D01*
X188076901Y-48804182D01*
X188129668Y-48931574D01*
X188206274Y-49046224D01*
X188303776Y-49143726D01*
X188418426Y-49220332D01*
X188545818Y-49273099D01*
X188681056Y-49300000D01*
X188818944Y-49300000D01*
X188954182Y-49273099D01*
X189081574Y-49220332D01*
X189196224Y-49143726D01*
X189293726Y-49046224D01*
X189370332Y-48931574D01*
X189423099Y-48804182D01*
X189450000Y-48668944D01*
X189450000Y-48599999D01*
X189468420Y-48599999D01*
X189468420Y-48600001D01*
X189991499Y-49123080D01*
X189997682Y-49132130D01*
X190002311Y-49132130D01*
X190008492Y-49123085D01*
X190531580Y-48599999D01*
X190462637Y-48531056D01*
X190550000Y-48531056D01*
X190550000Y-48668944D01*
X190576901Y-48804182D01*
X190629668Y-48931574D01*
X190706274Y-49046224D01*
X190803776Y-49143726D01*
X190918426Y-49220332D01*
X191045818Y-49273099D01*
X191181056Y-49300000D01*
X191318944Y-49300000D01*
X191454182Y-49273099D01*
X191581574Y-49220332D01*
X191696224Y-49143726D01*
X191793726Y-49046224D01*
X191870332Y-48931574D01*
X191923099Y-48804182D01*
X191950000Y-48668944D01*
X191950000Y-48599999D01*
X191968420Y-48599999D01*
X191968420Y-48600001D01*
X192496771Y-49128352D01*
X192496772Y-49128352D01*
X192535027Y-49041143D01*
X192590108Y-48823632D01*
X192608639Y-48600000D01*
X192590108Y-48376367D01*
X192535025Y-48158851D01*
X192535025Y-48158849D01*
X192496772Y-48071646D01*
X191968420Y-48599999D01*
X191950000Y-48599999D01*
X191950000Y-48531056D01*
X191923099Y-48395818D01*
X191870332Y-48268426D01*
X191793726Y-48153776D01*
X191696224Y-48056274D01*
X191581574Y-47979668D01*
X191454182Y-47926901D01*
X191318944Y-47900000D01*
X191181056Y-47900000D01*
X191045818Y-47926901D01*
X190918426Y-47979668D01*
X190803776Y-48056274D01*
X190706274Y-48153776D01*
X190629668Y-48268426D01*
X190576901Y-48395818D01*
X190550000Y-48531056D01*
X190462637Y-48531056D01*
X190008492Y-48076911D01*
X190002313Y-48067868D01*
X189997682Y-48067868D01*
X189991500Y-48076918D01*
X189468420Y-48599999D01*
X189450000Y-48599999D01*
X189450000Y-48531056D01*
X189423099Y-48395818D01*
X189370332Y-48268426D01*
X189293726Y-48153776D01*
X189196224Y-48056274D01*
X189081574Y-47979668D01*
X188954182Y-47926901D01*
X188818944Y-47900000D01*
X188681056Y-47900000D01*
X188545818Y-47926901D01*
X188418426Y-47979668D01*
X188303776Y-48056274D01*
X188206274Y-48153776D01*
X188129668Y-48268426D01*
X188076901Y-48395818D01*
X188050000Y-48531056D01*
X187962637Y-48531056D01*
X187503226Y-48071645D01*
X187464976Y-48158846D01*
X187464973Y-48158853D01*
X187409891Y-48376367D01*
X187391360Y-48600000D01*
X186289500Y-48600000D01*
X186289500Y-47350689D01*
X188219108Y-47350689D01*
X188749999Y-47881580D01*
X188750000Y-47881580D01*
X189280890Y-47350689D01*
X190719108Y-47350689D01*
X191249999Y-47881580D01*
X191250000Y-47881580D01*
X191780890Y-47350689D01*
X191583530Y-47282935D01*
X191583523Y-47282933D01*
X191362192Y-47246000D01*
X191137808Y-47246000D01*
X190916476Y-47282933D01*
X190916469Y-47282935D01*
X190719108Y-47350689D01*
X189280890Y-47350689D01*
X189083530Y-47282935D01*
X189083523Y-47282933D01*
X188862192Y-47246000D01*
X188637808Y-47246000D01*
X188416476Y-47282933D01*
X188416469Y-47282935D01*
X188219108Y-47350689D01*
X186289500Y-47350689D01*
X186289500Y-40376500D01*
X186309502Y-40308379D01*
X186363158Y-40261886D01*
X186415500Y-40250500D01*
X199874000Y-40250500D01*
X199942121Y-40270502D01*
G37*
%TD.AperFunction*%
%TD*%
%TA.AperFunction,Conductor*%
%TO.N,+24V*%
G36*
X196054837Y-75362501D02*
G01*
X196115760Y-75401654D01*
X196190000Y-75423452D01*
X196190000Y-84485500D01*
X185775000Y-84485500D01*
X185706879Y-84465498D01*
X185660386Y-84411842D01*
X185649000Y-84359500D01*
X185649000Y-76060712D01*
X185669002Y-75992591D01*
X185685905Y-75971617D01*
X186278117Y-75379405D01*
X186340429Y-75345379D01*
X186367212Y-75342500D01*
X195986718Y-75342500D01*
X196054837Y-75362501D01*
G37*
%TD.AperFunction*%
%TD*%
%TA.AperFunction,Conductor*%
%TO.N,GND*%
G36*
X246990000Y-75191427D02*
G01*
X246989677Y-75191280D01*
X246946056Y-75175899D01*
X246946052Y-75175898D01*
X246935886Y-75175355D01*
X246868931Y-75151743D01*
X246825370Y-75095681D01*
X246821719Y-75085031D01*
X246819809Y-75078529D01*
X246819808Y-75078520D01*
X246762529Y-74953097D01*
X246672235Y-74848891D01*
X246672234Y-74848890D01*
X246672233Y-74848889D01*
X246556240Y-74774346D01*
X246423947Y-74735501D01*
X246423944Y-74735500D01*
X246423942Y-74735500D01*
X246327485Y-74735500D01*
X246259364Y-74715498D01*
X246212871Y-74661842D01*
X246202767Y-74591570D01*
X246204431Y-74580000D01*
X246204431Y-74579996D01*
X246184809Y-74443526D01*
X246184808Y-74443525D01*
X246184808Y-74443520D01*
X246127529Y-74318097D01*
X246037235Y-74213891D01*
X246037234Y-74213890D01*
X246037233Y-74213889D01*
X245921240Y-74139346D01*
X245788947Y-74100501D01*
X245788944Y-74100500D01*
X245788942Y-74100500D01*
X245651058Y-74100500D01*
X245651056Y-74100500D01*
X245651052Y-74100501D01*
X245518761Y-74139345D01*
X245498113Y-74152614D01*
X245457837Y-74178498D01*
X245389718Y-74198500D01*
X228905282Y-74198500D01*
X228837162Y-74178498D01*
X228776240Y-74139346D01*
X228776239Y-74139345D01*
X228776238Y-74139345D01*
X228643947Y-74100501D01*
X228643944Y-74100500D01*
X228643942Y-74100500D01*
X228506058Y-74100500D01*
X228506056Y-74100500D01*
X228506052Y-74100501D01*
X228373759Y-74139346D01*
X228257766Y-74213889D01*
X228167470Y-74318098D01*
X228110192Y-74443519D01*
X228110190Y-74443526D01*
X228090569Y-74579996D01*
X228090569Y-74580001D01*
X228092232Y-74591567D01*
X228082129Y-74661841D01*
X228035637Y-74715497D01*
X227967517Y-74735500D01*
X227871058Y-74735500D01*
X227871056Y-74735500D01*
X227871052Y-74735501D01*
X227738759Y-74774346D01*
X227622766Y-74848889D01*
X227622765Y-74848890D01*
X227553663Y-74928638D01*
X227493937Y-74967021D01*
X227422948Y-74967023D01*
X227419504Y-74966012D01*
X227419508Y-74966012D01*
X227389872Y-74961751D01*
X227346390Y-74955500D01*
X221590000Y-74955500D01*
X221590000Y-65055000D01*
X246990000Y-65055000D01*
X246990000Y-75191427D01*
G37*
%TD.AperFunction*%
%TD*%
%TA.AperFunction,Conductor*%
%TO.N,+5VA_full-bridge*%
G36*
X246932121Y-85654502D02*
G01*
X246978614Y-85708158D01*
X246990000Y-85760500D01*
X246990000Y-86773000D01*
X246969998Y-86841121D01*
X246916342Y-86887614D01*
X246864000Y-86899000D01*
X221590000Y-86899000D01*
X221590000Y-85634500D01*
X246864000Y-85634500D01*
X246932121Y-85654502D01*
G37*
%TD.AperFunction*%
%TD*%
%TA.AperFunction,Conductor*%
%TO.N,+24V*%
G36*
X227414511Y-75235002D02*
G01*
X227461004Y-75288658D01*
X227471106Y-75323064D01*
X227475192Y-75351479D01*
X227475192Y-75351480D01*
X227529360Y-75470092D01*
X227532471Y-75476903D01*
X227613573Y-75570501D01*
X227622766Y-75581110D01*
X227646714Y-75596500D01*
X227738760Y-75655654D01*
X227871058Y-75694500D01*
X227871061Y-75694500D01*
X228008939Y-75694500D01*
X228008942Y-75694500D01*
X228141240Y-75655654D01*
X228202162Y-75616501D01*
X228270282Y-75596500D01*
X231156605Y-75596500D01*
X231224726Y-75616502D01*
X231271219Y-75670158D01*
X231281323Y-75740432D01*
X231265569Y-75850003D01*
X231285190Y-75986473D01*
X231285192Y-75986480D01*
X231342471Y-76111903D01*
X231432765Y-76216109D01*
X231432766Y-76216110D01*
X231456714Y-76231500D01*
X231548760Y-76290654D01*
X231681058Y-76329500D01*
X231681061Y-76329500D01*
X231818939Y-76329500D01*
X231818942Y-76329500D01*
X231951240Y-76290654D01*
X232012162Y-76251501D01*
X232080282Y-76231500D01*
X244754718Y-76231500D01*
X244822837Y-76251501D01*
X244883760Y-76290654D01*
X245016058Y-76329500D01*
X245016061Y-76329500D01*
X245153939Y-76329500D01*
X245153942Y-76329500D01*
X245286240Y-76290654D01*
X245402235Y-76216109D01*
X245492529Y-76111903D01*
X245549808Y-75986480D01*
X245569431Y-75850000D01*
X245553677Y-75740430D01*
X245563781Y-75670158D01*
X245610274Y-75616502D01*
X245678395Y-75596500D01*
X246024718Y-75596500D01*
X246092837Y-75616501D01*
X246153760Y-75655654D01*
X246286058Y-75694500D01*
X246286061Y-75694500D01*
X246423939Y-75694500D01*
X246423942Y-75694500D01*
X246556240Y-75655654D01*
X246672235Y-75581109D01*
X246762529Y-75476903D01*
X246762529Y-75476901D01*
X246768430Y-75470092D01*
X246771212Y-75472502D01*
X246811641Y-75437461D01*
X246881914Y-75427347D01*
X246946499Y-75456831D01*
X246984891Y-75516551D01*
X246990000Y-75552067D01*
X246990000Y-85249000D01*
X246969998Y-85317121D01*
X246916342Y-85363614D01*
X246864000Y-85375000D01*
X221590000Y-85375000D01*
X221590000Y-79278996D01*
X227963569Y-79278996D01*
X227963569Y-79279003D01*
X227983190Y-79415473D01*
X227983192Y-79415480D01*
X228040471Y-79540903D01*
X228130765Y-79645109D01*
X228130766Y-79645110D01*
X228154714Y-79660500D01*
X228246760Y-79719654D01*
X228379058Y-79758500D01*
X228379061Y-79758500D01*
X228516939Y-79758500D01*
X228516942Y-79758500D01*
X228649240Y-79719654D01*
X228710162Y-79680501D01*
X228778282Y-79660500D01*
X231673718Y-79660500D01*
X231741837Y-79680501D01*
X231802760Y-79719654D01*
X231935058Y-79758500D01*
X231935061Y-79758500D01*
X232072939Y-79758500D01*
X232072942Y-79758500D01*
X232205240Y-79719654D01*
X232321235Y-79645109D01*
X232411529Y-79540903D01*
X232468808Y-79415480D01*
X232488431Y-79279000D01*
X232488431Y-79278996D01*
X232468809Y-79142526D01*
X232468808Y-79142525D01*
X232468808Y-79142520D01*
X232411529Y-79017097D01*
X232321235Y-78912891D01*
X232321234Y-78912890D01*
X232321233Y-78912889D01*
X232205240Y-78838346D01*
X232072947Y-78799501D01*
X232072944Y-78799500D01*
X232072942Y-78799500D01*
X231935058Y-78799500D01*
X231935056Y-78799500D01*
X231935052Y-78799501D01*
X231802761Y-78838345D01*
X231782113Y-78851614D01*
X231741837Y-78877498D01*
X231673718Y-78897500D01*
X228778282Y-78897500D01*
X228710162Y-78877498D01*
X228649240Y-78838346D01*
X228649239Y-78838345D01*
X228649238Y-78838345D01*
X228516947Y-78799501D01*
X228516944Y-78799500D01*
X228516942Y-78799500D01*
X228379058Y-78799500D01*
X228379056Y-78799500D01*
X228379052Y-78799501D01*
X228246759Y-78838346D01*
X228130766Y-78912889D01*
X228040470Y-79017098D01*
X227983192Y-79142519D01*
X227983190Y-79142526D01*
X227963569Y-79278996D01*
X221590000Y-79278996D01*
X221590000Y-75215000D01*
X227346390Y-75215000D01*
X227414511Y-75235002D01*
G37*
%TD.AperFunction*%
%TD*%
%TA.AperFunction,Conductor*%
%TO.N,GND*%
G36*
X246990000Y-97059000D02*
G01*
X221590000Y-97059000D01*
X221590000Y-93182055D01*
X225272500Y-93182055D01*
X225272500Y-93315945D01*
X225307153Y-93445274D01*
X225307154Y-93445276D01*
X225307155Y-93445278D01*
X225374097Y-93561224D01*
X225374099Y-93561227D01*
X225468772Y-93655900D01*
X225470260Y-93657042D01*
X225471195Y-93658323D01*
X225474613Y-93661741D01*
X225474079Y-93662274D01*
X225512124Y-93714383D01*
X225516341Y-93785254D01*
X225481573Y-93847155D01*
X225470260Y-93856958D01*
X225468772Y-93858099D01*
X225374099Y-93952772D01*
X225374097Y-93952775D01*
X225307155Y-94068721D01*
X225307154Y-94068724D01*
X225307153Y-94068726D01*
X225272500Y-94198055D01*
X225272500Y-94331945D01*
X225307153Y-94461274D01*
X225307154Y-94461276D01*
X225307155Y-94461278D01*
X225374097Y-94577224D01*
X225374099Y-94577227D01*
X225468772Y-94671900D01*
X225468775Y-94671902D01*
X225468777Y-94671903D01*
X225584726Y-94738847D01*
X225714055Y-94773500D01*
X225714057Y-94773500D01*
X232451943Y-94773500D01*
X232451945Y-94773500D01*
X232581274Y-94738847D01*
X232697227Y-94671901D01*
X233426901Y-93942226D01*
X233493847Y-93826273D01*
X233528500Y-93696945D01*
X233528500Y-93563054D01*
X233493847Y-93433726D01*
X233426901Y-93317773D01*
X233426899Y-93317771D01*
X233426895Y-93317766D01*
X233332233Y-93223104D01*
X233332223Y-93223096D01*
X233216278Y-93156155D01*
X233216275Y-93156154D01*
X233216274Y-93156153D01*
X233216272Y-93156152D01*
X233216271Y-93156152D01*
X233181616Y-93146866D01*
X233086946Y-93121500D01*
X232953055Y-93121500D01*
X232883751Y-93140069D01*
X232823729Y-93156152D01*
X232823722Y-93156155D01*
X232707777Y-93223096D01*
X232707771Y-93223101D01*
X232211276Y-93719596D01*
X232148964Y-93753621D01*
X232122181Y-93756500D01*
X229832718Y-93756500D01*
X229764597Y-93736498D01*
X229718104Y-93682842D01*
X229708000Y-93612568D01*
X229711009Y-93597898D01*
X229718499Y-93569945D01*
X229718499Y-93436054D01*
X229683847Y-93306726D01*
X229663958Y-93272278D01*
X229616903Y-93190776D01*
X229616895Y-93190766D01*
X229268233Y-92842104D01*
X229268223Y-92842096D01*
X229152278Y-92775155D01*
X229152276Y-92775154D01*
X229152274Y-92775153D01*
X229022945Y-92740500D01*
X228387945Y-92740500D01*
X227117945Y-92740500D01*
X225714055Y-92740500D01*
X225584726Y-92775153D01*
X225584724Y-92775154D01*
X225584721Y-92775155D01*
X225468775Y-92842097D01*
X225468772Y-92842099D01*
X225374099Y-92936772D01*
X225374097Y-92936775D01*
X225307155Y-93052721D01*
X225307154Y-93052724D01*
X225307153Y-93052726D01*
X225272500Y-93182055D01*
X221590000Y-93182055D01*
X221590000Y-87280000D01*
X246990000Y-87280000D01*
X246990000Y-97059000D01*
G37*
%TD.AperFunction*%
%TD*%
%TA.AperFunction,Conductor*%
%TO.N,GND*%
G36*
X185395000Y-73563500D02*
G01*
X165405282Y-73563500D01*
X165337162Y-73543498D01*
X165276240Y-73504346D01*
X165276239Y-73504345D01*
X165276238Y-73504345D01*
X165143947Y-73465501D01*
X165143944Y-73465500D01*
X165143942Y-73465500D01*
X165006058Y-73465500D01*
X165006056Y-73465500D01*
X165006052Y-73465501D01*
X164873759Y-73504346D01*
X164757766Y-73578889D01*
X164667470Y-73683098D01*
X164610192Y-73808519D01*
X164610190Y-73808526D01*
X164590569Y-73944996D01*
X164590569Y-73945003D01*
X164610190Y-74081473D01*
X164610192Y-74081480D01*
X164667471Y-74206903D01*
X164753118Y-74305746D01*
X164757766Y-74311110D01*
X164781714Y-74326500D01*
X164873760Y-74385654D01*
X165006058Y-74424500D01*
X165006061Y-74424500D01*
X165143939Y-74424500D01*
X165143942Y-74424500D01*
X165276240Y-74385654D01*
X165337162Y-74346501D01*
X165405282Y-74326500D01*
X166384089Y-74326500D01*
X166452210Y-74346502D01*
X166498703Y-74400158D01*
X166508806Y-74470430D01*
X166508806Y-74470432D01*
X166495569Y-74562496D01*
X166495569Y-74562501D01*
X166497232Y-74574067D01*
X166487129Y-74644341D01*
X166440637Y-74697997D01*
X166372517Y-74718000D01*
X166276058Y-74718000D01*
X166276056Y-74718000D01*
X166276052Y-74718001D01*
X166143759Y-74756846D01*
X166027766Y-74831389D01*
X166027765Y-74831390D01*
X165958663Y-74911138D01*
X165898937Y-74949521D01*
X165827948Y-74949523D01*
X165824504Y-74948512D01*
X165824508Y-74948512D01*
X165792636Y-74943930D01*
X165751390Y-74938000D01*
X160380500Y-74938000D01*
X160312379Y-74917998D01*
X160265886Y-74864342D01*
X160254500Y-74812000D01*
X160254500Y-68107500D01*
X160274502Y-68039379D01*
X160328158Y-67992886D01*
X160380500Y-67981500D01*
X185395000Y-67981500D01*
X185395000Y-73563500D01*
G37*
%TD.AperFunction*%
%TD*%
%TA.AperFunction,Conductor*%
%TO.N,+5VA_full-bridge*%
G36*
X185337121Y-85636502D02*
G01*
X185383614Y-85690158D01*
X185395000Y-85742500D01*
X185395000Y-86755500D01*
X185374998Y-86823621D01*
X185321342Y-86870114D01*
X185269000Y-86881500D01*
X160380500Y-86881500D01*
X160312379Y-86861498D01*
X160265886Y-86807842D01*
X160254500Y-86755500D01*
X160254500Y-85743000D01*
X160274502Y-85674879D01*
X160328158Y-85628386D01*
X160380500Y-85617000D01*
X184661127Y-85617000D01*
X184661670Y-85616986D01*
X184673847Y-85616688D01*
X184674585Y-85616651D01*
X184680760Y-85616500D01*
X185269000Y-85616500D01*
X185337121Y-85636502D01*
G37*
%TD.AperFunction*%
%TD*%
%TA.AperFunction,Conductor*%
%TO.N,+12VA*%
G36*
X165819511Y-75217502D02*
G01*
X165866004Y-75271158D01*
X165876106Y-75305564D01*
X165880192Y-75333980D01*
X165937471Y-75459403D01*
X166027765Y-75563609D01*
X166027766Y-75563610D01*
X166051714Y-75579000D01*
X166143760Y-75638154D01*
X166276058Y-75677000D01*
X166276061Y-75677000D01*
X166413939Y-75677000D01*
X166413942Y-75677000D01*
X166546240Y-75638154D01*
X166607162Y-75599001D01*
X166675282Y-75579000D01*
X169561605Y-75579000D01*
X169629726Y-75599002D01*
X169676219Y-75652658D01*
X169686323Y-75722932D01*
X169670569Y-75832503D01*
X169690190Y-75968973D01*
X169690192Y-75968980D01*
X169747471Y-76094403D01*
X169755354Y-76103500D01*
X169837766Y-76198610D01*
X169861714Y-76214000D01*
X169953760Y-76273154D01*
X170086058Y-76312000D01*
X170086061Y-76312000D01*
X170223939Y-76312000D01*
X170223942Y-76312000D01*
X170356240Y-76273154D01*
X170417162Y-76234001D01*
X170485282Y-76214000D01*
X170834121Y-76214000D01*
X170902242Y-76234002D01*
X170948735Y-76287658D01*
X170958839Y-76357932D01*
X170940569Y-76485003D01*
X170960190Y-76621473D01*
X170960192Y-76621480D01*
X171017471Y-76746903D01*
X171098573Y-76840501D01*
X171107766Y-76851110D01*
X171131714Y-76866500D01*
X171223760Y-76925654D01*
X171356058Y-76964500D01*
X171356061Y-76964500D01*
X171493939Y-76964500D01*
X171493942Y-76964500D01*
X171626240Y-76925654D01*
X171687162Y-76886501D01*
X171755282Y-76866500D01*
X184683223Y-76866500D01*
X184683225Y-76866500D01*
X184780254Y-76840501D01*
X184780257Y-76840499D01*
X184780258Y-76840499D01*
X184823750Y-76815388D01*
X184867247Y-76790276D01*
X184938276Y-76719247D01*
X184955994Y-76701529D01*
X184955996Y-76701526D01*
X185174407Y-76483114D01*
X185236717Y-76449091D01*
X185307533Y-76454156D01*
X185364368Y-76496703D01*
X185389179Y-76563224D01*
X185389500Y-76572212D01*
X185389500Y-84359509D01*
X185394278Y-84403942D01*
X185395000Y-84417411D01*
X185395000Y-85231000D01*
X185374998Y-85299121D01*
X185321342Y-85345614D01*
X185269000Y-85357000D01*
X184671312Y-85357000D01*
X184661125Y-85357500D01*
X160380500Y-85357500D01*
X160312379Y-85337498D01*
X160265886Y-85283842D01*
X160254500Y-85231500D01*
X160254500Y-79261496D01*
X166368569Y-79261496D01*
X166368569Y-79261503D01*
X166388190Y-79397973D01*
X166388192Y-79397980D01*
X166445471Y-79523403D01*
X166535765Y-79627609D01*
X166535766Y-79627610D01*
X166559714Y-79643000D01*
X166651760Y-79702154D01*
X166784058Y-79741000D01*
X166784061Y-79741000D01*
X166921939Y-79741000D01*
X166921942Y-79741000D01*
X167054240Y-79702154D01*
X167115162Y-79663001D01*
X167183282Y-79643000D01*
X170078718Y-79643000D01*
X170146837Y-79663001D01*
X170207760Y-79702154D01*
X170340058Y-79741000D01*
X170340061Y-79741000D01*
X170477939Y-79741000D01*
X170477942Y-79741000D01*
X170610240Y-79702154D01*
X170726235Y-79627609D01*
X170816529Y-79523403D01*
X170873808Y-79397980D01*
X170893431Y-79261500D01*
X170893431Y-79261496D01*
X170873809Y-79125026D01*
X170873808Y-79125025D01*
X170873808Y-79125020D01*
X170816529Y-78999597D01*
X170726235Y-78895391D01*
X170726234Y-78895390D01*
X170726233Y-78895389D01*
X170610240Y-78820846D01*
X170477947Y-78782001D01*
X170477944Y-78782000D01*
X170477942Y-78782000D01*
X170340058Y-78782000D01*
X170340056Y-78782000D01*
X170340052Y-78782001D01*
X170207761Y-78820845D01*
X170187113Y-78834114D01*
X170146837Y-78859998D01*
X170078718Y-78880000D01*
X167183282Y-78880000D01*
X167115162Y-78859998D01*
X167054240Y-78820846D01*
X167054239Y-78820845D01*
X167054238Y-78820845D01*
X166921947Y-78782001D01*
X166921944Y-78782000D01*
X166921942Y-78782000D01*
X166784058Y-78782000D01*
X166784056Y-78782000D01*
X166784052Y-78782001D01*
X166651759Y-78820846D01*
X166535766Y-78895389D01*
X166445470Y-78999598D01*
X166388192Y-79125019D01*
X166388190Y-79125026D01*
X166368569Y-79261496D01*
X160254500Y-79261496D01*
X160254500Y-75323500D01*
X160274502Y-75255379D01*
X160328158Y-75208886D01*
X160380500Y-75197500D01*
X165751390Y-75197500D01*
X165819511Y-75217502D01*
G37*
%TD.AperFunction*%
%TD*%
%TA.AperFunction,Conductor*%
%TO.N,GND*%
G36*
X185395000Y-92867500D02*
G01*
X171358055Y-92867500D01*
X171228726Y-92902153D01*
X171228724Y-92902154D01*
X171228721Y-92902155D01*
X171112775Y-92969097D01*
X171112772Y-92969099D01*
X171018099Y-93063772D01*
X171018097Y-93063775D01*
X170951155Y-93179721D01*
X170951154Y-93179724D01*
X170951153Y-93179726D01*
X170916500Y-93309055D01*
X170916500Y-93442945D01*
X170951153Y-93572274D01*
X170951157Y-93572281D01*
X170954314Y-93579903D01*
X170951671Y-93580997D01*
X170965135Y-93636493D01*
X170941916Y-93703585D01*
X170886110Y-93747473D01*
X170839278Y-93756500D01*
X168512818Y-93756500D01*
X168444697Y-93736498D01*
X168423722Y-93719595D01*
X167927229Y-93223101D01*
X167927223Y-93223096D01*
X167811278Y-93156155D01*
X167811276Y-93156154D01*
X167811274Y-93156153D01*
X167681945Y-93121500D01*
X167548055Y-93121500D01*
X167418726Y-93156153D01*
X167418724Y-93156154D01*
X167418721Y-93156155D01*
X167302776Y-93223096D01*
X167302766Y-93223104D01*
X167208104Y-93317766D01*
X167208096Y-93317776D01*
X167141155Y-93433721D01*
X167141154Y-93433724D01*
X167141153Y-93433726D01*
X167106500Y-93563055D01*
X167106500Y-93696945D01*
X167141153Y-93826274D01*
X167141154Y-93826276D01*
X167141155Y-93826278D01*
X167208096Y-93942223D01*
X167208098Y-93942225D01*
X167208099Y-93942227D01*
X167843099Y-94577226D01*
X167937774Y-94671901D01*
X168053726Y-94738847D01*
X168183055Y-94773500D01*
X168183057Y-94773500D01*
X185395000Y-94773500D01*
X185395000Y-97041500D01*
X160254500Y-97041500D01*
X160254500Y-87262500D01*
X185395000Y-87262500D01*
X185395000Y-92867500D01*
G37*
%TD.AperFunction*%
%TD*%
%TA.AperFunction,Conductor*%
%TO.N,GND*%
G36*
X221590000Y-74955500D02*
G01*
X221548610Y-74955500D01*
X221542085Y-74955966D01*
X221511694Y-74958139D01*
X221511661Y-74958142D01*
X221476182Y-74963244D01*
X221460367Y-74965808D01*
X221460159Y-74964526D01*
X221396311Y-74963381D01*
X221338750Y-74925654D01*
X221272235Y-74848891D01*
X221272234Y-74848890D01*
X221272233Y-74848889D01*
X221156240Y-74774346D01*
X221023947Y-74735501D01*
X221023944Y-74735500D01*
X221023942Y-74735500D01*
X220927485Y-74735500D01*
X220859364Y-74715498D01*
X220812871Y-74661842D01*
X220802767Y-74591570D01*
X220804431Y-74580000D01*
X220804431Y-74579996D01*
X220784809Y-74443526D01*
X220784808Y-74443525D01*
X220784808Y-74443520D01*
X220727529Y-74318097D01*
X220637235Y-74213891D01*
X220637234Y-74213890D01*
X220637233Y-74213889D01*
X220521240Y-74139346D01*
X220388947Y-74100501D01*
X220388944Y-74100500D01*
X220388942Y-74100500D01*
X220251058Y-74100500D01*
X220251056Y-74100500D01*
X220251052Y-74100501D01*
X220118761Y-74139345D01*
X220105723Y-74147724D01*
X220057837Y-74178498D01*
X219989718Y-74198500D01*
X203505282Y-74198500D01*
X203437162Y-74178498D01*
X203376240Y-74139346D01*
X203376239Y-74139345D01*
X203376238Y-74139345D01*
X203243947Y-74100501D01*
X203243944Y-74100500D01*
X203243942Y-74100500D01*
X203106058Y-74100500D01*
X203106056Y-74100500D01*
X203106052Y-74100501D01*
X202973759Y-74139346D01*
X202857766Y-74213889D01*
X202767470Y-74318098D01*
X202710192Y-74443519D01*
X202710190Y-74443526D01*
X202690569Y-74579996D01*
X202690569Y-74580001D01*
X202692232Y-74591567D01*
X202682129Y-74661841D01*
X202635637Y-74715497D01*
X202567517Y-74735500D01*
X202471058Y-74735500D01*
X202471056Y-74735500D01*
X202471052Y-74735501D01*
X202338759Y-74774346D01*
X202222766Y-74848889D01*
X202222765Y-74848890D01*
X202153663Y-74928638D01*
X202093937Y-74967021D01*
X202022948Y-74967023D01*
X202019504Y-74966012D01*
X202019508Y-74966012D01*
X201989872Y-74961751D01*
X201946390Y-74955500D01*
X201946387Y-74955500D01*
X196909820Y-74955500D01*
X196841699Y-74935498D01*
X196795206Y-74881842D01*
X196785103Y-74847433D01*
X196781809Y-74824525D01*
X196781808Y-74824523D01*
X196781808Y-74824520D01*
X196724529Y-74699097D01*
X196634235Y-74594891D01*
X196634234Y-74594890D01*
X196634233Y-74594889D01*
X196518240Y-74520346D01*
X196385947Y-74481501D01*
X196385944Y-74481500D01*
X196385942Y-74481500D01*
X196248058Y-74481500D01*
X196242285Y-74481500D01*
X196190000Y-74466147D01*
X196190000Y-65055000D01*
X221590000Y-65055000D01*
X221590000Y-74955500D01*
G37*
%TD.AperFunction*%
%TD*%
%TA.AperFunction,Conductor*%
%TO.N,+5VA_full-bridge*%
G36*
X198778094Y-85630282D02*
G01*
X198791183Y-85632163D01*
X198807433Y-85634500D01*
X198807434Y-85634500D01*
X221590000Y-85634500D01*
X221590000Y-86899000D01*
X196316000Y-86899000D01*
X196247879Y-86878998D01*
X196201386Y-86825342D01*
X196190000Y-86773000D01*
X196190000Y-85755000D01*
X196210002Y-85686879D01*
X196263658Y-85640386D01*
X196316000Y-85629000D01*
X198760164Y-85629000D01*
X198778094Y-85630282D01*
G37*
%TD.AperFunction*%
%TD*%
%TA.AperFunction,Conductor*%
%TO.N,+24V*%
G36*
X202014511Y-75235002D02*
G01*
X202061004Y-75288658D01*
X202071106Y-75323064D01*
X202075192Y-75351480D01*
X202132471Y-75476903D01*
X202222765Y-75581109D01*
X202222766Y-75581110D01*
X202246714Y-75596500D01*
X202338760Y-75655654D01*
X202471058Y-75694500D01*
X202471061Y-75694500D01*
X202608939Y-75694500D01*
X202608942Y-75694500D01*
X202741240Y-75655654D01*
X202802162Y-75616501D01*
X202870282Y-75596500D01*
X205756605Y-75596500D01*
X205824726Y-75616502D01*
X205871219Y-75670158D01*
X205881323Y-75740432D01*
X205865569Y-75850003D01*
X205885190Y-75986473D01*
X205885192Y-75986480D01*
X205942471Y-76111903D01*
X206032765Y-76216109D01*
X206032766Y-76216110D01*
X206056714Y-76231500D01*
X206148760Y-76290654D01*
X206281058Y-76329500D01*
X206281061Y-76329500D01*
X206418939Y-76329500D01*
X206418942Y-76329500D01*
X206551240Y-76290654D01*
X206612162Y-76251501D01*
X206680282Y-76231500D01*
X219354718Y-76231500D01*
X219422837Y-76251501D01*
X219483760Y-76290654D01*
X219616058Y-76329500D01*
X219616061Y-76329500D01*
X219753939Y-76329500D01*
X219753942Y-76329500D01*
X219886240Y-76290654D01*
X220002235Y-76216109D01*
X220092529Y-76111903D01*
X220149808Y-75986480D01*
X220169431Y-75850000D01*
X220153677Y-75740430D01*
X220163781Y-75670158D01*
X220210274Y-75616502D01*
X220278395Y-75596500D01*
X220624718Y-75596500D01*
X220692837Y-75616501D01*
X220753760Y-75655654D01*
X220886058Y-75694500D01*
X220886061Y-75694500D01*
X221023939Y-75694500D01*
X221023942Y-75694500D01*
X221156240Y-75655654D01*
X221272235Y-75581109D01*
X221362529Y-75476903D01*
X221419808Y-75351480D01*
X221423893Y-75323067D01*
X221453384Y-75258489D01*
X221513110Y-75220104D01*
X221548610Y-75215000D01*
X221590000Y-75215000D01*
X221590000Y-85375000D01*
X198807433Y-85375000D01*
X198739312Y-85354998D01*
X198692819Y-85301342D01*
X198682715Y-85231068D01*
X198694006Y-85198449D01*
X198692686Y-85197903D01*
X198695839Y-85190287D01*
X198695847Y-85190274D01*
X198730500Y-85060945D01*
X198730500Y-84927055D01*
X198695847Y-84797726D01*
X198628901Y-84681774D01*
X198628900Y-84681772D01*
X198534227Y-84587099D01*
X198534224Y-84587097D01*
X198418278Y-84520155D01*
X198418276Y-84520154D01*
X198418274Y-84520153D01*
X198288945Y-84485500D01*
X196190000Y-84485500D01*
X196190000Y-79278996D01*
X202563569Y-79278996D01*
X202563569Y-79279003D01*
X202583190Y-79415473D01*
X202583192Y-79415480D01*
X202640471Y-79540903D01*
X202730765Y-79645109D01*
X202730766Y-79645110D01*
X202754714Y-79660500D01*
X202846760Y-79719654D01*
X202979058Y-79758500D01*
X202979061Y-79758500D01*
X203116939Y-79758500D01*
X203116942Y-79758500D01*
X203249240Y-79719654D01*
X203310162Y-79680501D01*
X203378282Y-79660500D01*
X206273718Y-79660500D01*
X206341837Y-79680501D01*
X206402760Y-79719654D01*
X206535058Y-79758500D01*
X206535061Y-79758500D01*
X206672939Y-79758500D01*
X206672942Y-79758500D01*
X206805240Y-79719654D01*
X206921235Y-79645109D01*
X207011529Y-79540903D01*
X207068808Y-79415480D01*
X207088431Y-79279000D01*
X207088431Y-79278996D01*
X207068809Y-79142526D01*
X207068808Y-79142525D01*
X207068808Y-79142520D01*
X207011529Y-79017097D01*
X206921235Y-78912891D01*
X206921234Y-78912890D01*
X206921233Y-78912889D01*
X206805240Y-78838346D01*
X206672947Y-78799501D01*
X206672944Y-78799500D01*
X206672942Y-78799500D01*
X206535058Y-78799500D01*
X206535056Y-78799500D01*
X206535052Y-78799501D01*
X206402761Y-78838345D01*
X206382113Y-78851614D01*
X206341837Y-78877498D01*
X206273718Y-78897500D01*
X203378282Y-78897500D01*
X203310162Y-78877498D01*
X203249240Y-78838346D01*
X203249239Y-78838345D01*
X203249238Y-78838345D01*
X203116947Y-78799501D01*
X203116944Y-78799500D01*
X203116942Y-78799500D01*
X202979058Y-78799500D01*
X202979056Y-78799500D01*
X202979052Y-78799501D01*
X202846759Y-78838346D01*
X202730766Y-78912889D01*
X202640470Y-79017098D01*
X202583192Y-79142519D01*
X202583190Y-79142526D01*
X202563569Y-79278996D01*
X196190000Y-79278996D01*
X196190000Y-75423452D01*
X196248058Y-75440500D01*
X196248061Y-75440500D01*
X196385939Y-75440500D01*
X196385942Y-75440500D01*
X196518240Y-75401654D01*
X196634235Y-75327109D01*
X196693695Y-75258488D01*
X196753422Y-75220104D01*
X196788920Y-75215000D01*
X201946390Y-75215000D01*
X202014511Y-75235002D01*
G37*
%TD.AperFunction*%
%TD*%
%TA.AperFunction,Conductor*%
%TO.N,GND*%
G36*
X221590000Y-97059000D02*
G01*
X196190000Y-97059000D01*
X196190000Y-94138500D01*
X203876943Y-94138500D01*
X203876945Y-94138500D01*
X204006274Y-94103847D01*
X204122226Y-94036901D01*
X204216901Y-93942226D01*
X204283847Y-93826274D01*
X204318500Y-93696945D01*
X204318500Y-93563055D01*
X204311012Y-93535109D01*
X204312702Y-93464135D01*
X204352496Y-93405339D01*
X204417760Y-93377391D01*
X204432719Y-93376500D01*
X206595181Y-93376500D01*
X206663302Y-93396502D01*
X206684276Y-93413404D01*
X207307775Y-94036902D01*
X207307777Y-94036903D01*
X207423726Y-94103847D01*
X207553055Y-94138500D01*
X207553057Y-94138500D01*
X207686944Y-94138500D01*
X207686946Y-94138500D01*
X207816274Y-94103847D01*
X207932227Y-94036901D01*
X208026901Y-93942227D01*
X208093847Y-93826274D01*
X208128500Y-93696946D01*
X208128500Y-93563055D01*
X208093847Y-93433726D01*
X208079701Y-93409226D01*
X208026902Y-93317775D01*
X207170229Y-92461101D01*
X207170223Y-92461096D01*
X207054278Y-92394155D01*
X207054276Y-92394154D01*
X207054274Y-92394153D01*
X206924945Y-92359500D01*
X196631055Y-92359500D01*
X196501726Y-92394153D01*
X196501724Y-92394154D01*
X196501721Y-92394155D01*
X196385775Y-92461097D01*
X196385772Y-92461099D01*
X196291099Y-92555772D01*
X196291097Y-92555775D01*
X196224155Y-92671721D01*
X196224154Y-92671724D01*
X196224153Y-92671726D01*
X196190000Y-92799189D01*
X196190000Y-87280000D01*
X221590000Y-87280000D01*
X221590000Y-97059000D01*
G37*
%TD.AperFunction*%
%TA.AperFunction,Conductor*%
G36*
X196196987Y-92962890D02*
G01*
X196195298Y-93033865D01*
X196190000Y-93041692D01*
X196190000Y-92936811D01*
X196196987Y-92962890D01*
G37*
%TD.AperFunction*%
%TD*%
%TA.AperFunction,Conductor*%
%TO.N,GNDI*%
G36*
X174409621Y-106350002D02*
G01*
X174456114Y-106403658D01*
X174467500Y-106456000D01*
X174467500Y-141129000D01*
X174447498Y-141197121D01*
X174393842Y-141243614D01*
X174341500Y-141255000D01*
X159995000Y-141255000D01*
X159995000Y-106330000D01*
X174341500Y-106330000D01*
X174409621Y-106350002D01*
G37*
%TD.AperFunction*%
%TD*%
%TA.AperFunction,Conductor*%
%TO.N,GND*%
G36*
X189205000Y-121772700D02*
G01*
X176514496Y-121772700D01*
X176451496Y-121755819D01*
X176408778Y-121731155D01*
X176408776Y-121731154D01*
X176408774Y-121731153D01*
X176279445Y-121696500D01*
X176145555Y-121696500D01*
X176016226Y-121731153D01*
X176016224Y-121731154D01*
X176016221Y-121731155D01*
X175900276Y-121798096D01*
X175900266Y-121798104D01*
X175805604Y-121892766D01*
X175805596Y-121892776D01*
X175738655Y-122008721D01*
X175738654Y-122008724D01*
X175738653Y-122008726D01*
X175704000Y-122138055D01*
X175704000Y-122271945D01*
X175738653Y-122401274D01*
X175738654Y-122401276D01*
X175738655Y-122401278D01*
X175805596Y-122517223D01*
X175805604Y-122517233D01*
X175976466Y-122688095D01*
X175976471Y-122688099D01*
X175976473Y-122688101D01*
X176092426Y-122755047D01*
X176221755Y-122789700D01*
X176221757Y-122789700D01*
X189205000Y-122789700D01*
X189205000Y-137825500D01*
X181010055Y-137825500D01*
X180880726Y-137860153D01*
X180880724Y-137860154D01*
X180880721Y-137860155D01*
X180764775Y-137927097D01*
X180764772Y-137927099D01*
X180670099Y-138021772D01*
X180670097Y-138021775D01*
X180603155Y-138137721D01*
X180603154Y-138137724D01*
X180603153Y-138137726D01*
X180568500Y-138267055D01*
X180568500Y-138400945D01*
X180603153Y-138530274D01*
X180603154Y-138530276D01*
X180603155Y-138530278D01*
X180670097Y-138646224D01*
X180670099Y-138646227D01*
X180764772Y-138740900D01*
X180764775Y-138740902D01*
X180856226Y-138793701D01*
X180880726Y-138807847D01*
X181010055Y-138842500D01*
X181010057Y-138842500D01*
X189205000Y-138842500D01*
X189205000Y-141255000D01*
X174727000Y-141255000D01*
X174727000Y-106330000D01*
X189205000Y-106330000D01*
X189205000Y-121772700D01*
G37*
%TD.AperFunction*%
%TD*%
%TA.AperFunction,Conductor*%
%TO.N,+5VA_pwm*%
G36*
X224244942Y-104191002D02*
G01*
X224285320Y-104237601D01*
X224287024Y-104236618D01*
X224358096Y-104359719D01*
X224358104Y-104359729D01*
X224452766Y-104454391D01*
X224452771Y-104454395D01*
X224452773Y-104454397D01*
X224568726Y-104521343D01*
X224698055Y-104555996D01*
X224698057Y-104555996D01*
X224831945Y-104555996D01*
X224840133Y-104554918D01*
X224840185Y-104555317D01*
X224861580Y-104552500D01*
X236896943Y-104552500D01*
X236896945Y-104552500D01*
X237026274Y-104517847D01*
X237142226Y-104450901D01*
X237236901Y-104356226D01*
X237303847Y-104240274D01*
X237303846Y-104240274D01*
X237307470Y-104233999D01*
X237358853Y-104185006D01*
X237416589Y-104171000D01*
X246864000Y-104171000D01*
X246932121Y-104191002D01*
X246978614Y-104244658D01*
X246990000Y-104297000D01*
X246990000Y-105823000D01*
X246969998Y-105891121D01*
X246916342Y-105937614D01*
X246864000Y-105949000D01*
X221590000Y-105949000D01*
X221590000Y-104171000D01*
X224176821Y-104171000D01*
X224244942Y-104191002D01*
G37*
%TD.AperFunction*%
%TD*%
%TA.AperFunction,Conductor*%
%TO.N,GND*%
G36*
X246990000Y-103917000D02*
G01*
X246902255Y-103917000D01*
X246864000Y-103911500D01*
X237416589Y-103911500D01*
X237413413Y-103911500D01*
X237345292Y-103891498D01*
X237304294Y-103848500D01*
X237236902Y-103731775D01*
X237236900Y-103731772D01*
X237142227Y-103637099D01*
X237142224Y-103637097D01*
X237026278Y-103570155D01*
X237026276Y-103570154D01*
X237026274Y-103570153D01*
X236896945Y-103535500D01*
X224835441Y-103535500D01*
X224701551Y-103535500D01*
X224572222Y-103570153D01*
X224572220Y-103570154D01*
X224572217Y-103570155D01*
X224456272Y-103637096D01*
X224456262Y-103637104D01*
X224358104Y-103735262D01*
X224358098Y-103735269D01*
X224297785Y-103839735D01*
X224293172Y-103847726D01*
X224292634Y-103848657D01*
X224241251Y-103897650D01*
X224181321Y-103909954D01*
X224181321Y-103911500D01*
X221590000Y-103911500D01*
X221590000Y-98329000D01*
X246990000Y-98329000D01*
X246990000Y-103917000D01*
G37*
%TD.AperFunction*%
%TD*%
%TA.AperFunction,Conductor*%
%TO.N,+5VA_pwm*%
G36*
X221590000Y-105949000D02*
G01*
X209985002Y-105949000D01*
X209977374Y-105948500D01*
X209972945Y-105948500D01*
X197393055Y-105948500D01*
X197388626Y-105948500D01*
X197380998Y-105949000D01*
X196316000Y-105949000D01*
X196247879Y-105928998D01*
X196201386Y-105875342D01*
X196190000Y-105823000D01*
X196190000Y-104302500D01*
X196210002Y-104234379D01*
X196263658Y-104187886D01*
X196316000Y-104176500D01*
X198779569Y-104176500D01*
X198847690Y-104196502D01*
X198888688Y-104239500D01*
X198958096Y-104359719D01*
X198958104Y-104359729D01*
X199052766Y-104454391D01*
X199052771Y-104454395D01*
X199052773Y-104454397D01*
X199168726Y-104521343D01*
X199298055Y-104555996D01*
X199298057Y-104555996D01*
X199431945Y-104555996D01*
X199440133Y-104554918D01*
X199440185Y-104555317D01*
X199461580Y-104552500D01*
X211496943Y-104552500D01*
X211496945Y-104552500D01*
X211626274Y-104517847D01*
X211742226Y-104450901D01*
X211836901Y-104356226D01*
X211903847Y-104240274D01*
X211903846Y-104240274D01*
X211904294Y-104239500D01*
X211955677Y-104190507D01*
X212013413Y-104176500D01*
X221562333Y-104176500D01*
X221562344Y-104176500D01*
X221590000Y-104173776D01*
X221590000Y-105949000D01*
G37*
%TD.AperFunction*%
%TD*%
%TA.AperFunction,Conductor*%
%TO.N,GND*%
G36*
X221590000Y-103911500D02*
G01*
X221589994Y-103911500D01*
X221562344Y-103917000D01*
X211922409Y-103917000D01*
X211903847Y-103847726D01*
X211836901Y-103731774D01*
X211836900Y-103731772D01*
X211742227Y-103637099D01*
X211742224Y-103637097D01*
X211626278Y-103570155D01*
X211626276Y-103570154D01*
X211626274Y-103570153D01*
X211496945Y-103535500D01*
X199435441Y-103535500D01*
X199301551Y-103535500D01*
X199172222Y-103570153D01*
X199172220Y-103570154D01*
X199172217Y-103570155D01*
X199056272Y-103637096D01*
X199056262Y-103637104D01*
X198958104Y-103735262D01*
X198958096Y-103735272D01*
X198891155Y-103851217D01*
X198891154Y-103851220D01*
X198891153Y-103851222D01*
X198873528Y-103917000D01*
X196190000Y-103917000D01*
X196190000Y-98329000D01*
X221590000Y-98329000D01*
X221590000Y-103911500D01*
G37*
%TD.AperFunction*%
%TD*%
%TA.AperFunction,Conductor*%
%TO.N,+5VA_pwm*%
G36*
X162649942Y-104191002D02*
G01*
X162690320Y-104237601D01*
X162692024Y-104236618D01*
X162763096Y-104359719D01*
X162763104Y-104359729D01*
X162857766Y-104454391D01*
X162857771Y-104454395D01*
X162857773Y-104454397D01*
X162973726Y-104521343D01*
X163103055Y-104555996D01*
X163103057Y-104555996D01*
X163236945Y-104555996D01*
X163245133Y-104554918D01*
X163245185Y-104555317D01*
X163266580Y-104552500D01*
X174600697Y-104552500D01*
X174668818Y-104572502D01*
X174715311Y-104626158D01*
X174723380Y-104679997D01*
X174726500Y-104679997D01*
X174726500Y-104688255D01*
X174726500Y-104822145D01*
X174761153Y-104951474D01*
X174761154Y-104951476D01*
X174761155Y-104951478D01*
X174828097Y-105067424D01*
X174828099Y-105067427D01*
X174922772Y-105162100D01*
X174922775Y-105162102D01*
X175014226Y-105214901D01*
X175038726Y-105229047D01*
X175168055Y-105263700D01*
X175168057Y-105263700D01*
X185269000Y-105263700D01*
X185337121Y-105283702D01*
X185383614Y-105337358D01*
X185395000Y-105389700D01*
X185395000Y-105823000D01*
X185374998Y-105891121D01*
X185321342Y-105937614D01*
X185269000Y-105949000D01*
X160380500Y-105949000D01*
X160312379Y-105928998D01*
X160265886Y-105875342D01*
X160254500Y-105823000D01*
X160254500Y-104297000D01*
X160274502Y-104228879D01*
X160328158Y-104182386D01*
X160380500Y-104171000D01*
X162581821Y-104171000D01*
X162649942Y-104191002D01*
G37*
%TD.AperFunction*%
%TD*%
%TA.AperFunction,Conductor*%
%TO.N,GND*%
G36*
X185395000Y-103917000D02*
G01*
X175727409Y-103917000D01*
X175708847Y-103847726D01*
X175641901Y-103731774D01*
X175641900Y-103731772D01*
X175547227Y-103637099D01*
X175547224Y-103637097D01*
X175431278Y-103570155D01*
X175431276Y-103570154D01*
X175431274Y-103570153D01*
X175301945Y-103535500D01*
X163240441Y-103535500D01*
X163106551Y-103535500D01*
X162977222Y-103570153D01*
X162977220Y-103570154D01*
X162977217Y-103570155D01*
X162861272Y-103637096D01*
X162861262Y-103637104D01*
X162763104Y-103735262D01*
X162763098Y-103735269D01*
X162703878Y-103837842D01*
X162698172Y-103847726D01*
X162697634Y-103848657D01*
X162646251Y-103897650D01*
X162586321Y-103909954D01*
X162586321Y-103911500D01*
X160380500Y-103911500D01*
X160312379Y-103891498D01*
X160265886Y-103837842D01*
X160254500Y-103785500D01*
X160254500Y-98329000D01*
X185395000Y-98329000D01*
X185395000Y-103917000D01*
G37*
%TD.AperFunction*%
%TD*%
M02*
