%TF.GenerationSoftware,KiCad,Pcbnew,8.0.2*%
%TF.CreationDate,2025-02-22T15:39:26+01:00*%
%TF.ProjectId,enclosure,656e636c-6f73-4757-9265-2e6b69636164,1.0.0*%
%TF.SameCoordinates,Original*%
%TF.FileFunction,Drillmap*%
%TF.FilePolarity,Positive*%
%FSLAX45Y45*%
G04 Gerber Fmt 4.5, Leading zero omitted, Abs format (unit mm)*
G04 Created by KiCad (PCBNEW 8.0.2) date 2025-02-22 15:39:26*
%MOMM*%
%LPD*%
G01*
G04 APERTURE LIST*
%ADD10C,0.050000*%
%ADD11C,0.200000*%
%ADD12C,0.100000*%
%ADD13C,0.140000*%
G04 APERTURE END LIST*
D10*
X15000000Y-3975000D02*
X25000000Y-3975000D01*
X25000000Y-16475000D01*
X15000000Y-16475000D01*
X15000000Y-3975000D01*
D11*
D12*
X15286000Y-4141000D02*
X15316000Y-4171000D01*
X15316000Y-4141000D02*
X15286000Y-4171000D01*
X15286000Y-4395000D02*
X15316000Y-4425000D01*
X15316000Y-4395000D02*
X15286000Y-4425000D01*
X15286000Y-4649000D02*
X15316000Y-4679000D01*
X15316000Y-4649000D02*
X15286000Y-4679000D01*
X15286000Y-4903000D02*
X15316000Y-4933000D01*
X15316000Y-4903000D02*
X15286000Y-4933000D01*
X15286000Y-5157000D02*
X15316000Y-5187000D01*
X15316000Y-5157000D02*
X15286000Y-5187000D01*
X15286000Y-5411000D02*
X15316000Y-5441000D01*
X15316000Y-5411000D02*
X15286000Y-5441000D01*
X15286000Y-5665000D02*
X15316000Y-5695000D01*
X15316000Y-5665000D02*
X15286000Y-5695000D01*
X15286000Y-5919000D02*
X15316000Y-5949000D01*
X15316000Y-5919000D02*
X15286000Y-5949000D01*
X15286000Y-6173000D02*
X15316000Y-6203000D01*
X15316000Y-6173000D02*
X15286000Y-6203000D01*
X15286000Y-6427000D02*
X15316000Y-6457000D01*
X15316000Y-6427000D02*
X15286000Y-6457000D01*
X15286000Y-6681000D02*
X15316000Y-6711000D01*
X15316000Y-6681000D02*
X15286000Y-6711000D01*
X15286000Y-6935000D02*
X15316000Y-6965000D01*
X15316000Y-6935000D02*
X15286000Y-6965000D01*
X15286000Y-7189000D02*
X15316000Y-7219000D01*
X15316000Y-7189000D02*
X15286000Y-7219000D01*
X15286000Y-7443000D02*
X15316000Y-7473000D01*
X15316000Y-7443000D02*
X15286000Y-7473000D01*
X15286000Y-7697000D02*
X15316000Y-7727000D01*
X15316000Y-7697000D02*
X15286000Y-7727000D01*
X15286000Y-7951000D02*
X15316000Y-7981000D01*
X15316000Y-7951000D02*
X15286000Y-7981000D01*
X15286000Y-8205000D02*
X15316000Y-8235000D01*
X15316000Y-8205000D02*
X15286000Y-8235000D01*
X15286000Y-8459000D02*
X15316000Y-8489000D01*
X15316000Y-8459000D02*
X15286000Y-8489000D01*
X15286000Y-8713000D02*
X15316000Y-8743000D01*
X15316000Y-8713000D02*
X15286000Y-8743000D01*
X15286000Y-8967000D02*
X15316000Y-8997000D01*
X15316000Y-8967000D02*
X15286000Y-8997000D01*
X15286000Y-9221000D02*
X15316000Y-9251000D01*
X15316000Y-9221000D02*
X15286000Y-9251000D01*
X15286000Y-9475000D02*
X15316000Y-9505000D01*
X15316000Y-9475000D02*
X15286000Y-9505000D01*
X15286000Y-9729000D02*
X15316000Y-9759000D01*
X15316000Y-9729000D02*
X15286000Y-9759000D01*
X15286000Y-9983000D02*
X15316000Y-10013000D01*
X15316000Y-9983000D02*
X15286000Y-10013000D01*
X15286000Y-10237000D02*
X15316000Y-10267000D01*
X15316000Y-10237000D02*
X15286000Y-10267000D01*
X15286000Y-10491000D02*
X15316000Y-10521000D01*
X15316000Y-10491000D02*
X15286000Y-10521000D01*
X15286000Y-10745000D02*
X15316000Y-10775000D01*
X15316000Y-10745000D02*
X15286000Y-10775000D01*
X15286000Y-10999000D02*
X15316000Y-11029000D01*
X15316000Y-10999000D02*
X15286000Y-11029000D01*
X15286000Y-11253000D02*
X15316000Y-11283000D01*
X15316000Y-11253000D02*
X15286000Y-11283000D01*
X15286000Y-11507000D02*
X15316000Y-11537000D01*
X15316000Y-11507000D02*
X15286000Y-11537000D01*
X15286000Y-11761000D02*
X15316000Y-11791000D01*
X15316000Y-11761000D02*
X15286000Y-11791000D01*
X15286000Y-12015000D02*
X15316000Y-12045000D01*
X15316000Y-12015000D02*
X15286000Y-12045000D01*
X15286000Y-12269000D02*
X15316000Y-12299000D01*
X15316000Y-12269000D02*
X15286000Y-12299000D01*
X15286000Y-12523000D02*
X15316000Y-12553000D01*
X15316000Y-12523000D02*
X15286000Y-12553000D01*
X15286000Y-12777000D02*
X15316000Y-12807000D01*
X15316000Y-12777000D02*
X15286000Y-12807000D01*
X15286000Y-13031000D02*
X15316000Y-13061000D01*
X15316000Y-13031000D02*
X15286000Y-13061000D01*
X15286000Y-13285000D02*
X15316000Y-13315000D01*
X15316000Y-13285000D02*
X15286000Y-13315000D01*
X15286000Y-13539000D02*
X15316000Y-13569000D01*
X15316000Y-13539000D02*
X15286000Y-13569000D01*
X15286000Y-13793000D02*
X15316000Y-13823000D01*
X15316000Y-13793000D02*
X15286000Y-13823000D01*
X15413000Y-14047000D02*
X15443000Y-14077000D01*
X15443000Y-14047000D02*
X15413000Y-14077000D01*
X15413000Y-14301000D02*
X15443000Y-14331000D01*
X15443000Y-14301000D02*
X15413000Y-14331000D01*
X15413000Y-14555000D02*
X15443000Y-14585000D01*
X15443000Y-14555000D02*
X15413000Y-14585000D01*
X15413000Y-14809000D02*
X15443000Y-14839000D01*
X15443000Y-14809000D02*
X15413000Y-14839000D01*
X15413000Y-15063000D02*
X15443000Y-15093000D01*
X15443000Y-15063000D02*
X15413000Y-15093000D01*
X15413000Y-15317000D02*
X15443000Y-15347000D01*
X15443000Y-15317000D02*
X15413000Y-15347000D01*
X15413000Y-15571000D02*
X15443000Y-15601000D01*
X15443000Y-15571000D02*
X15413000Y-15601000D01*
X15667000Y-4141000D02*
X15697000Y-4171000D01*
X15697000Y-4141000D02*
X15667000Y-4171000D01*
X15667000Y-14047000D02*
X15697000Y-14077000D01*
X15697000Y-14047000D02*
X15667000Y-14077000D01*
X15921000Y-4141000D02*
X15951000Y-4171000D01*
X15951000Y-4141000D02*
X15921000Y-4171000D01*
X15921000Y-6681000D02*
X15951000Y-6711000D01*
X15951000Y-6681000D02*
X15921000Y-6711000D01*
X15921000Y-6935000D02*
X15951000Y-6965000D01*
X15951000Y-6935000D02*
X15921000Y-6965000D01*
X15921000Y-7189000D02*
X15951000Y-7219000D01*
X15951000Y-7189000D02*
X15921000Y-7219000D01*
X15921000Y-7443000D02*
X15951000Y-7473000D01*
X15951000Y-7443000D02*
X15921000Y-7473000D01*
X15921000Y-7697000D02*
X15951000Y-7727000D01*
X15951000Y-7697000D02*
X15921000Y-7727000D01*
X15921000Y-7951000D02*
X15951000Y-7981000D01*
X15951000Y-7951000D02*
X15921000Y-7981000D01*
X15921000Y-8205000D02*
X15951000Y-8235000D01*
X15951000Y-8205000D02*
X15921000Y-8235000D01*
X15921000Y-8459000D02*
X15951000Y-8489000D01*
X15951000Y-8459000D02*
X15921000Y-8489000D01*
X15921000Y-8713000D02*
X15951000Y-8743000D01*
X15951000Y-8713000D02*
X15921000Y-8743000D01*
X15921000Y-8967000D02*
X15951000Y-8997000D01*
X15951000Y-8967000D02*
X15921000Y-8997000D01*
X15921000Y-9221000D02*
X15951000Y-9251000D01*
X15951000Y-9221000D02*
X15921000Y-9251000D01*
X15921000Y-9475000D02*
X15951000Y-9505000D01*
X15951000Y-9475000D02*
X15921000Y-9505000D01*
X15921000Y-9729000D02*
X15951000Y-9759000D01*
X15951000Y-9729000D02*
X15921000Y-9759000D01*
X15921000Y-9983000D02*
X15951000Y-10013000D01*
X15951000Y-9983000D02*
X15921000Y-10013000D01*
X15921000Y-10237000D02*
X15951000Y-10267000D01*
X15951000Y-10237000D02*
X15921000Y-10267000D01*
X15921000Y-10491000D02*
X15951000Y-10521000D01*
X15951000Y-10491000D02*
X15921000Y-10521000D01*
X15921000Y-10872000D02*
X15951000Y-10902000D01*
X15951000Y-10872000D02*
X15921000Y-10902000D01*
X15921000Y-11253000D02*
X15951000Y-11283000D01*
X15951000Y-11253000D02*
X15921000Y-11283000D01*
X15921000Y-11634000D02*
X15951000Y-11664000D01*
X15951000Y-11634000D02*
X15921000Y-11664000D01*
X15921000Y-12015000D02*
X15951000Y-12045000D01*
X15951000Y-12015000D02*
X15921000Y-12045000D01*
X15921000Y-12269000D02*
X15951000Y-12299000D01*
X15951000Y-12269000D02*
X15921000Y-12299000D01*
X15921000Y-12523000D02*
X15951000Y-12553000D01*
X15951000Y-12523000D02*
X15921000Y-12553000D01*
X15921000Y-12777000D02*
X15951000Y-12807000D01*
X15951000Y-12777000D02*
X15921000Y-12807000D01*
X15921000Y-13031000D02*
X15951000Y-13061000D01*
X15951000Y-13031000D02*
X15921000Y-13061000D01*
X15921000Y-13285000D02*
X15951000Y-13315000D01*
X15951000Y-13285000D02*
X15921000Y-13315000D01*
X15921000Y-13539000D02*
X15951000Y-13569000D01*
X15951000Y-13539000D02*
X15921000Y-13569000D01*
X15921000Y-13793000D02*
X15951000Y-13823000D01*
X15951000Y-13793000D02*
X15921000Y-13823000D01*
X15921000Y-14047000D02*
X15951000Y-14077000D01*
X15951000Y-14047000D02*
X15921000Y-14077000D01*
X15921000Y-16079000D02*
X15951000Y-16109000D01*
X15951000Y-16079000D02*
X15921000Y-16109000D01*
X16111500Y-6933250D02*
X16141500Y-6963250D01*
X16141500Y-6933250D02*
X16111500Y-6963250D01*
X16111500Y-7060250D02*
X16141500Y-7090250D01*
X16141500Y-7060250D02*
X16111500Y-7090250D01*
X16111500Y-7187250D02*
X16141500Y-7217250D01*
X16141500Y-7187250D02*
X16111500Y-7217250D01*
X16111500Y-7314250D02*
X16141500Y-7344250D01*
X16141500Y-7314250D02*
X16111500Y-7344250D01*
X16111500Y-7441250D02*
X16141500Y-7471250D01*
X16141500Y-7441250D02*
X16111500Y-7471250D01*
X16175000Y-4141000D02*
X16205000Y-4171000D01*
X16205000Y-4141000D02*
X16175000Y-4171000D01*
X16175000Y-6681000D02*
X16205000Y-6711000D01*
X16205000Y-6681000D02*
X16175000Y-6711000D01*
X16175000Y-8967000D02*
X16205000Y-8997000D01*
X16205000Y-8967000D02*
X16175000Y-8997000D01*
X16175000Y-9221000D02*
X16205000Y-9251000D01*
X16205000Y-9221000D02*
X16175000Y-9251000D01*
X16175000Y-9475000D02*
X16205000Y-9505000D01*
X16205000Y-9475000D02*
X16175000Y-9505000D01*
X16175000Y-9729000D02*
X16205000Y-9759000D01*
X16205000Y-9729000D02*
X16175000Y-9759000D01*
X16175000Y-9983000D02*
X16205000Y-10013000D01*
X16205000Y-9983000D02*
X16175000Y-10013000D01*
X16175000Y-10237000D02*
X16205000Y-10267000D01*
X16205000Y-10237000D02*
X16175000Y-10267000D01*
X16175000Y-16079000D02*
X16205000Y-16109000D01*
X16205000Y-16079000D02*
X16175000Y-16109000D01*
X16238500Y-7187250D02*
X16268500Y-7217250D01*
X16268500Y-7187250D02*
X16238500Y-7217250D01*
X16238500Y-7314250D02*
X16268500Y-7344250D01*
X16268500Y-7314250D02*
X16238500Y-7344250D01*
X16238500Y-7441250D02*
X16268500Y-7471250D01*
X16268500Y-7441250D02*
X16238500Y-7471250D01*
X16302000Y-10389750D02*
X16332000Y-10419750D01*
X16332000Y-10389750D02*
X16302000Y-10419750D01*
X16429000Y-4141000D02*
X16459000Y-4171000D01*
X16459000Y-4141000D02*
X16429000Y-4171000D01*
X16429000Y-6681000D02*
X16459000Y-6711000D01*
X16459000Y-6681000D02*
X16429000Y-6711000D01*
X16429000Y-16079000D02*
X16459000Y-16109000D01*
X16459000Y-16079000D02*
X16429000Y-16109000D01*
X16452250Y-10198900D02*
X16482250Y-10228900D01*
X16482250Y-10198900D02*
X16452250Y-10228900D01*
X16492500Y-7379500D02*
X16522500Y-7409500D01*
X16522500Y-7379500D02*
X16492500Y-7409500D01*
X16492500Y-10872000D02*
X16522500Y-10902000D01*
X16522500Y-10872000D02*
X16492500Y-10902000D01*
X16492500Y-11253000D02*
X16522500Y-11283000D01*
X16522500Y-11253000D02*
X16492500Y-11283000D01*
X16492500Y-11634000D02*
X16522500Y-11664000D01*
X16522500Y-11634000D02*
X16492500Y-11664000D01*
X16492500Y-14491500D02*
X16522500Y-14521500D01*
X16522500Y-14491500D02*
X16492500Y-14521500D01*
X16492500Y-14872500D02*
X16522500Y-14902500D01*
X16522500Y-14872500D02*
X16492500Y-14902500D01*
X16619500Y-7504750D02*
X16649500Y-7534750D01*
X16649500Y-7504750D02*
X16619500Y-7534750D01*
X16619500Y-7631750D02*
X16649500Y-7661750D01*
X16649500Y-7631750D02*
X16619500Y-7661750D01*
X16657600Y-10465600D02*
X16687600Y-10495600D01*
X16687600Y-10465600D02*
X16657600Y-10495600D01*
X16670300Y-7911150D02*
X16700300Y-7941150D01*
X16700300Y-7911150D02*
X16670300Y-7941150D01*
X16683000Y-4141000D02*
X16713000Y-4171000D01*
X16713000Y-4141000D02*
X16683000Y-4171000D01*
X16683000Y-6681000D02*
X16713000Y-6711000D01*
X16713000Y-6681000D02*
X16683000Y-6711000D01*
X16683000Y-7441250D02*
X16713000Y-7471250D01*
X16713000Y-7441250D02*
X16683000Y-7471250D01*
X16683000Y-7568250D02*
X16713000Y-7598250D01*
X16713000Y-7568250D02*
X16683000Y-7598250D01*
X16683000Y-14301000D02*
X16713000Y-14331000D01*
X16713000Y-14301000D02*
X16683000Y-14331000D01*
X16683000Y-16079000D02*
X16713000Y-16109000D01*
X16713000Y-16079000D02*
X16683000Y-16109000D01*
X16746500Y-7631750D02*
X16776500Y-7661750D01*
X16776500Y-7631750D02*
X16746500Y-7661750D01*
X16746500Y-8330250D02*
X16776500Y-8360250D01*
X16776500Y-8330250D02*
X16746500Y-8360250D01*
X16746500Y-9348000D02*
X16776500Y-9378000D01*
X16776500Y-9348000D02*
X16746500Y-9378000D01*
X16746500Y-9663750D02*
X16776500Y-9693750D01*
X16776500Y-9663750D02*
X16746500Y-9693750D01*
X16810000Y-7568250D02*
X16840000Y-7598250D01*
X16840000Y-7568250D02*
X16810000Y-7598250D01*
X16810000Y-12078500D02*
X16840000Y-12108500D01*
X16840000Y-12078500D02*
X16810000Y-12108500D01*
X16810000Y-12396000D02*
X16840000Y-12426000D01*
X16840000Y-12396000D02*
X16810000Y-12426000D01*
X16810000Y-13094500D02*
X16840000Y-13124500D01*
X16840000Y-13094500D02*
X16810000Y-13124500D01*
X16810000Y-13602500D02*
X16840000Y-13632500D01*
X16840000Y-13602500D02*
X16810000Y-13632500D01*
X16822700Y-10935500D02*
X16852700Y-10965500D01*
X16852700Y-10935500D02*
X16822700Y-10965500D01*
X16873500Y-7631750D02*
X16903500Y-7661750D01*
X16903500Y-7631750D02*
X16873500Y-7661750D01*
X16873500Y-8330250D02*
X16903500Y-8360250D01*
X16903500Y-8330250D02*
X16873500Y-8360250D01*
X16937000Y-4141000D02*
X16967000Y-4171000D01*
X16967000Y-4141000D02*
X16937000Y-4171000D01*
X16937000Y-6681000D02*
X16967000Y-6711000D01*
X16967000Y-6681000D02*
X16937000Y-6711000D01*
X16937000Y-14301000D02*
X16967000Y-14331000D01*
X16967000Y-14301000D02*
X16937000Y-14331000D01*
X16937000Y-15063000D02*
X16967000Y-15093000D01*
X16967000Y-15063000D02*
X16937000Y-15093000D01*
X16937000Y-15317000D02*
X16967000Y-15347000D01*
X16967000Y-15317000D02*
X16937000Y-15347000D01*
X16937000Y-15571000D02*
X16967000Y-15601000D01*
X16967000Y-15571000D02*
X16937000Y-15601000D01*
X16937000Y-15825000D02*
X16967000Y-15855000D01*
X16967000Y-15825000D02*
X16937000Y-15855000D01*
X16937000Y-16079000D02*
X16967000Y-16109000D01*
X16967000Y-16079000D02*
X16937000Y-16109000D01*
X17000500Y-7568250D02*
X17030500Y-7598250D01*
X17030500Y-7568250D02*
X17000500Y-7598250D01*
X17000500Y-8330250D02*
X17030500Y-8360250D01*
X17030500Y-8330250D02*
X17000500Y-8360250D01*
X17000500Y-10287800D02*
X17030500Y-10317800D01*
X17030500Y-10287800D02*
X17000500Y-10317800D01*
X17025900Y-7911150D02*
X17055900Y-7941150D01*
X17055900Y-7911150D02*
X17025900Y-7941150D01*
X17127500Y-7633500D02*
X17157500Y-7663500D01*
X17157500Y-7633500D02*
X17127500Y-7663500D01*
X17127500Y-8330250D02*
X17157500Y-8360250D01*
X17157500Y-8330250D02*
X17127500Y-8360250D01*
X17127500Y-9322600D02*
X17157500Y-9352600D01*
X17157500Y-9322600D02*
X17127500Y-9352600D01*
X17127500Y-9663750D02*
X17157500Y-9693750D01*
X17157500Y-9663750D02*
X17127500Y-9693750D01*
X17165600Y-15139200D02*
X17195600Y-15169200D01*
X17195600Y-15139200D02*
X17165600Y-15169200D01*
X17191000Y-4141000D02*
X17221000Y-4171000D01*
X17221000Y-4141000D02*
X17191000Y-4171000D01*
X17191000Y-6681000D02*
X17221000Y-6711000D01*
X17221000Y-6681000D02*
X17191000Y-6711000D01*
X17381500Y-7187250D02*
X17411500Y-7217250D01*
X17411500Y-7187250D02*
X17381500Y-7217250D01*
X17381500Y-7314250D02*
X17411500Y-7344250D01*
X17411500Y-7314250D02*
X17381500Y-7344250D01*
X17381500Y-7949250D02*
X17411500Y-7979250D01*
X17411500Y-7949250D02*
X17381500Y-7979250D01*
X17381500Y-8076250D02*
X17411500Y-8106250D01*
X17411500Y-8076250D02*
X17381500Y-8106250D01*
X17445000Y-4141000D02*
X17475000Y-4171000D01*
X17475000Y-4141000D02*
X17445000Y-4171000D01*
X17445000Y-6681000D02*
X17475000Y-6711000D01*
X17475000Y-6681000D02*
X17445000Y-6711000D01*
X17508500Y-6933250D02*
X17538500Y-6963250D01*
X17538500Y-6933250D02*
X17508500Y-6963250D01*
X17508500Y-7060250D02*
X17538500Y-7090250D01*
X17538500Y-7060250D02*
X17508500Y-7090250D01*
X17508500Y-7187250D02*
X17538500Y-7217250D01*
X17538500Y-7187250D02*
X17508500Y-7217250D01*
X17508500Y-7314250D02*
X17538500Y-7344250D01*
X17538500Y-7314250D02*
X17508500Y-7344250D01*
X17508500Y-7949250D02*
X17538500Y-7979250D01*
X17538500Y-7949250D02*
X17508500Y-7979250D01*
X17508500Y-8076250D02*
X17538500Y-8106250D01*
X17538500Y-8076250D02*
X17508500Y-8106250D01*
X17508500Y-9663750D02*
X17538500Y-9693750D01*
X17538500Y-9663750D02*
X17508500Y-9693750D01*
X17508500Y-10389400D02*
X17538500Y-10419400D01*
X17538500Y-10389400D02*
X17508500Y-10419400D01*
X17508500Y-10460520D02*
X17538500Y-10490520D01*
X17538500Y-10460520D02*
X17508500Y-10490520D01*
X17606250Y-12205500D02*
X17636250Y-12235500D01*
X17636250Y-12205500D02*
X17606250Y-12235500D01*
X17635500Y-6933250D02*
X17665500Y-6963250D01*
X17665500Y-6933250D02*
X17635500Y-6963250D01*
X17635500Y-7060250D02*
X17665500Y-7090250D01*
X17665500Y-7060250D02*
X17635500Y-7090250D01*
X17635500Y-7187250D02*
X17665500Y-7217250D01*
X17665500Y-7187250D02*
X17635500Y-7217250D01*
X17635500Y-7314250D02*
X17665500Y-7344250D01*
X17665500Y-7314250D02*
X17635500Y-7344250D01*
X17635500Y-7822250D02*
X17665500Y-7852250D01*
X17665500Y-7822250D02*
X17635500Y-7852250D01*
X17635500Y-7949250D02*
X17665500Y-7979250D01*
X17665500Y-7949250D02*
X17635500Y-7979250D01*
X17635500Y-8076250D02*
X17665500Y-8106250D01*
X17665500Y-8076250D02*
X17635500Y-8106250D01*
X17699000Y-4141000D02*
X17729000Y-4171000D01*
X17729000Y-4141000D02*
X17699000Y-4171000D01*
X17699000Y-6681000D02*
X17729000Y-6711000D01*
X17729000Y-6681000D02*
X17699000Y-6711000D01*
X17762500Y-6933250D02*
X17792500Y-6963250D01*
X17792500Y-6933250D02*
X17762500Y-6963250D01*
X17762500Y-7060250D02*
X17792500Y-7090250D01*
X17792500Y-7060250D02*
X17762500Y-7090250D01*
X17762500Y-7187250D02*
X17792500Y-7217250D01*
X17792500Y-7187250D02*
X17762500Y-7217250D01*
X17762500Y-7314250D02*
X17792500Y-7344250D01*
X17792500Y-7314250D02*
X17762500Y-7344250D01*
X17762500Y-7695250D02*
X17792500Y-7725250D01*
X17792500Y-7695250D02*
X17762500Y-7725250D01*
X17762500Y-7822250D02*
X17792500Y-7852250D01*
X17792500Y-7822250D02*
X17762500Y-7852250D01*
X17762500Y-7949250D02*
X17792500Y-7979250D01*
X17792500Y-7949250D02*
X17762500Y-7979250D01*
X17762500Y-8076250D02*
X17792500Y-8106250D01*
X17792500Y-8076250D02*
X17762500Y-8106250D01*
X17889500Y-9054150D02*
X17919500Y-9084150D01*
X17919500Y-9054150D02*
X17889500Y-9084150D01*
X17953000Y-4141000D02*
X17983000Y-4171000D01*
X17983000Y-4141000D02*
X17953000Y-4171000D01*
X17953000Y-6681000D02*
X17983000Y-6711000D01*
X17983000Y-6681000D02*
X17953000Y-6711000D01*
X17953000Y-14301000D02*
X17983000Y-14331000D01*
X17983000Y-14301000D02*
X17953000Y-14331000D01*
X17953000Y-14682000D02*
X17983000Y-14712000D01*
X17983000Y-14682000D02*
X17953000Y-14712000D01*
X17953000Y-15063000D02*
X17983000Y-15093000D01*
X17983000Y-15063000D02*
X17953000Y-15093000D01*
X17953000Y-15723400D02*
X17983000Y-15753400D01*
X17983000Y-15723400D02*
X17953000Y-15753400D01*
X17991100Y-9219250D02*
X18021100Y-9249250D01*
X18021100Y-9219250D02*
X17991100Y-9249250D01*
X18067300Y-10935500D02*
X18097300Y-10965500D01*
X18097300Y-10935500D02*
X18067300Y-10965500D01*
X18080000Y-12396000D02*
X18110000Y-12426000D01*
X18110000Y-12396000D02*
X18080000Y-12426000D01*
X18080000Y-15799600D02*
X18110000Y-15829600D01*
X18110000Y-15799600D02*
X18080000Y-15829600D01*
X18092700Y-13818400D02*
X18122700Y-13848400D01*
X18122700Y-13818400D02*
X18092700Y-13848400D01*
X18143500Y-6933250D02*
X18173500Y-6963250D01*
X18173500Y-6933250D02*
X18143500Y-6963250D01*
X18143500Y-7060250D02*
X18173500Y-7090250D01*
X18173500Y-7060250D02*
X18143500Y-7090250D01*
X18143500Y-7187250D02*
X18173500Y-7217250D01*
X18173500Y-7187250D02*
X18143500Y-7217250D01*
X18143500Y-7314250D02*
X18173500Y-7344250D01*
X18173500Y-7314250D02*
X18143500Y-7344250D01*
X18143500Y-7695250D02*
X18173500Y-7725250D01*
X18173500Y-7695250D02*
X18143500Y-7725250D01*
X18143500Y-7822250D02*
X18173500Y-7852250D01*
X18173500Y-7822250D02*
X18143500Y-7852250D01*
X18143500Y-7949250D02*
X18173500Y-7979250D01*
X18173500Y-7949250D02*
X18143500Y-7979250D01*
X18143500Y-8076250D02*
X18173500Y-8106250D01*
X18173500Y-8076250D02*
X18143500Y-8106250D01*
X18156200Y-15139200D02*
X18186200Y-15169200D01*
X18186200Y-15139200D02*
X18156200Y-15169200D01*
X18207000Y-4141000D02*
X18237000Y-4171000D01*
X18237000Y-4141000D02*
X18207000Y-4171000D01*
X18207000Y-6681000D02*
X18237000Y-6711000D01*
X18237000Y-6681000D02*
X18207000Y-6711000D01*
X18270500Y-6933250D02*
X18300500Y-6963250D01*
X18300500Y-6933250D02*
X18270500Y-6963250D01*
X18270500Y-7060250D02*
X18300500Y-7090250D01*
X18300500Y-7060250D02*
X18270500Y-7090250D01*
X18270500Y-7187250D02*
X18300500Y-7217250D01*
X18300500Y-7187250D02*
X18270500Y-7217250D01*
X18270500Y-7314250D02*
X18300500Y-7344250D01*
X18300500Y-7314250D02*
X18270500Y-7344250D01*
X18270500Y-7695250D02*
X18300500Y-7725250D01*
X18300500Y-7695250D02*
X18270500Y-7725250D01*
X18270500Y-7822250D02*
X18300500Y-7852250D01*
X18300500Y-7822250D02*
X18270500Y-7852250D01*
X18270500Y-7949250D02*
X18300500Y-7979250D01*
X18300500Y-7949250D02*
X18270500Y-7979250D01*
X18270500Y-8076250D02*
X18300500Y-8106250D01*
X18300500Y-8076250D02*
X18270500Y-8106250D01*
X18270500Y-12294400D02*
X18300500Y-12324400D01*
X18300500Y-12294400D02*
X18270500Y-12324400D01*
X18334000Y-7568250D02*
X18364000Y-7598250D01*
X18364000Y-7568250D02*
X18334000Y-7598250D01*
X18334000Y-16117100D02*
X18364000Y-16147100D01*
X18364000Y-16117100D02*
X18334000Y-16147100D01*
X18357250Y-13054250D02*
X18387250Y-13084250D01*
X18387250Y-13054250D02*
X18357250Y-13084250D01*
X18359400Y-13475500D02*
X18389400Y-13505500D01*
X18389400Y-13475500D02*
X18359400Y-13505500D01*
X18397500Y-6933250D02*
X18427500Y-6963250D01*
X18427500Y-6933250D02*
X18397500Y-6963250D01*
X18397500Y-7060250D02*
X18427500Y-7090250D01*
X18427500Y-7060250D02*
X18397500Y-7090250D01*
X18397500Y-7187250D02*
X18427500Y-7217250D01*
X18427500Y-7187250D02*
X18397500Y-7217250D01*
X18397500Y-7314250D02*
X18427500Y-7344250D01*
X18427500Y-7314250D02*
X18397500Y-7344250D01*
X18397500Y-7441250D02*
X18427500Y-7471250D01*
X18427500Y-7441250D02*
X18397500Y-7471250D01*
X18425500Y-10198900D02*
X18455500Y-10228900D01*
X18455500Y-10198900D02*
X18425500Y-10228900D01*
X18461000Y-4141000D02*
X18491000Y-4171000D01*
X18491000Y-4141000D02*
X18461000Y-4171000D01*
X18461000Y-4395000D02*
X18491000Y-4425000D01*
X18491000Y-4395000D02*
X18461000Y-4425000D01*
X18461000Y-4649000D02*
X18491000Y-4679000D01*
X18491000Y-4649000D02*
X18461000Y-4679000D01*
X18461000Y-4903000D02*
X18491000Y-4933000D01*
X18491000Y-4903000D02*
X18461000Y-4933000D01*
X18461000Y-5157000D02*
X18491000Y-5187000D01*
X18491000Y-5157000D02*
X18461000Y-5187000D01*
X18461000Y-5411000D02*
X18491000Y-5441000D01*
X18491000Y-5411000D02*
X18461000Y-5441000D01*
X18461000Y-5665000D02*
X18491000Y-5695000D01*
X18491000Y-5665000D02*
X18461000Y-5695000D01*
X18461000Y-5919000D02*
X18491000Y-5949000D01*
X18491000Y-5919000D02*
X18461000Y-5949000D01*
X18461000Y-6173000D02*
X18491000Y-6203000D01*
X18491000Y-6173000D02*
X18461000Y-6203000D01*
X18461000Y-6427000D02*
X18491000Y-6457000D01*
X18491000Y-6427000D02*
X18461000Y-6457000D01*
X18461000Y-6681000D02*
X18491000Y-6711000D01*
X18491000Y-6681000D02*
X18461000Y-6711000D01*
X18461000Y-7504750D02*
X18491000Y-7534750D01*
X18491000Y-7504750D02*
X18461000Y-7534750D01*
X18461000Y-8609650D02*
X18491000Y-8639650D01*
X18491000Y-8609650D02*
X18461000Y-8639650D01*
X18461000Y-16117100D02*
X18491000Y-16147100D01*
X18491000Y-16117100D02*
X18461000Y-16147100D01*
X18524500Y-14809000D02*
X18554500Y-14839000D01*
X18554500Y-14809000D02*
X18524500Y-14839000D01*
X18588000Y-9322600D02*
X18618000Y-9352600D01*
X18618000Y-9322600D02*
X18588000Y-9352600D01*
X18588000Y-9411500D02*
X18618000Y-9441500D01*
X18618000Y-9411500D02*
X18588000Y-9441500D01*
X18613400Y-14389900D02*
X18643400Y-14419900D01*
X18643400Y-14389900D02*
X18613400Y-14419900D01*
X18613400Y-14491500D02*
X18643400Y-14521500D01*
X18643400Y-14491500D02*
X18613400Y-14521500D01*
X18638800Y-15571000D02*
X18668800Y-15601000D01*
X18668800Y-15571000D02*
X18638800Y-15601000D01*
X18651500Y-14974100D02*
X18681500Y-15004100D01*
X18681500Y-14974100D02*
X18651500Y-15004100D01*
X18715000Y-7570000D02*
X18745000Y-7600000D01*
X18745000Y-7570000D02*
X18715000Y-7600000D01*
X18715000Y-7824000D02*
X18745000Y-7854000D01*
X18745000Y-7824000D02*
X18715000Y-7854000D01*
X18715000Y-8078000D02*
X18745000Y-8108000D01*
X18745000Y-8078000D02*
X18715000Y-8108000D01*
X18715000Y-8332000D02*
X18745000Y-8362000D01*
X18745000Y-8332000D02*
X18715000Y-8362000D01*
X18715000Y-15647200D02*
X18745000Y-15677200D01*
X18745000Y-15647200D02*
X18715000Y-15677200D01*
X18842000Y-7697000D02*
X18872000Y-7727000D01*
X18872000Y-7697000D02*
X18842000Y-7727000D01*
X18842000Y-7951000D02*
X18872000Y-7981000D01*
X18872000Y-7951000D02*
X18842000Y-7981000D01*
X18842000Y-8205000D02*
X18872000Y-8235000D01*
X18872000Y-8205000D02*
X18842000Y-8235000D01*
X18969000Y-7570000D02*
X18999000Y-7600000D01*
X18999000Y-7570000D02*
X18969000Y-7600000D01*
X18969000Y-7824000D02*
X18999000Y-7854000D01*
X18999000Y-7824000D02*
X18969000Y-7854000D01*
X18969000Y-8078000D02*
X18999000Y-8108000D01*
X18999000Y-8078000D02*
X18969000Y-8108000D01*
X18969000Y-8332000D02*
X18999000Y-8362000D01*
X18999000Y-8332000D02*
X18969000Y-8362000D01*
X18969000Y-8967000D02*
X18999000Y-8997000D01*
X18999000Y-8967000D02*
X18969000Y-8997000D01*
X18969000Y-9221000D02*
X18999000Y-9251000D01*
X18999000Y-9221000D02*
X18969000Y-9251000D01*
X18969000Y-9475000D02*
X18999000Y-9505000D01*
X18999000Y-9475000D02*
X18969000Y-9505000D01*
X18969000Y-9729000D02*
X18999000Y-9759000D01*
X18999000Y-9729000D02*
X18969000Y-9759000D01*
X18969000Y-9983000D02*
X18999000Y-10013000D01*
X18999000Y-9983000D02*
X18969000Y-10013000D01*
X18969000Y-10237000D02*
X18999000Y-10267000D01*
X18999000Y-10237000D02*
X18969000Y-10267000D01*
X18969000Y-10452900D02*
X18999000Y-10482900D01*
X18999000Y-10452900D02*
X18969000Y-10482900D01*
X18969000Y-13475500D02*
X18999000Y-13505500D01*
X18999000Y-13475500D02*
X18969000Y-13505500D01*
X19096000Y-7697000D02*
X19126000Y-7727000D01*
X19126000Y-7697000D02*
X19096000Y-7727000D01*
X19096000Y-7951000D02*
X19126000Y-7981000D01*
X19126000Y-7951000D02*
X19096000Y-7981000D01*
X19096000Y-8205000D02*
X19126000Y-8235000D01*
X19126000Y-8205000D02*
X19096000Y-8235000D01*
X19134100Y-14389900D02*
X19164100Y-14419900D01*
X19164100Y-14389900D02*
X19134100Y-14419900D01*
X19134100Y-14974100D02*
X19164100Y-15004100D01*
X19164100Y-14974100D02*
X19134100Y-15004100D01*
X19197600Y-12142000D02*
X19227600Y-12172000D01*
X19227600Y-12142000D02*
X19197600Y-12172000D01*
X19197600Y-15952000D02*
X19227600Y-15982000D01*
X19227600Y-15952000D02*
X19197600Y-15982000D01*
X19223000Y-7570000D02*
X19253000Y-7600000D01*
X19253000Y-7570000D02*
X19223000Y-7600000D01*
X19223000Y-7824000D02*
X19253000Y-7854000D01*
X19253000Y-7824000D02*
X19223000Y-7854000D01*
X19223000Y-8078000D02*
X19253000Y-8108000D01*
X19253000Y-8078000D02*
X19223000Y-8108000D01*
X19223000Y-8332000D02*
X19253000Y-8362000D01*
X19253000Y-8332000D02*
X19223000Y-8362000D01*
X19223000Y-8967000D02*
X19253000Y-8997000D01*
X19253000Y-8967000D02*
X19223000Y-8997000D01*
X19223000Y-9221000D02*
X19253000Y-9251000D01*
X19253000Y-9221000D02*
X19223000Y-9251000D01*
X19223000Y-9475000D02*
X19253000Y-9505000D01*
X19253000Y-9475000D02*
X19223000Y-9505000D01*
X19223000Y-9729000D02*
X19253000Y-9759000D01*
X19253000Y-9729000D02*
X19223000Y-9759000D01*
X19223000Y-9983000D02*
X19253000Y-10013000D01*
X19253000Y-9983000D02*
X19223000Y-10013000D01*
X19223000Y-10237000D02*
X19253000Y-10267000D01*
X19253000Y-10237000D02*
X19223000Y-10267000D01*
X19273800Y-12065800D02*
X19303800Y-12095800D01*
X19303800Y-12065800D02*
X19273800Y-12095800D01*
X19286500Y-13742200D02*
X19316500Y-13772200D01*
X19316500Y-13742200D02*
X19286500Y-13772200D01*
X19286500Y-14275600D02*
X19316500Y-14305600D01*
X19316500Y-14275600D02*
X19286500Y-14305600D01*
X19350000Y-7697000D02*
X19380000Y-7727000D01*
X19380000Y-7697000D02*
X19350000Y-7727000D01*
X19350000Y-7951000D02*
X19380000Y-7981000D01*
X19380000Y-7951000D02*
X19350000Y-7981000D01*
X19350000Y-8205000D02*
X19380000Y-8235000D01*
X19380000Y-8205000D02*
X19350000Y-8235000D01*
X19477000Y-7570000D02*
X19507000Y-7600000D01*
X19507000Y-7570000D02*
X19477000Y-7600000D01*
X19477000Y-7824000D02*
X19507000Y-7854000D01*
X19507000Y-7824000D02*
X19477000Y-7854000D01*
X19477000Y-8078000D02*
X19507000Y-8108000D01*
X19507000Y-8078000D02*
X19477000Y-8108000D01*
X19477000Y-8332000D02*
X19507000Y-8362000D01*
X19507000Y-8332000D02*
X19477000Y-8362000D01*
X19502400Y-11278400D02*
X19532400Y-11308400D01*
X19532400Y-11278400D02*
X19502400Y-11308400D01*
X19502400Y-13742200D02*
X19532400Y-13772200D01*
X19532400Y-13742200D02*
X19502400Y-13772200D01*
X19548480Y-7417600D02*
X19578480Y-7447600D01*
X19578480Y-7417600D02*
X19548480Y-7447600D01*
X19578600Y-9348000D02*
X19608600Y-9378000D01*
X19608600Y-9348000D02*
X19578600Y-9378000D01*
X19578600Y-13818400D02*
X19608600Y-13848400D01*
X19608600Y-13818400D02*
X19578600Y-13848400D01*
X19616700Y-7481100D02*
X19646700Y-7511100D01*
X19646700Y-7481100D02*
X19616700Y-7511100D01*
X19654800Y-9271800D02*
X19684800Y-9301800D01*
X19684800Y-9271800D02*
X19654800Y-9301800D01*
X19731000Y-6935000D02*
X19761000Y-6965000D01*
X19761000Y-6935000D02*
X19731000Y-6965000D01*
X19731000Y-7062000D02*
X19761000Y-7092000D01*
X19761000Y-7062000D02*
X19731000Y-7092000D01*
X19731000Y-7189000D02*
X19761000Y-7219000D01*
X19761000Y-7189000D02*
X19731000Y-7219000D01*
X19731000Y-7316000D02*
X19761000Y-7346000D01*
X19761000Y-7316000D02*
X19731000Y-7346000D01*
X19731000Y-7443000D02*
X19761000Y-7473000D01*
X19761000Y-7443000D02*
X19731000Y-7473000D01*
X19731000Y-10630700D02*
X19761000Y-10660700D01*
X19761000Y-10630700D02*
X19731000Y-10660700D01*
X19807200Y-8484400D02*
X19837200Y-8514400D01*
X19837200Y-8484400D02*
X19807200Y-8514400D01*
X19858000Y-7189000D02*
X19888000Y-7219000D01*
X19888000Y-7189000D02*
X19858000Y-7219000D01*
X19858000Y-7316000D02*
X19888000Y-7346000D01*
X19888000Y-7316000D02*
X19858000Y-7346000D01*
X19858000Y-7443000D02*
X19888000Y-7473000D01*
X19888000Y-7443000D02*
X19858000Y-7473000D01*
X19921500Y-10389750D02*
X19951500Y-10419750D01*
X19951500Y-10389750D02*
X19921500Y-10419750D01*
X19934200Y-14351800D02*
X19964200Y-14381800D01*
X19964200Y-14351800D02*
X19934200Y-14381800D01*
X19934200Y-15875800D02*
X19964200Y-15905800D01*
X19964200Y-15875800D02*
X19934200Y-15905800D01*
X19985000Y-10745000D02*
X20015000Y-10775000D01*
X20015000Y-10745000D02*
X19985000Y-10775000D01*
X19985000Y-12777000D02*
X20015000Y-12807000D01*
X20015000Y-12777000D02*
X19985000Y-12807000D01*
X20061200Y-15571000D02*
X20091200Y-15601000D01*
X20091200Y-15571000D02*
X20061200Y-15601000D01*
X20071750Y-10198900D02*
X20101750Y-10228900D01*
X20101750Y-10198900D02*
X20071750Y-10228900D01*
X20239000Y-7506500D02*
X20269000Y-7536500D01*
X20269000Y-7506500D02*
X20239000Y-7536500D01*
X20239000Y-7633500D02*
X20269000Y-7663500D01*
X20269000Y-7633500D02*
X20239000Y-7663500D01*
X20239000Y-10745000D02*
X20269000Y-10775000D01*
X20269000Y-10745000D02*
X20239000Y-10775000D01*
X20239000Y-12777000D02*
X20269000Y-12807000D01*
X20269000Y-12777000D02*
X20239000Y-12807000D01*
X20277100Y-10465600D02*
X20307100Y-10495600D01*
X20307100Y-10465600D02*
X20277100Y-10495600D01*
X20289800Y-7912900D02*
X20319800Y-7942900D01*
X20319800Y-7912900D02*
X20289800Y-7942900D01*
X20302500Y-7443000D02*
X20332500Y-7473000D01*
X20332500Y-7443000D02*
X20302500Y-7473000D01*
X20302500Y-7570000D02*
X20332500Y-7600000D01*
X20332500Y-7570000D02*
X20302500Y-7600000D01*
X20340600Y-11278400D02*
X20370600Y-11308400D01*
X20370600Y-11278400D02*
X20340600Y-11308400D01*
X20366000Y-7633500D02*
X20396000Y-7663500D01*
X20396000Y-7633500D02*
X20366000Y-7663500D01*
X20366000Y-8332000D02*
X20396000Y-8362000D01*
X20396000Y-8332000D02*
X20366000Y-8362000D01*
X20366000Y-9348000D02*
X20396000Y-9378000D01*
X20396000Y-9348000D02*
X20366000Y-9378000D01*
X20366000Y-9665500D02*
X20396000Y-9695500D01*
X20396000Y-9665500D02*
X20366000Y-9695500D01*
X20429500Y-7570000D02*
X20459500Y-7600000D01*
X20459500Y-7570000D02*
X20429500Y-7600000D01*
X20493000Y-7633500D02*
X20523000Y-7663500D01*
X20523000Y-7633500D02*
X20493000Y-7663500D01*
X20493000Y-8332000D02*
X20523000Y-8362000D01*
X20523000Y-8332000D02*
X20493000Y-8362000D01*
X20493000Y-10745000D02*
X20523000Y-10775000D01*
X20523000Y-10745000D02*
X20493000Y-10775000D01*
X20493000Y-12777000D02*
X20523000Y-12807000D01*
X20523000Y-12777000D02*
X20493000Y-12807000D01*
X20493000Y-14809000D02*
X20523000Y-14839000D01*
X20523000Y-14809000D02*
X20493000Y-14839000D01*
X20620000Y-7570000D02*
X20650000Y-7600000D01*
X20650000Y-7570000D02*
X20620000Y-7600000D01*
X20620000Y-8332000D02*
X20650000Y-8362000D01*
X20650000Y-8332000D02*
X20620000Y-8362000D01*
X20620000Y-10287800D02*
X20650000Y-10317800D01*
X20650000Y-10287800D02*
X20620000Y-10317800D01*
X20620000Y-15647200D02*
X20650000Y-15677200D01*
X20650000Y-15647200D02*
X20620000Y-15677200D01*
X20645400Y-7912900D02*
X20675400Y-7942900D01*
X20675400Y-7912900D02*
X20645400Y-7942900D01*
X20747000Y-8332000D02*
X20777000Y-8362000D01*
X20777000Y-8332000D02*
X20747000Y-8362000D01*
X20747000Y-9348000D02*
X20777000Y-9378000D01*
X20777000Y-9348000D02*
X20747000Y-9378000D01*
X20747000Y-9665500D02*
X20777000Y-9695500D01*
X20777000Y-9665500D02*
X20747000Y-9695500D01*
X20747000Y-10745000D02*
X20777000Y-10775000D01*
X20777000Y-10745000D02*
X20747000Y-10775000D01*
X20747000Y-12777000D02*
X20777000Y-12807000D01*
X20777000Y-12777000D02*
X20747000Y-12807000D01*
X20747000Y-14809000D02*
X20777000Y-14839000D01*
X20777000Y-14809000D02*
X20747000Y-14839000D01*
X20835900Y-15952000D02*
X20865900Y-15982000D01*
X20865900Y-15952000D02*
X20835900Y-15982000D01*
X20975600Y-10630700D02*
X21005600Y-10660700D01*
X21005600Y-10630700D02*
X20975600Y-10660700D01*
X21001000Y-7189000D02*
X21031000Y-7219000D01*
X21031000Y-7189000D02*
X21001000Y-7219000D01*
X21001000Y-7316000D02*
X21031000Y-7346000D01*
X21031000Y-7316000D02*
X21001000Y-7346000D01*
X21001000Y-7951000D02*
X21031000Y-7981000D01*
X21031000Y-7951000D02*
X21001000Y-7981000D01*
X21001000Y-8078000D02*
X21031000Y-8108000D01*
X21031000Y-8078000D02*
X21001000Y-8108000D01*
X21001000Y-10745000D02*
X21031000Y-10775000D01*
X21031000Y-10745000D02*
X21001000Y-10775000D01*
X21001000Y-12777000D02*
X21031000Y-12807000D01*
X21031000Y-12777000D02*
X21001000Y-12807000D01*
X21001000Y-14809000D02*
X21031000Y-14839000D01*
X21031000Y-14809000D02*
X21001000Y-14839000D01*
X21128000Y-6935000D02*
X21158000Y-6965000D01*
X21158000Y-6935000D02*
X21128000Y-6965000D01*
X21128000Y-7062000D02*
X21158000Y-7092000D01*
X21158000Y-7062000D02*
X21128000Y-7092000D01*
X21128000Y-7189000D02*
X21158000Y-7219000D01*
X21158000Y-7189000D02*
X21128000Y-7219000D01*
X21128000Y-7316000D02*
X21158000Y-7346000D01*
X21158000Y-7316000D02*
X21128000Y-7346000D01*
X21128000Y-7951000D02*
X21158000Y-7981000D01*
X21158000Y-7951000D02*
X21128000Y-7981000D01*
X21128000Y-8078000D02*
X21158000Y-8108000D01*
X21158000Y-8078000D02*
X21128000Y-8108000D01*
X21128000Y-9665500D02*
X21158000Y-9695500D01*
X21158000Y-9665500D02*
X21128000Y-9695500D01*
X21128000Y-10389400D02*
X21158000Y-10419400D01*
X21158000Y-10389400D02*
X21128000Y-10419400D01*
X21255000Y-6935000D02*
X21285000Y-6965000D01*
X21285000Y-6935000D02*
X21255000Y-6965000D01*
X21255000Y-7062000D02*
X21285000Y-7092000D01*
X21285000Y-7062000D02*
X21255000Y-7092000D01*
X21255000Y-7189000D02*
X21285000Y-7219000D01*
X21285000Y-7189000D02*
X21255000Y-7219000D01*
X21255000Y-7316000D02*
X21285000Y-7346000D01*
X21285000Y-7316000D02*
X21255000Y-7346000D01*
X21255000Y-7824000D02*
X21285000Y-7854000D01*
X21285000Y-7824000D02*
X21255000Y-7854000D01*
X21255000Y-7951000D02*
X21285000Y-7981000D01*
X21285000Y-7951000D02*
X21255000Y-7981000D01*
X21255000Y-8078000D02*
X21285000Y-8108000D01*
X21285000Y-8078000D02*
X21255000Y-8108000D01*
X21255000Y-10745000D02*
X21285000Y-10775000D01*
X21285000Y-10745000D02*
X21255000Y-10775000D01*
X21255000Y-12777000D02*
X21285000Y-12807000D01*
X21285000Y-12777000D02*
X21255000Y-12807000D01*
X21255000Y-14809000D02*
X21285000Y-14839000D01*
X21285000Y-14809000D02*
X21255000Y-14839000D01*
X21382000Y-6935000D02*
X21412000Y-6965000D01*
X21412000Y-6935000D02*
X21382000Y-6965000D01*
X21382000Y-7062000D02*
X21412000Y-7092000D01*
X21412000Y-7062000D02*
X21382000Y-7092000D01*
X21382000Y-7189000D02*
X21412000Y-7219000D01*
X21412000Y-7189000D02*
X21382000Y-7219000D01*
X21382000Y-7316000D02*
X21412000Y-7346000D01*
X21412000Y-7316000D02*
X21382000Y-7346000D01*
X21382000Y-7697000D02*
X21412000Y-7727000D01*
X21412000Y-7697000D02*
X21382000Y-7727000D01*
X21382000Y-7824000D02*
X21412000Y-7854000D01*
X21412000Y-7824000D02*
X21382000Y-7854000D01*
X21382000Y-7951000D02*
X21412000Y-7981000D01*
X21412000Y-7951000D02*
X21382000Y-7981000D01*
X21382000Y-8078000D02*
X21412000Y-8108000D01*
X21412000Y-8078000D02*
X21382000Y-8108000D01*
X21509000Y-9055900D02*
X21539000Y-9085900D01*
X21539000Y-9055900D02*
X21509000Y-9085900D01*
X21509000Y-10745000D02*
X21539000Y-10775000D01*
X21539000Y-10745000D02*
X21509000Y-10775000D01*
X21509000Y-11507000D02*
X21539000Y-11537000D01*
X21539000Y-11507000D02*
X21509000Y-11537000D01*
X21509000Y-12777000D02*
X21539000Y-12807000D01*
X21539000Y-12777000D02*
X21509000Y-12807000D01*
X21509000Y-14809000D02*
X21539000Y-14839000D01*
X21539000Y-14809000D02*
X21509000Y-14839000D01*
X21610600Y-9221000D02*
X21640600Y-9251000D01*
X21640600Y-9221000D02*
X21610600Y-9251000D01*
X21763000Y-6935000D02*
X21793000Y-6965000D01*
X21793000Y-6935000D02*
X21763000Y-6965000D01*
X21763000Y-7062000D02*
X21793000Y-7092000D01*
X21793000Y-7062000D02*
X21763000Y-7092000D01*
X21763000Y-7189000D02*
X21793000Y-7219000D01*
X21793000Y-7189000D02*
X21763000Y-7219000D01*
X21763000Y-7316000D02*
X21793000Y-7346000D01*
X21793000Y-7316000D02*
X21763000Y-7346000D01*
X21763000Y-7697000D02*
X21793000Y-7727000D01*
X21793000Y-7697000D02*
X21763000Y-7727000D01*
X21763000Y-7824000D02*
X21793000Y-7854000D01*
X21793000Y-7824000D02*
X21763000Y-7854000D01*
X21763000Y-7951000D02*
X21793000Y-7981000D01*
X21793000Y-7951000D02*
X21763000Y-7981000D01*
X21763000Y-8078000D02*
X21793000Y-8108000D01*
X21793000Y-8078000D02*
X21763000Y-8108000D01*
X21763000Y-10745000D02*
X21793000Y-10775000D01*
X21793000Y-10745000D02*
X21763000Y-10775000D01*
X21763000Y-12142000D02*
X21793000Y-12172000D01*
X21793000Y-12142000D02*
X21763000Y-12172000D01*
X21763000Y-12777000D02*
X21793000Y-12807000D01*
X21793000Y-12777000D02*
X21763000Y-12807000D01*
X21763000Y-14809000D02*
X21793000Y-14839000D01*
X21793000Y-14809000D02*
X21763000Y-14839000D01*
X21763000Y-15799600D02*
X21793000Y-15829600D01*
X21793000Y-15799600D02*
X21763000Y-15829600D01*
X21890000Y-6935000D02*
X21920000Y-6965000D01*
X21920000Y-6935000D02*
X21890000Y-6965000D01*
X21890000Y-7062000D02*
X21920000Y-7092000D01*
X21920000Y-7062000D02*
X21890000Y-7092000D01*
X21890000Y-7189000D02*
X21920000Y-7219000D01*
X21920000Y-7189000D02*
X21890000Y-7219000D01*
X21890000Y-7316000D02*
X21920000Y-7346000D01*
X21920000Y-7316000D02*
X21890000Y-7346000D01*
X21890000Y-7697000D02*
X21920000Y-7727000D01*
X21920000Y-7697000D02*
X21890000Y-7727000D01*
X21890000Y-7824000D02*
X21920000Y-7854000D01*
X21920000Y-7824000D02*
X21890000Y-7854000D01*
X21890000Y-7951000D02*
X21920000Y-7981000D01*
X21920000Y-7951000D02*
X21890000Y-7981000D01*
X21890000Y-8078000D02*
X21920000Y-8108000D01*
X21920000Y-8078000D02*
X21890000Y-8108000D01*
X21953500Y-7570000D02*
X21983500Y-7600000D01*
X21983500Y-7570000D02*
X21953500Y-7600000D01*
X21953500Y-11862600D02*
X21983500Y-11892600D01*
X21983500Y-11862600D02*
X21953500Y-11892600D01*
X22017000Y-6935000D02*
X22047000Y-6965000D01*
X22047000Y-6935000D02*
X22017000Y-6965000D01*
X22017000Y-7062000D02*
X22047000Y-7092000D01*
X22047000Y-7062000D02*
X22017000Y-7092000D01*
X22017000Y-7189000D02*
X22047000Y-7219000D01*
X22047000Y-7189000D02*
X22017000Y-7219000D01*
X22017000Y-7316000D02*
X22047000Y-7346000D01*
X22047000Y-7316000D02*
X22017000Y-7346000D01*
X22017000Y-7443000D02*
X22047000Y-7473000D01*
X22047000Y-7443000D02*
X22017000Y-7473000D01*
X22017000Y-12777000D02*
X22047000Y-12807000D01*
X22047000Y-12777000D02*
X22017000Y-12807000D01*
X22017000Y-14809000D02*
X22047000Y-14839000D01*
X22047000Y-14809000D02*
X22017000Y-14839000D01*
X22045000Y-10198900D02*
X22075000Y-10228900D01*
X22075000Y-10198900D02*
X22045000Y-10228900D01*
X22080500Y-7506500D02*
X22110500Y-7536500D01*
X22110500Y-7506500D02*
X22080500Y-7536500D01*
X22080500Y-8611400D02*
X22110500Y-8641400D01*
X22110500Y-8611400D02*
X22080500Y-8641400D01*
X22144000Y-15723400D02*
X22174000Y-15753400D01*
X22174000Y-15723400D02*
X22144000Y-15753400D01*
X22169400Y-10491000D02*
X22199400Y-10521000D01*
X22199400Y-10491000D02*
X22169400Y-10521000D01*
X22183140Y-12143500D02*
X22213140Y-12173500D01*
X22213140Y-12143500D02*
X22183140Y-12173500D01*
X22271000Y-6935000D02*
X22301000Y-6965000D01*
X22301000Y-6935000D02*
X22271000Y-6965000D01*
X22271000Y-7062000D02*
X22301000Y-7092000D01*
X22301000Y-7062000D02*
X22271000Y-7092000D01*
X22271000Y-7189000D02*
X22301000Y-7219000D01*
X22301000Y-7189000D02*
X22271000Y-7219000D01*
X22271000Y-7316000D02*
X22301000Y-7346000D01*
X22301000Y-7316000D02*
X22271000Y-7346000D01*
X22271000Y-7443000D02*
X22301000Y-7473000D01*
X22301000Y-7443000D02*
X22271000Y-7473000D01*
X22271000Y-8967000D02*
X22301000Y-8997000D01*
X22301000Y-8967000D02*
X22271000Y-8997000D01*
X22271000Y-9221000D02*
X22301000Y-9251000D01*
X22301000Y-9221000D02*
X22271000Y-9251000D01*
X22271000Y-12777000D02*
X22301000Y-12807000D01*
X22301000Y-12777000D02*
X22271000Y-12807000D01*
X22271000Y-14809000D02*
X22301000Y-14839000D01*
X22301000Y-14809000D02*
X22271000Y-14839000D01*
X22309100Y-8611400D02*
X22339100Y-8641400D01*
X22339100Y-8611400D02*
X22309100Y-8641400D01*
X22359900Y-15825000D02*
X22389900Y-15855000D01*
X22389900Y-15825000D02*
X22359900Y-15855000D01*
X22398000Y-7189000D02*
X22428000Y-7219000D01*
X22428000Y-7189000D02*
X22398000Y-7219000D01*
X22398000Y-7316000D02*
X22428000Y-7346000D01*
X22428000Y-7316000D02*
X22398000Y-7346000D01*
X22398000Y-7443000D02*
X22428000Y-7473000D01*
X22428000Y-7443000D02*
X22398000Y-7473000D01*
X22461500Y-10389750D02*
X22491500Y-10419750D01*
X22491500Y-10389750D02*
X22461500Y-10419750D01*
X22486900Y-11278400D02*
X22516900Y-11308400D01*
X22516900Y-11278400D02*
X22486900Y-11308400D01*
X22525000Y-8967000D02*
X22555000Y-8997000D01*
X22555000Y-8967000D02*
X22525000Y-8997000D01*
X22525000Y-9221000D02*
X22555000Y-9251000D01*
X22555000Y-9221000D02*
X22525000Y-9251000D01*
X22525000Y-12777000D02*
X22555000Y-12807000D01*
X22555000Y-12777000D02*
X22525000Y-12807000D01*
X22525000Y-14809000D02*
X22555000Y-14839000D01*
X22555000Y-14809000D02*
X22525000Y-14839000D01*
X22563100Y-9309900D02*
X22593100Y-9339900D01*
X22593100Y-9309900D02*
X22563100Y-9339900D01*
X22563100Y-9411500D02*
X22593100Y-9441500D01*
X22593100Y-9411500D02*
X22563100Y-9441500D01*
X22611750Y-10198900D02*
X22641750Y-10228900D01*
X22641750Y-10198900D02*
X22611750Y-10228900D01*
X22779000Y-7506500D02*
X22809000Y-7536500D01*
X22809000Y-7506500D02*
X22779000Y-7536500D01*
X22779000Y-7633500D02*
X22809000Y-7663500D01*
X22809000Y-7633500D02*
X22779000Y-7663500D01*
X22779000Y-12777000D02*
X22809000Y-12807000D01*
X22809000Y-12777000D02*
X22779000Y-12807000D01*
X22779000Y-14809000D02*
X22809000Y-14839000D01*
X22809000Y-14809000D02*
X22779000Y-14839000D01*
X22817100Y-10465600D02*
X22847100Y-10495600D01*
X22847100Y-10465600D02*
X22817100Y-10495600D01*
X22829800Y-7912900D02*
X22859800Y-7942900D01*
X22859800Y-7912900D02*
X22829800Y-7942900D01*
X22842500Y-7443000D02*
X22872500Y-7473000D01*
X22872500Y-7443000D02*
X22842500Y-7473000D01*
X22842500Y-7570000D02*
X22872500Y-7600000D01*
X22872500Y-7570000D02*
X22842500Y-7600000D01*
X22906000Y-7633500D02*
X22936000Y-7663500D01*
X22936000Y-7633500D02*
X22906000Y-7663500D01*
X22906000Y-8332000D02*
X22936000Y-8362000D01*
X22936000Y-8332000D02*
X22906000Y-8362000D01*
X22906000Y-9335300D02*
X22936000Y-9365300D01*
X22936000Y-9335300D02*
X22906000Y-9365300D01*
X22906000Y-9665500D02*
X22936000Y-9695500D01*
X22936000Y-9665500D02*
X22906000Y-9695500D01*
X22969500Y-7570000D02*
X22999500Y-7600000D01*
X22999500Y-7570000D02*
X22969500Y-7600000D01*
X23033000Y-7633500D02*
X23063000Y-7663500D01*
X23063000Y-7633500D02*
X23033000Y-7663500D01*
X23033000Y-8332000D02*
X23063000Y-8362000D01*
X23063000Y-8332000D02*
X23033000Y-8362000D01*
X23033000Y-11126000D02*
X23063000Y-11156000D01*
X23063000Y-11126000D02*
X23033000Y-11156000D01*
X23033000Y-11888000D02*
X23063000Y-11918000D01*
X23063000Y-11888000D02*
X23033000Y-11918000D01*
X23033000Y-12777000D02*
X23063000Y-12807000D01*
X23063000Y-12777000D02*
X23033000Y-12807000D01*
X23033000Y-13666000D02*
X23063000Y-13696000D01*
X23063000Y-13666000D02*
X23033000Y-13696000D01*
X23033000Y-14428000D02*
X23063000Y-14458000D01*
X23063000Y-14428000D02*
X23033000Y-14458000D01*
X23033000Y-14809000D02*
X23063000Y-14839000D01*
X23063000Y-14809000D02*
X23033000Y-14839000D01*
X23160000Y-7570000D02*
X23190000Y-7600000D01*
X23190000Y-7570000D02*
X23160000Y-7600000D01*
X23160000Y-8332000D02*
X23190000Y-8362000D01*
X23190000Y-8332000D02*
X23160000Y-8362000D01*
X23160000Y-10287800D02*
X23190000Y-10317800D01*
X23190000Y-10287800D02*
X23160000Y-10317800D01*
X23160000Y-10999000D02*
X23190000Y-11029000D01*
X23190000Y-10999000D02*
X23160000Y-11029000D01*
X23160000Y-11126000D02*
X23190000Y-11156000D01*
X23190000Y-11126000D02*
X23160000Y-11156000D01*
X23160000Y-11888000D02*
X23190000Y-11918000D01*
X23190000Y-11888000D02*
X23160000Y-11918000D01*
X23160000Y-12015000D02*
X23190000Y-12045000D01*
X23190000Y-12015000D02*
X23160000Y-12045000D01*
X23160000Y-13539000D02*
X23190000Y-13569000D01*
X23190000Y-13539000D02*
X23160000Y-13569000D01*
X23160000Y-13666000D02*
X23190000Y-13696000D01*
X23190000Y-13666000D02*
X23160000Y-13696000D01*
X23160000Y-14428000D02*
X23190000Y-14458000D01*
X23190000Y-14428000D02*
X23160000Y-14458000D01*
X23160000Y-14555000D02*
X23190000Y-14585000D01*
X23190000Y-14555000D02*
X23160000Y-14585000D01*
X23185400Y-7912900D02*
X23215400Y-7942900D01*
X23215400Y-7912900D02*
X23185400Y-7942900D01*
X23287000Y-8332000D02*
X23317000Y-8362000D01*
X23317000Y-8332000D02*
X23287000Y-8362000D01*
X23287000Y-9348000D02*
X23317000Y-9378000D01*
X23317000Y-9348000D02*
X23287000Y-9378000D01*
X23287000Y-9665500D02*
X23317000Y-9695500D01*
X23317000Y-9665500D02*
X23287000Y-9695500D01*
X23287000Y-10999000D02*
X23317000Y-11029000D01*
X23317000Y-10999000D02*
X23287000Y-11029000D01*
X23287000Y-11126000D02*
X23317000Y-11156000D01*
X23317000Y-11126000D02*
X23287000Y-11156000D01*
X23287000Y-11888000D02*
X23317000Y-11918000D01*
X23317000Y-11888000D02*
X23287000Y-11918000D01*
X23287000Y-12015000D02*
X23317000Y-12045000D01*
X23317000Y-12015000D02*
X23287000Y-12045000D01*
X23287000Y-12777000D02*
X23317000Y-12807000D01*
X23317000Y-12777000D02*
X23287000Y-12807000D01*
X23287000Y-13539000D02*
X23317000Y-13569000D01*
X23317000Y-13539000D02*
X23287000Y-13569000D01*
X23287000Y-13666000D02*
X23317000Y-13696000D01*
X23317000Y-13666000D02*
X23287000Y-13696000D01*
X23287000Y-14428000D02*
X23317000Y-14458000D01*
X23317000Y-14428000D02*
X23287000Y-14458000D01*
X23287000Y-14555000D02*
X23317000Y-14585000D01*
X23317000Y-14555000D02*
X23287000Y-14585000D01*
X23287000Y-14809000D02*
X23317000Y-14839000D01*
X23317000Y-14809000D02*
X23287000Y-14839000D01*
X23287000Y-16117100D02*
X23317000Y-16147100D01*
X23317000Y-16117100D02*
X23287000Y-16147100D01*
X23414000Y-10999000D02*
X23444000Y-11029000D01*
X23444000Y-10999000D02*
X23414000Y-11029000D01*
X23414000Y-11126000D02*
X23444000Y-11156000D01*
X23444000Y-11126000D02*
X23414000Y-11156000D01*
X23414000Y-11888000D02*
X23444000Y-11918000D01*
X23444000Y-11888000D02*
X23414000Y-11918000D01*
X23414000Y-12015000D02*
X23444000Y-12045000D01*
X23444000Y-12015000D02*
X23414000Y-12045000D01*
X23414000Y-13539000D02*
X23444000Y-13569000D01*
X23444000Y-13539000D02*
X23414000Y-13569000D01*
X23414000Y-13666000D02*
X23444000Y-13696000D01*
X23444000Y-13666000D02*
X23414000Y-13696000D01*
X23414000Y-14428000D02*
X23444000Y-14458000D01*
X23444000Y-14428000D02*
X23414000Y-14458000D01*
X23414000Y-14555000D02*
X23444000Y-14585000D01*
X23444000Y-14555000D02*
X23414000Y-14585000D01*
X23541000Y-7189000D02*
X23571000Y-7219000D01*
X23571000Y-7189000D02*
X23541000Y-7219000D01*
X23541000Y-7316000D02*
X23571000Y-7346000D01*
X23571000Y-7316000D02*
X23541000Y-7346000D01*
X23541000Y-7951000D02*
X23571000Y-7981000D01*
X23571000Y-7951000D02*
X23541000Y-7981000D01*
X23541000Y-8078000D02*
X23571000Y-8108000D01*
X23571000Y-8078000D02*
X23541000Y-8108000D01*
X23541000Y-10999000D02*
X23571000Y-11029000D01*
X23571000Y-10999000D02*
X23541000Y-11029000D01*
X23541000Y-11126000D02*
X23571000Y-11156000D01*
X23571000Y-11126000D02*
X23541000Y-11156000D01*
X23541000Y-11888000D02*
X23571000Y-11918000D01*
X23571000Y-11888000D02*
X23541000Y-11918000D01*
X23541000Y-12015000D02*
X23571000Y-12045000D01*
X23571000Y-12015000D02*
X23541000Y-12045000D01*
X23541000Y-12777000D02*
X23571000Y-12807000D01*
X23571000Y-12777000D02*
X23541000Y-12807000D01*
X23541000Y-13539000D02*
X23571000Y-13569000D01*
X23571000Y-13539000D02*
X23541000Y-13569000D01*
X23541000Y-13666000D02*
X23571000Y-13696000D01*
X23571000Y-13666000D02*
X23541000Y-13696000D01*
X23541000Y-14428000D02*
X23571000Y-14458000D01*
X23571000Y-14428000D02*
X23541000Y-14458000D01*
X23541000Y-14555000D02*
X23571000Y-14585000D01*
X23571000Y-14555000D02*
X23541000Y-14585000D01*
X23541000Y-14809000D02*
X23571000Y-14839000D01*
X23571000Y-14809000D02*
X23541000Y-14839000D01*
X23668000Y-6935000D02*
X23698000Y-6965000D01*
X23698000Y-6935000D02*
X23668000Y-6965000D01*
X23668000Y-7062000D02*
X23698000Y-7092000D01*
X23698000Y-7062000D02*
X23668000Y-7092000D01*
X23668000Y-7189000D02*
X23698000Y-7219000D01*
X23698000Y-7189000D02*
X23668000Y-7219000D01*
X23668000Y-7316000D02*
X23698000Y-7346000D01*
X23698000Y-7316000D02*
X23668000Y-7346000D01*
X23668000Y-7951000D02*
X23698000Y-7981000D01*
X23698000Y-7951000D02*
X23668000Y-7981000D01*
X23668000Y-8078000D02*
X23698000Y-8108000D01*
X23698000Y-8078000D02*
X23668000Y-8108000D01*
X23668000Y-9665500D02*
X23698000Y-9695500D01*
X23698000Y-9665500D02*
X23668000Y-9695500D01*
X23668000Y-10389400D02*
X23698000Y-10419400D01*
X23698000Y-10389400D02*
X23668000Y-10419400D01*
X23668000Y-11126000D02*
X23698000Y-11156000D01*
X23698000Y-11126000D02*
X23668000Y-11156000D01*
X23668000Y-11253000D02*
X23698000Y-11283000D01*
X23698000Y-11253000D02*
X23668000Y-11283000D01*
X23668000Y-11380000D02*
X23698000Y-11410000D01*
X23698000Y-11380000D02*
X23668000Y-11410000D01*
X23668000Y-11507000D02*
X23698000Y-11537000D01*
X23698000Y-11507000D02*
X23668000Y-11537000D01*
X23668000Y-11634000D02*
X23698000Y-11664000D01*
X23698000Y-11634000D02*
X23668000Y-11664000D01*
X23668000Y-11761000D02*
X23698000Y-11791000D01*
X23698000Y-11761000D02*
X23668000Y-11791000D01*
X23668000Y-11888000D02*
X23698000Y-11918000D01*
X23698000Y-11888000D02*
X23668000Y-11918000D01*
X23668000Y-13666000D02*
X23698000Y-13696000D01*
X23698000Y-13666000D02*
X23668000Y-13696000D01*
X23668000Y-13793000D02*
X23698000Y-13823000D01*
X23698000Y-13793000D02*
X23668000Y-13823000D01*
X23668000Y-13920000D02*
X23698000Y-13950000D01*
X23698000Y-13920000D02*
X23668000Y-13950000D01*
X23668000Y-14047000D02*
X23698000Y-14077000D01*
X23698000Y-14047000D02*
X23668000Y-14077000D01*
X23668000Y-14174000D02*
X23698000Y-14204000D01*
X23698000Y-14174000D02*
X23668000Y-14204000D01*
X23668000Y-14428000D02*
X23698000Y-14458000D01*
X23698000Y-14428000D02*
X23668000Y-14458000D01*
X23668000Y-16040900D02*
X23698000Y-16070900D01*
X23698000Y-16040900D02*
X23668000Y-16070900D01*
X23795000Y-6935000D02*
X23825000Y-6965000D01*
X23825000Y-6935000D02*
X23795000Y-6965000D01*
X23795000Y-7062000D02*
X23825000Y-7092000D01*
X23825000Y-7062000D02*
X23795000Y-7092000D01*
X23795000Y-7189000D02*
X23825000Y-7219000D01*
X23825000Y-7189000D02*
X23795000Y-7219000D01*
X23795000Y-7316000D02*
X23825000Y-7346000D01*
X23825000Y-7316000D02*
X23795000Y-7346000D01*
X23795000Y-7824000D02*
X23825000Y-7854000D01*
X23825000Y-7824000D02*
X23795000Y-7854000D01*
X23795000Y-7951000D02*
X23825000Y-7981000D01*
X23825000Y-7951000D02*
X23795000Y-7981000D01*
X23795000Y-8078000D02*
X23825000Y-8108000D01*
X23825000Y-8078000D02*
X23795000Y-8108000D01*
X23795000Y-11253000D02*
X23825000Y-11283000D01*
X23825000Y-11253000D02*
X23795000Y-11283000D01*
X23795000Y-11380000D02*
X23825000Y-11410000D01*
X23825000Y-11380000D02*
X23795000Y-11410000D01*
X23795000Y-11507000D02*
X23825000Y-11537000D01*
X23825000Y-11507000D02*
X23795000Y-11537000D01*
X23795000Y-11634000D02*
X23825000Y-11664000D01*
X23825000Y-11634000D02*
X23795000Y-11664000D01*
X23795000Y-11761000D02*
X23825000Y-11791000D01*
X23825000Y-11761000D02*
X23795000Y-11791000D01*
X23795000Y-12777000D02*
X23825000Y-12807000D01*
X23825000Y-12777000D02*
X23795000Y-12807000D01*
X23795000Y-13793000D02*
X23825000Y-13823000D01*
X23825000Y-13793000D02*
X23795000Y-13823000D01*
X23795000Y-13920000D02*
X23825000Y-13950000D01*
X23825000Y-13920000D02*
X23795000Y-13950000D01*
X23795000Y-14047000D02*
X23825000Y-14077000D01*
X23825000Y-14047000D02*
X23795000Y-14077000D01*
X23795000Y-14174000D02*
X23825000Y-14204000D01*
X23825000Y-14174000D02*
X23795000Y-14204000D01*
X23795000Y-14809000D02*
X23825000Y-14839000D01*
X23825000Y-14809000D02*
X23795000Y-14839000D01*
X23922000Y-6935000D02*
X23952000Y-6965000D01*
X23952000Y-6935000D02*
X23922000Y-6965000D01*
X23922000Y-7062000D02*
X23952000Y-7092000D01*
X23952000Y-7062000D02*
X23922000Y-7092000D01*
X23922000Y-7189000D02*
X23952000Y-7219000D01*
X23952000Y-7189000D02*
X23922000Y-7219000D01*
X23922000Y-7316000D02*
X23952000Y-7346000D01*
X23952000Y-7316000D02*
X23922000Y-7346000D01*
X23922000Y-7697000D02*
X23952000Y-7727000D01*
X23952000Y-7697000D02*
X23922000Y-7727000D01*
X23922000Y-7824000D02*
X23952000Y-7854000D01*
X23952000Y-7824000D02*
X23922000Y-7854000D01*
X23922000Y-7951000D02*
X23952000Y-7981000D01*
X23952000Y-7951000D02*
X23922000Y-7981000D01*
X23922000Y-8078000D02*
X23952000Y-8108000D01*
X23952000Y-8078000D02*
X23922000Y-8108000D01*
X24049000Y-9055900D02*
X24079000Y-9085900D01*
X24079000Y-9055900D02*
X24049000Y-9085900D01*
X24049000Y-12777000D02*
X24079000Y-12807000D01*
X24079000Y-12777000D02*
X24049000Y-12807000D01*
X24049000Y-14809000D02*
X24079000Y-14839000D01*
X24079000Y-14809000D02*
X24049000Y-14839000D01*
X24150600Y-9221000D02*
X24180600Y-9251000D01*
X24180600Y-9221000D02*
X24150600Y-9251000D01*
X24303000Y-6935000D02*
X24333000Y-6965000D01*
X24333000Y-6935000D02*
X24303000Y-6965000D01*
X24303000Y-7062000D02*
X24333000Y-7092000D01*
X24333000Y-7062000D02*
X24303000Y-7092000D01*
X24303000Y-7189000D02*
X24333000Y-7219000D01*
X24333000Y-7189000D02*
X24303000Y-7219000D01*
X24303000Y-7316000D02*
X24333000Y-7346000D01*
X24333000Y-7316000D02*
X24303000Y-7346000D01*
X24303000Y-7697000D02*
X24333000Y-7727000D01*
X24333000Y-7697000D02*
X24303000Y-7727000D01*
X24303000Y-7824000D02*
X24333000Y-7854000D01*
X24333000Y-7824000D02*
X24303000Y-7854000D01*
X24303000Y-7951000D02*
X24333000Y-7981000D01*
X24333000Y-7951000D02*
X24303000Y-7981000D01*
X24303000Y-8078000D02*
X24333000Y-8108000D01*
X24333000Y-8078000D02*
X24303000Y-8108000D01*
X24303000Y-9475000D02*
X24333000Y-9505000D01*
X24333000Y-9475000D02*
X24303000Y-9505000D01*
X24303000Y-9729000D02*
X24333000Y-9759000D01*
X24333000Y-9729000D02*
X24303000Y-9759000D01*
X24303000Y-12777000D02*
X24333000Y-12807000D01*
X24333000Y-12777000D02*
X24303000Y-12807000D01*
X24303000Y-14809000D02*
X24333000Y-14839000D01*
X24333000Y-14809000D02*
X24303000Y-14839000D01*
X24430000Y-6935000D02*
X24460000Y-6965000D01*
X24460000Y-6935000D02*
X24430000Y-6965000D01*
X24430000Y-7062000D02*
X24460000Y-7092000D01*
X24460000Y-7062000D02*
X24430000Y-7092000D01*
X24430000Y-7189000D02*
X24460000Y-7219000D01*
X24460000Y-7189000D02*
X24430000Y-7219000D01*
X24430000Y-7316000D02*
X24460000Y-7346000D01*
X24460000Y-7316000D02*
X24430000Y-7346000D01*
X24430000Y-7697000D02*
X24460000Y-7727000D01*
X24460000Y-7697000D02*
X24430000Y-7727000D01*
X24430000Y-7824000D02*
X24460000Y-7854000D01*
X24460000Y-7824000D02*
X24430000Y-7854000D01*
X24430000Y-7951000D02*
X24460000Y-7981000D01*
X24460000Y-7951000D02*
X24430000Y-7981000D01*
X24430000Y-8078000D02*
X24460000Y-8108000D01*
X24460000Y-8078000D02*
X24430000Y-8108000D01*
X24430000Y-15444000D02*
X24460000Y-15474000D01*
X24460000Y-15444000D02*
X24430000Y-15474000D01*
X24493500Y-7570000D02*
X24523500Y-7600000D01*
X24523500Y-7570000D02*
X24493500Y-7600000D01*
X24557000Y-6935000D02*
X24587000Y-6965000D01*
X24587000Y-6935000D02*
X24557000Y-6965000D01*
X24557000Y-7062000D02*
X24587000Y-7092000D01*
X24587000Y-7062000D02*
X24557000Y-7092000D01*
X24557000Y-7189000D02*
X24587000Y-7219000D01*
X24587000Y-7189000D02*
X24557000Y-7219000D01*
X24557000Y-7316000D02*
X24587000Y-7346000D01*
X24587000Y-7316000D02*
X24557000Y-7346000D01*
X24557000Y-7443000D02*
X24587000Y-7473000D01*
X24587000Y-7443000D02*
X24557000Y-7473000D01*
X24557000Y-9475000D02*
X24587000Y-9505000D01*
X24587000Y-9475000D02*
X24557000Y-9505000D01*
X24557000Y-9729000D02*
X24587000Y-9759000D01*
X24587000Y-9729000D02*
X24557000Y-9759000D01*
X24585000Y-10198900D02*
X24615000Y-10228900D01*
X24615000Y-10198900D02*
X24585000Y-10228900D01*
X24620500Y-7506500D02*
X24650500Y-7536500D01*
X24650500Y-7506500D02*
X24620500Y-7536500D01*
X24620500Y-8611400D02*
X24650500Y-8641400D01*
X24650500Y-8611400D02*
X24620500Y-8641400D01*
X24671300Y-14275600D02*
X24701300Y-14305600D01*
X24701300Y-14275600D02*
X24671300Y-14305600D01*
D13*
X15796000Y-5250000D02*
G75*
G02*
X15656000Y-5250000I-70000J0D01*
G01*
X15656000Y-5250000D02*
G75*
G02*
X15796000Y-5250000I70000J0D01*
G01*
X15796000Y-6120000D02*
G75*
G02*
X15656000Y-6120000I-70000J0D01*
G01*
X15656000Y-6120000D02*
G75*
G02*
X15796000Y-6120000I70000J0D01*
G01*
X16304000Y-5250000D02*
G75*
G02*
X16164000Y-5250000I-70000J0D01*
G01*
X16164000Y-5250000D02*
G75*
G02*
X16304000Y-5250000I70000J0D01*
G01*
X16304000Y-6120000D02*
G75*
G02*
X16164000Y-6120000I-70000J0D01*
G01*
X16164000Y-6120000D02*
G75*
G02*
X16304000Y-6120000I70000J0D01*
G01*
X16812000Y-5250000D02*
G75*
G02*
X16672000Y-5250000I-70000J0D01*
G01*
X16672000Y-5250000D02*
G75*
G02*
X16812000Y-5250000I70000J0D01*
G01*
X16812000Y-6120000D02*
G75*
G02*
X16672000Y-6120000I-70000J0D01*
G01*
X16672000Y-6120000D02*
G75*
G02*
X16812000Y-6120000I70000J0D01*
G01*
X17320000Y-5250000D02*
G75*
G02*
X17180000Y-5250000I-70000J0D01*
G01*
X17180000Y-5250000D02*
G75*
G02*
X17320000Y-5250000I70000J0D01*
G01*
X17320000Y-6120000D02*
G75*
G02*
X17180000Y-6120000I-70000J0D01*
G01*
X17180000Y-6120000D02*
G75*
G02*
X17320000Y-6120000I70000J0D01*
G01*
X17828000Y-5250000D02*
G75*
G02*
X17688000Y-5250000I-70000J0D01*
G01*
X17688000Y-5250000D02*
G75*
G02*
X17828000Y-5250000I70000J0D01*
G01*
X17828000Y-6120000D02*
G75*
G02*
X17688000Y-6120000I-70000J0D01*
G01*
X17688000Y-6120000D02*
G75*
G02*
X17828000Y-6120000I70000J0D01*
G01*
X18336000Y-5250000D02*
G75*
G02*
X18196000Y-5250000I-70000J0D01*
G01*
X18196000Y-5250000D02*
G75*
G02*
X18336000Y-5250000I70000J0D01*
G01*
X18336000Y-6120000D02*
G75*
G02*
X18196000Y-6120000I-70000J0D01*
G01*
X18196000Y-6120000D02*
G75*
G02*
X18336000Y-6120000I70000J0D01*
G01*
X18945000Y-4860000D02*
G75*
G02*
X18805000Y-4860000I-70000J0D01*
G01*
X18805000Y-4860000D02*
G75*
G02*
X18945000Y-4860000I70000J0D01*
G01*
X18945000Y-5210000D02*
G75*
G02*
X18805000Y-5210000I-70000J0D01*
G01*
X18805000Y-5210000D02*
G75*
G02*
X18945000Y-5210000I70000J0D01*
G01*
X18945000Y-5790000D02*
G75*
G02*
X18805000Y-5790000I-70000J0D01*
G01*
X18805000Y-5790000D02*
G75*
G02*
X18945000Y-5790000I70000J0D01*
G01*
X18945000Y-6140000D02*
G75*
G02*
X18805000Y-6140000I-70000J0D01*
G01*
X18805000Y-6140000D02*
G75*
G02*
X18945000Y-6140000I70000J0D01*
G01*
X19195000Y-4860000D02*
G75*
G02*
X19055000Y-4860000I-70000J0D01*
G01*
X19055000Y-4860000D02*
G75*
G02*
X19195000Y-4860000I70000J0D01*
G01*
X19195000Y-5210000D02*
G75*
G02*
X19055000Y-5210000I-70000J0D01*
G01*
X19055000Y-5210000D02*
G75*
G02*
X19195000Y-5210000I70000J0D01*
G01*
X19195000Y-5790000D02*
G75*
G02*
X19055000Y-5790000I-70000J0D01*
G01*
X19055000Y-5790000D02*
G75*
G02*
X19195000Y-5790000I70000J0D01*
G01*
X19195000Y-6140000D02*
G75*
G02*
X19055000Y-6140000I-70000J0D01*
G01*
X19055000Y-6140000D02*
G75*
G02*
X19195000Y-6140000I70000J0D01*
G01*
X19812000Y-5250000D02*
G75*
G02*
X19672000Y-5250000I-70000J0D01*
G01*
X19672000Y-5250000D02*
G75*
G02*
X19812000Y-5250000I70000J0D01*
G01*
X19812000Y-6120000D02*
G75*
G02*
X19672000Y-6120000I-70000J0D01*
G01*
X19672000Y-6120000D02*
G75*
G02*
X19812000Y-6120000I70000J0D01*
G01*
X20320000Y-5250000D02*
G75*
G02*
X20180000Y-5250000I-70000J0D01*
G01*
X20180000Y-5250000D02*
G75*
G02*
X20320000Y-5250000I70000J0D01*
G01*
X20320000Y-6120000D02*
G75*
G02*
X20180000Y-6120000I-70000J0D01*
G01*
X20180000Y-6120000D02*
G75*
G02*
X20320000Y-6120000I70000J0D01*
G01*
X21312000Y-5250000D02*
G75*
G02*
X21172000Y-5250000I-70000J0D01*
G01*
X21172000Y-5250000D02*
G75*
G02*
X21312000Y-5250000I70000J0D01*
G01*
X21312000Y-6120000D02*
G75*
G02*
X21172000Y-6120000I-70000J0D01*
G01*
X21172000Y-6120000D02*
G75*
G02*
X21312000Y-6120000I70000J0D01*
G01*
X21820000Y-5250000D02*
G75*
G02*
X21680000Y-5250000I-70000J0D01*
G01*
X21680000Y-5250000D02*
G75*
G02*
X21820000Y-5250000I70000J0D01*
G01*
X21820000Y-6120000D02*
G75*
G02*
X21680000Y-6120000I-70000J0D01*
G01*
X21680000Y-6120000D02*
G75*
G02*
X21820000Y-6120000I70000J0D01*
G01*
X22562000Y-5250000D02*
G75*
G02*
X22422000Y-5250000I-70000J0D01*
G01*
X22422000Y-5250000D02*
G75*
G02*
X22562000Y-5250000I70000J0D01*
G01*
X22562000Y-6120000D02*
G75*
G02*
X22422000Y-6120000I-70000J0D01*
G01*
X22422000Y-6120000D02*
G75*
G02*
X22562000Y-6120000I70000J0D01*
G01*
X23070000Y-5250000D02*
G75*
G02*
X22930000Y-5250000I-70000J0D01*
G01*
X22930000Y-5250000D02*
G75*
G02*
X23070000Y-5250000I70000J0D01*
G01*
X23070000Y-6120000D02*
G75*
G02*
X22930000Y-6120000I-70000J0D01*
G01*
X22930000Y-6120000D02*
G75*
G02*
X23070000Y-6120000I70000J0D01*
G01*
X23818000Y-5250000D02*
G75*
G02*
X23678000Y-5250000I-70000J0D01*
G01*
X23678000Y-5250000D02*
G75*
G02*
X23818000Y-5250000I70000J0D01*
G01*
X23818000Y-6120000D02*
G75*
G02*
X23678000Y-6120000I-70000J0D01*
G01*
X23678000Y-6120000D02*
G75*
G02*
X23818000Y-6120000I70000J0D01*
G01*
X24326000Y-5250000D02*
G75*
G02*
X24186000Y-5250000I-70000J0D01*
G01*
X24186000Y-5250000D02*
G75*
G02*
X24326000Y-5250000I70000J0D01*
G01*
X24326000Y-6120000D02*
G75*
G02*
X24186000Y-6120000I-70000J0D01*
G01*
X24186000Y-6120000D02*
G75*
G02*
X24326000Y-6120000I70000J0D01*
G01*
D11*
X15258277Y-16788984D02*
X15258277Y-16588984D01*
X15258277Y-16588984D02*
X15305896Y-16588984D01*
X15305896Y-16588984D02*
X15334467Y-16598508D01*
X15334467Y-16598508D02*
X15353515Y-16617555D01*
X15353515Y-16617555D02*
X15363039Y-16636603D01*
X15363039Y-16636603D02*
X15372562Y-16674698D01*
X15372562Y-16674698D02*
X15372562Y-16703269D01*
X15372562Y-16703269D02*
X15363039Y-16741365D01*
X15363039Y-16741365D02*
X15353515Y-16760412D01*
X15353515Y-16760412D02*
X15334467Y-16779460D01*
X15334467Y-16779460D02*
X15305896Y-16788984D01*
X15305896Y-16788984D02*
X15258277Y-16788984D01*
X15458277Y-16788984D02*
X15458277Y-16655650D01*
X15458277Y-16693746D02*
X15467801Y-16674698D01*
X15467801Y-16674698D02*
X15477324Y-16665174D01*
X15477324Y-16665174D02*
X15496372Y-16655650D01*
X15496372Y-16655650D02*
X15515420Y-16655650D01*
X15582086Y-16788984D02*
X15582086Y-16655650D01*
X15582086Y-16588984D02*
X15572562Y-16598508D01*
X15572562Y-16598508D02*
X15582086Y-16608031D01*
X15582086Y-16608031D02*
X15591610Y-16598508D01*
X15591610Y-16598508D02*
X15582086Y-16588984D01*
X15582086Y-16588984D02*
X15582086Y-16608031D01*
X15705896Y-16788984D02*
X15686848Y-16779460D01*
X15686848Y-16779460D02*
X15677324Y-16760412D01*
X15677324Y-16760412D02*
X15677324Y-16588984D01*
X15810658Y-16788984D02*
X15791610Y-16779460D01*
X15791610Y-16779460D02*
X15782086Y-16760412D01*
X15782086Y-16760412D02*
X15782086Y-16588984D01*
X16039229Y-16788984D02*
X16039229Y-16588984D01*
X16039229Y-16588984D02*
X16105896Y-16731841D01*
X16105896Y-16731841D02*
X16172562Y-16588984D01*
X16172562Y-16588984D02*
X16172562Y-16788984D01*
X16353515Y-16788984D02*
X16353515Y-16684222D01*
X16353515Y-16684222D02*
X16343991Y-16665174D01*
X16343991Y-16665174D02*
X16324943Y-16655650D01*
X16324943Y-16655650D02*
X16286848Y-16655650D01*
X16286848Y-16655650D02*
X16267801Y-16665174D01*
X16353515Y-16779460D02*
X16334467Y-16788984D01*
X16334467Y-16788984D02*
X16286848Y-16788984D01*
X16286848Y-16788984D02*
X16267801Y-16779460D01*
X16267801Y-16779460D02*
X16258277Y-16760412D01*
X16258277Y-16760412D02*
X16258277Y-16741365D01*
X16258277Y-16741365D02*
X16267801Y-16722317D01*
X16267801Y-16722317D02*
X16286848Y-16712793D01*
X16286848Y-16712793D02*
X16334467Y-16712793D01*
X16334467Y-16712793D02*
X16353515Y-16703269D01*
X16448753Y-16655650D02*
X16448753Y-16855650D01*
X16448753Y-16665174D02*
X16467801Y-16655650D01*
X16467801Y-16655650D02*
X16505896Y-16655650D01*
X16505896Y-16655650D02*
X16524943Y-16665174D01*
X16524943Y-16665174D02*
X16534467Y-16674698D01*
X16534467Y-16674698D02*
X16543991Y-16693746D01*
X16543991Y-16693746D02*
X16543991Y-16750888D01*
X16543991Y-16750888D02*
X16534467Y-16769936D01*
X16534467Y-16769936D02*
X16524943Y-16779460D01*
X16524943Y-16779460D02*
X16505896Y-16788984D01*
X16505896Y-16788984D02*
X16467801Y-16788984D01*
X16467801Y-16788984D02*
X16448753Y-16779460D01*
X16629705Y-16769936D02*
X16639229Y-16779460D01*
X16639229Y-16779460D02*
X16629705Y-16788984D01*
X16629705Y-16788984D02*
X16620182Y-16779460D01*
X16620182Y-16779460D02*
X16629705Y-16769936D01*
X16629705Y-16769936D02*
X16629705Y-16788984D01*
X16629705Y-16665174D02*
X16639229Y-16674698D01*
X16639229Y-16674698D02*
X16629705Y-16684222D01*
X16629705Y-16684222D02*
X16620182Y-16674698D01*
X16620182Y-16674698D02*
X16629705Y-16665174D01*
X16629705Y-16665174D02*
X16629705Y-16684222D01*
D12*
X14967500Y-17102500D02*
X14997500Y-17132500D01*
X14997500Y-17102500D02*
X14967500Y-17132500D01*
D11*
X15296372Y-17008984D02*
X15315420Y-17008984D01*
X15315420Y-17008984D02*
X15334467Y-17018508D01*
X15334467Y-17018508D02*
X15343991Y-17028031D01*
X15343991Y-17028031D02*
X15353515Y-17047079D01*
X15353515Y-17047079D02*
X15363039Y-17085174D01*
X15363039Y-17085174D02*
X15363039Y-17132793D01*
X15363039Y-17132793D02*
X15353515Y-17170889D01*
X15353515Y-17170889D02*
X15343991Y-17189936D01*
X15343991Y-17189936D02*
X15334467Y-17199460D01*
X15334467Y-17199460D02*
X15315420Y-17208984D01*
X15315420Y-17208984D02*
X15296372Y-17208984D01*
X15296372Y-17208984D02*
X15277324Y-17199460D01*
X15277324Y-17199460D02*
X15267801Y-17189936D01*
X15267801Y-17189936D02*
X15258277Y-17170889D01*
X15258277Y-17170889D02*
X15248753Y-17132793D01*
X15248753Y-17132793D02*
X15248753Y-17085174D01*
X15248753Y-17085174D02*
X15258277Y-17047079D01*
X15258277Y-17047079D02*
X15267801Y-17028031D01*
X15267801Y-17028031D02*
X15277324Y-17018508D01*
X15277324Y-17018508D02*
X15296372Y-17008984D01*
X15448753Y-17189936D02*
X15458277Y-17199460D01*
X15458277Y-17199460D02*
X15448753Y-17208984D01*
X15448753Y-17208984D02*
X15439229Y-17199460D01*
X15439229Y-17199460D02*
X15448753Y-17189936D01*
X15448753Y-17189936D02*
X15448753Y-17208984D01*
X15524943Y-17008984D02*
X15648753Y-17008984D01*
X15648753Y-17008984D02*
X15582086Y-17085174D01*
X15582086Y-17085174D02*
X15610658Y-17085174D01*
X15610658Y-17085174D02*
X15629705Y-17094698D01*
X15629705Y-17094698D02*
X15639229Y-17104222D01*
X15639229Y-17104222D02*
X15648753Y-17123270D01*
X15648753Y-17123270D02*
X15648753Y-17170889D01*
X15648753Y-17170889D02*
X15639229Y-17189936D01*
X15639229Y-17189936D02*
X15629705Y-17199460D01*
X15629705Y-17199460D02*
X15610658Y-17208984D01*
X15610658Y-17208984D02*
X15553515Y-17208984D01*
X15553515Y-17208984D02*
X15534467Y-17199460D01*
X15534467Y-17199460D02*
X15524943Y-17189936D01*
X15772562Y-17008984D02*
X15791610Y-17008984D01*
X15791610Y-17008984D02*
X15810658Y-17018508D01*
X15810658Y-17018508D02*
X15820182Y-17028031D01*
X15820182Y-17028031D02*
X15829705Y-17047079D01*
X15829705Y-17047079D02*
X15839229Y-17085174D01*
X15839229Y-17085174D02*
X15839229Y-17132793D01*
X15839229Y-17132793D02*
X15829705Y-17170889D01*
X15829705Y-17170889D02*
X15820182Y-17189936D01*
X15820182Y-17189936D02*
X15810658Y-17199460D01*
X15810658Y-17199460D02*
X15791610Y-17208984D01*
X15791610Y-17208984D02*
X15772562Y-17208984D01*
X15772562Y-17208984D02*
X15753515Y-17199460D01*
X15753515Y-17199460D02*
X15743991Y-17189936D01*
X15743991Y-17189936D02*
X15734467Y-17170889D01*
X15734467Y-17170889D02*
X15724943Y-17132793D01*
X15724943Y-17132793D02*
X15724943Y-17085174D01*
X15724943Y-17085174D02*
X15734467Y-17047079D01*
X15734467Y-17047079D02*
X15743991Y-17028031D01*
X15743991Y-17028031D02*
X15753515Y-17018508D01*
X15753515Y-17018508D02*
X15772562Y-17008984D01*
X15963039Y-17008984D02*
X15982086Y-17008984D01*
X15982086Y-17008984D02*
X16001134Y-17018508D01*
X16001134Y-17018508D02*
X16010658Y-17028031D01*
X16010658Y-17028031D02*
X16020182Y-17047079D01*
X16020182Y-17047079D02*
X16029705Y-17085174D01*
X16029705Y-17085174D02*
X16029705Y-17132793D01*
X16029705Y-17132793D02*
X16020182Y-17170889D01*
X16020182Y-17170889D02*
X16010658Y-17189936D01*
X16010658Y-17189936D02*
X16001134Y-17199460D01*
X16001134Y-17199460D02*
X15982086Y-17208984D01*
X15982086Y-17208984D02*
X15963039Y-17208984D01*
X15963039Y-17208984D02*
X15943991Y-17199460D01*
X15943991Y-17199460D02*
X15934467Y-17189936D01*
X15934467Y-17189936D02*
X15924943Y-17170889D01*
X15924943Y-17170889D02*
X15915420Y-17132793D01*
X15915420Y-17132793D02*
X15915420Y-17085174D01*
X15915420Y-17085174D02*
X15924943Y-17047079D01*
X15924943Y-17047079D02*
X15934467Y-17028031D01*
X15934467Y-17028031D02*
X15943991Y-17018508D01*
X15943991Y-17018508D02*
X15963039Y-17008984D01*
X16115420Y-17208984D02*
X16115420Y-17075650D01*
X16115420Y-17094698D02*
X16124943Y-17085174D01*
X16124943Y-17085174D02*
X16143991Y-17075650D01*
X16143991Y-17075650D02*
X16172563Y-17075650D01*
X16172563Y-17075650D02*
X16191610Y-17085174D01*
X16191610Y-17085174D02*
X16201134Y-17104222D01*
X16201134Y-17104222D02*
X16201134Y-17208984D01*
X16201134Y-17104222D02*
X16210658Y-17085174D01*
X16210658Y-17085174D02*
X16229705Y-17075650D01*
X16229705Y-17075650D02*
X16258277Y-17075650D01*
X16258277Y-17075650D02*
X16277324Y-17085174D01*
X16277324Y-17085174D02*
X16286848Y-17104222D01*
X16286848Y-17104222D02*
X16286848Y-17208984D01*
X16382086Y-17208984D02*
X16382086Y-17075650D01*
X16382086Y-17094698D02*
X16391610Y-17085174D01*
X16391610Y-17085174D02*
X16410658Y-17075650D01*
X16410658Y-17075650D02*
X16439229Y-17075650D01*
X16439229Y-17075650D02*
X16458277Y-17085174D01*
X16458277Y-17085174D02*
X16467801Y-17104222D01*
X16467801Y-17104222D02*
X16467801Y-17208984D01*
X16467801Y-17104222D02*
X16477324Y-17085174D01*
X16477324Y-17085174D02*
X16496372Y-17075650D01*
X16496372Y-17075650D02*
X16524943Y-17075650D01*
X16524943Y-17075650D02*
X16543991Y-17085174D01*
X16543991Y-17085174D02*
X16553515Y-17104222D01*
X16553515Y-17104222D02*
X16553515Y-17208984D01*
X16943991Y-16999460D02*
X16772563Y-17256603D01*
X17201134Y-17008984D02*
X17220182Y-17008984D01*
X17220182Y-17008984D02*
X17239229Y-17018508D01*
X17239229Y-17018508D02*
X17248753Y-17028031D01*
X17248753Y-17028031D02*
X17258277Y-17047079D01*
X17258277Y-17047079D02*
X17267801Y-17085174D01*
X17267801Y-17085174D02*
X17267801Y-17132793D01*
X17267801Y-17132793D02*
X17258277Y-17170889D01*
X17258277Y-17170889D02*
X17248753Y-17189936D01*
X17248753Y-17189936D02*
X17239229Y-17199460D01*
X17239229Y-17199460D02*
X17220182Y-17208984D01*
X17220182Y-17208984D02*
X17201134Y-17208984D01*
X17201134Y-17208984D02*
X17182087Y-17199460D01*
X17182087Y-17199460D02*
X17172563Y-17189936D01*
X17172563Y-17189936D02*
X17163039Y-17170889D01*
X17163039Y-17170889D02*
X17153515Y-17132793D01*
X17153515Y-17132793D02*
X17153515Y-17085174D01*
X17153515Y-17085174D02*
X17163039Y-17047079D01*
X17163039Y-17047079D02*
X17172563Y-17028031D01*
X17172563Y-17028031D02*
X17182087Y-17018508D01*
X17182087Y-17018508D02*
X17201134Y-17008984D01*
X17353515Y-17189936D02*
X17363039Y-17199460D01*
X17363039Y-17199460D02*
X17353515Y-17208984D01*
X17353515Y-17208984D02*
X17343991Y-17199460D01*
X17343991Y-17199460D02*
X17353515Y-17189936D01*
X17353515Y-17189936D02*
X17353515Y-17208984D01*
X17486848Y-17008984D02*
X17505896Y-17008984D01*
X17505896Y-17008984D02*
X17524944Y-17018508D01*
X17524944Y-17018508D02*
X17534468Y-17028031D01*
X17534468Y-17028031D02*
X17543991Y-17047079D01*
X17543991Y-17047079D02*
X17553515Y-17085174D01*
X17553515Y-17085174D02*
X17553515Y-17132793D01*
X17553515Y-17132793D02*
X17543991Y-17170889D01*
X17543991Y-17170889D02*
X17534468Y-17189936D01*
X17534468Y-17189936D02*
X17524944Y-17199460D01*
X17524944Y-17199460D02*
X17505896Y-17208984D01*
X17505896Y-17208984D02*
X17486848Y-17208984D01*
X17486848Y-17208984D02*
X17467801Y-17199460D01*
X17467801Y-17199460D02*
X17458277Y-17189936D01*
X17458277Y-17189936D02*
X17448753Y-17170889D01*
X17448753Y-17170889D02*
X17439229Y-17132793D01*
X17439229Y-17132793D02*
X17439229Y-17085174D01*
X17439229Y-17085174D02*
X17448753Y-17047079D01*
X17448753Y-17047079D02*
X17458277Y-17028031D01*
X17458277Y-17028031D02*
X17467801Y-17018508D01*
X17467801Y-17018508D02*
X17486848Y-17008984D01*
X17743991Y-17208984D02*
X17629706Y-17208984D01*
X17686848Y-17208984D02*
X17686848Y-17008984D01*
X17686848Y-17008984D02*
X17667801Y-17037555D01*
X17667801Y-17037555D02*
X17648753Y-17056603D01*
X17648753Y-17056603D02*
X17629706Y-17066127D01*
X17934468Y-17208984D02*
X17820182Y-17208984D01*
X17877325Y-17208984D02*
X17877325Y-17008984D01*
X17877325Y-17008984D02*
X17858277Y-17037555D01*
X17858277Y-17037555D02*
X17839229Y-17056603D01*
X17839229Y-17056603D02*
X17820182Y-17066127D01*
X18048753Y-17094698D02*
X18029706Y-17085174D01*
X18029706Y-17085174D02*
X18020182Y-17075650D01*
X18020182Y-17075650D02*
X18010658Y-17056603D01*
X18010658Y-17056603D02*
X18010658Y-17047079D01*
X18010658Y-17047079D02*
X18020182Y-17028031D01*
X18020182Y-17028031D02*
X18029706Y-17018508D01*
X18029706Y-17018508D02*
X18048753Y-17008984D01*
X18048753Y-17008984D02*
X18086849Y-17008984D01*
X18086849Y-17008984D02*
X18105896Y-17018508D01*
X18105896Y-17018508D02*
X18115420Y-17028031D01*
X18115420Y-17028031D02*
X18124944Y-17047079D01*
X18124944Y-17047079D02*
X18124944Y-17056603D01*
X18124944Y-17056603D02*
X18115420Y-17075650D01*
X18115420Y-17075650D02*
X18105896Y-17085174D01*
X18105896Y-17085174D02*
X18086849Y-17094698D01*
X18086849Y-17094698D02*
X18048753Y-17094698D01*
X18048753Y-17094698D02*
X18029706Y-17104222D01*
X18029706Y-17104222D02*
X18020182Y-17113746D01*
X18020182Y-17113746D02*
X18010658Y-17132793D01*
X18010658Y-17132793D02*
X18010658Y-17170889D01*
X18010658Y-17170889D02*
X18020182Y-17189936D01*
X18020182Y-17189936D02*
X18029706Y-17199460D01*
X18029706Y-17199460D02*
X18048753Y-17208984D01*
X18048753Y-17208984D02*
X18086849Y-17208984D01*
X18086849Y-17208984D02*
X18105896Y-17199460D01*
X18105896Y-17199460D02*
X18115420Y-17189936D01*
X18115420Y-17189936D02*
X18124944Y-17170889D01*
X18124944Y-17170889D02*
X18124944Y-17132793D01*
X18124944Y-17132793D02*
X18115420Y-17113746D01*
X18115420Y-17113746D02*
X18105896Y-17104222D01*
X18105896Y-17104222D02*
X18086849Y-17094698D01*
X18201134Y-17008984D02*
X18201134Y-17047079D01*
X18277325Y-17008984D02*
X18277325Y-17047079D01*
X18572563Y-17285174D02*
X18563039Y-17275650D01*
X18563039Y-17275650D02*
X18543991Y-17247079D01*
X18543991Y-17247079D02*
X18534468Y-17228031D01*
X18534468Y-17228031D02*
X18524944Y-17199460D01*
X18524944Y-17199460D02*
X18515420Y-17151841D01*
X18515420Y-17151841D02*
X18515420Y-17113746D01*
X18515420Y-17113746D02*
X18524944Y-17066127D01*
X18524944Y-17066127D02*
X18534468Y-17037555D01*
X18534468Y-17037555D02*
X18543991Y-17018508D01*
X18543991Y-17018508D02*
X18563039Y-16989936D01*
X18563039Y-16989936D02*
X18572563Y-16980412D01*
X18743991Y-17008984D02*
X18648753Y-17008984D01*
X18648753Y-17008984D02*
X18639230Y-17104222D01*
X18639230Y-17104222D02*
X18648753Y-17094698D01*
X18648753Y-17094698D02*
X18667801Y-17085174D01*
X18667801Y-17085174D02*
X18715420Y-17085174D01*
X18715420Y-17085174D02*
X18734468Y-17094698D01*
X18734468Y-17094698D02*
X18743991Y-17104222D01*
X18743991Y-17104222D02*
X18753515Y-17123270D01*
X18753515Y-17123270D02*
X18753515Y-17170889D01*
X18753515Y-17170889D02*
X18743991Y-17189936D01*
X18743991Y-17189936D02*
X18734468Y-17199460D01*
X18734468Y-17199460D02*
X18715420Y-17208984D01*
X18715420Y-17208984D02*
X18667801Y-17208984D01*
X18667801Y-17208984D02*
X18648753Y-17199460D01*
X18648753Y-17199460D02*
X18639230Y-17189936D01*
X18848753Y-17208984D02*
X18886849Y-17208984D01*
X18886849Y-17208984D02*
X18905896Y-17199460D01*
X18905896Y-17199460D02*
X18915420Y-17189936D01*
X18915420Y-17189936D02*
X18934468Y-17161365D01*
X18934468Y-17161365D02*
X18943991Y-17123270D01*
X18943991Y-17123270D02*
X18943991Y-17047079D01*
X18943991Y-17047079D02*
X18934468Y-17028031D01*
X18934468Y-17028031D02*
X18924944Y-17018508D01*
X18924944Y-17018508D02*
X18905896Y-17008984D01*
X18905896Y-17008984D02*
X18867801Y-17008984D01*
X18867801Y-17008984D02*
X18848753Y-17018508D01*
X18848753Y-17018508D02*
X18839230Y-17028031D01*
X18839230Y-17028031D02*
X18829706Y-17047079D01*
X18829706Y-17047079D02*
X18829706Y-17094698D01*
X18829706Y-17094698D02*
X18839230Y-17113746D01*
X18839230Y-17113746D02*
X18848753Y-17123270D01*
X18848753Y-17123270D02*
X18867801Y-17132793D01*
X18867801Y-17132793D02*
X18905896Y-17132793D01*
X18905896Y-17132793D02*
X18924944Y-17123270D01*
X18924944Y-17123270D02*
X18934468Y-17113746D01*
X18934468Y-17113746D02*
X18943991Y-17094698D01*
X19058277Y-17094698D02*
X19039230Y-17085174D01*
X19039230Y-17085174D02*
X19029706Y-17075650D01*
X19029706Y-17075650D02*
X19020182Y-17056603D01*
X19020182Y-17056603D02*
X19020182Y-17047079D01*
X19020182Y-17047079D02*
X19029706Y-17028031D01*
X19029706Y-17028031D02*
X19039230Y-17018508D01*
X19039230Y-17018508D02*
X19058277Y-17008984D01*
X19058277Y-17008984D02*
X19096372Y-17008984D01*
X19096372Y-17008984D02*
X19115420Y-17018508D01*
X19115420Y-17018508D02*
X19124944Y-17028031D01*
X19124944Y-17028031D02*
X19134468Y-17047079D01*
X19134468Y-17047079D02*
X19134468Y-17056603D01*
X19134468Y-17056603D02*
X19124944Y-17075650D01*
X19124944Y-17075650D02*
X19115420Y-17085174D01*
X19115420Y-17085174D02*
X19096372Y-17094698D01*
X19096372Y-17094698D02*
X19058277Y-17094698D01*
X19058277Y-17094698D02*
X19039230Y-17104222D01*
X19039230Y-17104222D02*
X19029706Y-17113746D01*
X19029706Y-17113746D02*
X19020182Y-17132793D01*
X19020182Y-17132793D02*
X19020182Y-17170889D01*
X19020182Y-17170889D02*
X19029706Y-17189936D01*
X19029706Y-17189936D02*
X19039230Y-17199460D01*
X19039230Y-17199460D02*
X19058277Y-17208984D01*
X19058277Y-17208984D02*
X19096372Y-17208984D01*
X19096372Y-17208984D02*
X19115420Y-17199460D01*
X19115420Y-17199460D02*
X19124944Y-17189936D01*
X19124944Y-17189936D02*
X19134468Y-17170889D01*
X19134468Y-17170889D02*
X19134468Y-17132793D01*
X19134468Y-17132793D02*
X19124944Y-17113746D01*
X19124944Y-17113746D02*
X19115420Y-17104222D01*
X19115420Y-17104222D02*
X19096372Y-17094698D01*
X19372563Y-17208984D02*
X19372563Y-17008984D01*
X19458277Y-17208984D02*
X19458277Y-17104222D01*
X19458277Y-17104222D02*
X19448753Y-17085174D01*
X19448753Y-17085174D02*
X19429706Y-17075650D01*
X19429706Y-17075650D02*
X19401134Y-17075650D01*
X19401134Y-17075650D02*
X19382087Y-17085174D01*
X19382087Y-17085174D02*
X19372563Y-17094698D01*
X19582087Y-17208984D02*
X19563039Y-17199460D01*
X19563039Y-17199460D02*
X19553515Y-17189936D01*
X19553515Y-17189936D02*
X19543992Y-17170889D01*
X19543992Y-17170889D02*
X19543992Y-17113746D01*
X19543992Y-17113746D02*
X19553515Y-17094698D01*
X19553515Y-17094698D02*
X19563039Y-17085174D01*
X19563039Y-17085174D02*
X19582087Y-17075650D01*
X19582087Y-17075650D02*
X19610658Y-17075650D01*
X19610658Y-17075650D02*
X19629706Y-17085174D01*
X19629706Y-17085174D02*
X19639230Y-17094698D01*
X19639230Y-17094698D02*
X19648753Y-17113746D01*
X19648753Y-17113746D02*
X19648753Y-17170889D01*
X19648753Y-17170889D02*
X19639230Y-17189936D01*
X19639230Y-17189936D02*
X19629706Y-17199460D01*
X19629706Y-17199460D02*
X19610658Y-17208984D01*
X19610658Y-17208984D02*
X19582087Y-17208984D01*
X19763039Y-17208984D02*
X19743992Y-17199460D01*
X19743992Y-17199460D02*
X19734468Y-17180412D01*
X19734468Y-17180412D02*
X19734468Y-17008984D01*
X19915420Y-17199460D02*
X19896373Y-17208984D01*
X19896373Y-17208984D02*
X19858277Y-17208984D01*
X19858277Y-17208984D02*
X19839230Y-17199460D01*
X19839230Y-17199460D02*
X19829706Y-17180412D01*
X19829706Y-17180412D02*
X19829706Y-17104222D01*
X19829706Y-17104222D02*
X19839230Y-17085174D01*
X19839230Y-17085174D02*
X19858277Y-17075650D01*
X19858277Y-17075650D02*
X19896373Y-17075650D01*
X19896373Y-17075650D02*
X19915420Y-17085174D01*
X19915420Y-17085174D02*
X19924944Y-17104222D01*
X19924944Y-17104222D02*
X19924944Y-17123270D01*
X19924944Y-17123270D02*
X19829706Y-17142317D01*
X20001134Y-17199460D02*
X20020182Y-17208984D01*
X20020182Y-17208984D02*
X20058277Y-17208984D01*
X20058277Y-17208984D02*
X20077325Y-17199460D01*
X20077325Y-17199460D02*
X20086849Y-17180412D01*
X20086849Y-17180412D02*
X20086849Y-17170889D01*
X20086849Y-17170889D02*
X20077325Y-17151841D01*
X20077325Y-17151841D02*
X20058277Y-17142317D01*
X20058277Y-17142317D02*
X20029706Y-17142317D01*
X20029706Y-17142317D02*
X20010658Y-17132793D01*
X20010658Y-17132793D02*
X20001134Y-17113746D01*
X20001134Y-17113746D02*
X20001134Y-17104222D01*
X20001134Y-17104222D02*
X20010658Y-17085174D01*
X20010658Y-17085174D02*
X20029706Y-17075650D01*
X20029706Y-17075650D02*
X20058277Y-17075650D01*
X20058277Y-17075650D02*
X20077325Y-17085174D01*
X20153515Y-17285174D02*
X20163039Y-17275650D01*
X20163039Y-17275650D02*
X20182087Y-17247079D01*
X20182087Y-17247079D02*
X20191611Y-17228031D01*
X20191611Y-17228031D02*
X20201134Y-17199460D01*
X20201134Y-17199460D02*
X20210658Y-17151841D01*
X20210658Y-17151841D02*
X20210658Y-17113746D01*
X20210658Y-17113746D02*
X20201134Y-17066127D01*
X20201134Y-17066127D02*
X20191611Y-17037555D01*
X20191611Y-17037555D02*
X20182087Y-17018508D01*
X20182087Y-17018508D02*
X20163039Y-16989936D01*
X20163039Y-16989936D02*
X20153515Y-16980412D01*
D13*
X14997500Y-17381500D02*
G75*
G02*
X14857500Y-17381500I-70000J0D01*
G01*
X14857500Y-17381500D02*
G75*
G02*
X14997500Y-17381500I70000J0D01*
G01*
D11*
X15363039Y-17472984D02*
X15248753Y-17472984D01*
X15305896Y-17472984D02*
X15305896Y-17272984D01*
X15305896Y-17272984D02*
X15286848Y-17301555D01*
X15286848Y-17301555D02*
X15267801Y-17320603D01*
X15267801Y-17320603D02*
X15248753Y-17330127D01*
X15448753Y-17453936D02*
X15458277Y-17463460D01*
X15458277Y-17463460D02*
X15448753Y-17472984D01*
X15448753Y-17472984D02*
X15439229Y-17463460D01*
X15439229Y-17463460D02*
X15448753Y-17453936D01*
X15448753Y-17453936D02*
X15448753Y-17472984D01*
X15629705Y-17339650D02*
X15629705Y-17472984D01*
X15582086Y-17263460D02*
X15534467Y-17406317D01*
X15534467Y-17406317D02*
X15658277Y-17406317D01*
X15772562Y-17272984D02*
X15791610Y-17272984D01*
X15791610Y-17272984D02*
X15810658Y-17282508D01*
X15810658Y-17282508D02*
X15820182Y-17292031D01*
X15820182Y-17292031D02*
X15829705Y-17311079D01*
X15829705Y-17311079D02*
X15839229Y-17349174D01*
X15839229Y-17349174D02*
X15839229Y-17396793D01*
X15839229Y-17396793D02*
X15829705Y-17434889D01*
X15829705Y-17434889D02*
X15820182Y-17453936D01*
X15820182Y-17453936D02*
X15810658Y-17463460D01*
X15810658Y-17463460D02*
X15791610Y-17472984D01*
X15791610Y-17472984D02*
X15772562Y-17472984D01*
X15772562Y-17472984D02*
X15753515Y-17463460D01*
X15753515Y-17463460D02*
X15743991Y-17453936D01*
X15743991Y-17453936D02*
X15734467Y-17434889D01*
X15734467Y-17434889D02*
X15724943Y-17396793D01*
X15724943Y-17396793D02*
X15724943Y-17349174D01*
X15724943Y-17349174D02*
X15734467Y-17311079D01*
X15734467Y-17311079D02*
X15743991Y-17292031D01*
X15743991Y-17292031D02*
X15753515Y-17282508D01*
X15753515Y-17282508D02*
X15772562Y-17272984D01*
X15963039Y-17272984D02*
X15982086Y-17272984D01*
X15982086Y-17272984D02*
X16001134Y-17282508D01*
X16001134Y-17282508D02*
X16010658Y-17292031D01*
X16010658Y-17292031D02*
X16020182Y-17311079D01*
X16020182Y-17311079D02*
X16029705Y-17349174D01*
X16029705Y-17349174D02*
X16029705Y-17396793D01*
X16029705Y-17396793D02*
X16020182Y-17434889D01*
X16020182Y-17434889D02*
X16010658Y-17453936D01*
X16010658Y-17453936D02*
X16001134Y-17463460D01*
X16001134Y-17463460D02*
X15982086Y-17472984D01*
X15982086Y-17472984D02*
X15963039Y-17472984D01*
X15963039Y-17472984D02*
X15943991Y-17463460D01*
X15943991Y-17463460D02*
X15934467Y-17453936D01*
X15934467Y-17453936D02*
X15924943Y-17434889D01*
X15924943Y-17434889D02*
X15915420Y-17396793D01*
X15915420Y-17396793D02*
X15915420Y-17349174D01*
X15915420Y-17349174D02*
X15924943Y-17311079D01*
X15924943Y-17311079D02*
X15934467Y-17292031D01*
X15934467Y-17292031D02*
X15943991Y-17282508D01*
X15943991Y-17282508D02*
X15963039Y-17272984D01*
X16115420Y-17472984D02*
X16115420Y-17339650D01*
X16115420Y-17358698D02*
X16124943Y-17349174D01*
X16124943Y-17349174D02*
X16143991Y-17339650D01*
X16143991Y-17339650D02*
X16172563Y-17339650D01*
X16172563Y-17339650D02*
X16191610Y-17349174D01*
X16191610Y-17349174D02*
X16201134Y-17368222D01*
X16201134Y-17368222D02*
X16201134Y-17472984D01*
X16201134Y-17368222D02*
X16210658Y-17349174D01*
X16210658Y-17349174D02*
X16229705Y-17339650D01*
X16229705Y-17339650D02*
X16258277Y-17339650D01*
X16258277Y-17339650D02*
X16277324Y-17349174D01*
X16277324Y-17349174D02*
X16286848Y-17368222D01*
X16286848Y-17368222D02*
X16286848Y-17472984D01*
X16382086Y-17472984D02*
X16382086Y-17339650D01*
X16382086Y-17358698D02*
X16391610Y-17349174D01*
X16391610Y-17349174D02*
X16410658Y-17339650D01*
X16410658Y-17339650D02*
X16439229Y-17339650D01*
X16439229Y-17339650D02*
X16458277Y-17349174D01*
X16458277Y-17349174D02*
X16467801Y-17368222D01*
X16467801Y-17368222D02*
X16467801Y-17472984D01*
X16467801Y-17368222D02*
X16477324Y-17349174D01*
X16477324Y-17349174D02*
X16496372Y-17339650D01*
X16496372Y-17339650D02*
X16524943Y-17339650D01*
X16524943Y-17339650D02*
X16543991Y-17349174D01*
X16543991Y-17349174D02*
X16553515Y-17368222D01*
X16553515Y-17368222D02*
X16553515Y-17472984D01*
X16943991Y-17263460D02*
X16772563Y-17520603D01*
X17201134Y-17272984D02*
X17220182Y-17272984D01*
X17220182Y-17272984D02*
X17239229Y-17282508D01*
X17239229Y-17282508D02*
X17248753Y-17292031D01*
X17248753Y-17292031D02*
X17258277Y-17311079D01*
X17258277Y-17311079D02*
X17267801Y-17349174D01*
X17267801Y-17349174D02*
X17267801Y-17396793D01*
X17267801Y-17396793D02*
X17258277Y-17434889D01*
X17258277Y-17434889D02*
X17248753Y-17453936D01*
X17248753Y-17453936D02*
X17239229Y-17463460D01*
X17239229Y-17463460D02*
X17220182Y-17472984D01*
X17220182Y-17472984D02*
X17201134Y-17472984D01*
X17201134Y-17472984D02*
X17182087Y-17463460D01*
X17182087Y-17463460D02*
X17172563Y-17453936D01*
X17172563Y-17453936D02*
X17163039Y-17434889D01*
X17163039Y-17434889D02*
X17153515Y-17396793D01*
X17153515Y-17396793D02*
X17153515Y-17349174D01*
X17153515Y-17349174D02*
X17163039Y-17311079D01*
X17163039Y-17311079D02*
X17172563Y-17292031D01*
X17172563Y-17292031D02*
X17182087Y-17282508D01*
X17182087Y-17282508D02*
X17201134Y-17272984D01*
X17353515Y-17453936D02*
X17363039Y-17463460D01*
X17363039Y-17463460D02*
X17353515Y-17472984D01*
X17353515Y-17472984D02*
X17343991Y-17463460D01*
X17343991Y-17463460D02*
X17353515Y-17453936D01*
X17353515Y-17453936D02*
X17353515Y-17472984D01*
X17486848Y-17272984D02*
X17505896Y-17272984D01*
X17505896Y-17272984D02*
X17524944Y-17282508D01*
X17524944Y-17282508D02*
X17534468Y-17292031D01*
X17534468Y-17292031D02*
X17543991Y-17311079D01*
X17543991Y-17311079D02*
X17553515Y-17349174D01*
X17553515Y-17349174D02*
X17553515Y-17396793D01*
X17553515Y-17396793D02*
X17543991Y-17434889D01*
X17543991Y-17434889D02*
X17534468Y-17453936D01*
X17534468Y-17453936D02*
X17524944Y-17463460D01*
X17524944Y-17463460D02*
X17505896Y-17472984D01*
X17505896Y-17472984D02*
X17486848Y-17472984D01*
X17486848Y-17472984D02*
X17467801Y-17463460D01*
X17467801Y-17463460D02*
X17458277Y-17453936D01*
X17458277Y-17453936D02*
X17448753Y-17434889D01*
X17448753Y-17434889D02*
X17439229Y-17396793D01*
X17439229Y-17396793D02*
X17439229Y-17349174D01*
X17439229Y-17349174D02*
X17448753Y-17311079D01*
X17448753Y-17311079D02*
X17458277Y-17292031D01*
X17458277Y-17292031D02*
X17467801Y-17282508D01*
X17467801Y-17282508D02*
X17486848Y-17272984D01*
X17734468Y-17272984D02*
X17639229Y-17272984D01*
X17639229Y-17272984D02*
X17629706Y-17368222D01*
X17629706Y-17368222D02*
X17639229Y-17358698D01*
X17639229Y-17358698D02*
X17658277Y-17349174D01*
X17658277Y-17349174D02*
X17705896Y-17349174D01*
X17705896Y-17349174D02*
X17724944Y-17358698D01*
X17724944Y-17358698D02*
X17734468Y-17368222D01*
X17734468Y-17368222D02*
X17743991Y-17387270D01*
X17743991Y-17387270D02*
X17743991Y-17434889D01*
X17743991Y-17434889D02*
X17734468Y-17453936D01*
X17734468Y-17453936D02*
X17724944Y-17463460D01*
X17724944Y-17463460D02*
X17705896Y-17472984D01*
X17705896Y-17472984D02*
X17658277Y-17472984D01*
X17658277Y-17472984D02*
X17639229Y-17463460D01*
X17639229Y-17463460D02*
X17629706Y-17453936D01*
X17924944Y-17272984D02*
X17829706Y-17272984D01*
X17829706Y-17272984D02*
X17820182Y-17368222D01*
X17820182Y-17368222D02*
X17829706Y-17358698D01*
X17829706Y-17358698D02*
X17848753Y-17349174D01*
X17848753Y-17349174D02*
X17896372Y-17349174D01*
X17896372Y-17349174D02*
X17915420Y-17358698D01*
X17915420Y-17358698D02*
X17924944Y-17368222D01*
X17924944Y-17368222D02*
X17934468Y-17387270D01*
X17934468Y-17387270D02*
X17934468Y-17434889D01*
X17934468Y-17434889D02*
X17924944Y-17453936D01*
X17924944Y-17453936D02*
X17915420Y-17463460D01*
X17915420Y-17463460D02*
X17896372Y-17472984D01*
X17896372Y-17472984D02*
X17848753Y-17472984D01*
X17848753Y-17472984D02*
X17829706Y-17463460D01*
X17829706Y-17463460D02*
X17820182Y-17453936D01*
X18124944Y-17472984D02*
X18010658Y-17472984D01*
X18067801Y-17472984D02*
X18067801Y-17272984D01*
X18067801Y-17272984D02*
X18048753Y-17301555D01*
X18048753Y-17301555D02*
X18029706Y-17320603D01*
X18029706Y-17320603D02*
X18010658Y-17330127D01*
X18201134Y-17272984D02*
X18201134Y-17311079D01*
X18277325Y-17272984D02*
X18277325Y-17311079D01*
X18572563Y-17549174D02*
X18563039Y-17539650D01*
X18563039Y-17539650D02*
X18543991Y-17511079D01*
X18543991Y-17511079D02*
X18534468Y-17492031D01*
X18534468Y-17492031D02*
X18524944Y-17463460D01*
X18524944Y-17463460D02*
X18515420Y-17415841D01*
X18515420Y-17415841D02*
X18515420Y-17377746D01*
X18515420Y-17377746D02*
X18524944Y-17330127D01*
X18524944Y-17330127D02*
X18534468Y-17301555D01*
X18534468Y-17301555D02*
X18543991Y-17282508D01*
X18543991Y-17282508D02*
X18563039Y-17253936D01*
X18563039Y-17253936D02*
X18572563Y-17244412D01*
X18629706Y-17272984D02*
X18753515Y-17272984D01*
X18753515Y-17272984D02*
X18686849Y-17349174D01*
X18686849Y-17349174D02*
X18715420Y-17349174D01*
X18715420Y-17349174D02*
X18734468Y-17358698D01*
X18734468Y-17358698D02*
X18743991Y-17368222D01*
X18743991Y-17368222D02*
X18753515Y-17387270D01*
X18753515Y-17387270D02*
X18753515Y-17434889D01*
X18753515Y-17434889D02*
X18743991Y-17453936D01*
X18743991Y-17453936D02*
X18734468Y-17463460D01*
X18734468Y-17463460D02*
X18715420Y-17472984D01*
X18715420Y-17472984D02*
X18658277Y-17472984D01*
X18658277Y-17472984D02*
X18639230Y-17463460D01*
X18639230Y-17463460D02*
X18629706Y-17453936D01*
X18924944Y-17272984D02*
X18886849Y-17272984D01*
X18886849Y-17272984D02*
X18867801Y-17282508D01*
X18867801Y-17282508D02*
X18858277Y-17292031D01*
X18858277Y-17292031D02*
X18839230Y-17320603D01*
X18839230Y-17320603D02*
X18829706Y-17358698D01*
X18829706Y-17358698D02*
X18829706Y-17434889D01*
X18829706Y-17434889D02*
X18839230Y-17453936D01*
X18839230Y-17453936D02*
X18848753Y-17463460D01*
X18848753Y-17463460D02*
X18867801Y-17472984D01*
X18867801Y-17472984D02*
X18905896Y-17472984D01*
X18905896Y-17472984D02*
X18924944Y-17463460D01*
X18924944Y-17463460D02*
X18934468Y-17453936D01*
X18934468Y-17453936D02*
X18943991Y-17434889D01*
X18943991Y-17434889D02*
X18943991Y-17387270D01*
X18943991Y-17387270D02*
X18934468Y-17368222D01*
X18934468Y-17368222D02*
X18924944Y-17358698D01*
X18924944Y-17358698D02*
X18905896Y-17349174D01*
X18905896Y-17349174D02*
X18867801Y-17349174D01*
X18867801Y-17349174D02*
X18848753Y-17358698D01*
X18848753Y-17358698D02*
X18839230Y-17368222D01*
X18839230Y-17368222D02*
X18829706Y-17387270D01*
X19182087Y-17472984D02*
X19182087Y-17272984D01*
X19267801Y-17472984D02*
X19267801Y-17368222D01*
X19267801Y-17368222D02*
X19258277Y-17349174D01*
X19258277Y-17349174D02*
X19239230Y-17339650D01*
X19239230Y-17339650D02*
X19210658Y-17339650D01*
X19210658Y-17339650D02*
X19191611Y-17349174D01*
X19191611Y-17349174D02*
X19182087Y-17358698D01*
X19391611Y-17472984D02*
X19372563Y-17463460D01*
X19372563Y-17463460D02*
X19363039Y-17453936D01*
X19363039Y-17453936D02*
X19353515Y-17434889D01*
X19353515Y-17434889D02*
X19353515Y-17377746D01*
X19353515Y-17377746D02*
X19363039Y-17358698D01*
X19363039Y-17358698D02*
X19372563Y-17349174D01*
X19372563Y-17349174D02*
X19391611Y-17339650D01*
X19391611Y-17339650D02*
X19420182Y-17339650D01*
X19420182Y-17339650D02*
X19439230Y-17349174D01*
X19439230Y-17349174D02*
X19448753Y-17358698D01*
X19448753Y-17358698D02*
X19458277Y-17377746D01*
X19458277Y-17377746D02*
X19458277Y-17434889D01*
X19458277Y-17434889D02*
X19448753Y-17453936D01*
X19448753Y-17453936D02*
X19439230Y-17463460D01*
X19439230Y-17463460D02*
X19420182Y-17472984D01*
X19420182Y-17472984D02*
X19391611Y-17472984D01*
X19572563Y-17472984D02*
X19553515Y-17463460D01*
X19553515Y-17463460D02*
X19543992Y-17444412D01*
X19543992Y-17444412D02*
X19543992Y-17272984D01*
X19724944Y-17463460D02*
X19705896Y-17472984D01*
X19705896Y-17472984D02*
X19667801Y-17472984D01*
X19667801Y-17472984D02*
X19648753Y-17463460D01*
X19648753Y-17463460D02*
X19639230Y-17444412D01*
X19639230Y-17444412D02*
X19639230Y-17368222D01*
X19639230Y-17368222D02*
X19648753Y-17349174D01*
X19648753Y-17349174D02*
X19667801Y-17339650D01*
X19667801Y-17339650D02*
X19705896Y-17339650D01*
X19705896Y-17339650D02*
X19724944Y-17349174D01*
X19724944Y-17349174D02*
X19734468Y-17368222D01*
X19734468Y-17368222D02*
X19734468Y-17387270D01*
X19734468Y-17387270D02*
X19639230Y-17406317D01*
X19810658Y-17463460D02*
X19829706Y-17472984D01*
X19829706Y-17472984D02*
X19867801Y-17472984D01*
X19867801Y-17472984D02*
X19886849Y-17463460D01*
X19886849Y-17463460D02*
X19896373Y-17444412D01*
X19896373Y-17444412D02*
X19896373Y-17434889D01*
X19896373Y-17434889D02*
X19886849Y-17415841D01*
X19886849Y-17415841D02*
X19867801Y-17406317D01*
X19867801Y-17406317D02*
X19839230Y-17406317D01*
X19839230Y-17406317D02*
X19820182Y-17396793D01*
X19820182Y-17396793D02*
X19810658Y-17377746D01*
X19810658Y-17377746D02*
X19810658Y-17368222D01*
X19810658Y-17368222D02*
X19820182Y-17349174D01*
X19820182Y-17349174D02*
X19839230Y-17339650D01*
X19839230Y-17339650D02*
X19867801Y-17339650D01*
X19867801Y-17339650D02*
X19886849Y-17349174D01*
X19963039Y-17549174D02*
X19972563Y-17539650D01*
X19972563Y-17539650D02*
X19991611Y-17511079D01*
X19991611Y-17511079D02*
X20001134Y-17492031D01*
X20001134Y-17492031D02*
X20010658Y-17463460D01*
X20010658Y-17463460D02*
X20020182Y-17415841D01*
X20020182Y-17415841D02*
X20020182Y-17377746D01*
X20020182Y-17377746D02*
X20010658Y-17330127D01*
X20010658Y-17330127D02*
X20001134Y-17301555D01*
X20001134Y-17301555D02*
X19991611Y-17282508D01*
X19991611Y-17282508D02*
X19972563Y-17253936D01*
X19972563Y-17253936D02*
X19963039Y-17244412D01*
M02*
