%TF.GenerationSoftware,KiCad,Pcbnew,8.0.2*%
%TF.CreationDate,2025-02-22T15:39:26+01:00*%
%TF.ProjectId,enclosure,656e636c-6f73-4757-9265-2e6b69636164,1.0.0*%
%TF.SameCoordinates,Original*%
%TF.FileFunction,Drillmap*%
%TF.FilePolarity,Positive*%
%FSLAX45Y45*%
G04 Gerber Fmt 4.5, Leading zero omitted, Abs format (unit mm)*
G04 Created by KiCad (PCBNEW 8.0.2) date 2025-02-22 15:39:26*
%MOMM*%
%LPD*%
G01*
G04 APERTURE LIST*
%ADD10C,0.050000*%
%ADD11C,0.200000*%
%ADD12C,0.240000*%
%ADD13C,0.280000*%
G04 APERTURE END LIST*
D10*
X15000000Y-3975000D02*
X25000000Y-3975000D01*
X25000000Y-16475000D01*
X15000000Y-16475000D01*
X15000000Y-3975000D01*
D11*
D12*
X18880000Y-5380000D02*
X19120000Y-5620000D01*
X19120000Y-5380000D02*
X18880000Y-5620000D01*
D13*
X15695000Y-16118000D02*
G75*
G02*
X15415000Y-16118000I-140000J0D01*
G01*
X15415000Y-16118000D02*
G75*
G02*
X15695000Y-16118000I140000J0D01*
G01*
X24585000Y-16118000D02*
G75*
G02*
X24305000Y-16118000I-140000J0D01*
G01*
X24305000Y-16118000D02*
G75*
G02*
X24585000Y-16118000I140000J0D01*
G01*
D11*
X15258277Y-16788984D02*
X15258277Y-16588984D01*
X15258277Y-16588984D02*
X15305896Y-16588984D01*
X15305896Y-16588984D02*
X15334467Y-16598508D01*
X15334467Y-16598508D02*
X15353515Y-16617555D01*
X15353515Y-16617555D02*
X15363039Y-16636603D01*
X15363039Y-16636603D02*
X15372562Y-16674698D01*
X15372562Y-16674698D02*
X15372562Y-16703269D01*
X15372562Y-16703269D02*
X15363039Y-16741365D01*
X15363039Y-16741365D02*
X15353515Y-16760412D01*
X15353515Y-16760412D02*
X15334467Y-16779460D01*
X15334467Y-16779460D02*
X15305896Y-16788984D01*
X15305896Y-16788984D02*
X15258277Y-16788984D01*
X15458277Y-16788984D02*
X15458277Y-16655650D01*
X15458277Y-16693746D02*
X15467801Y-16674698D01*
X15467801Y-16674698D02*
X15477324Y-16665174D01*
X15477324Y-16665174D02*
X15496372Y-16655650D01*
X15496372Y-16655650D02*
X15515420Y-16655650D01*
X15582086Y-16788984D02*
X15582086Y-16655650D01*
X15582086Y-16588984D02*
X15572562Y-16598508D01*
X15572562Y-16598508D02*
X15582086Y-16608031D01*
X15582086Y-16608031D02*
X15591610Y-16598508D01*
X15591610Y-16598508D02*
X15582086Y-16588984D01*
X15582086Y-16588984D02*
X15582086Y-16608031D01*
X15705896Y-16788984D02*
X15686848Y-16779460D01*
X15686848Y-16779460D02*
X15677324Y-16760412D01*
X15677324Y-16760412D02*
X15677324Y-16588984D01*
X15810658Y-16788984D02*
X15791610Y-16779460D01*
X15791610Y-16779460D02*
X15782086Y-16760412D01*
X15782086Y-16760412D02*
X15782086Y-16588984D01*
X16039229Y-16788984D02*
X16039229Y-16588984D01*
X16039229Y-16588984D02*
X16105896Y-16731841D01*
X16105896Y-16731841D02*
X16172562Y-16588984D01*
X16172562Y-16588984D02*
X16172562Y-16788984D01*
X16353515Y-16788984D02*
X16353515Y-16684222D01*
X16353515Y-16684222D02*
X16343991Y-16665174D01*
X16343991Y-16665174D02*
X16324943Y-16655650D01*
X16324943Y-16655650D02*
X16286848Y-16655650D01*
X16286848Y-16655650D02*
X16267801Y-16665174D01*
X16353515Y-16779460D02*
X16334467Y-16788984D01*
X16334467Y-16788984D02*
X16286848Y-16788984D01*
X16286848Y-16788984D02*
X16267801Y-16779460D01*
X16267801Y-16779460D02*
X16258277Y-16760412D01*
X16258277Y-16760412D02*
X16258277Y-16741365D01*
X16258277Y-16741365D02*
X16267801Y-16722317D01*
X16267801Y-16722317D02*
X16286848Y-16712793D01*
X16286848Y-16712793D02*
X16334467Y-16712793D01*
X16334467Y-16712793D02*
X16353515Y-16703269D01*
X16448753Y-16655650D02*
X16448753Y-16855650D01*
X16448753Y-16665174D02*
X16467801Y-16655650D01*
X16467801Y-16655650D02*
X16505896Y-16655650D01*
X16505896Y-16655650D02*
X16524943Y-16665174D01*
X16524943Y-16665174D02*
X16534467Y-16674698D01*
X16534467Y-16674698D02*
X16543991Y-16693746D01*
X16543991Y-16693746D02*
X16543991Y-16750888D01*
X16543991Y-16750888D02*
X16534467Y-16769936D01*
X16534467Y-16769936D02*
X16524943Y-16779460D01*
X16524943Y-16779460D02*
X16505896Y-16788984D01*
X16505896Y-16788984D02*
X16467801Y-16788984D01*
X16467801Y-16788984D02*
X16448753Y-16779460D01*
X16629705Y-16769936D02*
X16639229Y-16779460D01*
X16639229Y-16779460D02*
X16629705Y-16788984D01*
X16629705Y-16788984D02*
X16620182Y-16779460D01*
X16620182Y-16779460D02*
X16629705Y-16769936D01*
X16629705Y-16769936D02*
X16629705Y-16788984D01*
X16629705Y-16665174D02*
X16639229Y-16674698D01*
X16639229Y-16674698D02*
X16629705Y-16684222D01*
X16629705Y-16684222D02*
X16620182Y-16674698D01*
X16620182Y-16674698D02*
X16629705Y-16665174D01*
X16629705Y-16665174D02*
X16629705Y-16684222D01*
X14797500Y-17017500D02*
X14997500Y-17217500D01*
X14997500Y-17017500D02*
X14797500Y-17217500D01*
X15248753Y-17028031D02*
X15258277Y-17018508D01*
X15258277Y-17018508D02*
X15277324Y-17008984D01*
X15277324Y-17008984D02*
X15324943Y-17008984D01*
X15324943Y-17008984D02*
X15343991Y-17018508D01*
X15343991Y-17018508D02*
X15353515Y-17028031D01*
X15353515Y-17028031D02*
X15363039Y-17047079D01*
X15363039Y-17047079D02*
X15363039Y-17066127D01*
X15363039Y-17066127D02*
X15353515Y-17094698D01*
X15353515Y-17094698D02*
X15239229Y-17208984D01*
X15239229Y-17208984D02*
X15363039Y-17208984D01*
X15448753Y-17189936D02*
X15458277Y-17199460D01*
X15458277Y-17199460D02*
X15448753Y-17208984D01*
X15448753Y-17208984D02*
X15439229Y-17199460D01*
X15439229Y-17199460D02*
X15448753Y-17189936D01*
X15448753Y-17189936D02*
X15448753Y-17208984D01*
X15629705Y-17075650D02*
X15629705Y-17208984D01*
X15582086Y-16999460D02*
X15534467Y-17142317D01*
X15534467Y-17142317D02*
X15658277Y-17142317D01*
X15772562Y-17008984D02*
X15791610Y-17008984D01*
X15791610Y-17008984D02*
X15810658Y-17018508D01*
X15810658Y-17018508D02*
X15820182Y-17028031D01*
X15820182Y-17028031D02*
X15829705Y-17047079D01*
X15829705Y-17047079D02*
X15839229Y-17085174D01*
X15839229Y-17085174D02*
X15839229Y-17132793D01*
X15839229Y-17132793D02*
X15829705Y-17170889D01*
X15829705Y-17170889D02*
X15820182Y-17189936D01*
X15820182Y-17189936D02*
X15810658Y-17199460D01*
X15810658Y-17199460D02*
X15791610Y-17208984D01*
X15791610Y-17208984D02*
X15772562Y-17208984D01*
X15772562Y-17208984D02*
X15753515Y-17199460D01*
X15753515Y-17199460D02*
X15743991Y-17189936D01*
X15743991Y-17189936D02*
X15734467Y-17170889D01*
X15734467Y-17170889D02*
X15724943Y-17132793D01*
X15724943Y-17132793D02*
X15724943Y-17085174D01*
X15724943Y-17085174D02*
X15734467Y-17047079D01*
X15734467Y-17047079D02*
X15743991Y-17028031D01*
X15743991Y-17028031D02*
X15753515Y-17018508D01*
X15753515Y-17018508D02*
X15772562Y-17008984D01*
X15963039Y-17008984D02*
X15982086Y-17008984D01*
X15982086Y-17008984D02*
X16001134Y-17018508D01*
X16001134Y-17018508D02*
X16010658Y-17028031D01*
X16010658Y-17028031D02*
X16020182Y-17047079D01*
X16020182Y-17047079D02*
X16029705Y-17085174D01*
X16029705Y-17085174D02*
X16029705Y-17132793D01*
X16029705Y-17132793D02*
X16020182Y-17170889D01*
X16020182Y-17170889D02*
X16010658Y-17189936D01*
X16010658Y-17189936D02*
X16001134Y-17199460D01*
X16001134Y-17199460D02*
X15982086Y-17208984D01*
X15982086Y-17208984D02*
X15963039Y-17208984D01*
X15963039Y-17208984D02*
X15943991Y-17199460D01*
X15943991Y-17199460D02*
X15934467Y-17189936D01*
X15934467Y-17189936D02*
X15924943Y-17170889D01*
X15924943Y-17170889D02*
X15915420Y-17132793D01*
X15915420Y-17132793D02*
X15915420Y-17085174D01*
X15915420Y-17085174D02*
X15924943Y-17047079D01*
X15924943Y-17047079D02*
X15934467Y-17028031D01*
X15934467Y-17028031D02*
X15943991Y-17018508D01*
X15943991Y-17018508D02*
X15963039Y-17008984D01*
X16115420Y-17208984D02*
X16115420Y-17075650D01*
X16115420Y-17094698D02*
X16124943Y-17085174D01*
X16124943Y-17085174D02*
X16143991Y-17075650D01*
X16143991Y-17075650D02*
X16172563Y-17075650D01*
X16172563Y-17075650D02*
X16191610Y-17085174D01*
X16191610Y-17085174D02*
X16201134Y-17104222D01*
X16201134Y-17104222D02*
X16201134Y-17208984D01*
X16201134Y-17104222D02*
X16210658Y-17085174D01*
X16210658Y-17085174D02*
X16229705Y-17075650D01*
X16229705Y-17075650D02*
X16258277Y-17075650D01*
X16258277Y-17075650D02*
X16277324Y-17085174D01*
X16277324Y-17085174D02*
X16286848Y-17104222D01*
X16286848Y-17104222D02*
X16286848Y-17208984D01*
X16382086Y-17208984D02*
X16382086Y-17075650D01*
X16382086Y-17094698D02*
X16391610Y-17085174D01*
X16391610Y-17085174D02*
X16410658Y-17075650D01*
X16410658Y-17075650D02*
X16439229Y-17075650D01*
X16439229Y-17075650D02*
X16458277Y-17085174D01*
X16458277Y-17085174D02*
X16467801Y-17104222D01*
X16467801Y-17104222D02*
X16467801Y-17208984D01*
X16467801Y-17104222D02*
X16477324Y-17085174D01*
X16477324Y-17085174D02*
X16496372Y-17075650D01*
X16496372Y-17075650D02*
X16524943Y-17075650D01*
X16524943Y-17075650D02*
X16543991Y-17085174D01*
X16543991Y-17085174D02*
X16553515Y-17104222D01*
X16553515Y-17104222D02*
X16553515Y-17208984D01*
X16943991Y-16999460D02*
X16772563Y-17256603D01*
X17201134Y-17008984D02*
X17220182Y-17008984D01*
X17220182Y-17008984D02*
X17239229Y-17018508D01*
X17239229Y-17018508D02*
X17248753Y-17028031D01*
X17248753Y-17028031D02*
X17258277Y-17047079D01*
X17258277Y-17047079D02*
X17267801Y-17085174D01*
X17267801Y-17085174D02*
X17267801Y-17132793D01*
X17267801Y-17132793D02*
X17258277Y-17170889D01*
X17258277Y-17170889D02*
X17248753Y-17189936D01*
X17248753Y-17189936D02*
X17239229Y-17199460D01*
X17239229Y-17199460D02*
X17220182Y-17208984D01*
X17220182Y-17208984D02*
X17201134Y-17208984D01*
X17201134Y-17208984D02*
X17182087Y-17199460D01*
X17182087Y-17199460D02*
X17172563Y-17189936D01*
X17172563Y-17189936D02*
X17163039Y-17170889D01*
X17163039Y-17170889D02*
X17153515Y-17132793D01*
X17153515Y-17132793D02*
X17153515Y-17085174D01*
X17153515Y-17085174D02*
X17163039Y-17047079D01*
X17163039Y-17047079D02*
X17172563Y-17028031D01*
X17172563Y-17028031D02*
X17182087Y-17018508D01*
X17182087Y-17018508D02*
X17201134Y-17008984D01*
X17353515Y-17189936D02*
X17363039Y-17199460D01*
X17363039Y-17199460D02*
X17353515Y-17208984D01*
X17353515Y-17208984D02*
X17343991Y-17199460D01*
X17343991Y-17199460D02*
X17353515Y-17189936D01*
X17353515Y-17189936D02*
X17353515Y-17208984D01*
X17486848Y-17008984D02*
X17505896Y-17008984D01*
X17505896Y-17008984D02*
X17524944Y-17018508D01*
X17524944Y-17018508D02*
X17534468Y-17028031D01*
X17534468Y-17028031D02*
X17543991Y-17047079D01*
X17543991Y-17047079D02*
X17553515Y-17085174D01*
X17553515Y-17085174D02*
X17553515Y-17132793D01*
X17553515Y-17132793D02*
X17543991Y-17170889D01*
X17543991Y-17170889D02*
X17534468Y-17189936D01*
X17534468Y-17189936D02*
X17524944Y-17199460D01*
X17524944Y-17199460D02*
X17505896Y-17208984D01*
X17505896Y-17208984D02*
X17486848Y-17208984D01*
X17486848Y-17208984D02*
X17467801Y-17199460D01*
X17467801Y-17199460D02*
X17458277Y-17189936D01*
X17458277Y-17189936D02*
X17448753Y-17170889D01*
X17448753Y-17170889D02*
X17439229Y-17132793D01*
X17439229Y-17132793D02*
X17439229Y-17085174D01*
X17439229Y-17085174D02*
X17448753Y-17047079D01*
X17448753Y-17047079D02*
X17458277Y-17028031D01*
X17458277Y-17028031D02*
X17467801Y-17018508D01*
X17467801Y-17018508D02*
X17486848Y-17008984D01*
X17648753Y-17208984D02*
X17686848Y-17208984D01*
X17686848Y-17208984D02*
X17705896Y-17199460D01*
X17705896Y-17199460D02*
X17715420Y-17189936D01*
X17715420Y-17189936D02*
X17734468Y-17161365D01*
X17734468Y-17161365D02*
X17743991Y-17123270D01*
X17743991Y-17123270D02*
X17743991Y-17047079D01*
X17743991Y-17047079D02*
X17734468Y-17028031D01*
X17734468Y-17028031D02*
X17724944Y-17018508D01*
X17724944Y-17018508D02*
X17705896Y-17008984D01*
X17705896Y-17008984D02*
X17667801Y-17008984D01*
X17667801Y-17008984D02*
X17648753Y-17018508D01*
X17648753Y-17018508D02*
X17639229Y-17028031D01*
X17639229Y-17028031D02*
X17629706Y-17047079D01*
X17629706Y-17047079D02*
X17629706Y-17094698D01*
X17629706Y-17094698D02*
X17639229Y-17113746D01*
X17639229Y-17113746D02*
X17648753Y-17123270D01*
X17648753Y-17123270D02*
X17667801Y-17132793D01*
X17667801Y-17132793D02*
X17705896Y-17132793D01*
X17705896Y-17132793D02*
X17724944Y-17123270D01*
X17724944Y-17123270D02*
X17734468Y-17113746D01*
X17734468Y-17113746D02*
X17743991Y-17094698D01*
X17915420Y-17075650D02*
X17915420Y-17208984D01*
X17867801Y-16999460D02*
X17820182Y-17142317D01*
X17820182Y-17142317D02*
X17943991Y-17142317D01*
X18115420Y-17008984D02*
X18020182Y-17008984D01*
X18020182Y-17008984D02*
X18010658Y-17104222D01*
X18010658Y-17104222D02*
X18020182Y-17094698D01*
X18020182Y-17094698D02*
X18039229Y-17085174D01*
X18039229Y-17085174D02*
X18086849Y-17085174D01*
X18086849Y-17085174D02*
X18105896Y-17094698D01*
X18105896Y-17094698D02*
X18115420Y-17104222D01*
X18115420Y-17104222D02*
X18124944Y-17123270D01*
X18124944Y-17123270D02*
X18124944Y-17170889D01*
X18124944Y-17170889D02*
X18115420Y-17189936D01*
X18115420Y-17189936D02*
X18105896Y-17199460D01*
X18105896Y-17199460D02*
X18086849Y-17208984D01*
X18086849Y-17208984D02*
X18039229Y-17208984D01*
X18039229Y-17208984D02*
X18020182Y-17199460D01*
X18020182Y-17199460D02*
X18010658Y-17189936D01*
X18201134Y-17008984D02*
X18201134Y-17047079D01*
X18277325Y-17008984D02*
X18277325Y-17047079D01*
X18572563Y-17285174D02*
X18563039Y-17275650D01*
X18563039Y-17275650D02*
X18543991Y-17247079D01*
X18543991Y-17247079D02*
X18534468Y-17228031D01*
X18534468Y-17228031D02*
X18524944Y-17199460D01*
X18524944Y-17199460D02*
X18515420Y-17151841D01*
X18515420Y-17151841D02*
X18515420Y-17113746D01*
X18515420Y-17113746D02*
X18524944Y-17066127D01*
X18524944Y-17066127D02*
X18534468Y-17037555D01*
X18534468Y-17037555D02*
X18543991Y-17018508D01*
X18543991Y-17018508D02*
X18563039Y-16989936D01*
X18563039Y-16989936D02*
X18572563Y-16980412D01*
X18753515Y-17208984D02*
X18639230Y-17208984D01*
X18696372Y-17208984D02*
X18696372Y-17008984D01*
X18696372Y-17008984D02*
X18677325Y-17037555D01*
X18677325Y-17037555D02*
X18658277Y-17056603D01*
X18658277Y-17056603D02*
X18639230Y-17066127D01*
X18991611Y-17208984D02*
X18991611Y-17008984D01*
X19077325Y-17208984D02*
X19077325Y-17104222D01*
X19077325Y-17104222D02*
X19067801Y-17085174D01*
X19067801Y-17085174D02*
X19048753Y-17075650D01*
X19048753Y-17075650D02*
X19020182Y-17075650D01*
X19020182Y-17075650D02*
X19001134Y-17085174D01*
X19001134Y-17085174D02*
X18991611Y-17094698D01*
X19201134Y-17208984D02*
X19182087Y-17199460D01*
X19182087Y-17199460D02*
X19172563Y-17189936D01*
X19172563Y-17189936D02*
X19163039Y-17170889D01*
X19163039Y-17170889D02*
X19163039Y-17113746D01*
X19163039Y-17113746D02*
X19172563Y-17094698D01*
X19172563Y-17094698D02*
X19182087Y-17085174D01*
X19182087Y-17085174D02*
X19201134Y-17075650D01*
X19201134Y-17075650D02*
X19229706Y-17075650D01*
X19229706Y-17075650D02*
X19248753Y-17085174D01*
X19248753Y-17085174D02*
X19258277Y-17094698D01*
X19258277Y-17094698D02*
X19267801Y-17113746D01*
X19267801Y-17113746D02*
X19267801Y-17170889D01*
X19267801Y-17170889D02*
X19258277Y-17189936D01*
X19258277Y-17189936D02*
X19248753Y-17199460D01*
X19248753Y-17199460D02*
X19229706Y-17208984D01*
X19229706Y-17208984D02*
X19201134Y-17208984D01*
X19382087Y-17208984D02*
X19363039Y-17199460D01*
X19363039Y-17199460D02*
X19353515Y-17180412D01*
X19353515Y-17180412D02*
X19353515Y-17008984D01*
X19534468Y-17199460D02*
X19515420Y-17208984D01*
X19515420Y-17208984D02*
X19477325Y-17208984D01*
X19477325Y-17208984D02*
X19458277Y-17199460D01*
X19458277Y-17199460D02*
X19448753Y-17180412D01*
X19448753Y-17180412D02*
X19448753Y-17104222D01*
X19448753Y-17104222D02*
X19458277Y-17085174D01*
X19458277Y-17085174D02*
X19477325Y-17075650D01*
X19477325Y-17075650D02*
X19515420Y-17075650D01*
X19515420Y-17075650D02*
X19534468Y-17085174D01*
X19534468Y-17085174D02*
X19543992Y-17104222D01*
X19543992Y-17104222D02*
X19543992Y-17123270D01*
X19543992Y-17123270D02*
X19448753Y-17142317D01*
X19610658Y-17285174D02*
X19620182Y-17275650D01*
X19620182Y-17275650D02*
X19639230Y-17247079D01*
X19639230Y-17247079D02*
X19648753Y-17228031D01*
X19648753Y-17228031D02*
X19658277Y-17199460D01*
X19658277Y-17199460D02*
X19667801Y-17151841D01*
X19667801Y-17151841D02*
X19667801Y-17113746D01*
X19667801Y-17113746D02*
X19658277Y-17066127D01*
X19658277Y-17066127D02*
X19648753Y-17037555D01*
X19648753Y-17037555D02*
X19639230Y-17018508D01*
X19639230Y-17018508D02*
X19620182Y-16989936D01*
X19620182Y-16989936D02*
X19610658Y-16980412D01*
X19972563Y-17285174D02*
X19963039Y-17275650D01*
X19963039Y-17275650D02*
X19943992Y-17247079D01*
X19943992Y-17247079D02*
X19934468Y-17228031D01*
X19934468Y-17228031D02*
X19924944Y-17199460D01*
X19924944Y-17199460D02*
X19915420Y-17151841D01*
X19915420Y-17151841D02*
X19915420Y-17113746D01*
X19915420Y-17113746D02*
X19924944Y-17066127D01*
X19924944Y-17066127D02*
X19934468Y-17037555D01*
X19934468Y-17037555D02*
X19943992Y-17018508D01*
X19943992Y-17018508D02*
X19963039Y-16989936D01*
X19963039Y-16989936D02*
X19972563Y-16980412D01*
X20048753Y-17075650D02*
X20048753Y-17208984D01*
X20048753Y-17094698D02*
X20058277Y-17085174D01*
X20058277Y-17085174D02*
X20077325Y-17075650D01*
X20077325Y-17075650D02*
X20105896Y-17075650D01*
X20105896Y-17075650D02*
X20124944Y-17085174D01*
X20124944Y-17085174D02*
X20134468Y-17104222D01*
X20134468Y-17104222D02*
X20134468Y-17208984D01*
X20258277Y-17208984D02*
X20239230Y-17199460D01*
X20239230Y-17199460D02*
X20229706Y-17189936D01*
X20229706Y-17189936D02*
X20220182Y-17170889D01*
X20220182Y-17170889D02*
X20220182Y-17113746D01*
X20220182Y-17113746D02*
X20229706Y-17094698D01*
X20229706Y-17094698D02*
X20239230Y-17085174D01*
X20239230Y-17085174D02*
X20258277Y-17075650D01*
X20258277Y-17075650D02*
X20286849Y-17075650D01*
X20286849Y-17075650D02*
X20305896Y-17085174D01*
X20305896Y-17085174D02*
X20315420Y-17094698D01*
X20315420Y-17094698D02*
X20324944Y-17113746D01*
X20324944Y-17113746D02*
X20324944Y-17170889D01*
X20324944Y-17170889D02*
X20315420Y-17189936D01*
X20315420Y-17189936D02*
X20305896Y-17199460D01*
X20305896Y-17199460D02*
X20286849Y-17208984D01*
X20286849Y-17208984D02*
X20258277Y-17208984D01*
X20382087Y-17075650D02*
X20458277Y-17075650D01*
X20410658Y-17008984D02*
X20410658Y-17180412D01*
X20410658Y-17180412D02*
X20420182Y-17199460D01*
X20420182Y-17199460D02*
X20439230Y-17208984D01*
X20439230Y-17208984D02*
X20458277Y-17208984D01*
X20677325Y-17075650D02*
X20677325Y-17275650D01*
X20677325Y-17085174D02*
X20696373Y-17075650D01*
X20696373Y-17075650D02*
X20734468Y-17075650D01*
X20734468Y-17075650D02*
X20753515Y-17085174D01*
X20753515Y-17085174D02*
X20763039Y-17094698D01*
X20763039Y-17094698D02*
X20772563Y-17113746D01*
X20772563Y-17113746D02*
X20772563Y-17170889D01*
X20772563Y-17170889D02*
X20763039Y-17189936D01*
X20763039Y-17189936D02*
X20753515Y-17199460D01*
X20753515Y-17199460D02*
X20734468Y-17208984D01*
X20734468Y-17208984D02*
X20696373Y-17208984D01*
X20696373Y-17208984D02*
X20677325Y-17199460D01*
X20886849Y-17208984D02*
X20867801Y-17199460D01*
X20867801Y-17199460D02*
X20858277Y-17180412D01*
X20858277Y-17180412D02*
X20858277Y-17008984D01*
X21048754Y-17208984D02*
X21048754Y-17104222D01*
X21048754Y-17104222D02*
X21039230Y-17085174D01*
X21039230Y-17085174D02*
X21020182Y-17075650D01*
X21020182Y-17075650D02*
X20982087Y-17075650D01*
X20982087Y-17075650D02*
X20963039Y-17085174D01*
X21048754Y-17199460D02*
X21029706Y-17208984D01*
X21029706Y-17208984D02*
X20982087Y-17208984D01*
X20982087Y-17208984D02*
X20963039Y-17199460D01*
X20963039Y-17199460D02*
X20953515Y-17180412D01*
X20953515Y-17180412D02*
X20953515Y-17161365D01*
X20953515Y-17161365D02*
X20963039Y-17142317D01*
X20963039Y-17142317D02*
X20982087Y-17132793D01*
X20982087Y-17132793D02*
X21029706Y-17132793D01*
X21029706Y-17132793D02*
X21048754Y-17123270D01*
X21115420Y-17075650D02*
X21191611Y-17075650D01*
X21143992Y-17008984D02*
X21143992Y-17180412D01*
X21143992Y-17180412D02*
X21153515Y-17199460D01*
X21153515Y-17199460D02*
X21172563Y-17208984D01*
X21172563Y-17208984D02*
X21191611Y-17208984D01*
X21334468Y-17199460D02*
X21315420Y-17208984D01*
X21315420Y-17208984D02*
X21277325Y-17208984D01*
X21277325Y-17208984D02*
X21258277Y-17199460D01*
X21258277Y-17199460D02*
X21248754Y-17180412D01*
X21248754Y-17180412D02*
X21248754Y-17104222D01*
X21248754Y-17104222D02*
X21258277Y-17085174D01*
X21258277Y-17085174D02*
X21277325Y-17075650D01*
X21277325Y-17075650D02*
X21315420Y-17075650D01*
X21315420Y-17075650D02*
X21334468Y-17085174D01*
X21334468Y-17085174D02*
X21343992Y-17104222D01*
X21343992Y-17104222D02*
X21343992Y-17123270D01*
X21343992Y-17123270D02*
X21248754Y-17142317D01*
X21515420Y-17208984D02*
X21515420Y-17008984D01*
X21515420Y-17199460D02*
X21496373Y-17208984D01*
X21496373Y-17208984D02*
X21458277Y-17208984D01*
X21458277Y-17208984D02*
X21439230Y-17199460D01*
X21439230Y-17199460D02*
X21429706Y-17189936D01*
X21429706Y-17189936D02*
X21420182Y-17170889D01*
X21420182Y-17170889D02*
X21420182Y-17113746D01*
X21420182Y-17113746D02*
X21429706Y-17094698D01*
X21429706Y-17094698D02*
X21439230Y-17085174D01*
X21439230Y-17085174D02*
X21458277Y-17075650D01*
X21458277Y-17075650D02*
X21496373Y-17075650D01*
X21496373Y-17075650D02*
X21515420Y-17085174D01*
X21591611Y-17285174D02*
X21601135Y-17275650D01*
X21601135Y-17275650D02*
X21620182Y-17247079D01*
X21620182Y-17247079D02*
X21629706Y-17228031D01*
X21629706Y-17228031D02*
X21639230Y-17199460D01*
X21639230Y-17199460D02*
X21648754Y-17151841D01*
X21648754Y-17151841D02*
X21648754Y-17113746D01*
X21648754Y-17113746D02*
X21639230Y-17066127D01*
X21639230Y-17066127D02*
X21629706Y-17037555D01*
X21629706Y-17037555D02*
X21620182Y-17018508D01*
X21620182Y-17018508D02*
X21601135Y-16989936D01*
X21601135Y-16989936D02*
X21591611Y-16980412D01*
X14997500Y-17437500D02*
G75*
G02*
X14797500Y-17437500I-100000J0D01*
G01*
X14797500Y-17437500D02*
G75*
G02*
X14997500Y-17437500I100000J0D01*
G01*
X15248753Y-17348031D02*
X15258277Y-17338508D01*
X15258277Y-17338508D02*
X15277324Y-17328984D01*
X15277324Y-17328984D02*
X15324943Y-17328984D01*
X15324943Y-17328984D02*
X15343991Y-17338508D01*
X15343991Y-17338508D02*
X15353515Y-17348031D01*
X15353515Y-17348031D02*
X15363039Y-17367079D01*
X15363039Y-17367079D02*
X15363039Y-17386127D01*
X15363039Y-17386127D02*
X15353515Y-17414698D01*
X15353515Y-17414698D02*
X15239229Y-17528984D01*
X15239229Y-17528984D02*
X15363039Y-17528984D01*
X15448753Y-17509936D02*
X15458277Y-17519460D01*
X15458277Y-17519460D02*
X15448753Y-17528984D01*
X15448753Y-17528984D02*
X15439229Y-17519460D01*
X15439229Y-17519460D02*
X15448753Y-17509936D01*
X15448753Y-17509936D02*
X15448753Y-17528984D01*
X15572562Y-17414698D02*
X15553515Y-17405174D01*
X15553515Y-17405174D02*
X15543991Y-17395650D01*
X15543991Y-17395650D02*
X15534467Y-17376603D01*
X15534467Y-17376603D02*
X15534467Y-17367079D01*
X15534467Y-17367079D02*
X15543991Y-17348031D01*
X15543991Y-17348031D02*
X15553515Y-17338508D01*
X15553515Y-17338508D02*
X15572562Y-17328984D01*
X15572562Y-17328984D02*
X15610658Y-17328984D01*
X15610658Y-17328984D02*
X15629705Y-17338508D01*
X15629705Y-17338508D02*
X15639229Y-17348031D01*
X15639229Y-17348031D02*
X15648753Y-17367079D01*
X15648753Y-17367079D02*
X15648753Y-17376603D01*
X15648753Y-17376603D02*
X15639229Y-17395650D01*
X15639229Y-17395650D02*
X15629705Y-17405174D01*
X15629705Y-17405174D02*
X15610658Y-17414698D01*
X15610658Y-17414698D02*
X15572562Y-17414698D01*
X15572562Y-17414698D02*
X15553515Y-17424222D01*
X15553515Y-17424222D02*
X15543991Y-17433746D01*
X15543991Y-17433746D02*
X15534467Y-17452793D01*
X15534467Y-17452793D02*
X15534467Y-17490889D01*
X15534467Y-17490889D02*
X15543991Y-17509936D01*
X15543991Y-17509936D02*
X15553515Y-17519460D01*
X15553515Y-17519460D02*
X15572562Y-17528984D01*
X15572562Y-17528984D02*
X15610658Y-17528984D01*
X15610658Y-17528984D02*
X15629705Y-17519460D01*
X15629705Y-17519460D02*
X15639229Y-17509936D01*
X15639229Y-17509936D02*
X15648753Y-17490889D01*
X15648753Y-17490889D02*
X15648753Y-17452793D01*
X15648753Y-17452793D02*
X15639229Y-17433746D01*
X15639229Y-17433746D02*
X15629705Y-17424222D01*
X15629705Y-17424222D02*
X15610658Y-17414698D01*
X15772562Y-17328984D02*
X15791610Y-17328984D01*
X15791610Y-17328984D02*
X15810658Y-17338508D01*
X15810658Y-17338508D02*
X15820182Y-17348031D01*
X15820182Y-17348031D02*
X15829705Y-17367079D01*
X15829705Y-17367079D02*
X15839229Y-17405174D01*
X15839229Y-17405174D02*
X15839229Y-17452793D01*
X15839229Y-17452793D02*
X15829705Y-17490889D01*
X15829705Y-17490889D02*
X15820182Y-17509936D01*
X15820182Y-17509936D02*
X15810658Y-17519460D01*
X15810658Y-17519460D02*
X15791610Y-17528984D01*
X15791610Y-17528984D02*
X15772562Y-17528984D01*
X15772562Y-17528984D02*
X15753515Y-17519460D01*
X15753515Y-17519460D02*
X15743991Y-17509936D01*
X15743991Y-17509936D02*
X15734467Y-17490889D01*
X15734467Y-17490889D02*
X15724943Y-17452793D01*
X15724943Y-17452793D02*
X15724943Y-17405174D01*
X15724943Y-17405174D02*
X15734467Y-17367079D01*
X15734467Y-17367079D02*
X15743991Y-17348031D01*
X15743991Y-17348031D02*
X15753515Y-17338508D01*
X15753515Y-17338508D02*
X15772562Y-17328984D01*
X15963039Y-17328984D02*
X15982086Y-17328984D01*
X15982086Y-17328984D02*
X16001134Y-17338508D01*
X16001134Y-17338508D02*
X16010658Y-17348031D01*
X16010658Y-17348031D02*
X16020182Y-17367079D01*
X16020182Y-17367079D02*
X16029705Y-17405174D01*
X16029705Y-17405174D02*
X16029705Y-17452793D01*
X16029705Y-17452793D02*
X16020182Y-17490889D01*
X16020182Y-17490889D02*
X16010658Y-17509936D01*
X16010658Y-17509936D02*
X16001134Y-17519460D01*
X16001134Y-17519460D02*
X15982086Y-17528984D01*
X15982086Y-17528984D02*
X15963039Y-17528984D01*
X15963039Y-17528984D02*
X15943991Y-17519460D01*
X15943991Y-17519460D02*
X15934467Y-17509936D01*
X15934467Y-17509936D02*
X15924943Y-17490889D01*
X15924943Y-17490889D02*
X15915420Y-17452793D01*
X15915420Y-17452793D02*
X15915420Y-17405174D01*
X15915420Y-17405174D02*
X15924943Y-17367079D01*
X15924943Y-17367079D02*
X15934467Y-17348031D01*
X15934467Y-17348031D02*
X15943991Y-17338508D01*
X15943991Y-17338508D02*
X15963039Y-17328984D01*
X16115420Y-17528984D02*
X16115420Y-17395650D01*
X16115420Y-17414698D02*
X16124943Y-17405174D01*
X16124943Y-17405174D02*
X16143991Y-17395650D01*
X16143991Y-17395650D02*
X16172563Y-17395650D01*
X16172563Y-17395650D02*
X16191610Y-17405174D01*
X16191610Y-17405174D02*
X16201134Y-17424222D01*
X16201134Y-17424222D02*
X16201134Y-17528984D01*
X16201134Y-17424222D02*
X16210658Y-17405174D01*
X16210658Y-17405174D02*
X16229705Y-17395650D01*
X16229705Y-17395650D02*
X16258277Y-17395650D01*
X16258277Y-17395650D02*
X16277324Y-17405174D01*
X16277324Y-17405174D02*
X16286848Y-17424222D01*
X16286848Y-17424222D02*
X16286848Y-17528984D01*
X16382086Y-17528984D02*
X16382086Y-17395650D01*
X16382086Y-17414698D02*
X16391610Y-17405174D01*
X16391610Y-17405174D02*
X16410658Y-17395650D01*
X16410658Y-17395650D02*
X16439229Y-17395650D01*
X16439229Y-17395650D02*
X16458277Y-17405174D01*
X16458277Y-17405174D02*
X16467801Y-17424222D01*
X16467801Y-17424222D02*
X16467801Y-17528984D01*
X16467801Y-17424222D02*
X16477324Y-17405174D01*
X16477324Y-17405174D02*
X16496372Y-17395650D01*
X16496372Y-17395650D02*
X16524943Y-17395650D01*
X16524943Y-17395650D02*
X16543991Y-17405174D01*
X16543991Y-17405174D02*
X16553515Y-17424222D01*
X16553515Y-17424222D02*
X16553515Y-17528984D01*
X16943991Y-17319460D02*
X16772563Y-17576603D01*
X17201134Y-17328984D02*
X17220182Y-17328984D01*
X17220182Y-17328984D02*
X17239229Y-17338508D01*
X17239229Y-17338508D02*
X17248753Y-17348031D01*
X17248753Y-17348031D02*
X17258277Y-17367079D01*
X17258277Y-17367079D02*
X17267801Y-17405174D01*
X17267801Y-17405174D02*
X17267801Y-17452793D01*
X17267801Y-17452793D02*
X17258277Y-17490889D01*
X17258277Y-17490889D02*
X17248753Y-17509936D01*
X17248753Y-17509936D02*
X17239229Y-17519460D01*
X17239229Y-17519460D02*
X17220182Y-17528984D01*
X17220182Y-17528984D02*
X17201134Y-17528984D01*
X17201134Y-17528984D02*
X17182087Y-17519460D01*
X17182087Y-17519460D02*
X17172563Y-17509936D01*
X17172563Y-17509936D02*
X17163039Y-17490889D01*
X17163039Y-17490889D02*
X17153515Y-17452793D01*
X17153515Y-17452793D02*
X17153515Y-17405174D01*
X17153515Y-17405174D02*
X17163039Y-17367079D01*
X17163039Y-17367079D02*
X17172563Y-17348031D01*
X17172563Y-17348031D02*
X17182087Y-17338508D01*
X17182087Y-17338508D02*
X17201134Y-17328984D01*
X17353515Y-17509936D02*
X17363039Y-17519460D01*
X17363039Y-17519460D02*
X17353515Y-17528984D01*
X17353515Y-17528984D02*
X17343991Y-17519460D01*
X17343991Y-17519460D02*
X17353515Y-17509936D01*
X17353515Y-17509936D02*
X17353515Y-17528984D01*
X17553515Y-17528984D02*
X17439229Y-17528984D01*
X17496372Y-17528984D02*
X17496372Y-17328984D01*
X17496372Y-17328984D02*
X17477325Y-17357555D01*
X17477325Y-17357555D02*
X17458277Y-17376603D01*
X17458277Y-17376603D02*
X17439229Y-17386127D01*
X17743991Y-17528984D02*
X17629706Y-17528984D01*
X17686848Y-17528984D02*
X17686848Y-17328984D01*
X17686848Y-17328984D02*
X17667801Y-17357555D01*
X17667801Y-17357555D02*
X17648753Y-17376603D01*
X17648753Y-17376603D02*
X17629706Y-17386127D01*
X17867801Y-17328984D02*
X17886849Y-17328984D01*
X17886849Y-17328984D02*
X17905896Y-17338508D01*
X17905896Y-17338508D02*
X17915420Y-17348031D01*
X17915420Y-17348031D02*
X17924944Y-17367079D01*
X17924944Y-17367079D02*
X17934468Y-17405174D01*
X17934468Y-17405174D02*
X17934468Y-17452793D01*
X17934468Y-17452793D02*
X17924944Y-17490889D01*
X17924944Y-17490889D02*
X17915420Y-17509936D01*
X17915420Y-17509936D02*
X17905896Y-17519460D01*
X17905896Y-17519460D02*
X17886849Y-17528984D01*
X17886849Y-17528984D02*
X17867801Y-17528984D01*
X17867801Y-17528984D02*
X17848753Y-17519460D01*
X17848753Y-17519460D02*
X17839229Y-17509936D01*
X17839229Y-17509936D02*
X17829706Y-17490889D01*
X17829706Y-17490889D02*
X17820182Y-17452793D01*
X17820182Y-17452793D02*
X17820182Y-17405174D01*
X17820182Y-17405174D02*
X17829706Y-17367079D01*
X17829706Y-17367079D02*
X17839229Y-17348031D01*
X17839229Y-17348031D02*
X17848753Y-17338508D01*
X17848753Y-17338508D02*
X17867801Y-17328984D01*
X18010658Y-17348031D02*
X18020182Y-17338508D01*
X18020182Y-17338508D02*
X18039229Y-17328984D01*
X18039229Y-17328984D02*
X18086849Y-17328984D01*
X18086849Y-17328984D02*
X18105896Y-17338508D01*
X18105896Y-17338508D02*
X18115420Y-17348031D01*
X18115420Y-17348031D02*
X18124944Y-17367079D01*
X18124944Y-17367079D02*
X18124944Y-17386127D01*
X18124944Y-17386127D02*
X18115420Y-17414698D01*
X18115420Y-17414698D02*
X18001134Y-17528984D01*
X18001134Y-17528984D02*
X18124944Y-17528984D01*
X18201134Y-17328984D02*
X18201134Y-17367079D01*
X18277325Y-17328984D02*
X18277325Y-17367079D01*
X18572563Y-17605174D02*
X18563039Y-17595650D01*
X18563039Y-17595650D02*
X18543991Y-17567079D01*
X18543991Y-17567079D02*
X18534468Y-17548031D01*
X18534468Y-17548031D02*
X18524944Y-17519460D01*
X18524944Y-17519460D02*
X18515420Y-17471841D01*
X18515420Y-17471841D02*
X18515420Y-17433746D01*
X18515420Y-17433746D02*
X18524944Y-17386127D01*
X18524944Y-17386127D02*
X18534468Y-17357555D01*
X18534468Y-17357555D02*
X18543991Y-17338508D01*
X18543991Y-17338508D02*
X18563039Y-17309936D01*
X18563039Y-17309936D02*
X18572563Y-17300412D01*
X18639230Y-17348031D02*
X18648753Y-17338508D01*
X18648753Y-17338508D02*
X18667801Y-17328984D01*
X18667801Y-17328984D02*
X18715420Y-17328984D01*
X18715420Y-17328984D02*
X18734468Y-17338508D01*
X18734468Y-17338508D02*
X18743991Y-17348031D01*
X18743991Y-17348031D02*
X18753515Y-17367079D01*
X18753515Y-17367079D02*
X18753515Y-17386127D01*
X18753515Y-17386127D02*
X18743991Y-17414698D01*
X18743991Y-17414698D02*
X18629706Y-17528984D01*
X18629706Y-17528984D02*
X18753515Y-17528984D01*
X18991611Y-17528984D02*
X18991611Y-17328984D01*
X19077325Y-17528984D02*
X19077325Y-17424222D01*
X19077325Y-17424222D02*
X19067801Y-17405174D01*
X19067801Y-17405174D02*
X19048753Y-17395650D01*
X19048753Y-17395650D02*
X19020182Y-17395650D01*
X19020182Y-17395650D02*
X19001134Y-17405174D01*
X19001134Y-17405174D02*
X18991611Y-17414698D01*
X19201134Y-17528984D02*
X19182087Y-17519460D01*
X19182087Y-17519460D02*
X19172563Y-17509936D01*
X19172563Y-17509936D02*
X19163039Y-17490889D01*
X19163039Y-17490889D02*
X19163039Y-17433746D01*
X19163039Y-17433746D02*
X19172563Y-17414698D01*
X19172563Y-17414698D02*
X19182087Y-17405174D01*
X19182087Y-17405174D02*
X19201134Y-17395650D01*
X19201134Y-17395650D02*
X19229706Y-17395650D01*
X19229706Y-17395650D02*
X19248753Y-17405174D01*
X19248753Y-17405174D02*
X19258277Y-17414698D01*
X19258277Y-17414698D02*
X19267801Y-17433746D01*
X19267801Y-17433746D02*
X19267801Y-17490889D01*
X19267801Y-17490889D02*
X19258277Y-17509936D01*
X19258277Y-17509936D02*
X19248753Y-17519460D01*
X19248753Y-17519460D02*
X19229706Y-17528984D01*
X19229706Y-17528984D02*
X19201134Y-17528984D01*
X19382087Y-17528984D02*
X19363039Y-17519460D01*
X19363039Y-17519460D02*
X19353515Y-17500412D01*
X19353515Y-17500412D02*
X19353515Y-17328984D01*
X19534468Y-17519460D02*
X19515420Y-17528984D01*
X19515420Y-17528984D02*
X19477325Y-17528984D01*
X19477325Y-17528984D02*
X19458277Y-17519460D01*
X19458277Y-17519460D02*
X19448753Y-17500412D01*
X19448753Y-17500412D02*
X19448753Y-17424222D01*
X19448753Y-17424222D02*
X19458277Y-17405174D01*
X19458277Y-17405174D02*
X19477325Y-17395650D01*
X19477325Y-17395650D02*
X19515420Y-17395650D01*
X19515420Y-17395650D02*
X19534468Y-17405174D01*
X19534468Y-17405174D02*
X19543992Y-17424222D01*
X19543992Y-17424222D02*
X19543992Y-17443270D01*
X19543992Y-17443270D02*
X19448753Y-17462317D01*
X19620182Y-17519460D02*
X19639230Y-17528984D01*
X19639230Y-17528984D02*
X19677325Y-17528984D01*
X19677325Y-17528984D02*
X19696373Y-17519460D01*
X19696373Y-17519460D02*
X19705896Y-17500412D01*
X19705896Y-17500412D02*
X19705896Y-17490889D01*
X19705896Y-17490889D02*
X19696373Y-17471841D01*
X19696373Y-17471841D02*
X19677325Y-17462317D01*
X19677325Y-17462317D02*
X19648753Y-17462317D01*
X19648753Y-17462317D02*
X19629706Y-17452793D01*
X19629706Y-17452793D02*
X19620182Y-17433746D01*
X19620182Y-17433746D02*
X19620182Y-17424222D01*
X19620182Y-17424222D02*
X19629706Y-17405174D01*
X19629706Y-17405174D02*
X19648753Y-17395650D01*
X19648753Y-17395650D02*
X19677325Y-17395650D01*
X19677325Y-17395650D02*
X19696373Y-17405174D01*
X19772563Y-17605174D02*
X19782087Y-17595650D01*
X19782087Y-17595650D02*
X19801134Y-17567079D01*
X19801134Y-17567079D02*
X19810658Y-17548031D01*
X19810658Y-17548031D02*
X19820182Y-17519460D01*
X19820182Y-17519460D02*
X19829706Y-17471841D01*
X19829706Y-17471841D02*
X19829706Y-17433746D01*
X19829706Y-17433746D02*
X19820182Y-17386127D01*
X19820182Y-17386127D02*
X19810658Y-17357555D01*
X19810658Y-17357555D02*
X19801134Y-17338508D01*
X19801134Y-17338508D02*
X19782087Y-17309936D01*
X19782087Y-17309936D02*
X19772563Y-17300412D01*
X20134468Y-17605174D02*
X20124944Y-17595650D01*
X20124944Y-17595650D02*
X20105896Y-17567079D01*
X20105896Y-17567079D02*
X20096373Y-17548031D01*
X20096373Y-17548031D02*
X20086849Y-17519460D01*
X20086849Y-17519460D02*
X20077325Y-17471841D01*
X20077325Y-17471841D02*
X20077325Y-17433746D01*
X20077325Y-17433746D02*
X20086849Y-17386127D01*
X20086849Y-17386127D02*
X20096373Y-17357555D01*
X20096373Y-17357555D02*
X20105896Y-17338508D01*
X20105896Y-17338508D02*
X20124944Y-17309936D01*
X20124944Y-17309936D02*
X20134468Y-17300412D01*
X20210658Y-17395650D02*
X20210658Y-17528984D01*
X20210658Y-17414698D02*
X20220182Y-17405174D01*
X20220182Y-17405174D02*
X20239230Y-17395650D01*
X20239230Y-17395650D02*
X20267801Y-17395650D01*
X20267801Y-17395650D02*
X20286849Y-17405174D01*
X20286849Y-17405174D02*
X20296373Y-17424222D01*
X20296373Y-17424222D02*
X20296373Y-17528984D01*
X20420182Y-17528984D02*
X20401134Y-17519460D01*
X20401134Y-17519460D02*
X20391611Y-17509936D01*
X20391611Y-17509936D02*
X20382087Y-17490889D01*
X20382087Y-17490889D02*
X20382087Y-17433746D01*
X20382087Y-17433746D02*
X20391611Y-17414698D01*
X20391611Y-17414698D02*
X20401134Y-17405174D01*
X20401134Y-17405174D02*
X20420182Y-17395650D01*
X20420182Y-17395650D02*
X20448754Y-17395650D01*
X20448754Y-17395650D02*
X20467801Y-17405174D01*
X20467801Y-17405174D02*
X20477325Y-17414698D01*
X20477325Y-17414698D02*
X20486849Y-17433746D01*
X20486849Y-17433746D02*
X20486849Y-17490889D01*
X20486849Y-17490889D02*
X20477325Y-17509936D01*
X20477325Y-17509936D02*
X20467801Y-17519460D01*
X20467801Y-17519460D02*
X20448754Y-17528984D01*
X20448754Y-17528984D02*
X20420182Y-17528984D01*
X20543992Y-17395650D02*
X20620182Y-17395650D01*
X20572563Y-17328984D02*
X20572563Y-17500412D01*
X20572563Y-17500412D02*
X20582087Y-17519460D01*
X20582087Y-17519460D02*
X20601134Y-17528984D01*
X20601134Y-17528984D02*
X20620182Y-17528984D01*
X20839230Y-17395650D02*
X20839230Y-17595650D01*
X20839230Y-17405174D02*
X20858277Y-17395650D01*
X20858277Y-17395650D02*
X20896373Y-17395650D01*
X20896373Y-17395650D02*
X20915420Y-17405174D01*
X20915420Y-17405174D02*
X20924944Y-17414698D01*
X20924944Y-17414698D02*
X20934468Y-17433746D01*
X20934468Y-17433746D02*
X20934468Y-17490889D01*
X20934468Y-17490889D02*
X20924944Y-17509936D01*
X20924944Y-17509936D02*
X20915420Y-17519460D01*
X20915420Y-17519460D02*
X20896373Y-17528984D01*
X20896373Y-17528984D02*
X20858277Y-17528984D01*
X20858277Y-17528984D02*
X20839230Y-17519460D01*
X21048754Y-17528984D02*
X21029706Y-17519460D01*
X21029706Y-17519460D02*
X21020182Y-17500412D01*
X21020182Y-17500412D02*
X21020182Y-17328984D01*
X21210658Y-17528984D02*
X21210658Y-17424222D01*
X21210658Y-17424222D02*
X21201135Y-17405174D01*
X21201135Y-17405174D02*
X21182087Y-17395650D01*
X21182087Y-17395650D02*
X21143992Y-17395650D01*
X21143992Y-17395650D02*
X21124944Y-17405174D01*
X21210658Y-17519460D02*
X21191611Y-17528984D01*
X21191611Y-17528984D02*
X21143992Y-17528984D01*
X21143992Y-17528984D02*
X21124944Y-17519460D01*
X21124944Y-17519460D02*
X21115420Y-17500412D01*
X21115420Y-17500412D02*
X21115420Y-17481365D01*
X21115420Y-17481365D02*
X21124944Y-17462317D01*
X21124944Y-17462317D02*
X21143992Y-17452793D01*
X21143992Y-17452793D02*
X21191611Y-17452793D01*
X21191611Y-17452793D02*
X21210658Y-17443270D01*
X21277325Y-17395650D02*
X21353515Y-17395650D01*
X21305896Y-17328984D02*
X21305896Y-17500412D01*
X21305896Y-17500412D02*
X21315420Y-17519460D01*
X21315420Y-17519460D02*
X21334468Y-17528984D01*
X21334468Y-17528984D02*
X21353515Y-17528984D01*
X21496373Y-17519460D02*
X21477325Y-17528984D01*
X21477325Y-17528984D02*
X21439230Y-17528984D01*
X21439230Y-17528984D02*
X21420182Y-17519460D01*
X21420182Y-17519460D02*
X21410658Y-17500412D01*
X21410658Y-17500412D02*
X21410658Y-17424222D01*
X21410658Y-17424222D02*
X21420182Y-17405174D01*
X21420182Y-17405174D02*
X21439230Y-17395650D01*
X21439230Y-17395650D02*
X21477325Y-17395650D01*
X21477325Y-17395650D02*
X21496373Y-17405174D01*
X21496373Y-17405174D02*
X21505896Y-17424222D01*
X21505896Y-17424222D02*
X21505896Y-17443270D01*
X21505896Y-17443270D02*
X21410658Y-17462317D01*
X21677325Y-17528984D02*
X21677325Y-17328984D01*
X21677325Y-17519460D02*
X21658277Y-17528984D01*
X21658277Y-17528984D02*
X21620182Y-17528984D01*
X21620182Y-17528984D02*
X21601135Y-17519460D01*
X21601135Y-17519460D02*
X21591611Y-17509936D01*
X21591611Y-17509936D02*
X21582087Y-17490889D01*
X21582087Y-17490889D02*
X21582087Y-17433746D01*
X21582087Y-17433746D02*
X21591611Y-17414698D01*
X21591611Y-17414698D02*
X21601135Y-17405174D01*
X21601135Y-17405174D02*
X21620182Y-17395650D01*
X21620182Y-17395650D02*
X21658277Y-17395650D01*
X21658277Y-17395650D02*
X21677325Y-17405174D01*
X21753516Y-17605174D02*
X21763039Y-17595650D01*
X21763039Y-17595650D02*
X21782087Y-17567079D01*
X21782087Y-17567079D02*
X21791611Y-17548031D01*
X21791611Y-17548031D02*
X21801135Y-17519460D01*
X21801135Y-17519460D02*
X21810658Y-17471841D01*
X21810658Y-17471841D02*
X21810658Y-17433746D01*
X21810658Y-17433746D02*
X21801135Y-17386127D01*
X21801135Y-17386127D02*
X21791611Y-17357555D01*
X21791611Y-17357555D02*
X21782087Y-17338508D01*
X21782087Y-17338508D02*
X21763039Y-17309936D01*
X21763039Y-17309936D02*
X21753516Y-17300412D01*
M02*
